P3
100 50
255
0 0 0 0 0 0 0 0 0 0 0 0 0 0 0 0 0 0 0 0 0 0 0 0 0 0 0 0 0 0 0 0 0 0 0 
0 0 0 0 0 0 0 0 0 0 0 0 0 0 0 0 0 0 0 0 0 0 0 0 0 0 0 0 0 0 0 0 0 0 0 0 
0 0 0 0 0 0 0 0 0 0 0 0 0 0 0 0 0 0 0 0 0 0 0 0 0 0 0 0 0 0 0 0 0 0 0 0 
0 0 0 0 0 0 0 0 0 0 0 0 0 0 0 0 0 0 0 0 0 0 0 0 0 0 0 0 0 0 0 0 0 0 0 0 
0 0 0 0 0 0 0 0 0 0 0 0 0 0 0 0 0 0 0 0 0 0 0 0 0 0 0 0 0 0 0 0 0 0 0 0 
0 0 0 0 0 0 0 0 0 0 0 0 0 0 0 0 0 0 0 0 0 0 0 0 0 0 0 0 0 0 0 0 0 0 0 0 
0 0 0 0 0 0 0 0 0 0 0 0 0 0 0 0 0 0 0 0 0 0 0 0 0 0 0 0 0 0 0 0 0 0 0 0 
0 0 0 0 0 0 0 0 0 0 0 0 0 0 0 0 0 0 0 0 0 0 0 0 0 0 0 0 0 0 0 0 0 0 0 0 
0 0 0 0 0 0 0 0 0 0 0 0 0 
0 0 0 0 0 0 0 0 0 0 0 0 0 0 0 0 0 0 0 0 0 0 0 0 0 0 0 0 0 0 0 0 0 0 0 
0 0 0 0 0 0 0 0 0 0 0 0 0 0 0 0 0 0 0 0 0 0 0 0 0 0 0 0 0 0 0 0 0 0 0 0 
0 0 0 0 0 0 0 0 0 0 0 0 0 0 0 0 0 0 0 0 0 0 0 0 0 0 0 0 0 0 0 0 0 0 0 0 
0 0 0 0 0 0 0 0 0 0 0 0 0 0 0 0 0 0 0 0 0 0 0 0 0 0 0 0 0 0 0 0 0 0 0 0 
0 0 0 0 0 0 0 0 0 0 0 0 0 0 0 0 0 0 0 0 0 0 0 0 0 0 0 0 0 0 0 0 0 0 0 0 
0 0 0 0 0 0 0 0 0 0 0 0 0 0 0 0 0 0 0 0 0 0 0 0 0 0 0 0 0 0 0 0 0 0 0 0 
0 0 0 0 0 0 0 0 0 0 0 0 0 0 0 0 0 0 0 0 0 0 0 0 0 0 0 0 0 0 0 0 0 0 0 0 
0 0 0 0 0 0 0 0 0 0 0 0 0 0 0 0 0 0 0 0 0 0 0 0 0 0 0 0 0 0 0 0 0 0 0 0 
0 0 0 0 0 0 0 0 0 0 0 0 0 
0 0 0 0 0 0 0 0 0 0 0 0 0 0 0 0 0 0 0 0 0 0 0 0 0 0 0 0 0 0 0 0 0 0 0 
0 0 0 0 0 0 0 0 0 0 0 0 0 0 0 0 0 0 0 0 0 0 0 0 0 0 0 0 0 0 0 0 0 0 0 0 
0 0 0 0 0 0 0 0 0 0 0 0 0 0 0 0 0 0 0 0 0 0 0 0 0 0 0 0 0 0 0 0 0 0 0 0 
0 0 0 0 0 0 0 0 0 0 0 0 0 0 0 0 0 0 0 0 0 0 0 0 0 0 0 0 0 0 0 0 0 0 0 0 
0 0 0 0 0 0 0 0 0 0 0 0 0 0 0 0 0 0 0 0 0 0 0 0 0 0 0 0 0 0 0 0 0 0 0 0 
0 0 0 0 0 0 0 0 0 0 0 0 0 0 0 0 0 0 0 0 0 0 0 0 0 0 0 0 0 0 0 0 0 0 0 0 
0 0 0 0 0 0 0 0 0 0 0 0 0 0 0 0 0 0 0 0 0 0 0 0 0 0 0 0 0 0 0 0 0 0 0 0 
0 0 0 0 0 0 0 0 0 0 0 0 0 0 0 0 0 0 0 0 0 0 0 0 0 0 0 0 0 0 0 0 0 0 0 0 
0 0 0 0 0 0 0 0 0 0 0 0 0 
0 0 0 0 0 0 0 0 0 0 0 0 0 0 0 0 0 0 0 0 0 0 0 0 0 0 0 0 0 0 0 0 0 0 0 
0 0 0 0 0 0 0 0 0 0 0 0 0 0 0 0 0 0 0 0 0 0 0 0 0 0 0 0 0 0 0 0 0 0 0 0 
0 0 0 0 0 0 0 0 0 0 0 0 0 0 0 0 0 0 0 0 0 0 0 0 0 0 0 0 0 0 0 0 0 0 0 0 
0 0 0 0 0 0 0 0 0 0 0 0 0 0 0 0 0 0 0 0 0 0 0 0 0 0 0 0 0 0 0 0 0 0 0 0 
0 0 0 0 0 0 0 0 0 0 0 0 0 0 0 0 0 0 0 0 0 0 0 0 0 0 0 0 0 0 0 0 0 0 0 0 
0 0 0 0 0 0 0 0 0 0 0 0 0 0 0 0 0 0 0 0 0 0 0 0 0 0 0 0 0 0 0 0 0 0 0 0 
0 0 0 0 0 0 0 0 0 0 0 0 0 0 0 0 0 0 0 0 0 0 0 0 0 0 0 0 0 0 0 0 0 0 0 0 
0 0 0 0 0 0 0 0 0 0 0 0 0 0 0 0 0 0 0 0 0 0 0 0 0 0 0 0 0 0 0 0 0 0 0 0 
0 0 0 0 0 0 0 0 0 0 0 0 0 
0 0 0 0 0 0 0 0 0 0 0 0 0 0 0 0 0 0 0 0 0 0 0 0 0 0 0 0 0 0 0 0 0 0 0 
0 0 0 0 0 0 0 0 0 0 0 0 0 0 0 0 0 0 0 0 0 0 0 0 0 0 0 0 0 0 0 0 0 0 0 0 
0 0 0 0 0 0 0 0 0 0 0 0 0 0 0 0 0 0 0 0 0 0 0 0 0 0 0 0 0 0 0 0 0 0 0 0 
0 0 0 0 0 0 0 0 0 0 0 0 0 0 0 0 0 0 0 0 0 0 0 0 0 0 0 0 0 0 0 0 0 0 0 0 
0 0 0 0 0 0 0 0 0 0 0 0 0 0 0 0 0 0 0 0 0 0 0 0 0 0 0 0 0 0 0 0 0 0 0 0 
0 0 0 0 0 0 0 0 0 0 0 0 0 0 0 0 0 0 0 0 0 0 0 0 0 0 0 0 0 0 0 0 0 0 0 0 
0 0 0 0 0 0 0 0 0 0 0 0 0 0 0 0 0 0 0 0 0 0 0 0 0 0 0 0 0 0 0 0 0 0 0 0 
0 0 0 0 0 0 0 0 0 0 0 0 0 0 0 0 0 0 0 0 0 0 0 0 0 0 0 0 0 0 0 0 0 0 0 0 
0 0 0 0 0 0 0 0 0 0 0 0 0 
0 0 0 0 0 0 0 0 0 0 0 0 0 0 0 0 0 0 0 0 0 0 0 0 0 0 0 0 0 0 0 0 0 0 0 
0 0 0 0 0 0 0 0 0 0 0 0 0 0 0 0 0 0 0 0 0 0 0 0 0 0 0 0 0 0 0 0 0 0 0 0 
0 0 0 0 0 0 0 0 0 0 0 0 0 0 0 0 0 0 0 0 0 0 0 0 0 0 0 0 0 0 0 0 0 0 0 0 
0 0 0 0 0 0 0 0 0 0 0 0 0 0 0 0 0 0 0 0 0 0 0 0 0 0 0 0 0 0 0 0 0 0 0 0 
0 0 0 0 0 0 0 0 0 0 0 0 0 0 0 0 0 0 0 0 0 0 0 0 0 0 0 0 0 0 0 0 0 0 0 0 
0 0 0 0 0 0 0 0 0 0 0 0 0 0 0 0 0 0 0 0 0 0 0 0 0 0 0 0 0 0 0 0 0 0 0 0 
0 0 0 0 0 0 0 0 0 0 0 0 0 0 0 0 0 0 0 0 0 0 0 0 0 0 0 0 0 0 0 0 0 0 0 0 
0 0 0 0 0 0 0 0 0 0 0 0 0 0 0 0 0 0 0 0 0 0 0 0 0 0 0 0 0 0 0 0 0 0 0 0 
0 0 0 0 0 0 0 0 0 0 0 0 0 
0 0 0 0 0 0 0 0 0 0 0 0 0 0 0 0 0 0 0 0 0 0 0 0 0 0 0 0 0 0 0 0 0 0 0 
0 0 0 0 0 0 0 0 0 0 0 0 0 0 0 0 0 0 0 0 0 0 0 0 0 0 0 0 0 0 0 0 0 0 0 0 
0 0 0 0 0 0 0 0 0 0 0 0 0 0 0 0 0 0 0 0 0 0 0 0 0 0 0 0 0 0 0 0 0 0 0 0 
0 0 0 0 0 0 0 0 0 0 0 0 0 0 0 0 0 0 0 0 0 0 0 0 0 0 0 0 0 0 0 0 0 0 0 0 
0 0 0 0 0 0 0 0 0 0 0 0 0 0 0 0 0 0 0 0 0 0 0 0 0 0 0 0 0 0 0 0 0 0 0 0 
0 0 0 0 0 0 0 0 0 0 0 0 0 0 0 0 0 0 0 0 0 0 0 0 0 0 0 0 0 0 0 0 0 0 0 0 
0 0 0 0 0 0 0 0 0 0 0 0 0 0 0 0 0 0 0 0 0 0 0 0 0 0 0 0 0 0 0 0 0 0 0 0 
0 0 0 0 0 0 0 0 0 0 0 0 0 0 0 0 0 0 0 0 0 0 0 0 0 0 0 0 0 0 0 0 0 0 0 0 
0 0 0 0 0 0 0 0 0 0 0 0 0 
0 0 0 0 0 0 0 0 0 0 0 0 0 0 0 0 0 0 0 0 0 0 0 0 0 0 0 0 0 0 0 0 0 0 0 
0 0 0 0 0 0 0 0 0 0 0 0 0 0 0 0 0 0 0 0 0 0 0 0 0 0 0 0 0 0 0 0 0 0 0 0 
0 0 0 0 0 0 0 0 0 0 0 0 0 0 0 0 0 0 0 0 0 0 0 0 0 0 0 0 0 0 0 0 0 0 0 0 
0 0 0 0 0 0 0 0 0 0 0 0 0 0 0 0 0 0 0 0 0 0 0 0 0 0 0 0 0 0 0 0 0 0 0 0 
0 0 0 0 0 0 0 0 0 0 0 0 0 0 0 0 0 0 0 0 0 0 0 0 0 0 0 0 0 0 0 0 0 0 0 0 
0 0 0 0 0 0 0 0 0 0 0 0 0 0 0 0 0 0 0 0 0 0 0 0 0 0 0 0 0 0 0 0 0 0 0 0 
0 0 0 0 0 0 0 0 0 0 0 0 0 0 0 0 0 0 0 0 0 0 0 0 0 0 0 0 0 0 0 0 0 0 0 0 
0 0 0 0 0 0 0 0 0 0 0 0 0 0 0 0 0 0 0 0 0 0 0 0 0 0 0 0 0 0 0 0 0 0 0 0 
0 0 0 0 0 0 0 0 0 0 0 0 0 
0 0 0 0 0 0 0 0 0 0 0 0 0 0 0 0 0 0 0 0 0 0 0 0 0 0 0 0 0 0 0 0 0 0 0 
0 0 0 0 0 0 0 0 0 0 0 0 0 0 0 0 0 0 0 0 0 0 0 0 0 0 0 0 0 0 0 0 0 0 0 0 
0 0 0 0 140 140 140 132 132 132 121 121 121 0 0 0 0 0 0 0 0 0 0 0 0 0 0 
0 0 0 0 0 0 0 0 0 0 0 0 0 0 0 0 0 0 0 0 0 0 0 0 0 0 0 0 0 0 0 0 0 0 0 0 
0 0 0 0 0 0 0 0 0 0 0 0 0 0 0 0 0 0 0 0 0 0 0 0 0 0 0 0 0 0 0 0 0 0 0 0 
0 0 0 0 0 0 0 0 0 0 0 0 0 0 0 0 0 0 0 0 0 0 0 0 0 0 0 0 0 0 0 0 0 0 0 0 
0 0 0 0 0 0 0 0 0 0 138 138 138 137 137 137 133 133 133 0 0 0 0 0 0 0 0 
0 0 0 0 0 0 0 0 0 0 0 0 0 0 0 0 0 0 0 0 0 0 0 0 0 0 0 0 0 0 0 0 0 0 0 0 
0 0 0 0 0 0 0 0 0 0 0 0 0 0 0 0 0 0 0 0 0 0 0 0 0 0 0 0 0 0 0 
0 0 0 0 0 0 0 0 0 0 0 0 0 0 0 0 0 0 0 0 0 0 0 0 0 0 0 0 0 0 0 0 0 0 0 
0 0 0 0 0 0 0 0 0 0 0 0 0 0 0 0 0 0 0 0 0 0 0 0 0 0 0 0 0 0 0 0 0 0 0 0 
0 158 158 158 152 152 152 144 144 144 136 136 136 127 127 127 117 117 
117 105 105 105 89 89 89 0 0 0 0 0 0 0 0 0 0 0 0 0 0 0 0 0 0 0 0 0 0 0 0 
0 0 0 0 0 0 0 0 0 0 0 0 0 0 0 0 0 0 0 0 0 0 0 0 0 0 0 0 0 0 0 0 0 0 0 0 
0 0 0 0 0 0 0 0 0 0 0 0 0 0 0 0 0 0 0 0 0 0 0 0 0 0 0 0 0 0 0 0 0 0 0 0 
0 0 0 0 0 0 0 0 0 0 0 0 160 160 160 166 166 166 168 168 168 167 167 167 
164 164 164 160 160 160 155 155 155 149 149 149 0 0 0 0 0 0 0 0 0 0 0 0 0 
0 0 0 0 0 0 0 0 0 0 0 0 0 0 0 0 0 0 0 0 0 0 0 0 0 0 0 0 0 0 0 0 0 0 0 0 
0 0 0 0 0 0 0 0 0 0 0 0 0 0 0 0 0 0 0 0 0 0 0 
0 0 0 0 0 0 0 0 0 0 0 0 0 0 0 0 0 0 0 0 0 0 0 0 0 0 0 0 0 0 0 0 0 0 0 
0 0 0 0 0 0 0 0 0 0 0 0 0 0 0 0 0 0 0 0 0 0 0 0 0 0 0 0 0 0 0 0 0 0 0 0 
0 162 162 162 156 156 156 148 148 148 141 141 141 132 132 132 123 123 
123 113 113 113 102 102 102 89 89 89 73 73 73 0 0 0 0 0 0 0 0 0 0 0 0 0 0 
0 0 0 0 0 0 0 0 0 0 0 0 0 0 0 0 0 0 0 0 0 0 0 0 0 0 0 0 0 0 0 0 0 0 0 0 
0 0 0 0 0 0 0 0 0 0 0 0 0 0 0 0 0 0 0 0 0 0 0 0 0 0 0 0 0 0 0 0 0 0 0 0 
0 0 0 0 0 0 0 0 0 0 171 171 171 178 178 178 181 181 181 181 181 181 180 
180 180 178 178 178 174 174 174 170 170 170 165 165 165 159 159 159 0 0 0 
0 0 0 0 0 0 0 0 0 0 0 0 0 0 0 0 0 0 0 0 0 0 0 0 0 0 0 0 0 0 0 0 0 0 0 0 
0 0 0 0 0 0 0 0 0 0 0 0 0 0 0 0 0 0 0 0 0 0 0 0 0 0 0 0 0 0 0 0 0 
0 0 0 0 0 0 0 0 0 0 0 0 0 0 0 0 0 0 0 0 0 0 0 0 0 0 0 0 0 0 0 0 0 0 0 
0 0 0 0 0 0 0 0 0 0 0 0 0 0 0 0 0 0 0 0 0 0 0 0 0 0 0 0 0 0 0 0 0 0 170 
170 170 164 164 164 157 157 157 150 150 150 142 142 142 134 134 134 126 
126 126 117 117 117 107 107 107 96 96 96 83 83 83 68 68 68 45 45 45 0 0 0 
0 0 0 0 0 0 0 0 0 0 0 0 0 0 0 0 0 0 0 0 0 0 0 0 0 0 0 0 0 0 0 0 0 0 0 0 
0 0 0 0 0 0 0 0 0 0 0 0 0 0 0 0 0 0 0 0 0 0 0 0 0 0 0 0 0 0 0 0 0 0 0 0 
0 0 0 0 0 0 0 0 0 166 166 166 183 183 183 188 188 188 190 190 190 190 
190 190 189 189 189 187 187 187 184 184 184 180 180 180 176 176 176 171 
171 171 165 165 165 159 159 159 0 0 0 0 0 0 0 0 0 0 0 0 0 0 0 0 0 0 0 0 0 
0 0 0 0 0 0 0 0 0 0 0 0 0 0 0 0 0 0 0 0 0 0 0 0 0 0 0 0 0 0 0 0 0 0 0 0 
0 0 0 0 0 0 0 0 0 0 0 0 
0 0 0 0 0 0 0 0 0 0 0 0 0 0 0 0 0 0 0 0 0 0 0 0 0 0 0 0 0 0 0 0 0 0 0 
0 0 0 0 0 0 0 0 0 0 0 0 0 0 0 0 0 0 0 0 0 0 0 0 0 0 0 0 0 0 0 0 0 0 170 
170 170 163 163 163 157 157 157 150 150 150 143 143 143 135 135 135 127 
127 127 118 118 118 108 108 108 98 98 98 87 87 87 74 74 74 59 59 59 39 39 
39 0 0 0 0 0 0 0 0 0 0 0 0 0 0 0 0 0 0 0 0 0 0 0 0 0 0 0 0 0 0 0 0 0 0 0 
0 0 0 0 0 0 0 0 0 0 0 0 0 0 0 0 0 0 0 0 0 0 0 0 0 0 0 0 0 0 0 0 0 0 0 0 
0 0 0 0 0 0 0 176 176 176 188 188 188 193 193 193 196 196 196 196 196 
196 195 195 195 193 193 193 191 191 191 187 187 187 184 184 184 179 179 
179 174 174 174 169 169 169 162 162 162 0 0 0 0 0 0 0 0 0 0 0 0 0 0 0 0 0 
0 0 0 0 0 0 0 0 0 0 0 0 0 0 0 0 0 0 0 0 0 0 0 0 0 0 0 0 0 0 0 0 0 0 0 0 
0 0 0 0 0 0 0 0 0 0 0 0 0 0 0 0 
0 0 0 0 0 0 0 0 0 0 0 0 0 0 0 0 0 0 0 0 0 0 0 0 0 0 0 0 0 0 0 0 0 0 0 
0 0 0 0 0 0 0 0 0 0 0 0 0 0 0 0 0 0 0 0 0 0 0 0 0 0 0 0 0 0 0 0 0 0 169 
169 169 162 162 162 156 156 156 149 149 149 142 142 142 134 134 134 126 
126 126 118 118 118 109 109 109 99 99 99 88 88 88 77 77 77 64 64 64 49 49 
49 27 27 27 0 0 0 0 0 0 0 0 0 0 0 0 0 0 0 0 0 0 0 0 0 0 0 0 0 0 0 0 0 0 
0 0 0 0 0 0 0 0 0 0 0 0 0 0 0 0 0 0 0 0 0 0 0 0 0 0 0 0 0 0 0 0 0 0 0 0 
0 0 0 0 0 0 179 179 179 191 191 191 197 197 197 199 199 199 200 200 200 
199 199 199 198 198 198 196 196 196 193 193 193 190 190 190 186 186 186 
181 181 181 176 176 176 171 171 171 165 165 165 0 0 0 0 0 0 0 0 0 0 0 0 0 
0 0 0 0 0 0 0 0 0 0 0 0 0 0 0 0 0 0 0 0 0 0 0 0 0 0 0 0 0 0 0 0 0 0 0 0 
0 0 0 0 0 0 0 0 0 0 0 0 0 0 0 0 0 0 0 0 
0 0 0 0 0 0 0 0 0 0 0 0 0 0 0 0 0 0 0 0 0 0 0 0 0 0 0 0 0 0 0 0 0 0 0 
0 0 0 0 0 0 0 0 0 0 0 0 0 0 0 0 0 0 0 0 0 0 0 0 0 0 0 0 0 0 0 173 173 
173 167 167 167 161 161 161 154 154 154 148 148 148 140 140 140 133 133 
133 125 125 125 117 117 117 108 108 108 99 99 99 89 89 89 78 78 78 66 66 
66 52 52 52 36 36 36 26 26 26 0 0 0 0 0 0 0 0 0 0 0 0 0 0 0 0 0 0 0 0 0 
0 0 0 0 0 0 0 0 0 0 0 0 0 0 0 0 0 0 0 0 0 0 0 0 0 0 0 0 0 0 0 0 0 0 0 0 
0 0 0 0 0 0 0 0 0 176 176 176 191 191 191 198 198 198 201 201 201 202 
202 202 202 202 202 201 201 201 199 199 199 197 197 197 194 194 194 191 
191 191 187 187 187 182 182 182 177 177 177 172 172 172 166 166 166 159 
159 159 0 0 0 0 0 0 0 0 0 0 0 0 0 0 0 0 0 0 0 0 0 0 0 0 0 0 0 0 0 0 0 0 0 
0 0 0 0 0 0 0 0 0 0 0 0 0 0 0 0 0 0 0 0 0 0 0 0 0 0 0 0 0 0 0 0 0 
0 0 0 0 0 0 0 0 0 0 0 0 0 0 0 0 0 0 0 0 0 0 0 0 0 0 0 0 0 0 0 0 0 0 0 
0 0 0 0 0 0 0 0 0 0 0 0 0 0 0 0 0 0 0 0 0 0 0 0 0 0 0 0 0 0 0 171 171 
171 165 165 165 159 159 159 152 152 152 146 146 146 138 138 138 131 131 
131 123 123 123 115 115 115 107 107 107 97 97 97 88 88 88 77 77 77 66 66 
66 53 53 53 39 39 39 26 26 26 0 0 0 0 0 0 0 0 0 0 0 0 0 0 0 0 0 0 0 0 0 
0 0 0 0 0 0 0 0 0 0 0 0 0 0 0 0 0 0 0 0 0 0 0 0 0 0 0 0 0 0 0 0 0 0 0 0 
0 0 0 0 0 0 0 0 0 189 189 189 197 197 197 201 201 201 203 203 203 204 
204 204 203 203 203 202 202 202 200 200 200 197 197 197 194 194 194 191 
191 191 187 187 187 182 182 182 177 177 177 172 172 172 166 166 166 160 
160 160 0 0 0 0 0 0 0 0 0 0 0 0 0 0 0 0 0 0 0 0 0 0 0 0 0 0 0 0 0 0 0 0 0 
0 0 0 0 0 0 0 0 0 0 0 0 0 0 0 0 0 0 0 0 0 0 0 0 0 0 0 0 0 0 0 0 0 
0 0 0 0 0 0 0 0 0 0 0 0 0 0 0 0 0 0 0 0 0 0 0 0 0 0 0 0 0 0 0 0 0 0 0 
0 0 0 0 0 0 0 0 0 0 0 0 0 0 0 0 0 0 0 0 0 0 0 0 0 0 0 0 0 0 0 168 168 
168 162 162 162 156 156 156 150 150 150 143 143 143 136 136 136 129 129 
129 121 121 121 113 113 113 105 105 105 96 96 96 86 86 86 76 76 76 65 65 
65 53 53 53 40 40 40 26 26 26 26 26 26 0 0 0 0 0 0 0 0 0 0 0 0 0 0 0 0 0 
0 0 0 0 0 0 0 0 0 0 0 0 0 0 0 0 0 0 0 0 0 0 0 0 0 0 0 0 0 0 0 0 0 0 0 0 
0 0 0 0 0 0 0 182 182 182 194 194 194 199 199 199 202 202 202 204 204 
204 204 204 204 203 203 203 202 202 202 199 199 199 197 197 197 194 194 
194 190 190 190 186 186 186 181 181 181 176 176 176 171 171 171 165 165 
165 159 159 159 0 0 0 0 0 0 0 0 0 0 0 0 0 0 0 0 0 0 0 0 0 0 0 0 0 0 0 0 0 
0 0 0 0 0 0 0 0 0 0 0 0 0 0 0 0 0 0 0 0 0 0 0 0 0 0 0 0 0 0 0 0 0 0 0 0 
0 
0 0 0 0 0 0 0 0 0 0 0 0 0 0 0 0 0 0 0 0 0 0 0 0 0 0 0 0 0 0 0 0 0 0 0 
0 0 0 0 0 0 0 0 0 0 0 0 0 0 0 0 0 0 0 0 0 0 1 1 1 1 1 1 0 0 0 165 165 
165 159 159 159 153 153 153 147 147 147 140 140 140 133 133 133 126 126 
126 118 118 118 110 110 110 102 102 102 93 93 93 84 84 84 74 74 74 63 63 
63 52 52 52 39 39 39 26 26 26 26 26 26 26 26 26 0 0 0 0 0 0 0 0 0 0 0 0 
0 0 0 0 0 0 0 0 0 0 0 0 0 0 0 0 0 0 0 0 0 0 0 0 0 0 0 0 0 0 0 0 0 0 0 0 
0 0 0 0 0 0 169 169 169 188 188 188 196 196 196 200 200 200 203 203 203 
203 203 203 203 203 203 202 202 202 201 201 201 198 198 198 196 196 196 
192 192 192 189 189 189 184 184 184 180 180 180 175 175 175 170 170 170 
164 164 164 158 158 158 0 0 0 0 0 0 0 0 0 0 0 0 0 0 0 0 0 0 0 0 0 0 0 0 0 
0 0 0 0 0 0 0 0 0 0 0 0 0 0 0 0 0 0 0 0 0 0 0 0 0 0 0 0 0 0 0 0 0 0 0 0 
0 0 0 0 0 
0 0 0 0 0 0 0 0 0 0 0 0 0 0 0 0 0 0 0 0 0 0 0 0 0 0 0 0 0 0 0 0 0 0 0 
0 0 0 0 0 0 0 0 0 0 0 0 0 0 0 0 0 0 0 8 8 8 41 41 41 10 10 10 0 0 0 162 
162 162 156 156 156 150 150 150 144 144 144 137 137 137 130 130 130 123 
123 123 115 115 115 107 107 107 99 99 99 90 90 90 81 81 81 72 72 72 61 61 
61 50 50 50 37 37 37 26 26 26 26 26 26 26 26 26 0 0 0 0 0 0 0 0 0 0 0 0 
0 0 0 0 0 0 0 0 0 0 0 0 0 0 0 0 0 0 0 0 0 0 0 0 0 0 0 0 0 0 0 0 0 0 0 0 
0 0 0 0 0 0 178 178 178 190 190 190 196 196 196 200 200 200 202 202 202 
202 202 202 202 202 202 201 201 201 199 199 199 197 197 197 195 195 195 
191 191 191 187 187 187 183 183 183 178 178 178 173 173 173 168 168 168 
162 162 162 156 156 156 0 0 0 0 0 0 0 0 0 0 0 0 0 0 0 0 0 0 0 0 0 0 0 0 0 
0 0 0 0 0 0 0 0 0 0 0 0 0 0 0 0 0 0 0 0 0 0 0 0 0 0 0 0 0 0 0 0 0 0 0 0 
0 0 0 0 0 
0 0 0 0 0 0 0 0 0 0 0 0 0 0 0 0 0 0 0 0 0 0 0 0 0 0 0 0 0 0 0 0 0 0 0 
0 0 0 0 0 0 0 0 0 0 0 0 0 0 0 0 1 1 1 29 29 29 62 62 62 8 8 8 0 0 0 158 
158 158 152 152 152 146 146 146 140 140 140 133 133 133 127 127 127 119 
119 119 112 112 112 104 104 104 96 96 96 87 87 87 78 78 78 69 69 69 58 58 
58 47 47 47 35 35 35 26 26 26 26 26 26 26 26 26 0 0 0 0 0 0 0 0 0 0 0 0 
0 0 0 0 0 0 0 0 0 0 0 0 0 0 0 0 0 0 0 0 0 0 0 0 0 0 0 0 0 0 0 0 0 0 0 0 
0 0 0 0 0 0 181 181 181 190 190 190 196 196 196 199 199 199 200 200 200 
200 200 200 200 200 200 198 198 198 197 197 197 214 214 214 228 228 228 
192 192 192 184 184 184 180 180 180 176 176 176 171 171 171 166 166 166 
160 160 160 154 154 154 0 0 0 0 0 0 0 0 0 0 0 0 0 0 0 0 0 0 0 0 0 0 0 0 0 
0 0 0 0 0 0 0 0 0 0 0 0 0 0 0 0 0 0 0 0 0 0 0 0 0 0 0 0 0 0 0 0 0 0 0 0 
0 0 0 0 0 
0 0 0 0 0 0 0 0 0 0 0 0 0 0 0 0 0 0 0 0 0 0 0 0 0 0 0 0 0 0 0 0 0 0 0 
0 0 0 0 0 0 0 0 0 0 0 0 0 0 0 0 0 0 0 6 6 6 7 7 7 0 0 0 0 0 0 154 154 
154 148 148 148 142 142 142 136 136 136 130 130 130 123 123 123 116 116 
116 108 108 108 100 100 100 92 92 92 84 84 84 75 75 75 65 65 65 55 55 55 
44 44 44 32 32 32 26 26 26 26 26 26 26 26 26 26 26 26 0 0 0 0 0 0 0 0 0 
0 0 0 0 0 0 0 0 0 0 0 0 0 0 0 0 0 0 0 0 0 0 0 0 0 0 0 0 0 0 0 0 0 0 0 0 
0 0 0 163 163 163 181 181 181 189 189 189 194 194 194 196 196 196 198 
198 198 198 198 198 197 197 197 196 196 196 195 195 195 231 231 231 235 
235 235 188 188 188 181 181 181 177 177 177 173 173 173 168 168 168 163 
163 163 157 157 157 152 152 152 0 0 0 0 0 0 0 0 0 0 0 0 0 0 0 0 0 0 0 0 0 
0 0 0 0 0 0 0 0 0 0 0 0 0 0 0 0 0 0 0 0 0 0 0 0 0 0 0 0 0 0 0 0 0 0 0 0 
0 0 0 0 0 0 0 0 0 
0 0 0 0 0 0 0 0 0 0 0 0 0 0 0 0 0 0 0 0 0 0 0 0 0 0 0 0 0 0 0 0 0 0 0 
0 0 0 0 0 0 0 0 0 0 0 0 0 0 0 0 0 0 0 0 0 0 0 0 0 0 0 0 156 156 156 150 
150 150 144 144 144 138 138 138 132 132 132 125 125 125 119 119 119 112 
112 112 104 104 104 96 96 96 88 88 88 80 80 80 71 71 71 61 61 61 51 51 51 
41 41 41 29 29 29 26 26 26 26 26 26 26 26 26 26 26 26 0 0 0 0 0 0 0 0 0 
0 0 0 0 0 0 0 0 0 0 0 0 0 0 0 0 0 0 0 0 0 0 0 0 0 0 0 0 0 0 0 0 0 0 0 0 
0 0 0 164 164 164 179 179 179 187 187 187 191 191 191 193 193 193 194 
194 194 195 195 195 194 194 194 192 192 192 191 191 191 192 192 192 188 
188 188 182 182 182 178 178 178 174 174 174 170 170 170 165 165 165 160 
160 160 154 154 154 148 148 148 142 142 142 0 0 0 0 0 0 0 0 0 0 0 0 0 0 0 
0 0 0 0 0 0 0 0 0 0 0 0 0 0 0 0 0 0 0 0 0 0 0 0 0 0 0 0 0 0 0 0 0 0 0 0 
0 0 0 0 0 0 0 0 0 0 0 0 
0 0 0 0 0 0 0 0 0 0 0 0 0 0 0 0 0 0 0 0 0 0 0 0 0 0 0 0 0 0 0 0 0 0 0 
0 0 0 0 0 0 0 0 0 0 0 0 0 0 0 0 0 0 0 0 0 0 0 0 0 0 0 0 151 151 151 146 
146 146 140 140 140 134 134 134 128 128 128 121 121 121 114 114 114 107 
107 107 100 100 100 92 92 92 84 84 84 76 76 76 67 67 67 57 57 57 47 47 47 
37 37 37 26 26 26 26 26 26 26 26 26 26 26 26 26 26 26 0 0 0 0 0 0 0 0 0 
0 0 0 0 0 0 0 0 0 0 0 0 0 0 0 0 0 0 0 0 0 0 0 0 0 0 0 0 0 0 0 0 0 0 0 0 
0 0 0 163 163 163 177 177 177 183 183 183 188 188 188 190 190 190 191 
191 191 191 191 191 190 190 190 189 189 189 187 187 187 184 184 184 181 
181 181 178 178 178 174 174 174 170 170 170 166 166 166 161 161 161 156 
156 156 151 151 151 145 145 145 139 139 139 0 0 0 0 0 0 0 0 0 0 0 0 0 0 0 
0 0 0 0 0 0 0 0 0 0 0 0 0 0 0 0 0 0 0 0 0 0 0 0 0 0 0 0 0 0 0 0 0 0 0 0 
0 0 0 0 0 0 0 0 0 0 0 0 
0 0 0 0 0 0 0 0 0 0 0 0 0 0 0 0 0 0 0 0 0 0 0 0 0 0 0 0 0 0 0 0 0 0 0 
0 0 0 0 0 0 0 0 0 0 0 0 0 0 0 0 0 0 0 0 0 0 0 0 0 0 0 0 146 146 146 141 
141 141 135 135 135 129 129 129 123 123 123 116 116 116 110 110 110 103 
103 103 95 95 95 88 88 88 80 80 80 71 71 71 62 62 62 53 53 53 43 43 43 32 
32 32 26 26 26 26 26 26 26 26 26 26 26 26 26 26 26 0 0 0 0 0 0 0 0 0 0 0 
0 0 0 0 0 0 0 0 0 0 0 0 0 0 0 0 0 0 0 0 0 0 0 0 0 0 0 0 0 0 0 0 0 0 0 0 
0 160 160 160 173 173 173 179 179 179 183 183 183 186 186 186 186 186 
186 187 187 187 186 186 186 184 184 184 182 182 182 180 180 180 177 177 
177 174 174 174 170 170 170 166 166 166 162 162 162 157 157 157 152 152 
152 147 147 147 141 141 141 135 135 135 0 0 0 0 0 0 0 0 0 0 0 0 0 0 0 0 0 
0 0 0 0 0 0 0 0 0 0 0 0 0 0 0 0 0 0 0 0 0 0 0 0 0 0 0 0 0 0 0 0 0 0 0 0 
0 0 0 0 0 0 0 0 0 0 
0 0 0 0 0 0 0 0 0 0 0 0 0 0 0 0 0 0 0 0 0 0 0 0 0 0 0 0 0 0 0 0 0 0 0 
0 0 0 0 0 0 0 0 0 0 0 0 0 0 0 0 0 0 0 0 0 0 0 0 0 0 0 0 142 142 142 136 
136 136 130 130 130 124 124 124 118 118 118 112 112 112 105 105 105 98 98 
98 90 90 90 83 83 83 75 75 75 66 66 66 57 57 57 48 48 48 38 38 38 27 27 
27 26 26 26 26 26 26 26 26 26 26 26 26 26 26 26 0 0 0 0 0 0 0 0 0 0 0 0 
0 0 0 0 0 0 0 0 0 0 0 0 0 0 0 0 0 0 0 0 0 0 0 0 0 0 0 0 0 0 0 0 0 0 0 0 
155 155 155 168 168 168 174 174 174 178 178 178 181 181 181 182 182 182 
182 182 182 181 181 181 180 180 180 178 178 178 175 175 175 173 173 173 
169 169 169 166 166 166 162 162 162 157 157 157 153 153 153 148 148 148 
142 142 142 136 136 136 130 130 130 0 0 0 0 0 0 0 0 0 0 0 0 0 0 0 0 0 0 0 
0 0 0 0 0 0 0 0 0 0 0 0 0 0 0 0 0 0 0 0 0 0 0 0 0 0 0 0 0 0 0 0 0 0 0 0 
0 0 0 0 0 0 0 0 
0 0 0 0 0 0 0 0 0 0 0 0 0 0 0 0 0 0 0 0 0 0 0 0 0 0 0 158 158 158 169 
169 169 0 0 0 0 0 0 0 0 0 0 0 0 0 0 0 0 0 0 0 0 0 0 0 0 0 0 0 0 0 0 136 
136 136 131 131 131 125 125 125 119 119 119 113 113 113 106 106 106 100 
100 100 93 93 93 85 85 85 78 78 78 69 69 69 61 61 61 52 52 52 0 0 0 0 0 0 
0 0 0 0 0 0 0 0 0 0 0 0 0 0 0 0 0 0 124 111 111 123 111 111 123 111 111 
123 110 110 122 110 110 122 110 110 122 110 110 122 109 109 121 109 109 
121 109 109 121 109 109 121 108 108 120 108 108 120 108 108 120 108 108 
119 107 107 0 0 0 0 0 0 0 0 0 0 0 0 0 0 0 0 0 0 0 0 0 0 0 0 174 174 174 
173 173 173 170 170 170 168 168 168 164 164 164 161 161 161 157 157 157 
152 152 152 148 148 148 143 143 143 137 137 137 132 132 132 125 125 125 0 
0 0 0 0 0 0 0 0 0 0 0 0 0 0 0 0 0 0 0 0 0 0 0 0 0 0 0 0 0 26 26 26 26 
26 26 0 0 0 0 0 0 0 0 0 0 0 0 0 0 0 0 0 0 0 0 0 0 0 0 0 0 0 
0 0 0 0 0 0 0 0 0 0 0 0 0 0 0 0 0 0 0 0 0 0 0 0 135 122 122 135 122 
122 162 162 162 164 164 164 164 164 164 163 163 163 160 160 160 157 157 
157 154 154 154 150 150 150 145 145 145 141 141 141 136 136 136 0 0 0 0 0 
0 0 0 0 0 0 0 0 0 0 0 0 0 0 0 0 0 0 0 0 0 0 0 0 0 0 0 0 0 0 0 0 0 0 0 0 
0 0 0 0 0 0 0 0 0 0 0 0 0 0 0 0 0 0 0 0 0 0 129 116 116 128 116 116 128 
115 115 128 115 115 128 115 115 127 115 115 127 114 114 127 114 114 126 
114 114 126 113 113 126 113 113 125 113 113 125 113 113 125 112 112 125 
112 112 124 112 112 0 0 0 0 0 0 0 0 0 0 0 0 0 0 0 0 0 0 0 0 0 0 0 0 0 0 0 
0 0 0 0 0 0 0 0 0 0 0 0 0 0 0 0 0 0 0 0 0 0 0 0 0 0 0 0 0 0 0 0 0 0 0 0 
114 114 114 107 107 107 99 99 99 91 91 91 82 82 82 73 73 73 62 62 62 50 
50 50 37 37 37 26 26 26 26 26 26 113 102 102 112 101 101 0 0 0 0 0 0 0 0 
0 0 0 0 0 0 0 0 0 0 0 0 0 0 0 0 
142 128 128 142 128 128 142 128 128 142 128 128 142 127 127 141 127 
127 141 127 127 141 127 127 141 127 127 141 127 127 154 154 154 157 157 
157 157 157 157 156 156 156 154 154 154 151 151 151 148 148 148 144 144 
144 140 140 140 135 135 135 130 130 130 125 125 125 0 0 0 0 0 0 0 0 0 0 0 
0 0 0 0 0 0 0 0 0 0 0 0 0 0 0 0 0 0 0 0 0 0 0 0 0 0 0 0 0 0 0 0 0 0 0 0 
0 0 0 0 0 0 0 0 0 0 0 0 0 133 120 120 133 119 119 132 119 119 132 119 
119 132 119 119 132 118 118 131 118 118 131 118 118 131 118 118 130 117 
117 130 117 117 130 117 117 129 116 116 129 116 116 129 116 116 128 116 
116 0 0 0 0 0 0 0 0 0 0 0 0 0 0 0 0 0 0 0 0 0 0 0 0 0 0 0 0 0 0 0 0 0 0 0 
0 0 0 0 0 0 0 0 0 0 0 0 0 0 0 0 0 0 0 0 0 0 0 0 0 114 114 114 108 108 
108 101 101 101 93 93 93 85 85 85 76 76 76 67 67 67 56 56 56 44 44 44 30 
30 30 26 26 26 26 26 26 118 106 106 117 106 106 117 105 105 117 105 105 
116 105 105 116 104 104 116 104 104 115 104 104 115 104 104 115 103 103 
147 132 132 146 132 132 146 132 132 146 132 132 146 131 131 146 131 
131 146 131 131 145 131 131 145 131 131 145 131 131 144 144 144 149 149 
149 150 150 150 149 149 149 147 147 147 145 145 145 141 141 141 138 138 
138 133 133 133 129 129 129 124 124 124 119 119 119 0 0 0 0 0 0 0 0 0 0 0 
0 0 0 0 0 0 0 0 0 0 0 0 0 0 0 0 0 0 0 0 0 0 0 0 0 0 0 0 0 0 0 0 0 0 0 0 
0 0 0 0 0 0 0 0 0 0 0 0 0 137 123 123 136 123 123 136 122 122 136 122 
122 136 122 122 135 122 122 135 121 121 135 121 121 134 121 121 134 121 
121 134 120 120 133 120 120 133 120 120 133 119 119 132 119 119 132 119 
119 0 0 0 0 0 0 0 0 0 0 0 0 0 0 0 0 0 0 0 0 0 0 0 0 0 0 0 0 0 0 0 0 0 0 0 
0 0 0 0 0 0 0 0 0 0 0 0 0 0 0 0 0 0 0 0 0 0 0 0 0 108 108 108 102 102 
102 95 95 95 87 87 87 79 79 79 70 70 70 60 60 60 49 49 49 37 37 37 26 26 
26 26 26 26 26 26 26 121 109 109 121 109 109 121 109 109 121 108 108 120 
108 108 120 108 108 120 108 108 119 107 107 119 107 107 119 107 107 
150 135 135 150 135 135 150 135 135 150 135 135 150 135 135 149 135 
135 149 134 134 149 134 134 149 134 134 149 134 134 132 132 132 140 140 
140 142 142 142 142 142 142 140 140 140 138 138 138 134 134 134 131 131 
131 127 127 127 122 122 122 118 118 118 113 113 113 0 0 0 0 0 0 0 0 0 0 0 
0 0 0 0 0 0 0 0 0 0 0 0 0 0 0 0 0 0 0 0 0 0 0 0 0 0 0 0 0 0 0 0 0 0 0 0 
0 0 0 0 0 0 0 0 0 0 140 126 126 140 126 126 140 126 126 139 125 125 139 
125 125 139 125 125 138 125 125 138 124 124 138 124 124 138 124 124 137 
123 123 137 123 123 137 123 123 136 123 123 136 122 122 136 122 122 135 
122 122 135 122 122 0 0 0 0 0 0 0 0 0 0 0 0 0 0 0 0 0 0 0 0 0 0 0 0 0 0 0 
0 0 0 0 0 0 0 0 0 0 0 0 0 0 0 0 0 0 0 0 0 0 0 0 0 0 0 0 0 0 102 102 102 
95 95 95 88 88 88 80 80 80 72 72 72 62 62 62 52 52 52 41 41 41 28 28 28 
26 26 26 26 26 26 26 26 26 125 112 112 124 112 112 124 112 112 124 111 
111 124 111 111 123 111 111 123 111 111 123 110 110 122 110 110 122 110 
110 
154 138 138 153 138 138 153 138 138 153 138 138 153 138 138 153 137 
137 152 137 137 152 137 137 152 137 137 152 137 137 152 136 136 130 130 
130 133 133 133 134 134 134 132 132 132 130 130 130 127 127 127 124 124 
124 120 120 120 115 115 115 111 111 111 106 106 106 0 0 0 0 0 0 0 0 0 0 0 
0 0 0 0 0 0 0 0 0 0 0 0 0 0 0 0 0 0 0 0 0 0 0 0 0 0 0 0 0 0 0 0 0 0 0 0 
0 0 0 0 0 0 0 0 0 0 143 129 129 143 129 129 142 128 128 142 128 128 142 
128 128 142 127 127 141 127 127 141 127 127 141 127 127 140 126 126 140 
126 126 140 126 126 139 125 125 139 125 125 139 125 125 138 125 125 138 
124 124 138 124 124 0 0 0 0 0 0 0 0 0 0 0 0 0 0 0 0 0 0 0 0 0 0 0 0 0 0 0 
0 0 0 0 0 0 0 0 0 0 0 0 0 0 0 0 0 0 0 0 0 0 0 0 0 0 0 0 0 0 94 94 94 87 
87 87 80 80 80 72 72 72 64 64 64 54 54 54 44 44 44 32 32 32 26 26 26 26 
26 26 26 26 26 128 115 115 128 115 115 127 115 115 127 114 114 127 114 
114 126 114 114 126 114 114 126 113 113 126 113 113 125 113 113 125 112 
112 
156 141 141 156 141 141 156 140 140 156 140 140 156 140 140 155 140 
140 155 140 140 155 139 139 155 139 139 154 139 139 154 139 139 116 116 
116 123 123 123 124 124 124 124 124 124 122 122 122 119 119 119 116 116 
116 112 112 112 108 108 108 103 103 103 99 99 99 0 0 0 0 0 0 0 0 0 0 0 0 
0 0 0 0 0 0 0 0 0 0 0 0 0 0 0 0 0 0 0 0 0 0 0 0 0 0 0 0 0 0 0 0 0 0 0 0 
0 0 0 0 0 0 146 131 131 146 131 131 145 131 131 145 131 131 145 130 130 
144 130 130 144 130 130 144 129 129 143 129 129 26 23 23 26 23 23 26 23 
23 26 23 23 26 23 23 26 23 23 26 23 23 26 23 23 141 127 127 140 126 126 
140 126 126 0 0 0 0 0 0 0 0 0 0 0 0 0 0 0 0 0 0 0 0 0 0 0 0 0 0 0 0 0 0 0 
0 0 0 0 0 0 0 0 0 0 0 0 0 0 0 0 0 0 0 0 0 0 0 86 86 86 79 79 79 72 72 
72 64 64 64 55 55 55 46 46 46 35 35 35 26 26 26 26 26 26 26 26 26 26 26 
26 26 23 23 26 23 23 26 23 23 26 23 23 26 23 23 26 23 23 129 116 116 129 
116 116 128 115 115 128 115 115 128 115 115 
159 143 143 159 143 143 158 143 143 158 142 142 158 142 142 158 142 
142 157 142 142 157 142 142 157 141 141 157 141 141 156 141 141 156 141 
141 110 110 110 114 114 114 114 114 114 113 113 113 111 111 111 108 108 
108 104 104 104 100 100 100 96 96 96 91 91 91 0 0 0 0 0 0 0 0 0 0 0 0 0 0 
0 0 0 0 0 0 0 0 0 0 0 0 0 0 0 0 0 0 0 0 0 0 0 0 0 0 0 0 0 0 0 0 0 0 0 0 
0 0 0 0 26 23 23 26 23 23 26 23 23 26 23 23 26 23 23 26 23 23 26 23 23 
26 23 23 26 23 23 26 23 23 26 23 23 26 23 23 26 23 23 26 23 23 26 23 23 
26 23 23 26 23 23 26 23 23 26 23 23 26 23 23 0 0 0 0 0 0 0 0 0 0 0 0 0 0 
0 0 0 0 0 0 0 0 0 0 0 0 0 0 0 0 0 0 0 0 0 0 0 0 0 0 0 0 0 0 0 0 0 0 0 0 
0 0 0 0 78 78 78 71 71 71 63 63 63 55 55 55 46 46 46 36 36 36 26 26 26 
26 26 26 26 26 26 26 26 26 26 23 23 26 23 23 26 23 23 26 23 23 26 23 23 
26 23 23 26 23 23 26 23 23 26 23 23 26 23 23 26 23 23 26 23 23 
161 145 145 161 145 145 160 144 144 160 144 144 160 144 144 160 144 
144 160 144 144 159 143 143 159 143 143 159 143 143 158 143 143 158 142 
142 86 86 86 101 101 101 104 104 104 103 103 103 101 101 101 99 99 99 96 
96 96 92 92 92 87 87 87 83 83 83 0 0 0 0 0 0 0 0 0 0 0 0 0 0 0 0 0 0 0 0 
0 0 0 0 0 0 0 0 0 0 0 0 0 0 0 0 0 0 0 0 0 0 0 0 0 0 0 0 0 0 0 26 23 23 
26 23 23 26 23 23 26 23 23 26 23 23 26 23 23 26 23 23 26 23 23 26 23 23 
26 23 23 26 23 23 26 23 23 26 23 23 26 23 23 26 23 23 26 23 23 26 23 23 
26 23 23 26 23 23 26 23 23 26 23 23 26 23 23 0 0 0 0 0 0 0 0 0 0 0 0 0 0 
0 0 0 0 0 0 0 0 0 0 0 0 0 0 0 0 0 0 0 0 0 0 0 0 0 0 0 0 0 0 0 0 0 0 0 0 
0 68 68 68 61 61 61 53 53 53 45 45 45 35 35 35 26 26 26 26 26 26 26 26 
26 26 26 26 26 26 26 26 23 23 26 23 23 26 23 23 26 23 23 26 23 23 26 23 
23 26 23 23 26 23 23 26 23 23 26 23 23 26 23 23 26 23 23 
163 146 146 163 146 146 162 146 146 162 146 146 162 146 146 162 145 
145 161 145 145 161 145 145 161 145 145 161 144 144 160 144 144 160 144 
144 160 144 144 82 82 82 90 90 90 92 92 92 91 91 91 89 89 89 86 86 86 82 
82 82 78 78 78 74 74 74 0 0 0 0 0 0 0 0 0 0 0 0 0 0 0 0 0 0 0 0 0 0 0 0 
0 0 0 0 0 0 0 0 0 0 0 0 0 0 0 0 0 0 0 0 0 0 0 0 26 23 23 26 23 23 26 23 
23 26 23 23 26 23 23 26 23 23 26 23 23 26 23 23 26 23 23 26 23 23 26 23 
23 26 23 23 26 23 23 26 23 23 26 23 23 26 23 23 26 23 23 26 23 23 26 23 
23 26 23 23 26 23 23 26 23 23 26 23 23 26 23 23 0 0 0 0 0 0 0 0 0 0 0 0 
0 0 0 0 0 0 0 0 0 0 0 0 0 0 0 0 0 0 0 0 0 0 0 0 0 0 0 0 0 0 0 0 0 0 0 0 
58 58 58 50 50 50 42 42 42 33 33 33 26 26 26 26 26 26 26 26 26 26 26 26 
26 26 26 26 23 23 26 23 23 26 23 23 26 23 23 26 23 23 26 23 23 26 23 23 
26 23 23 26 23 23 26 23 23 26 23 23 26 23 23 26 23 23 
164 148 148 164 148 148 164 147 147 164 147 147 163 147 147 163 147 
147 163 147 147 163 146 146 162 146 146 162 146 146 162 146 146 162 145 
145 161 145 145 161 145 145 70 70 70 77 77 77 78 78 78 77 77 77 75 75 75 
72 72 72 68 68 68 64 64 64 59 59 59 0 0 0 0 0 0 0 0 0 0 0 0 0 0 0 0 0 0 
0 0 0 0 0 0 0 0 0 0 0 0 0 0 0 0 0 0 0 0 0 0 0 0 26 23 23 26 23 23 26 23 
23 26 23 23 26 23 23 26 23 23 26 23 23 26 23 23 26 23 23 26 23 23 26 23 
23 26 23 23 26 23 23 26 23 23 26 23 23 26 23 23 26 23 23 26 23 23 26 23 
23 26 23 23 26 23 23 26 23 23 26 23 23 148 133 133 147 133 133 147 132 
132 0 0 0 0 0 0 0 0 0 0 0 0 0 0 0 0 0 0 0 0 0 0 0 0 0 0 0 0 0 0 0 0 0 0 0 
0 0 0 0 0 0 0 53 53 53 46 46 46 38 38 38 29 29 29 26 26 26 26 26 26 26 
26 26 26 26 26 26 26 26 26 23 23 26 23 23 26 23 23 26 23 23 26 23 23 26 
23 23 26 23 23 26 23 23 26 23 23 26 23 23 26 23 23 26 23 23 26 23 23 26 
23 23 
166 149 149 165 149 149 165 149 149 165 148 148 165 148 148 164 148 
148 164 148 148 164 148 148 164 147 147 163 147 147 163 147 147 163 147 
147 163 146 146 162 146 146 162 146 146 52 52 52 62 62 62 64 64 64 62 62 
62 60 60 60 57 57 57 53 53 53 48 48 48 0 0 0 0 0 0 0 0 0 0 0 0 0 0 0 0 0 
0 0 0 0 0 0 0 0 0 0 0 0 0 0 0 0 0 0 0 0 0 0 26 23 23 26 23 23 26 23 23 
26 23 23 26 23 23 26 23 23 26 23 23 26 23 23 26 23 23 26 23 23 26 23 23 
26 23 23 26 23 23 26 23 23 26 23 23 26 23 23 26 23 23 26 23 23 26 23 23 
26 23 23 26 23 23 26 23 23 150 135 135 149 134 134 149 134 134 149 134 
134 149 134 134 148 133 133 0 0 0 0 0 0 0 0 0 0 0 0 0 0 0 0 0 0 0 0 0 0 0 
0 0 0 0 0 0 0 0 0 0 0 0 0 0 0 0 39 39 39 32 32 32 26 26 26 26 26 26 26 
26 26 26 26 26 26 26 26 26 26 26 26 23 23 26 23 23 26 23 23 26 23 23 26 
23 23 26 23 23 26 23 23 26 23 23 26 23 23 26 23 23 26 23 23 26 23 23 26 
23 23 26 23 23 26 23 23 
167 150 150 167 150 150 166 150 150 166 150 150 166 149 149 166 149 
149 165 149 149 165 149 149 165 148 148 165 148 148 164 148 148 164 148 
148 164 147 147 164 147 147 163 147 147 163 147 147 163 147 147 44 44 44 
46 46 46 45 45 45 43 43 43 40 40 40 35 35 35 0 0 0 0 0 0 0 0 0 0 0 0 0 0 
0 0 0 0 0 0 0 0 0 0 0 0 0 0 0 0 0 0 0 0 0 0 26 23 23 26 23 23 26 23 23 
26 23 23 26 23 23 26 23 23 26 23 23 26 23 23 26 23 23 26 23 23 26 23 23 
26 23 23 26 23 23 26 23 23 26 23 23 26 23 23 26 23 23 26 23 23 26 23 23 
26 23 23 152 137 137 152 137 137 151 136 136 151 136 136 151 136 136 151 
135 135 150 135 135 150 135 135 150 135 135 149 134 134 0 0 0 0 0 0 0 0 0 
0 0 0 0 0 0 0 0 0 0 0 0 0 0 0 0 0 0 0 0 0 0 0 0 0 0 0 26 26 26 26 26 26 
26 26 26 26 26 26 26 26 26 26 26 26 26 23 23 26 23 23 26 23 23 26 23 23 
26 23 23 26 23 23 26 23 23 26 23 23 26 23 23 26 23 23 26 23 23 26 23 23 
26 23 23 26 23 23 26 23 23 26 23 23 26 23 23 
168 151 151 168 151 151 168 151 151 167 151 151 167 150 150 167 150 
150 167 150 150 166 150 150 166 149 149 166 149 149 165 149 149 165 149 
149 165 148 148 165 148 148 164 148 148 164 148 148 164 148 148 164 147 
147 163 147 147 26 26 26 26 26 26 26 26 26 26 26 26 26 26 26 0 0 0 0 0 0 
0 0 0 0 0 0 0 0 0 0 0 0 0 0 0 0 0 0 0 0 0 26 23 23 26 23 23 26 23 23 26 
23 23 26 23 23 26 23 23 26 23 23 26 23 23 26 23 23 26 23 23 26 23 23 26 
23 23 26 23 23 26 23 23 26 23 23 26 23 23 26 23 23 26 23 23 154 139 139 
154 139 139 154 138 138 153 138 138 153 138 138 153 138 138 153 137 137 
152 137 137 152 137 137 152 137 137 152 136 136 151 136 136 151 136 136 
151 136 136 150 135 135 26 23 23 0 0 0 0 0 0 0 0 0 0 0 0 0 0 0 0 0 0 0 0 
0 0 0 0 0 0 0 26 26 26 26 26 26 26 26 26 26 26 26 26 26 26 26 23 23 26 
23 23 26 23 23 26 23 23 26 23 23 26 23 23 26 23 23 26 23 23 26 23 23 26 
23 23 26 23 23 26 23 23 26 23 23 26 23 23 26 23 23 26 23 23 26 23 23 26 
23 23 26 23 23 
169 152 152 169 152 152 168 152 152 168 151 151 168 151 151 168 151 
151 167 151 151 167 151 151 167 150 150 167 150 150 166 150 150 166 150 
150 166 149 149 166 149 149 165 149 149 165 149 149 165 148 148 165 148 
148 164 148 148 164 148 148 164 147 147 26 26 26 26 26 26 26 26 26 26 26 
26 0 0 0 0 0 0 0 0 0 0 0 0 0 0 0 26 23 23 26 23 23 26 23 23 26 23 23 26 
23 23 26 23 23 26 23 23 26 23 23 26 23 23 26 23 23 26 23 23 26 23 23 26 
23 23 26 23 23 26 23 23 26 23 23 157 141 141 157 141 141 156 141 141 156 
140 140 156 140 140 155 140 140 155 140 140 155 139 139 155 139 139 154 
139 139 154 139 139 154 138 138 154 138 138 153 138 138 153 138 138 153 
137 137 152 137 137 152 137 137 152 137 137 152 136 136 151 136 136 151 
136 136 26 23 23 26 23 23 0 0 0 0 0 0 0 0 0 0 0 0 0 0 0 26 26 26 26 26 26 
26 26 26 26 26 26 26 23 23 26 23 23 26 23 23 26 23 23 26 23 23 26 23 23 
26 23 23 26 23 23 26 23 23 26 23 23 26 23 23 26 23 23 26 23 23 26 23 23 
26 23 23 26 23 23 26 23 23 143 129 129 143 129 129 143 128 128 142 128 
128 
170 153 153 170 153 153 169 152 152 169 152 152 169 152 152 169 152 
152 168 152 152 168 151 151 168 151 151 168 151 151 167 151 151 167 150 
150 167 150 150 167 150 150 166 150 150 166 149 149 166 149 149 166 149 
149 165 149 149 165 149 149 165 148 148 164 148 148 26 23 23 26 23 23 26 
23 23 26 23 23 26 23 23 26 23 23 26 23 23 26 23 23 26 23 23 26 23 23 26 
23 23 26 23 23 26 23 23 26 23 23 26 23 23 26 23 23 26 23 23 26 23 23 159 
144 144 159 143 143 159 143 143 159 143 143 158 143 143 158 142 142 158 
142 142 158 142 142 157 142 142 157 141 141 157 141 141 156 141 141 156 
141 141 156 140 140 156 140 140 155 140 140 155 140 140 155 139 139 155 
139 139 154 139 139 154 139 139 154 138 138 154 138 138 153 138 138 153 
138 138 153 137 137 152 137 137 152 137 137 152 137 137 152 137 137 151 
136 136 26 23 23 26 23 23 26 23 23 26 23 23 26 23 23 26 23 23 26 23 23 26 
23 23 26 23 23 26 23 23 26 23 23 26 23 23 26 23 23 26 23 23 26 23 23 26 
23 23 26 23 23 26 23 23 26 23 23 26 23 23 146 131 131 146 131 131 145 
131 131 145 131 131 145 130 130 145 130 130 144 130 130 144 130 130 144 
129 129 
171 154 154 170 153 153 170 153 153 170 153 153 170 153 153 169 152 
152 169 152 152 169 152 152 169 152 152 168 152 152 168 151 151 168 151 
151 168 151 151 167 151 151 167 150 150 167 150 150 167 150 150 166 150 
150 166 149 149 166 149 149 166 149 149 165 149 149 165 149 149 165 148 
148 165 148 148 164 148 148 164 148 148 164 147 147 163 147 147 163 147 
147 163 147 147 163 146 146 162 146 146 162 146 146 162 146 146 162 146 
146 161 145 145 161 145 145 161 145 145 161 145 145 160 144 144 160 144 
144 160 144 144 160 144 144 159 143 143 159 143 143 159 143 143 159 143 
143 158 142 142 158 142 142 158 142 142 157 142 142 157 141 141 157 141 
141 157 141 141 156 141 141 156 141 141 156 140 140 156 140 140 155 140 
140 155 140 140 155 139 139 155 139 139 154 139 139 154 139 139 154 138 
138 154 138 138 153 138 138 153 138 138 153 137 137 152 137 137 152 137 
137 152 137 137 152 137 137 151 136 136 151 136 136 151 136 136 151 136 
136 150 135 135 150 135 135 150 135 135 150 135 135 149 134 134 149 134 
134 149 134 134 149 134 134 148 133 133 148 133 133 148 133 133 148 133 
133 147 133 133 147 132 132 147 132 132 147 132 132 146 132 132 146 131 
131 146 131 131 145 131 131 145 131 131 145 130 130 
171 154 154 171 154 154 171 154 154 171 153 153 170 153 153 170 153 
153 170 153 153 170 153 153 169 152 152 169 152 152 169 152 152 169 152 
152 168 151 151 168 151 151 168 151 151 168 151 151 167 151 151 167 150 
150 167 150 150 167 150 150 166 150 150 166 149 149 166 149 149 166 149 
149 165 149 149 165 149 149 165 148 148 165 148 148 164 148 148 164 148 
148 164 147 147 164 147 147 163 147 147 163 147 147 163 146 146 162 146 
146 162 146 146 162 146 146 162 146 146 161 145 145 161 145 145 161 145 
145 161 145 145 160 144 144 160 144 144 160 144 144 160 144 144 159 143 
143 159 143 143 159 143 143 159 143 143 158 143 143 158 142 142 158 142 
142 158 142 142 157 142 142 157 141 141 157 141 141 157 141 141 156 141 
141 156 140 140 156 140 140 155 140 140 155 140 140 155 139 139 155 139 
139 154 139 139 154 139 139 154 139 139 154 138 138 153 138 138 153 138 
138 153 138 138 153 137 137 152 137 137 152 137 137 152 137 137 152 136 
136 151 136 136 151 136 136 151 136 136 151 136 136 150 135 135 150 135 
135 150 135 135 150 135 135 149 134 134 149 134 134 149 134 134 149 134 
134 148 134 134 148 133 133 148 133 133 148 133 133 147 133 133 147 132 
132 147 132 132 147 132 132 146 132 132 146 132 132 
172 155 155 172 154 154 171 154 154 171 154 154 171 154 154 171 154 
154 170 153 153 170 153 153 170 153 153 170 153 153 169 153 153 169 152 
152 169 152 152 169 152 152 168 152 152 168 151 151 168 151 151 168 151 
151 167 151 151 167 151 151 167 150 150 167 150 150 166 150 150 166 150 
150 166 149 149 166 149 149 165 149 149 165 149 149 165 148 148 165 148 
148 164 148 148 164 148 148 164 148 148 164 147 147 163 147 147 163 147 
147 163 147 147 163 146 146 162 146 146 162 146 146 162 146 146 162 146 
146 161 145 145 161 145 145 161 145 145 161 145 145 160 144 144 160 144 
144 160 144 144 160 144 144 159 143 143 159 143 143 159 143 143 159 143 
143 158 143 143 158 142 142 158 142 142 158 142 142 157 142 142 157 141 
141 157 141 141 157 141 141 156 141 141 156 141 141 156 140 140 156 140 
140 155 140 140 155 140 140 155 139 139 155 139 139 154 139 139 154 139 
139 154 138 138 154 138 138 153 138 138 153 138 138 153 138 138 153 137 
137 152 137 137 152 137 137 152 137 137 152 136 136 151 136 136 151 136 
136 151 136 136 151 136 136 150 135 135 150 135 135 150 135 135 150 135 
135 149 134 134 149 134 134 149 134 134 149 134 134 148 134 134 148 133 
133 148 133 133 148 133 133 147 133 133 147 132 132 
172 155 155 172 155 155 172 155 155 172 155 155 171 154 154 171 154 
154 171 154 154 171 154 154 171 153 153 170 153 153 170 153 153 170 153 
153 170 153 153 169 152 152 169 152 152 169 152 152 169 152 152 168 152 
152 168 151 151 168 151 151 168 151 151 167 151 151 167 150 150 167 150 
150 167 150 150 166 150 150 166 150 150 166 149 149 166 149 149 165 149 
149 165 149 149 165 148 148 165 148 148 164 148 148 164 148 148 164 148 
148 164 147 147 163 147 147 163 147 147 163 147 147 163 146 146 162 146 
146 162 146 146 162 146 146 162 145 145 161 145 145 161 145 145 161 145 
145 161 145 145 160 144 144 160 144 144 160 144 144 160 144 144 159 143 
143 159 143 143 159 143 143 159 143 143 158 143 143 158 142 142 158 142 
142 158 142 142 157 142 142 157 141 141 157 141 141 157 141 141 156 141 
141 156 141 141 156 140 140 156 140 140 155 140 140 155 140 140 155 139 
139 155 139 139 154 139 139 154 139 139 154 139 139 154 138 138 153 138 
138 153 138 138 153 138 138 153 137 137 153 137 137 152 137 137 152 137 
137 152 137 137 152 136 136 151 136 136 151 136 136 151 136 136 151 136 
136 150 135 135 150 135 135 150 135 135 150 135 135 149 134 134 149 134 
134 149 134 134 149 134 134 148 134 134 148 133 133 
173 156 156 173 155 155 172 155 155 172 155 155 172 155 155 172 155 
155 172 154 154 171 154 154 171 154 154 171 154 154 171 154 154 170 153 
153 170 153 153 170 153 153 170 153 153 169 152 152 169 152 152 169 152 
152 169 152 152 168 152 152 168 151 151 168 151 151 168 151 151 167 151 
151 167 150 150 167 150 150 167 150 150 166 150 150 166 150 150 166 149 
149 166 149 149 166 149 149 165 149 149 165 149 149 165 148 148 165 148 
148 164 148 148 164 148 148 164 147 147 164 147 147 163 147 147 163 147 
147 163 147 147 163 146 146 162 146 146 162 146 146 162 146 146 162 145 
145 161 145 145 161 145 145 161 145 145 161 145 145 160 144 144 160 144 
144 160 144 144 160 144 144 159 143 143 159 143 143 159 143 143 159 143 
143 158 143 143 158 142 142 158 142 142 158 142 142 157 142 142 157 141 
141 157 141 141 157 141 141 156 141 141 156 141 141 156 140 140 156 140 
140 156 140 140 155 140 140 155 140 140 155 139 139 155 139 139 154 139 
139 154 139 139 154 138 138 154 138 138 153 138 138 153 138 138 153 138 
138 153 137 137 152 137 137 152 137 137 152 137 137 152 137 137 151 136 
136 151 136 136 151 136 136 151 136 136 151 135 135 150 135 135 150 135 
135 150 135 135 150 135 135 149 134 134 149 134 134 
173 156 156 173 156 156 173 156 156 173 155 155 172 155 155 172 155 
155 172 155 155 172 155 155 172 154 154 171 154 154 171 154 154 171 154 
154 171 154 154 170 153 153 170 153 153 170 153 153 170 153 153 169 152 
152 169 152 152 169 152 152 169 152 152 168 152 152 168 151 151 168 151 
151 168 151 151 168 151 151 167 151 151 167 150 150 167 150 150 167 150 
150 166 150 150 166 149 149 166 149 149 166 149 149 165 149 149 165 149 
149 165 148 148 165 148 148 164 148 148 164 148 148 164 148 148 164 147 
147 163 147 147 163 147 147 163 147 147 163 146 146 162 146 146 162 146 
146 162 146 146 162 146 146 162 145 145 161 145 145 161 145 145 161 145 
145 161 145 145 160 144 144 160 144 144 160 144 144 160 144 144 159 143 
143 159 143 143 159 143 143 159 143 143 158 143 143 158 142 142 158 142 
142 158 142 142 157 142 142 157 142 142 157 141 141 157 141 141 157 141 
141 156 141 141 156 140 140 156 140 140 156 140 140 155 140 140 155 140 
140 155 139 139 155 139 139 154 139 139 154 139 139 154 139 139 154 138 
138 153 138 138 153 138 138 153 138 138 153 137 137 153 137 137 152 137 
137 152 137 137 152 137 137 152 136 136 151 136 136 151 136 136 151 136 
136 151 136 136 150 135 135 150 135 135 150 135 135 
174 156 156 174 156 156 173 156 156 173 156 156 173 156 156 173 155 
155 172 155 155 172 155 155 172 155 155 172 155 155 171 154 154 171 154 
154 171 154 154 171 154 154 171 154 154 170 153 153 170 153 153 170 153 
153 170 153 153 169 152 152 169 152 152 169 152 152 169 152 152 168 152 
152 168 151 151 168 151 151 168 151 151 168 151 151 167 151 151 167 150 
150 167 150 150 167 150 150 166 150 150 166 150 150 166 149 149 166 149 
149 165 149 149 165 149 149 165 148 148 165 148 148 164 148 148 164 148 
148 164 148 148 164 147 147 164 147 147 163 147 147 163 147 147 163 147 
147 163 146 146 162 146 146 162 146 146 162 146 146 162 145 145 161 145 
145 161 145 145 161 145 145 161 145 145 160 144 144 160 144 144 160 144 
144 160 144 144 160 144 144 159 143 143 159 143 143 159 143 143 159 143 
143 158 143 143 158 142 142 158 142 142 158 142 142 157 142 142 157 142 
142 157 141 141 157 141 141 157 141 141 156 141 141 156 140 140 156 140 
140 156 140 140 155 140 140 155 140 140 155 139 139 155 139 139 154 139 
139 154 139 139 154 139 139 154 138 138 154 138 138 153 138 138 153 138 
138 153 138 138 153 137 137 152 137 137 152 137 137 152 137 137 152 137 
137 152 136 136 151 136 136 151 136 136 151 136 136 
174 157 157 174 157 157 174 156 156 173 156 156 173 156 156 173 156 
156 173 156 156 173 155 155 172 155 155 172 155 155 172 155 155 172 155 
155 171 154 154 171 154 154 171 154 154 171 154 154 171 153 153 170 153 
153 170 153 153 170 153 153 170 153 153 169 152 152 169 152 152 169 152 
152 169 152 152 168 152 152 168 151 151 168 151 151 168 151 151 168 151 
151 167 151 151 167 150 150 167 150 150 167 150 150 166 150 150 166 150 
150 166 149 149 166 149 149 165 149 149 165 149 149 165 149 149 165 148 
148 165 148 148 164 148 148 164 148 148 164 147 147 164 147 147 163 147 
147 163 147 147 163 147 147 163 146 146 162 146 146 162 146 146 162 146 
146 162 146 146 162 145 145 161 145 145 161 145 145 161 145 145 161 145 
145 160 144 144 160 144 144 160 144 144 160 144 144 159 144 144 159 143 
143 159 143 143 159 143 143 159 143 143 158 143 143 158 142 142 158 142 
142 158 142 142 157 142 142 157 141 141 157 141 141 157 141 141 157 141 
141 156 141 141 156 140 140 156 140 140 156 140 140 155 140 140 155 140 
140 155 139 139 155 139 139 155 139 139 154 139 139 154 139 139 154 138 
138 154 138 138 153 138 138 153 138 138 153 138 138 153 137 137 153 137 
137 152 137 137 152 137 137 152 137 137 152 136 136 
175 157 157 174 157 157 174 157 157 174 156 156 174 156 156 173 156 
156 173 156 156 173 156 156 173 155 155 172 155 155 172 155 155 172 155 
155 172 155 155 172 154 154 171 154 154 171 154 154 171 154 154 171 154 
154 170 153 153 170 153 153 170 153 153 170 153 153 170 153 153 169 152 
152 169 152 152 169 152 152 169 152 152 168 152 152 168 151 151 168 151 
151 168 151 151 168 151 151 167 151 151 167 150 150 167 150 150 167 150 
150 166 150 150 166 150 150 166 149 149 166 149 149 166 149 149 165 149 
149 165 149 149 165 148 148 165 148 148 164 148 148 164 148 148 164 148 
148 164 147 147 163 147 147 163 147 147 163 147 147 163 147 147 163 146 
146 162 146 146 162 146 146 162 146 146 162 145 145 161 145 145 161 145 
145 161 145 145 161 145 145 161 144 144 160 144 144 160 144 144 160 144 
144 160 144 144 159 143 143 159 143 143 159 143 143 159 143 143 159 143 
143 158 142 142 158 142 142 158 142 142 158 142 142 157 142 142 157 141 
141 157 141 141 157 141 141 157 141 141 156 141 141 156 140 140 156 140 
140 156 140 140 155 140 140 155 140 140 155 139 139 155 139 139 155 139 
139 154 139 139 154 139 139 154 139 139 154 138 138 153 138 138 153 138 
138 153 138 138 153 138 138 153 137 137 152 137 137 
