P3
100 50
255
0 0 0 0 0 0 0 0 0 0 0 0 0 0 0 0 0 0 0 0 0 0 0 0 0 0 0 0 0 0 0 0 0 0 0 
0 0 0 0 0 0 0 0 0 0 0 0 0 0 0 0 0 0 0 0 0 0 0 0 0 0 0 0 0 0 0 0 0 0 0 0 
0 0 0 0 0 0 0 0 0 0 0 0 0 0 0 0 0 0 0 0 0 0 0 0 0 0 0 0 0 0 0 0 0 0 0 0 
0 0 0 0 0 0 0 0 0 0 0 0 0 0 0 0 0 0 0 0 0 0 0 0 0 0 0 0 0 0 0 0 0 0 0 0 
0 0 0 0 0 0 0 0 0 0 0 0 0 0 0 0 0 0 0 0 0 0 0 0 0 0 0 0 0 0 0 0 0 0 0 0 
0 0 0 0 0 0 0 0 0 0 0 0 0 0 0 0 0 0 0 0 0 0 0 0 0 0 0 0 0 0 0 0 0 0 0 0 
0 0 0 0 0 0 0 0 0 0 0 0 0 0 0 0 0 0 0 0 0 0 0 0 0 0 0 0 0 0 0 0 0 0 0 0 
0 0 0 0 0 0 0 0 0 0 0 0 0 0 0 0 0 0 0 0 0 0 0 0 0 0 0 0 0 0 0 0 0 0 0 0 
0 0 0 0 0 0 0 0 0 0 0 0 0 
0 0 0 0 0 0 0 0 0 0 0 0 0 0 0 0 0 0 0 0 0 0 0 0 0 0 0 0 0 0 0 0 0 0 0 
0 0 0 0 0 0 0 0 0 0 0 0 0 0 0 0 0 0 0 0 0 0 0 0 0 0 0 0 0 0 0 0 0 0 0 0 
0 0 0 0 0 0 0 0 0 0 0 0 0 0 0 0 0 0 0 0 0 0 0 0 0 0 0 0 0 0 0 0 0 0 0 0 
0 0 0 0 0 0 0 0 0 0 0 0 0 0 0 0 0 0 0 0 0 0 0 0 0 0 0 0 0 0 0 0 0 0 0 0 
0 0 0 0 0 0 0 0 0 0 0 0 0 0 0 0 0 0 0 0 0 0 0 0 0 0 0 0 0 0 0 0 0 0 0 0 
0 0 0 0 0 0 0 0 0 0 0 0 0 0 0 0 0 0 0 0 0 0 0 0 0 0 0 0 0 0 0 0 0 0 0 0 
0 0 0 0 0 0 0 0 0 0 0 0 0 0 0 0 0 0 0 0 0 0 0 0 0 0 0 0 0 0 0 0 0 0 0 0 
0 0 0 0 0 0 0 0 0 0 0 0 0 0 0 0 0 0 0 0 0 0 0 0 0 0 0 0 0 0 0 0 0 0 0 0 
0 0 0 0 0 0 0 0 0 0 0 0 0 
0 0 0 0 0 0 0 0 0 0 0 0 0 0 0 0 0 0 0 0 0 0 0 0 0 0 0 0 0 0 0 0 0 0 0 
0 0 0 0 0 0 0 0 0 0 0 0 0 0 0 0 0 0 0 0 0 0 0 0 0 0 0 0 0 0 0 0 0 0 0 0 
0 0 0 0 0 0 0 0 0 0 0 0 0 0 0 0 0 0 0 0 0 0 0 0 0 0 0 0 0 0 0 0 0 0 0 0 
0 0 0 0 0 0 0 0 0 0 0 0 0 0 0 0 0 0 0 0 0 0 0 0 0 0 0 0 0 0 0 0 0 0 0 0 
0 0 0 0 0 0 0 0 0 0 0 0 0 0 0 0 0 0 0 0 0 0 0 0 0 0 0 0 0 0 0 0 0 0 0 0 
0 0 0 0 0 0 0 0 0 0 0 0 0 0 0 0 0 0 0 0 0 0 0 0 0 0 0 0 0 0 0 0 0 0 0 0 
0 0 0 0 0 0 0 0 0 0 0 0 0 0 0 0 0 0 0 0 0 0 0 0 0 0 0 0 0 0 0 0 0 0 0 0 
0 0 0 0 0 0 0 0 0 0 0 0 0 0 0 0 0 0 0 0 0 0 0 0 0 0 0 0 0 0 0 0 0 0 0 0 
0 0 0 0 0 0 0 0 0 0 0 0 0 
0 0 0 0 0 0 0 0 0 0 0 0 0 0 0 0 0 0 0 0 0 0 0 0 0 0 0 0 0 0 0 0 0 0 0 
0 0 0 0 0 0 0 0 0 0 0 0 0 0 0 0 0 0 0 0 0 0 0 0 0 0 0 0 0 0 0 0 0 0 0 0 
0 0 0 0 0 0 0 0 0 0 0 0 0 0 0 0 0 0 0 0 0 0 0 0 0 0 0 0 0 0 0 0 0 0 0 0 
0 0 0 0 0 0 0 0 0 0 0 0 0 0 0 0 0 0 0 0 0 0 0 0 0 0 0 0 0 0 0 0 0 0 0 0 
0 0 0 0 0 0 0 0 0 0 0 0 0 0 0 0 0 0 0 0 0 0 0 0 0 0 0 0 0 0 0 0 0 0 0 0 
0 0 0 0 0 0 0 0 0 0 0 0 0 0 0 0 0 0 0 0 0 0 0 0 0 0 0 0 0 0 0 0 0 0 0 0 
0 0 0 0 0 0 0 0 0 0 0 0 0 0 0 0 0 0 0 0 0 0 0 0 0 0 0 0 0 0 0 0 0 0 0 0 
0 0 0 0 0 0 0 0 0 0 0 0 0 0 0 0 0 0 0 0 0 0 0 0 0 0 0 0 0 0 0 0 0 0 0 0 
0 0 0 0 0 0 0 0 0 0 0 0 0 
0 0 0 0 0 0 0 0 0 0 0 0 0 0 0 0 0 0 0 0 0 0 0 0 0 0 0 0 0 0 0 0 0 0 0 
0 0 0 0 0 0 0 0 0 0 0 0 0 0 0 0 0 0 0 0 0 0 0 0 0 0 0 0 0 0 0 0 0 0 0 0 
0 0 0 0 0 0 0 0 0 0 0 0 0 0 0 0 0 0 0 0 0 0 0 0 0 0 0 0 0 0 0 0 0 0 0 0 
0 0 0 0 0 0 0 0 0 0 0 0 0 0 0 0 0 0 0 0 0 0 0 0 0 0 0 0 0 0 0 0 0 0 0 0 
0 0 0 0 0 0 0 0 0 0 0 0 0 0 0 0 0 0 0 0 0 0 0 0 0 0 0 0 0 0 0 0 0 0 0 0 
0 0 0 0 0 0 0 0 0 0 0 0 0 0 0 0 0 0 0 0 0 0 0 0 0 0 0 0 0 0 0 0 0 0 0 0 
0 0 0 0 0 0 0 0 0 0 0 0 0 0 0 0 0 0 0 0 0 0 0 0 0 0 0 0 0 0 0 0 0 0 0 0 
0 0 0 0 0 0 0 0 0 0 0 0 0 0 0 0 0 0 0 0 0 0 0 0 0 0 0 0 0 0 0 0 0 0 0 0 
0 0 0 0 0 0 0 0 0 0 0 0 0 
0 0 0 0 0 0 0 0 0 0 0 0 0 0 0 0 0 0 0 0 0 0 0 0 0 0 0 0 0 0 0 0 0 0 0 
0 0 0 0 0 0 0 0 0 0 0 0 0 0 0 0 0 0 0 0 0 0 0 0 0 0 0 0 0 0 0 0 0 0 0 0 
0 0 0 0 0 0 0 0 0 0 0 0 0 0 0 0 0 0 0 0 0 0 0 0 0 0 0 0 0 0 0 0 0 0 0 0 
0 0 0 0 0 0 0 0 0 0 0 0 0 0 0 0 0 0 0 0 0 0 0 0 0 0 0 0 0 0 0 0 0 0 0 0 
0 0 0 0 0 0 0 0 0 0 0 0 0 0 0 0 0 0 0 0 0 0 0 0 0 0 0 0 0 0 0 0 0 0 0 0 
0 0 0 0 0 0 0 0 0 0 0 0 0 0 0 0 0 0 0 0 0 0 0 0 0 0 0 0 0 0 0 0 0 0 0 0 
0 0 0 0 0 0 0 0 0 0 0 0 0 0 0 0 0 0 0 0 0 0 0 0 0 0 0 0 0 0 0 0 0 0 0 0 
0 0 0 0 0 0 0 0 0 0 0 0 0 0 0 0 0 0 0 0 0 0 0 0 0 0 0 0 0 0 0 0 0 0 0 0 
0 0 0 0 0 0 0 0 0 0 0 0 0 
0 0 0 0 0 0 0 0 0 0 0 0 0 0 0 0 0 0 0 0 0 0 0 0 0 0 0 0 0 0 0 0 0 0 0 
0 0 0 0 0 0 0 0 0 0 0 0 0 0 0 0 0 0 0 0 0 0 0 0 0 0 0 0 0 0 0 0 0 0 0 0 
0 0 0 0 0 0 0 0 0 0 0 0 0 0 0 0 0 0 0 0 0 0 0 0 0 0 0 0 0 0 0 0 0 0 0 0 
0 0 0 0 0 0 0 0 0 0 0 0 0 0 0 0 0 0 0 0 0 0 0 0 0 0 0 0 0 0 0 0 0 0 0 0 
0 0 0 0 0 0 0 0 0 0 0 0 0 0 0 0 0 0 0 0 0 0 0 0 0 0 0 0 0 0 0 0 0 0 0 0 
0 0 0 0 0 0 0 0 0 0 0 0 0 0 0 0 0 0 0 0 0 0 0 0 0 0 0 0 0 0 0 0 0 0 0 0 
0 0 0 0 0 0 0 0 0 0 0 0 0 0 0 0 0 0 0 0 0 0 0 0 0 0 0 0 0 0 0 0 0 0 0 0 
0 0 0 0 0 0 0 0 0 0 0 0 0 0 0 0 0 0 0 0 0 0 0 0 0 0 0 0 0 0 0 0 0 0 0 0 
0 0 0 0 0 0 0 0 0 0 0 0 0 
0 0 0 0 0 0 0 0 0 0 0 0 0 0 0 0 0 0 0 0 0 0 0 0 0 0 0 0 0 0 0 0 0 0 0 
0 0 0 0 0 0 0 0 0 0 0 0 0 0 0 0 0 0 0 0 0 0 0 0 0 0 0 0 0 0 0 0 0 0 0 0 
0 0 0 0 0 0 0 0 0 0 0 0 0 0 0 0 0 0 0 0 0 0 0 0 0 0 0 0 0 0 0 0 0 0 0 0 
0 0 0 0 0 0 0 0 0 0 0 0 0 0 0 0 0 0 0 0 0 0 0 0 0 0 0 0 0 0 0 0 0 0 0 0 
0 0 0 0 0 0 0 0 0 0 0 0 0 0 0 0 0 0 0 0 0 0 0 0 0 0 0 0 0 0 0 0 0 0 0 0 
0 0 0 0 0 0 0 0 0 0 0 0 0 0 0 0 0 0 0 0 0 0 0 0 0 0 0 0 0 0 0 0 0 0 0 0 
0 0 0 0 0 0 0 0 0 0 0 0 0 0 0 0 0 0 0 0 0 0 0 0 0 0 0 0 0 0 0 0 0 0 0 0 
0 0 0 0 0 0 0 0 0 0 0 0 0 0 0 0 0 0 0 0 0 0 0 0 0 0 0 0 0 0 0 0 0 0 0 0 
0 0 0 0 0 0 0 0 0 0 0 0 0 
0 0 0 0 0 0 0 0 0 0 0 0 0 0 0 0 0 0 0 0 0 0 0 0 0 0 0 0 0 0 0 0 0 0 0 
0 0 0 0 0 0 0 0 0 0 0 0 0 0 0 0 0 0 0 0 0 0 0 0 0 0 0 0 0 0 0 0 0 0 130 
130 130 140 140 140 3 3 3 10 10 10 15 15 15 0 0 0 0 0 0 0 0 0 0 0 0 0 0 0 
0 0 0 0 0 0 0 0 0 0 0 0 0 0 0 0 0 0 0 0 0 0 0 0 0 0 0 0 0 0 0 0 0 0 0 0 
0 0 0 0 0 0 0 0 0 0 0 0 0 0 0 0 0 0 0 0 0 0 0 0 0 0 0 0 0 0 0 0 0 0 0 0 
0 0 0 0 0 0 0 0 0 0 0 0 0 0 0 0 0 0 0 0 0 0 0 0 0 0 0 0 0 0 0 0 0 0 0 0 
0 0 0 0 0 0 0 0 0 135 135 135 134 134 134 129 129 129 121 121 121 108 
108 108 0 0 0 0 0 0 0 0 0 0 0 0 0 0 0 0 0 0 0 0 0 0 0 0 0 0 0 0 0 0 0 0 0 
0 0 0 0 0 0 0 0 0 0 0 0 0 0 0 0 0 0 0 0 0 0 0 0 0 0 0 0 0 0 0 0 0 0 0 0 
0 0 0 0 0 0 0 0 0 0 0 0 0 0 0 0 0 0 0 0 0 0 0 0 0 0 0 0 0 0 0 0 0 0 0 
0 0 0 0 0 0 0 0 0 0 0 0 0 0 0 0 0 0 0 0 0 0 0 0 0 133 133 133 145 145 
145 153 153 153 158 158 158 4 4 4 12 12 12 19 19 19 25 25 25 30 30 30 33 
33 33 34 34 34 33 33 33 0 0 0 0 0 0 0 0 0 0 0 0 0 0 0 0 0 0 0 0 0 0 0 0 
0 0 0 0 0 0 0 0 0 0 0 0 0 0 0 0 0 0 0 0 0 0 0 0 0 0 0 0 0 0 0 0 0 0 0 0 
0 0 0 0 0 0 0 0 0 0 0 0 0 0 0 0 0 0 0 0 0 0 0 0 0 0 0 0 0 0 0 0 0 0 0 0 
0 0 0 0 0 0 0 0 0 0 0 0 147 147 147 152 152 152 152 152 152 151 151 151 
148 148 148 144 144 144 139 139 139 134 134 134 127 127 127 120 120 120 
110 110 110 98 98 98 0 0 0 0 0 0 0 0 0 0 0 0 0 0 0 0 0 0 0 0 0 0 0 0 0 0 
0 0 0 0 0 0 0 0 0 0 0 0 0 0 0 0 0 0 0 0 0 0 0 0 0 0 0 0 0 0 0 0 0 0 
0 0 0 0 0 0 0 0 0 0 0 0 0 0 0 0 0 0 0 0 0 0 0 0 0 0 0 0 0 0 0 0 0 0 0 
0 0 0 0 0 0 0 0 0 0 0 0 0 0 0 0 100 100 100 125 125 125 139 139 139 149 
149 149 157 157 157 163 163 163 168 168 168 9 9 9 17 17 17 24 24 24 30 30 
30 35 35 35 38 38 38 41 41 41 42 42 42 40 40 40 35 35 35 0 0 0 0 0 0 0 0 
0 0 0 0 0 0 0 0 0 0 0 0 0 0 0 0 0 0 0 0 0 0 0 0 0 0 0 0 0 0 0 0 0 0 0 0 
0 0 0 0 0 0 0 0 0 0 0 0 0 0 0 0 0 0 0 0 0 0 0 0 0 0 0 0 0 0 0 0 0 0 0 0 
0 0 0 0 0 0 0 0 0 0 0 0 0 0 0 0 147 147 147 152 152 152 153 153 153 153 
153 153 151 151 151 149 149 149 145 145 145 142 142 142 137 137 137 132 
132 132 127 127 127 121 121 121 114 114 114 105 105 105 96 96 96 83 83 83 
60 60 60 0 0 0 0 0 0 0 0 0 0 0 0 0 0 0 0 0 0 0 0 0 0 0 0 0 0 0 0 0 0 0 0 
0 0 0 0 0 0 0 0 0 0 0 0 0 0 0 0 0 0 0 
0 0 0 0 0 0 0 0 0 0 0 0 0 0 0 0 0 0 0 0 0 0 0 0 0 0 0 0 0 0 0 0 0 0 0 
0 0 0 0 0 0 0 0 0 0 0 0 0 106 106 106 124 124 124 138 138 138 148 148 
148 157 157 157 164 164 164 169 169 169 3 3 3 12 12 12 20 20 20 27 27 27 
33 33 33 38 38 38 42 42 42 44 44 44 46 46 46 45 45 45 43 43 43 38 38 38 
26 26 26 0 0 0 0 0 0 0 0 0 0 0 0 0 0 0 0 0 0 0 0 0 0 0 0 0 0 0 0 0 0 0 0 
0 0 0 0 0 0 0 0 0 0 0 0 0 0 0 0 0 0 0 0 0 0 0 0 0 0 0 0 0 0 0 0 0 0 0 0 
0 0 0 0 0 0 0 0 0 0 0 0 0 0 0 0 134 134 134 145 145 145 148 148 148 149 
149 149 148 148 148 147 147 147 145 145 145 142 142 142 139 139 139 136 
136 136 132 132 132 127 127 127 122 122 122 117 117 117 111 111 111 104 
104 104 97 97 97 88 88 88 77 77 77 62 62 62 0 0 0 0 0 0 0 0 0 0 0 0 0 0 0 
0 0 0 0 0 0 0 0 0 0 0 0 0 0 0 0 0 0 0 0 0 0 0 0 0 0 0 0 0 0 0 0 0 
0 0 0 0 0 0 0 0 0 0 0 0 0 0 0 0 0 0 0 0 0 0 0 0 0 0 0 0 0 0 0 0 0 0 0 
0 0 0 0 0 0 0 0 0 0 102 102 102 120 120 120 133 133 133 144 144 144 154 
154 154 161 161 161 168 168 168 172 172 172 6 6 6 15 15 15 23 23 23 29 29 
29 35 35 35 40 40 40 44 44 44 47 47 47 48 48 48 48 48 48 47 47 47 43 43 
43 37 37 37 26 26 26 0 0 0 0 0 0 0 0 0 0 0 0 0 0 0 0 0 0 0 0 0 0 0 0 0 0 
0 0 0 0 0 0 0 0 0 0 0 0 0 0 0 0 0 0 0 0 0 0 0 0 0 0 0 0 0 0 0 0 0 0 0 0 
0 0 0 0 0 0 0 0 0 0 0 0 0 0 0 0 130 130 130 138 138 138 141 141 141 142 
142 142 142 142 142 141 141 141 139 139 139 137 137 137 134 134 134 131 
131 131 128 128 128 124 124 124 120 120 120 116 116 116 111 111 111 106 
106 106 100 100 100 94 94 94 86 86 86 78 78 78 68 68 68 55 55 55 0 0 0 0 
0 0 0 0 0 0 0 0 0 0 0 0 0 0 0 0 0 0 0 0 0 0 0 0 0 0 0 0 0 0 0 0 0 0 0 0 
0 0 0 0 0 
0 0 0 0 0 0 0 0 0 0 0 0 0 0 0 0 0 0 0 0 0 0 0 0 0 0 0 0 0 0 0 0 0 0 0 
0 0 0 0 0 0 0 94 94 94 112 112 112 127 127 127 139 139 139 149 149 149 
157 157 157 164 164 164 170 170 170 174 174 174 9 9 9 17 17 17 24 24 24 
31 31 31 37 37 37 41 41 41 45 45 45 48 48 48 50 50 50 50 50 50 49 49 49 
46 46 46 41 41 41 33 33 33 20 20 20 0 0 0 0 0 0 0 0 0 0 0 0 0 0 0 0 0 0 
0 0 0 0 0 0 0 0 0 0 0 0 0 0 0 0 0 0 0 0 0 0 0 0 0 0 0 0 0 0 0 0 0 0 0 0 
0 0 0 0 0 0 0 0 0 0 0 0 0 0 0 0 0 0 121 121 121 129 129 129 132 132 132 
133 133 133 133 133 133 132 132 132 131 131 131 129 129 129 127 127 127 
125 125 125 122 122 122 119 119 119 116 116 116 112 112 112 108 108 108 
104 104 104 99 99 99 94 94 94 89 89 89 82 82 82 76 76 76 68 68 68 58 58 
58 46 46 46 0 0 0 0 0 0 0 0 0 0 0 0 0 0 0 0 0 0 0 0 0 0 0 0 0 0 0 0 0 0 
0 0 0 0 0 0 0 0 0 0 0 0 
0 0 0 0 0 0 0 0 0 0 0 0 0 0 0 0 0 0 0 0 0 0 0 0 0 0 0 0 0 0 0 0 0 0 0 
0 0 0 0 83 83 83 103 103 103 118 118 118 131 131 131 142 142 142 151 
151 151 159 159 159 165 165 165 171 171 171 2 2 2 11 11 11 19 19 19 26 26 
26 32 32 32 38 38 38 42 42 42 46 46 46 49 49 49 50 50 50 51 51 51 50 50 
50 47 47 47 43 43 43 37 37 37 27 27 27 20 20 20 0 0 0 0 0 0 0 0 0 0 0 0 
0 0 0 0 0 0 0 0 0 0 0 0 0 0 0 0 0 0 0 0 0 0 0 0 0 0 0 0 0 0 0 0 0 0 0 0 
0 0 0 0 0 0 0 0 0 0 0 0 0 0 0 0 0 0 109 109 109 117 117 117 121 121 121 
122 122 122 123 123 123 123 123 123 122 122 122 121 121 121 119 119 119 
117 117 117 115 115 115 112 112 112 110 110 110 107 107 107 103 103 103 
100 100 100 96 96 96 92 92 92 87 87 87 82 82 82 77 77 77 71 71 71 65 65 
65 57 57 57 48 48 48 36 36 36 0 0 0 0 0 0 0 0 0 0 0 0 0 0 0 0 0 0 0 0 0 
0 0 0 0 0 0 0 0 0 0 0 0 0 0 0 0 0 0 
0 0 0 0 0 0 0 0 0 0 0 0 0 0 0 0 0 0 0 0 0 0 0 0 0 0 0 0 0 0 0 0 0 0 0 
0 69 69 69 91 91 91 108 108 108 122 122 122 133 133 133 143 143 143 152 
152 152 159 159 159 165 165 165 170 170 170 4 4 4 12 12 12 20 20 20 27 27 
27 33 33 33 38 38 38 43 43 43 46 46 46 49 49 49 50 50 50 51 51 51 50 50 
50 48 48 48 44 44 44 38 38 38 29 29 29 20 20 20 21 21 21 0 0 0 0 0 0 0 0 
0 0 0 0 0 0 0 0 0 0 0 0 0 0 0 0 0 0 0 0 0 0 0 0 0 0 0 0 0 0 0 0 0 0 0 0 
0 0 0 0 0 0 0 0 0 0 0 0 0 0 0 0 91 91 91 104 104 104 109 109 109 111 
111 111 112 112 112 112 112 112 112 112 112 111 111 111 110 110 110 108 
108 108 106 106 106 104 104 104 102 102 102 100 100 100 97 97 97 94 94 94 
91 91 91 87 87 87 84 84 84 80 80 80 75 75 75 71 71 71 66 66 66 60 60 60 
54 54 54 46 46 46 37 37 37 24 24 24 0 0 0 0 0 0 0 0 0 0 0 0 0 0 0 0 0 0 
0 0 0 0 0 0 0 0 0 0 0 0 0 0 0 0 0 0 
0 0 0 0 0 0 0 0 0 0 0 0 0 0 0 0 0 0 0 0 0 0 0 0 0 0 0 0 0 0 0 0 0 49 
49 49 78 78 78 96 96 96 111 111 111 124 124 124 135 135 135 144 144 144 
152 152 152 159 159 159 165 165 165 169 169 169 5 5 5 13 13 13 21 21 21 
28 28 28 34 34 34 39 39 39 43 43 43 46 46 46 49 49 49 50 50 50 50 50 50 
50 50 50 47 47 47 44 44 44 38 38 38 30 30 30 21 21 21 22 22 22 0 0 0 0 0 
0 0 0 0 0 0 0 0 0 0 0 0 0 0 0 0 0 0 0 0 0 0 0 0 0 0 0 0 0 0 0 0 0 0 0 0 
0 0 0 0 0 0 0 0 0 0 0 0 0 0 0 0 0 0 0 90 90 90 96 96 96 98 98 98 100 
100 100 101 101 101 101 101 101 100 100 100 99 99 99 98 98 98 97 97 97 96 
96 96 94 94 94 92 92 92 90 90 90 87 87 87 84 84 84 82 82 82 79 79 79 75 
75 75 72 72 72 68 68 68 64 64 64 60 60 60 55 55 55 49 49 49 43 43 43 36 
36 36 26 26 26 13 13 13 0 0 0 0 0 0 0 0 0 0 0 0 0 0 0 0 0 0 0 0 0 0 0 0 
0 0 0 0 0 0 0 0 0 
0 0 0 0 0 0 0 0 0 0 0 0 0 0 0 0 0 0 0 0 0 0 0 0 0 0 0 0 0 0 0 0 0 61 
61 61 83 83 83 99 99 99 113 113 113 125 125 125 135 135 135 144 144 144 
152 152 152 160 160 160 164 164 164 168 168 168 6 6 6 14 14 14 21 21 21 
28 28 28 34 34 34 39 39 39 43 43 43 46 46 46 48 48 48 50 50 50 50 50 50 
49 49 49 47 47 47 43 43 43 38 38 38 30 30 30 21 21 21 22 22 22 23 23 23 
0 0 0 0 0 0 0 0 0 0 0 0 0 0 0 0 0 0 0 0 0 0 0 0 0 0 0 0 0 0 0 0 0 0 0 0 
0 0 0 0 0 0 0 0 0 0 0 0 0 0 0 0 0 0 72 72 72 81 81 81 85 85 85 87 87 87 
88 88 88 89 89 89 89 89 89 89 89 89 88 88 88 87 87 87 86 86 86 85 85 85 
83 83 83 81 81 81 79 79 79 77 77 77 75 75 75 72 72 72 70 70 70 67 67 67 
64 64 64 60 60 60 57 57 57 53 53 53 49 49 49 44 44 44 39 39 39 33 33 33 
26 26 26 15 15 15 0 0 0 0 0 0 0 0 0 0 0 0 0 0 0 0 0 0 0 0 0 0 0 0 0 0 0 
0 0 0 0 0 0 
0 0 0 0 0 0 0 0 0 0 0 0 0 0 0 0 0 0 0 0 0 0 0 0 0 0 0 0 0 0 37 37 37 
67 67 67 85 85 85 101 101 101 114 114 114 125 125 125 135 135 135 143 
143 143 159 159 159 197 197 197 172 172 172 166 166 166 7 7 7 15 15 15 22 
22 22 28 28 28 34 34 34 38 38 38 42 42 42 45 45 45 47 47 47 49 49 49 49 
49 49 48 48 48 45 45 45 42 42 42 36 36 36 29 29 29 21 21 21 22 22 22 23 
23 23 0 0 0 0 0 0 0 0 0 0 0 0 0 0 0 0 0 0 0 0 0 0 0 0 0 0 0 0 0 0 0 0 0 
0 0 0 0 0 0 0 0 0 0 0 0 0 0 0 0 0 0 0 0 0 66 66 66 71 71 71 74 74 74 76 
76 76 77 77 77 77 77 77 77 77 77 77 77 77 76 76 76 76 76 76 76 76 76 74 
74 74 72 72 72 71 71 71 69 69 69 67 67 67 65 65 65 63 63 63 61 61 61 58 
58 58 56 56 56 53 53 53 50 50 50 46 46 46 43 43 43 39 39 39 34 34 34 29 
29 29 23 23 23 16 16 16 10 10 10 0 0 0 0 0 0 0 0 0 0 0 0 0 0 0 0 0 0 0 0 
0 0 0 0 0 0 0 0 0 0 
0 0 0 0 0 0 0 0 0 0 0 0 0 0 0 0 0 0 0 0 0 0 0 0 0 0 0 0 0 0 46 46 46 
70 70 70 87 87 87 101 101 101 114 114 114 124 124 124 133 133 133 142 
142 142 177 177 177 217 217 217 167 167 167 163 163 163 7 7 7 15 15 15 22 
22 22 28 28 28 33 33 33 38 38 38 42 42 42 44 44 44 46 46 46 47 47 47 47 
47 47 46 46 46 44 44 44 40 40 40 35 35 35 28 28 28 21 21 21 22 22 22 23 
23 23 24 24 24 0 0 0 0 0 0 0 0 0 0 0 0 0 0 0 0 0 0 0 0 0 0 0 0 0 0 0 0 0 
0 0 0 0 0 0 0 0 0 0 0 0 0 0 0 0 0 0 0 45 45 45 56 56 56 60 60 60 62 62 
62 64 64 64 65 65 65 65 65 65 65 65 65 65 65 65 65 65 65 84 84 84 101 
101 101 66 66 66 62 62 62 60 60 60 59 59 59 57 57 57 56 56 56 54 54 54 52 
52 52 50 50 50 47 47 47 45 45 45 42 42 42 39 39 39 36 36 36 33 33 33 29 
29 29 25 25 25 20 20 20 14 14 14 8 8 8 0 0 0 0 0 0 0 0 0 0 0 0 0 0 0 0 0 
0 0 0 0 0 0 0 0 0 0 0 0 0 
0 0 0 0 0 0 0 0 0 0 0 0 0 0 0 0 0 0 0 0 0 0 0 0 0 0 0 0 0 0 51 51 51 
71 71 71 87 87 87 101 101 101 113 113 113 123 123 123 132 132 132 140 
140 140 152 152 152 158 158 158 156 156 156 160 160 160 8 8 8 15 15 15 22 
22 22 28 28 28 33 33 33 37 37 37 41 41 41 43 43 43 45 45 45 46 46 46 46 
46 46 44 44 44 42 42 42 38 38 38 33 33 33 25 25 25 21 21 21 22 22 22 24 
24 24 25 25 25 0 0 0 0 0 0 0 0 0 0 0 0 0 0 0 0 0 0 0 0 0 0 0 0 0 0 0 0 0 
0 0 0 0 0 0 0 0 0 0 0 0 0 0 0 0 0 0 0 39 39 39 46 46 46 49 49 49 51 51 
51 52 52 52 53 53 53 53 53 53 54 54 54 54 54 54 55 55 55 93 93 93 99 99 
99 55 55 55 51 51 51 50 50 50 49 49 49 48 48 48 46 46 46 45 45 45 43 43 
43 41 41 41 39 39 39 37 37 37 35 35 35 33 33 33 30 30 30 27 27 27 24 24 
24 21 21 21 17 17 17 12 12 12 7 7 7 0 0 0 0 0 0 0 0 0 0 0 0 0 0 0 0 0 0 
0 0 0 0 0 0 0 0 0 0 0 0 
0 0 0 0 0 0 0 0 0 0 0 0 0 0 0 0 0 0 0 0 0 0 0 0 0 0 0 0 0 0 53 53 53 
72 72 72 87 87 87 100 100 100 111 111 111 121 121 121 129 129 129 137 
137 137 143 143 143 148 148 148 153 153 153 0 0 0 8 8 8 15 15 15 21 21 21 
27 27 27 32 32 32 36 36 36 39 39 39 42 42 42 43 43 43 44 44 44 44 44 44 
42 42 42 39 39 39 35 35 35 30 30 30 23 23 23 21 21 21 22 22 22 24 24 24 
25 25 25 0 0 0 0 0 0 0 0 0 0 0 0 0 0 0 0 0 0 0 0 0 0 0 0 0 0 0 0 0 0 0 0 
0 0 0 0 0 0 0 0 0 0 0 0 0 0 0 0 30 30 30 35 35 35 37 37 37 39 39 39 40 
40 40 41 41 41 42 42 42 42 42 42 42 42 42 43 43 43 46 46 46 45 45 45 41 
41 41 41 41 41 40 40 40 39 39 39 38 38 38 37 37 37 36 36 36 34 34 34 33 
33 33 31 31 31 30 30 30 28 28 28 26 26 26 24 24 24 22 22 22 19 19 19 16 
16 16 13 13 13 9 9 9 5 5 5 0 0 0 0 0 0 0 0 0 0 0 0 0 0 0 0 0 0 0 0 0 0 0 
0 0 0 0 0 0 0 
0 0 0 0 0 0 0 0 0 0 0 0 0 0 0 0 0 0 0 0 0 0 0 0 0 0 0 24 24 24 53 53 
53 71 71 71 86 86 86 98 98 98 109 109 109 119 119 119 127 127 127 134 
134 134 140 140 140 145 145 145 149 149 149 0 0 0 8 8 8 15 15 15 21 21 21 
26 26 26 31 31 31 35 35 35 38 38 38 40 40 40 42 42 42 42 42 42 41 41 41 
40 40 40 37 37 37 33 33 33 27 27 27 20 20 20 21 21 21 23 23 23 24 24 24 
25 25 25 0 0 0 0 0 0 0 0 0 0 0 0 0 0 0 0 0 0 0 0 0 0 0 0 0 0 0 0 0 0 0 0 
0 0 0 0 0 0 0 0 0 0 0 0 0 0 0 0 20 20 20 24 24 24 26 26 26 28 28 28 29 
29 29 30 30 30 31 31 31 31 31 31 31 31 31 31 31 31 31 31 31 31 31 31 31 
31 31 31 31 31 30 30 30 30 30 30 29 29 29 28 28 28 27 27 27 26 26 26 25 
25 25 24 24 24 22 22 22 21 21 21 20 20 20 18 18 18 16 16 16 14 14 14 12 
12 12 9 9 9 7 7 7 4 4 4 4 4 4 0 0 0 0 0 0 0 0 0 0 0 0 0 0 0 0 0 0 0 0 0 
0 0 0 0 0 0 
0 0 0 0 0 0 0 0 0 0 0 0 0 0 0 0 0 0 0 0 0 0 0 0 0 0 0 27 27 27 53 53 
53 70 70 70 84 84 84 96 96 96 106 106 106 116 116 116 123 123 123 130 
130 130 136 136 136 141 141 141 144 144 144 1 1 1 8 8 8 15 15 15 20 20 20 
26 26 26 30 30 30 34 34 34 36 36 36 38 38 38 40 40 40 40 40 40 39 39 39 
37 37 37 34 34 34 30 30 30 24 24 24 20 20 20 21 21 21 23 23 23 24 24 24 
25 25 25 0 0 0 0 0 0 0 0 0 0 0 0 0 0 0 0 0 0 0 0 0 0 0 0 0 0 0 0 0 0 0 0 
0 0 0 0 0 0 0 0 0 0 0 0 0 0 0 0 10 10 10 13 13 13 15 15 15 17 17 17 18 
18 18 19 19 19 20 20 20 20 20 20 21 21 21 21 21 21 21 21 21 21 21 21 21 
21 21 21 21 21 21 21 21 20 20 20 20 20 20 19 19 19 19 19 19 18 18 18 17 
17 17 16 16 16 15 15 15 14 14 14 13 13 13 12 12 12 11 11 11 9 9 9 8 8 8 
6 6 6 4 4 4 3 3 3 2 2 2 0 0 0 0 0 0 0 0 0 0 0 0 0 0 0 0 0 0 0 0 0 0 0 0 
0 0 0 
0 0 0 0 0 0 0 0 0 0 0 0 0 0 0 0 0 0 0 0 0 0 0 0 0 0 0 26 26 26 51 51 
51 68 68 68 82 82 82 93 93 93 103 103 103 112 112 112 120 120 120 126 
126 126 132 132 132 136 136 136 140 140 140 1 1 1 8 8 8 14 14 14 20 20 20 
25 25 25 29 29 29 32 32 32 35 35 35 37 37 37 37 37 37 37 37 37 36 36 36 
34 34 34 31 31 31 26 26 26 20 20 20 20 20 20 21 21 21 23 23 23 24 24 24 
25 25 25 0 0 0 0 0 0 0 0 0 0 0 0 0 0 0 0 0 0 0 0 0 0 0 0 0 0 0 0 0 0 0 0 
0 0 0 0 0 0 0 0 0 0 0 0 0 0 0 0 0 0 0 3 3 3 5 5 5 6 6 6 7 7 7 8 8 8 9 9 
9 10 10 10 10 10 10 11 11 11 11 11 11 11 11 11 12 12 12 12 12 12 12 12 
12 11 11 11 11 11 11 11 11 11 11 11 11 10 10 10 10 10 10 9 9 9 9 9 9 8 8 
8 7 7 7 7 7 7 6 6 6 5 5 5 4 4 4 3 3 3 2 2 2 1 1 1 1 1 1 0 0 0 0 0 0 0 0 
0 0 0 0 0 0 0 0 0 0 0 0 0 0 0 0 0 0 0 
0 0 0 0 0 0 0 0 0 0 0 0 0 0 0 0 0 0 0 0 0 0 0 0 0 0 0 23 23 23 49 49 
49 65 65 65 79 79 79 90 90 90 100 100 100 108 108 108 116 116 116 122 
122 122 127 127 127 131 131 131 135 135 135 0 0 0 7 7 7 13 13 13 19 19 19 
23 23 23 27 27 27 30 30 30 33 33 33 34 34 34 35 35 35 35 35 35 33 33 33 
31 31 31 27 27 27 23 23 23 19 19 19 20 20 20 21 21 21 23 23 23 24 24 24 
25 25 25 124 111 111 123 111 111 123 111 111 123 110 110 122 110 110 122 
110 110 122 110 110 122 109 109 121 109 109 121 109 109 121 109 109 121 
108 108 120 108 108 120 108 108 120 108 108 119 107 107 140 140 140 155 
155 155 163 163 163 169 169 169 172 172 172 174 174 174 175 175 175 176 
176 176 0 0 0 1 1 1 2 2 2 2 2 2 2 2 2 3 3 3 3 3 3 3 3 3 3 3 3 3 3 3 3 3 3 
3 3 3 3 3 3 3 3 3 3 3 3 2 2 2 2 2 2 2 2 2 1 1 1 1 1 1 1 1 1 0 0 0 0 0 0 
25 25 25 25 25 25 0 0 0 0 0 0 0 0 0 0 0 0 0 0 0 0 0 0 0 0 0 0 0 0 0 0 0 
0 0 0 0 0 0 0 0 0 0 0 0 0 0 0 0 0 0 0 0 0 0 0 0 135 122 122 135 122 
122 45 45 45 62 62 62 75 75 75 86 86 86 96 96 96 104 104 104 111 111 111 
117 117 117 122 122 122 126 126 126 129 129 129 0 0 0 7 7 7 13 13 13 18 
18 18 22 22 22 26 26 26 29 29 29 31 31 31 32 32 32 32 32 32 32 32 32 30 
30 30 28 28 28 24 24 24 19 19 19 19 19 19 20 20 20 21 21 21 22 22 22 24 
24 24 25 25 25 129 116 116 128 116 116 128 115 115 128 115 115 128 115 
115 127 115 115 127 114 114 127 114 114 126 114 114 126 113 113 126 113 
113 125 113 113 125 113 113 125 112 112 125 112 112 124 112 112 123 123 
123 138 138 138 147 147 147 153 153 153 156 156 156 159 159 159 160 160 
160 160 160 160 160 160 160 159 159 159 157 157 157 155 155 155 153 153 
153 150 150 150 146 146 146 142 142 142 138 138 138 133 133 133 128 128 
128 123 123 123 117 117 117 110 110 110 103 103 103 96 96 96 88 88 88 79 
79 79 70 70 70 60 60 60 48 48 48 35 35 35 24 24 24 24 24 24 113 102 102 
112 101 101 0 0 0 0 0 0 0 0 0 0 0 0 0 0 0 0 0 0 0 0 0 0 0 0 
142 128 128 142 128 128 142 128 128 142 128 128 142 127 127 141 127 
127 141 127 127 141 127 127 141 127 127 141 127 127 41 41 41 58 58 58 71 
71 71 82 82 82 91 91 91 99 99 99 106 106 106 112 112 112 117 117 117 120 
120 120 123 123 123 125 125 125 6 6 6 12 12 12 17 17 17 21 21 21 24 24 24 
27 27 27 29 29 29 30 30 30 30 30 30 29 29 29 27 27 27 24 24 24 20 20 20 
18 18 18 19 19 19 20 20 20 21 21 21 22 22 22 24 24 24 25 25 25 133 120 
120 133 119 119 132 119 119 132 119 119 132 119 119 132 118 118 131 118 
118 131 118 118 131 118 118 130 117 117 130 117 117 130 117 117 129 116 
116 129 116 116 129 116 116 128 116 116 104 104 104 122 122 122 131 131 
131 137 137 137 141 141 141 143 143 143 145 145 145 145 145 145 145 145 
145 144 144 144 143 143 143 141 141 141 139 139 139 136 136 136 133 133 
133 129 129 129 125 125 125 121 121 121 116 116 116 111 111 111 105 105 
105 99 99 99 92 92 92 85 85 85 78 78 78 69 69 69 60 60 60 51 51 51 40 40 
40 27 27 27 23 23 23 22 22 22 118 106 106 117 106 106 117 105 105 117 
105 105 116 105 105 116 104 104 116 104 104 115 104 104 115 104 104 115 
103 103 
147 132 132 146 132 132 146 132 132 146 132 132 146 131 131 146 131 
131 146 131 131 145 131 131 145 131 131 145 131 131 36 36 36 53 53 53 66 
66 66 77 77 77 86 86 86 94 94 94 101 101 101 106 106 106 111 111 111 114 
114 114 117 117 117 118 118 118 5 5 5 11 11 11 15 15 15 19 19 19 22 22 22 
25 25 25 26 26 26 27 27 27 27 27 27 26 26 26 24 24 24 20 20 20 16 16 16 
17 17 17 19 19 19 20 20 20 21 21 21 22 22 22 24 24 24 24 24 24 137 123 
123 136 123 123 136 122 122 136 122 122 136 122 122 135 122 122 135 121 
121 135 121 121 134 121 121 134 121 121 134 120 120 133 120 120 133 120 
120 133 119 119 132 119 119 132 119 119 83 83 83 104 104 104 114 114 114 
121 121 121 125 125 125 128 128 128 129 129 129 130 130 130 130 130 130 
130 130 130 129 129 129 127 127 127 125 125 125 122 122 122 119 119 119 
116 116 116 112 112 112 108 108 108 104 104 104 99 99 99 93 93 93 88 88 
88 82 82 82 75 75 75 68 68 68 60 60 60 51 51 51 42 42 42 31 31 31 21 21 
21 21 21 21 21 21 21 121 109 109 121 109 109 121 109 109 121 108 108 120 
108 108 120 108 108 120 108 108 119 107 107 119 107 107 119 107 107 
150 135 135 150 135 135 150 135 135 150 135 135 150 135 135 149 135 
135 149 134 134 149 134 134 149 134 134 149 134 134 28 28 28 48 48 48 61 
61 61 72 72 72 81 81 81 89 89 89 95 95 95 100 100 100 105 105 105 108 
108 108 110 110 110 111 111 111 5 5 5 10 10 10 14 14 14 18 18 18 20 20 20 
22 22 22 24 24 24 24 24 24 24 24 24 22 22 22 20 20 20 16 16 16 16 16 16 
17 17 17 19 19 19 20 20 20 21 21 21 22 22 22 23 23 23 140 126 126 140 
126 126 140 126 126 139 125 125 139 125 125 139 125 125 138 125 125 138 
124 124 138 124 124 138 124 124 137 123 123 137 123 123 137 123 123 136 
123 123 136 122 122 136 122 122 135 122 122 135 122 122 86 86 86 98 98 98 
105 105 105 109 109 109 112 112 112 114 114 114 115 115 115 116 116 116 
115 115 115 114 114 114 113 113 113 111 111 111 109 109 109 106 106 106 
103 103 103 100 100 100 96 96 96 92 92 92 87 87 87 82 82 82 77 77 77 71 
71 71 64 64 64 58 58 58 50 50 50 42 42 42 33 33 33 22 22 22 20 20 20 20 
20 20 19 19 19 125 112 112 124 112 112 124 112 112 124 111 111 124 111 
111 123 111 111 123 111 111 123 110 110 122 110 110 122 110 110 
154 138 138 153 138 138 153 138 138 153 138 138 153 138 138 153 137 
137 152 137 137 152 137 137 152 137 137 152 137 137 152 136 136 41 41 41 
55 55 55 66 66 66 75 75 75 83 83 83 89 89 89 94 94 94 98 98 98 101 101 
101 103 103 103 104 104 104 4 4 4 8 8 8 12 12 12 16 16 16 18 18 18 20 20 
20 21 21 21 21 21 21 20 20 20 19 19 19 16 16 16 15 15 15 16 16 16 17 17 
17 19 19 19 20 20 20 21 21 21 22 22 22 23 23 23 143 129 129 143 129 129 
142 128 128 142 128 128 142 128 128 142 127 127 141 127 127 141 127 127 
141 127 127 140 126 126 140 126 126 140 126 126 139 125 125 139 125 125 
139 125 125 138 125 125 138 124 124 138 124 124 67 67 67 81 81 81 88 88 
88 94 94 94 97 97 97 99 99 99 101 101 101 101 101 101 101 101 101 100 
100 100 99 99 99 98 98 98 96 96 96 93 93 93 91 91 91 87 87 87 84 84 84 80 
80 80 76 76 76 71 71 71 66 66 66 60 60 60 54 54 54 48 48 48 41 41 41 33 
33 33 24 24 24 19 19 19 18 18 18 18 18 18 128 115 115 128 115 115 127 
115 115 127 114 114 127 114 114 126 114 114 126 114 114 126 113 113 126 
113 113 125 113 113 125 112 112 
156 141 141 156 141 141 156 140 140 156 140 140 156 140 140 155 140 
140 155 140 140 155 139 139 155 139 139 154 139 139 154 139 139 32 32 32 
48 48 48 59 59 59 69 69 69 76 76 76 82 82 82 87 87 87 91 91 91 94 94 94 
95 95 95 96 96 96 3 3 3 7 7 7 11 11 11 14 14 14 16 16 16 18 18 18 18 18 
18 18 18 18 17 17 17 15 15 15 13 13 13 15 15 15 16 16 16 17 17 17 18 18 
18 20 20 20 21 21 21 22 22 22 146 131 131 146 131 131 145 131 131 145 
131 131 145 130 130 144 130 130 144 130 130 144 129 129 143 129 129 26 23 
23 26 23 23 26 23 23 26 23 23 26 23 23 26 23 23 26 23 23 26 23 23 141 
127 127 140 126 126 140 126 126 63 63 63 72 72 72 78 78 78 82 82 82 84 84 
84 86 86 86 87 87 87 87 87 87 87 87 87 86 86 86 85 85 85 83 83 83 81 81 
81 78 78 78 75 75 75 72 72 72 68 68 68 64 64 64 60 60 60 55 55 55 50 50 
50 44 44 44 38 38 38 31 31 31 24 24 24 17 17 17 17 17 17 17 17 17 16 16 
16 26 23 23 26 23 23 26 23 23 26 23 23 26 23 23 26 23 23 129 116 116 129 
116 116 128 115 115 128 115 115 128 115 115 
159 143 143 159 143 143 158 143 143 158 142 142 158 142 142 158 142 
142 157 142 142 157 142 142 157 141 141 157 141 141 156 141 141 156 141 
141 39 39 39 52 52 52 61 61 61 69 69 69 75 75 75 80 80 80 83 83 83 86 86 
86 87 87 87 88 88 88 2 2 2 6 6 6 9 9 9 12 12 12 14 14 14 15 15 15 15 15 
15 15 15 15 13 13 13 12 12 12 13 13 13 15 15 15 16 16 16 17 17 17 18 18 
18 19 19 19 21 21 21 22 22 22 26 23 23 26 23 23 26 23 23 26 23 23 26 23 
23 26 23 23 26 23 23 26 23 23 26 23 23 26 23 23 26 23 23 26 23 23 26 23 
23 26 23 23 26 23 23 26 23 23 26 23 23 26 23 23 26 23 23 26 23 23 44 44 
44 56 56 56 63 63 63 67 67 67 70 70 70 72 72 72 73 73 73 74 74 74 73 73 
73 73 73 73 72 72 72 70 70 70 69 69 69 66 66 66 64 64 64 61 61 61 57 57 
57 54 54 54 50 50 50 45 45 45 40 40 40 35 35 35 29 29 29 22 22 22 16 16 
16 16 16 16 15 15 15 15 15 15 26 23 23 26 23 23 26 23 23 26 23 23 26 23 
23 26 23 23 26 23 23 26 23 23 26 23 23 26 23 23 26 23 23 26 23 23 
161 145 145 161 145 145 160 144 144 160 144 144 160 144 144 160 144 
144 160 144 144 159 143 143 159 143 143 159 143 143 158 143 143 158 142 
142 23 23 23 43 43 43 53 53 53 61 61 61 67 67 67 71 71 71 75 75 75 77 77 
77 79 79 79 79 79 79 1 1 1 5 5 5 8 8 8 10 10 10 12 12 12 12 12 12 12 12 
12 11 11 11 11 11 11 12 12 12 13 13 13 14 14 14 16 16 16 17 17 17 18 18 
18 19 19 19 20 20 20 26 23 23 26 23 23 26 23 23 26 23 23 26 23 23 26 23 
23 26 23 23 26 23 23 26 23 23 26 23 23 26 23 23 26 23 23 26 23 23 26 23 
23 26 23 23 26 23 23 26 23 23 26 23 23 26 23 23 26 23 23 26 23 23 26 23 
23 39 39 39 47 47 47 52 52 52 56 56 56 58 58 58 60 60 60 60 60 60 61 61 
61 60 60 60 59 59 59 58 58 58 57 57 57 55 55 55 52 52 52 50 50 50 47 47 
47 43 43 43 39 39 39 35 35 35 31 31 31 26 26 26 20 20 20 14 14 14 14 14 
14 14 14 14 14 14 14 12 12 12 26 23 23 26 23 23 26 23 23 26 23 23 26 23 
23 26 23 23 26 23 23 26 23 23 26 23 23 26 23 23 26 23 23 26 23 23 
163 146 146 163 146 146 162 146 146 162 146 146 162 146 146 162 145 
145 161 145 145 161 145 145 161 145 145 161 144 144 160 144 144 160 144 
144 160 144 144 30 30 30 43 43 43 52 52 52 58 58 58 63 63 63 66 66 66 68 
68 68 69 69 69 69 69 69 0 0 0 3 3 3 6 6 6 8 8 8 9 9 9 10 10 10 9 9 9 9 9 
9 10 10 10 12 12 12 13 13 13 14 14 14 15 15 15 17 17 17 18 18 18 19 19 
19 26 23 23 26 23 23 26 23 23 26 23 23 26 23 23 26 23 23 26 23 23 26 23 
23 26 23 23 26 23 23 26 23 23 26 23 23 26 23 23 26 23 23 26 23 23 26 23 
23 26 23 23 26 23 23 26 23 23 26 23 23 26 23 23 26 23 23 26 23 23 26 23 
23 31 31 31 38 38 38 42 42 42 45 45 45 46 46 46 48 48 48 48 48 48 48 48 
48 47 47 47 47 47 47 45 45 45 44 44 44 41 41 41 39 39 39 36 36 36 33 33 
33 30 30 30 26 26 26 22 22 22 17 17 17 13 13 13 13 13 13 12 12 12 12 12 
12 11 11 11 26 23 23 26 23 23 26 23 23 26 23 23 26 23 23 26 23 23 26 23 
23 26 23 23 26 23 23 26 23 23 26 23 23 26 23 23 26 23 23 
164 148 148 164 148 148 164 147 147 164 147 147 163 147 147 163 147 
147 163 147 147 163 146 146 162 146 146 162 146 146 162 146 146 162 145 
145 161 145 145 161 145 145 29 29 29 41 41 41 48 48 48 53 53 53 56 56 56 
58 58 58 59 59 59 59 59 59 58 58 58 2 2 2 4 4 4 6 6 6 7 7 7 7 7 7 8 8 8 
9 9 9 10 10 10 11 11 11 13 13 13 14 14 14 15 15 15 16 16 16 17 17 17 26 
23 23 26 23 23 26 23 23 26 23 23 26 23 23 26 23 23 26 23 23 26 23 23 26 
23 23 26 23 23 26 23 23 26 23 23 26 23 23 26 23 23 26 23 23 26 23 23 26 
23 23 26 23 23 26 23 23 26 23 23 26 23 23 26 23 23 26 23 23 148 133 133 
147 133 133 147 132 132 23 23 23 28 28 28 32 32 32 34 34 34 35 35 35 36 
36 36 36 36 36 36 36 36 35 35 35 34 34 34 33 33 33 31 31 31 29 29 29 27 
27 27 24 24 24 21 21 21 17 17 17 13 13 13 11 11 11 11 11 11 11 11 11 11 
11 11 10 10 10 26 23 23 26 23 23 26 23 23 26 23 23 26 23 23 26 23 23 26 
23 23 26 23 23 26 23 23 26 23 23 26 23 23 26 23 23 26 23 23 26 23 23 
166 149 149 165 149 149 165 149 149 165 148 148 165 148 148 164 148 
148 164 148 148 164 148 148 164 147 147 163 147 147 163 147 147 163 147 
147 163 146 146 162 146 146 162 146 146 23 23 23 35 35 35 41 41 41 45 45 
45 47 47 47 48 48 48 48 48 48 46 46 46 1 1 1 3 3 3 4 4 4 5 5 5 6 6 6 7 7 
7 9 9 9 10 10 10 11 11 11 12 12 12 13 13 13 15 15 15 16 16 16 26 23 23 
26 23 23 26 23 23 26 23 23 26 23 23 26 23 23 26 23 23 26 23 23 26 23 23 
26 23 23 26 23 23 26 23 23 26 23 23 26 23 23 26 23 23 26 23 23 26 23 23 
26 23 23 26 23 23 26 23 23 26 23 23 26 23 23 150 135 135 149 134 134 149 
134 134 149 134 134 149 134 134 148 133 133 14 14 14 19 19 19 22 22 22 24 
24 24 25 25 25 25 25 25 25 25 25 25 25 25 24 24 24 23 23 23 22 22 22 20 
20 20 18 18 18 15 15 15 12 12 12 10 10 10 10 10 10 9 9 9 9 9 9 9 9 9 8 8 
8 26 23 23 26 23 23 26 23 23 26 23 23 26 23 23 26 23 23 26 23 23 26 23 
23 26 23 23 26 23 23 26 23 23 26 23 23 26 23 23 26 23 23 26 23 23 
167 150 150 167 150 150 166 150 150 166 150 150 166 149 149 166 149 
149 165 149 149 165 149 149 165 148 148 165 148 148 164 148 148 164 148 
148 164 147 147 164 147 147 163 147 147 163 147 147 163 147 147 26 26 26 
32 32 32 34 34 34 35 35 35 35 35 35 33 33 33 0 0 0 1 1 1 3 3 3 4 4 4 6 6 
6 7 7 7 8 8 8 9 9 9 11 11 11 12 12 12 13 13 13 14 14 14 26 23 23 26 23 
23 26 23 23 26 23 23 26 23 23 26 23 23 26 23 23 26 23 23 26 23 23 26 23 
23 26 23 23 26 23 23 26 23 23 26 23 23 26 23 23 26 23 23 26 23 23 26 23 
23 26 23 23 26 23 23 152 137 137 152 137 137 151 136 136 151 136 136 151 
136 136 151 135 135 150 135 135 150 135 135 150 135 135 149 134 134 6 6 6 
10 10 10 13 13 13 14 14 14 15 15 15 15 15 15 15 15 15 15 15 15 14 14 14 
13 13 13 11 11 11 9 9 9 8 8 8 8 8 8 8 8 8 8 8 8 7 7 7 7 7 7 26 23 23 26 
23 23 26 23 23 26 23 23 26 23 23 26 23 23 26 23 23 26 23 23 26 23 23 26 
23 23 26 23 23 26 23 23 26 23 23 26 23 23 26 23 23 26 23 23 26 23 23 
168 151 151 168 151 151 168 151 151 167 151 151 167 150 150 167 150 
150 167 150 150 166 150 150 166 149 149 166 149 149 165 149 149 165 149 
149 165 148 148 165 148 148 164 148 148 164 148 148 164 148 148 164 147 
147 163 147 147 18 18 18 20 20 20 22 22 22 23 23 23 25 25 25 1 1 1 2 2 2 
4 4 4 5 5 5 6 6 6 7 7 7 9 9 9 10 10 10 11 11 11 26 23 23 26 23 23 26 23 
23 26 23 23 26 23 23 26 23 23 26 23 23 26 23 23 26 23 23 26 23 23 26 23 
23 26 23 23 26 23 23 26 23 23 26 23 23 26 23 23 26 23 23 26 23 23 154 
139 139 154 139 139 154 138 138 153 138 138 153 138 138 153 138 138 153 
137 137 152 137 137 152 137 137 152 137 137 152 136 136 151 136 136 151 
136 136 151 136 136 150 135 135 26 23 23 4 4 4 5 5 5 6 6 6 7 7 7 7 7 7 7 
7 7 6 6 6 6 6 6 6 6 6 6 6 6 6 6 6 6 6 6 6 6 6 5 5 5 26 23 23 26 23 23 
26 23 23 26 23 23 26 23 23 26 23 23 26 23 23 26 23 23 26 23 23 26 23 23 
26 23 23 26 23 23 26 23 23 26 23 23 26 23 23 26 23 23 26 23 23 26 23 23 
26 23 23 
169 152 152 169 152 152 168 152 152 168 151 151 168 151 151 168 151 
151 167 151 151 167 151 151 167 150 150 167 150 150 166 150 150 166 150 
150 166 149 149 166 149 149 165 149 149 165 149 149 165 148 148 165 148 
148 164 148 148 164 148 148 164 147 147 19 19 19 22 22 22 24 24 24 25 25 
25 1 1 1 3 3 3 4 4 4 5 5 5 6 6 6 26 23 23 26 23 23 26 23 23 26 23 23 26 
23 23 26 23 23 26 23 23 26 23 23 26 23 23 26 23 23 26 23 23 26 23 23 26 
23 23 26 23 23 26 23 23 26 23 23 157 141 141 157 141 141 156 141 141 156 
140 140 156 140 140 155 140 140 155 140 140 155 139 139 155 139 139 154 
139 139 154 139 139 154 138 138 154 138 138 153 138 138 153 138 138 153 
137 137 152 137 137 152 137 137 152 137 137 152 136 136 151 136 136 151 
136 136 26 23 23 26 23 23 2 2 2 3 3 3 3 3 3 3 3 3 3 3 3 3 3 3 3 3 3 3 3 3 
2 2 2 26 23 23 26 23 23 26 23 23 26 23 23 26 23 23 26 23 23 26 23 23 26 
23 23 26 23 23 26 23 23 26 23 23 26 23 23 26 23 23 26 23 23 26 23 23 26 
23 23 26 23 23 143 129 129 143 129 129 143 128 128 142 128 128 
170 153 153 170 153 153 169 152 152 169 152 152 169 152 152 169 152 
152 168 152 152 168 151 151 168 151 151 168 151 151 167 151 151 167 150 
150 167 150 150 167 150 150 166 150 150 166 149 149 166 149 149 166 149 
149 165 149 149 165 149 149 165 148 148 164 148 148 26 23 23 26 23 23 26 
23 23 26 23 23 26 23 23 26 23 23 26 23 23 26 23 23 26 23 23 26 23 23 26 
23 23 26 23 23 26 23 23 26 23 23 26 23 23 26 23 23 26 23 23 26 23 23 159 
144 144 159 143 143 159 143 143 159 143 143 158 143 143 158 142 142 158 
142 142 158 142 142 157 142 142 157 141 141 157 141 141 156 141 141 156 
141 141 156 140 140 156 140 140 155 140 140 155 140 140 155 139 139 155 
139 139 154 139 139 154 139 139 154 138 138 154 138 138 153 138 138 153 
138 138 153 137 137 152 137 137 152 137 137 152 137 137 152 137 137 151 
136 136 26 23 23 26 23 23 26 23 23 26 23 23 26 23 23 26 23 23 26 23 23 26 
23 23 26 23 23 26 23 23 26 23 23 26 23 23 26 23 23 26 23 23 26 23 23 26 
23 23 26 23 23 26 23 23 26 23 23 26 23 23 146 131 131 146 131 131 145 
131 131 145 131 131 145 130 130 145 130 130 144 130 130 144 130 130 144 
129 129 
171 154 154 170 153 153 170 153 153 170 153 153 170 153 153 169 152 
152 169 152 152 169 152 152 169 152 152 168 152 152 168 151 151 168 151 
151 168 151 151 167 151 151 167 150 150 167 150 150 167 150 150 166 150 
150 166 149 149 166 149 149 166 149 149 165 149 149 165 149 149 165 148 
148 165 148 148 164 148 148 164 148 148 164 147 147 163 147 147 163 147 
147 163 147 147 163 146 146 162 146 146 162 146 146 162 146 146 162 146 
146 161 145 145 161 145 145 161 145 145 161 145 145 160 144 144 160 144 
144 160 144 144 160 144 144 159 143 143 159 143 143 159 143 143 159 143 
143 158 142 142 158 142 142 158 142 142 157 142 142 157 141 141 157 141 
141 157 141 141 156 141 141 156 141 141 156 140 140 156 140 140 155 140 
140 155 140 140 155 139 139 155 139 139 154 139 139 154 139 139 154 138 
138 154 138 138 153 138 138 153 138 138 153 137 137 152 137 137 152 137 
137 152 137 137 152 137 137 151 136 136 151 136 136 151 136 136 151 136 
136 150 135 135 150 135 135 150 135 135 150 135 135 149 134 134 149 134 
134 149 134 134 149 134 134 148 133 133 148 133 133 148 133 133 148 133 
133 147 133 133 147 132 132 147 132 132 147 132 132 146 132 132 146 131 
131 146 131 131 145 131 131 145 131 131 145 130 130 
171 154 154 171 154 154 171 154 154 171 153 153 170 153 153 170 153 
153 170 153 153 170 153 153 169 152 152 169 152 152 169 152 152 169 152 
152 168 151 151 168 151 151 168 151 151 168 151 151 167 151 151 167 150 
150 167 150 150 167 150 150 166 150 150 166 149 149 166 149 149 166 149 
149 165 149 149 165 149 149 165 148 148 165 148 148 164 148 148 164 148 
148 164 147 147 164 147 147 163 147 147 163 147 147 163 146 146 162 146 
146 162 146 146 162 146 146 162 146 146 161 145 145 161 145 145 161 145 
145 161 145 145 160 144 144 160 144 144 160 144 144 160 144 144 159 143 
143 159 143 143 159 143 143 159 143 143 158 143 143 158 142 142 158 142 
142 158 142 142 157 142 142 157 141 141 157 141 141 157 141 141 156 141 
141 156 140 140 156 140 140 155 140 140 155 140 140 155 139 139 155 139 
139 154 139 139 154 139 139 154 139 139 154 138 138 153 138 138 153 138 
138 153 138 138 153 137 137 152 137 137 152 137 137 152 137 137 152 136 
136 151 136 136 151 136 136 151 136 136 151 136 136 150 135 135 150 135 
135 150 135 135 150 135 135 149 134 134 149 134 134 149 134 134 149 134 
134 148 134 134 148 133 133 148 133 133 148 133 133 147 133 133 147 132 
132 147 132 132 147 132 132 146 132 132 146 132 132 
172 155 155 172 154 154 171 154 154 171 154 154 171 154 154 171 154 
154 170 153 153 170 153 153 170 153 153 170 153 153 169 153 153 169 152 
152 169 152 152 169 152 152 168 152 152 168 151 151 168 151 151 168 151 
151 167 151 151 167 151 151 167 150 150 167 150 150 166 150 150 166 150 
150 166 149 149 166 149 149 165 149 149 165 149 149 165 148 148 165 148 
148 164 148 148 164 148 148 164 148 148 164 147 147 163 147 147 163 147 
147 163 147 147 163 146 146 162 146 146 162 146 146 162 146 146 162 146 
146 161 145 145 161 145 145 161 145 145 161 145 145 160 144 144 160 144 
144 160 144 144 160 144 144 159 143 143 159 143 143 159 143 143 159 143 
143 158 143 143 158 142 142 158 142 142 158 142 142 157 142 142 157 141 
141 157 141 141 157 141 141 156 141 141 156 141 141 156 140 140 156 140 
140 155 140 140 155 140 140 155 139 139 155 139 139 154 139 139 154 139 
139 154 138 138 154 138 138 153 138 138 153 138 138 153 138 138 153 137 
137 152 137 137 152 137 137 152 137 137 152 136 136 151 136 136 151 136 
136 151 136 136 151 136 136 150 135 135 150 135 135 150 135 135 150 135 
135 149 134 134 149 134 134 149 134 134 149 134 134 148 134 134 148 133 
133 148 133 133 148 133 133 147 133 133 147 132 132 
172 155 155 172 155 155 172 155 155 172 155 155 171 154 154 171 154 
154 171 154 154 171 154 154 171 153 153 170 153 153 170 153 153 170 153 
153 170 153 153 169 152 152 169 152 152 169 152 152 169 152 152 168 152 
152 168 151 151 168 151 151 168 151 151 167 151 151 167 150 150 167 150 
150 167 150 150 166 150 150 166 150 150 166 149 149 166 149 149 165 149 
149 165 149 149 165 148 148 165 148 148 164 148 148 164 148 148 164 148 
148 164 147 147 163 147 147 163 147 147 163 147 147 163 146 146 162 146 
146 162 146 146 162 146 146 162 145 145 161 145 145 161 145 145 161 145 
145 161 145 145 160 144 144 160 144 144 160 144 144 160 144 144 159 143 
143 159 143 143 159 143 143 159 143 143 158 143 143 158 142 142 158 142 
142 158 142 142 157 142 142 157 141 141 157 141 141 157 141 141 156 141 
141 156 141 141 156 140 140 156 140 140 155 140 140 155 140 140 155 139 
139 155 139 139 154 139 139 154 139 139 154 139 139 154 138 138 153 138 
138 153 138 138 153 138 138 153 137 137 153 137 137 152 137 137 152 137 
137 152 137 137 152 136 136 151 136 136 151 136 136 151 136 136 151 136 
136 150 135 135 150 135 135 150 135 135 150 135 135 149 134 134 149 134 
134 149 134 134 149 134 134 148 134 134 148 133 133 
173 156 156 173 155 155 172 155 155 172 155 155 172 155 155 172 155 
155 172 154 154 171 154 154 171 154 154 171 154 154 171 154 154 170 153 
153 170 153 153 170 153 153 170 153 153 169 152 152 169 152 152 169 152 
152 169 152 152 168 152 152 168 151 151 168 151 151 168 151 151 167 151 
151 167 150 150 167 150 150 167 150 150 166 150 150 166 150 150 166 149 
149 166 149 149 166 149 149 165 149 149 165 149 149 165 148 148 165 148 
148 164 148 148 164 148 148 164 147 147 164 147 147 163 147 147 163 147 
147 163 147 147 163 146 146 162 146 146 162 146 146 162 146 146 162 145 
145 161 145 145 161 145 145 161 145 145 161 145 145 160 144 144 160 144 
144 160 144 144 160 144 144 159 143 143 159 143 143 159 143 143 159 143 
143 158 143 143 158 142 142 158 142 142 158 142 142 157 142 142 157 141 
141 157 141 141 157 141 141 156 141 141 156 141 141 156 140 140 156 140 
140 156 140 140 155 140 140 155 140 140 155 139 139 155 139 139 154 139 
139 154 139 139 154 138 138 154 138 138 153 138 138 153 138 138 153 138 
138 153 137 137 152 137 137 152 137 137 152 137 137 152 137 137 151 136 
136 151 136 136 151 136 136 151 136 136 151 135 135 150 135 135 150 135 
135 150 135 135 150 135 135 149 134 134 149 134 134 
173 156 156 173 156 156 173 156 156 173 155 155 172 155 155 172 155 
155 172 155 155 172 155 155 172 154 154 171 154 154 171 154 154 171 154 
154 171 154 154 170 153 153 170 153 153 170 153 153 170 153 153 169 152 
152 169 152 152 169 152 152 169 152 152 168 152 152 168 151 151 168 151 
151 168 151 151 168 151 151 167 151 151 167 150 150 167 150 150 167 150 
150 166 150 150 166 149 149 166 149 149 166 149 149 165 149 149 165 149 
149 165 148 148 165 148 148 164 148 148 164 148 148 164 148 148 164 147 
147 163 147 147 163 147 147 163 147 147 163 146 146 162 146 146 162 146 
146 162 146 146 162 146 146 162 145 145 161 145 145 161 145 145 161 145 
145 161 145 145 160 144 144 160 144 144 160 144 144 160 144 144 159 143 
143 159 143 143 159 143 143 159 143 143 158 143 143 158 142 142 158 142 
142 158 142 142 157 142 142 157 142 142 157 141 141 157 141 141 157 141 
141 156 141 141 156 140 140 156 140 140 156 140 140 155 140 140 155 140 
140 155 139 139 155 139 139 154 139 139 154 139 139 154 139 139 154 138 
138 153 138 138 153 138 138 153 138 138 153 137 137 153 137 137 152 137 
137 152 137 137 152 137 137 152 136 136 151 136 136 151 136 136 151 136 
136 151 136 136 150 135 135 150 135 135 150 135 135 
174 156 156 174 156 156 173 156 156 173 156 156 173 156 156 173 155 
155 172 155 155 172 155 155 172 155 155 172 155 155 171 154 154 171 154 
154 171 154 154 171 154 154 171 154 154 170 153 153 170 153 153 170 153 
153 170 153 153 169 152 152 169 152 152 169 152 152 169 152 152 168 152 
152 168 151 151 168 151 151 168 151 151 168 151 151 167 151 151 167 150 
150 167 150 150 167 150 150 166 150 150 166 150 150 166 149 149 166 149 
149 165 149 149 165 149 149 165 148 148 165 148 148 164 148 148 164 148 
148 164 148 148 164 147 147 164 147 147 163 147 147 163 147 147 163 147 
147 163 146 146 162 146 146 162 146 146 162 146 146 162 145 145 161 145 
145 161 145 145 161 145 145 161 145 145 160 144 144 160 144 144 160 144 
144 160 144 144 160 144 144 159 143 143 159 143 143 159 143 143 159 143 
143 158 143 143 158 142 142 158 142 142 158 142 142 157 142 142 157 142 
142 157 141 141 157 141 141 157 141 141 156 141 141 156 140 140 156 140 
140 156 140 140 155 140 140 155 140 140 155 139 139 155 139 139 154 139 
139 154 139 139 154 139 139 154 138 138 154 138 138 153 138 138 153 138 
138 153 138 138 153 137 137 152 137 137 152 137 137 152 137 137 152 137 
137 152 136 136 151 136 136 151 136 136 151 136 136 
174 157 157 174 157 157 174 156 156 173 156 156 173 156 156 173 156 
156 173 156 156 173 155 155 172 155 155 172 155 155 172 155 155 172 155 
155 171 154 154 171 154 154 171 154 154 171 154 154 171 153 153 170 153 
153 170 153 153 170 153 153 170 153 153 169 152 152 169 152 152 169 152 
152 169 152 152 168 152 152 168 151 151 168 151 151 168 151 151 168 151 
151 167 151 151 167 150 150 167 150 150 167 150 150 166 150 150 166 150 
150 166 149 149 166 149 149 165 149 149 165 149 149 165 149 149 165 148 
148 165 148 148 164 148 148 164 148 148 164 147 147 164 147 147 163 147 
147 163 147 147 163 147 147 163 146 146 162 146 146 162 146 146 162 146 
146 162 146 146 162 145 145 161 145 145 161 145 145 161 145 145 161 145 
145 160 144 144 160 144 144 160 144 144 160 144 144 159 144 144 159 143 
143 159 143 143 159 143 143 159 143 143 158 143 143 158 142 142 158 142 
142 158 142 142 157 142 142 157 141 141 157 141 141 157 141 141 157 141 
141 156 141 141 156 140 140 156 140 140 156 140 140 155 140 140 155 140 
140 155 139 139 155 139 139 155 139 139 154 139 139 154 139 139 154 138 
138 154 138 138 153 138 138 153 138 138 153 138 138 153 137 137 153 137 
137 152 137 137 152 137 137 152 137 137 152 136 136 
175 157 157 174 157 157 174 157 157 174 156 156 174 156 156 173 156 
156 173 156 156 173 156 156 173 155 155 172 155 155 172 155 155 172 155 
155 172 155 155 172 154 154 171 154 154 171 154 154 171 154 154 171 154 
154 170 153 153 170 153 153 170 153 153 170 153 153 170 153 153 169 152 
152 169 152 152 169 152 152 169 152 152 168 152 152 168 151 151 168 151 
151 168 151 151 168 151 151 167 151 151 167 150 150 167 150 150 167 150 
150 166 150 150 166 150 150 166 149 149 166 149 149 166 149 149 165 149 
149 165 149 149 165 148 148 165 148 148 164 148 148 164 148 148 164 148 
148 164 147 147 163 147 147 163 147 147 163 147 147 163 147 147 163 146 
146 162 146 146 162 146 146 162 146 146 162 145 145 161 145 145 161 145 
145 161 145 145 161 145 145 161 144 144 160 144 144 160 144 144 160 144 
144 160 144 144 159 143 143 159 143 143 159 143 143 159 143 143 159 143 
143 158 142 142 158 142 142 158 142 142 158 142 142 157 142 142 157 141 
141 157 141 141 157 141 141 157 141 141 156 141 141 156 140 140 156 140 
140 156 140 140 155 140 140 155 140 140 155 139 139 155 139 139 155 139 
139 154 139 139 154 139 139 154 139 139 154 138 138 153 138 138 153 138 
138 153 138 138 153 138 138 153 137 137 152 137 137 
