P3
100 50
255
0 0 0 0 0 0 0 0 0 0 0 0 0 0 0 0 0 0 0 0 0 0 0 0 0 0 0 0 0 0 0 0 0 0 0 
0 0 0 0 0 0 0 0 0 0 0 0 0 0 0 0 0 0 0 0 0 0 0 0 0 0 0 0 0 0 0 0 0 0 0 0 
0 0 0 0 0 0 0 0 0 0 0 0 0 0 0 0 0 0 0 0 0 0 0 0 0 0 0 0 0 0 0 0 0 0 0 0 
0 0 0 0 0 0 0 0 0 0 0 0 0 0 0 0 0 0 0 0 0 0 0 0 0 0 0 0 0 0 0 0 0 0 0 0 
0 0 0 0 0 0 0 0 0 0 0 0 0 0 0 0 0 0 0 0 0 0 0 0 0 0 0 0 0 0 0 0 0 0 0 0 
0 0 0 0 0 0 0 0 0 0 0 0 0 0 0 0 0 0 0 0 0 0 0 0 0 0 0 0 0 0 0 0 0 0 0 0 
0 0 0 0 0 0 0 0 0 0 0 0 0 0 0 0 0 0 0 0 0 0 0 0 0 0 0 0 0 0 0 0 0 0 0 0 
0 0 0 0 0 0 0 0 0 0 0 0 0 0 0 0 0 0 0 0 0 0 0 0 0 0 0 0 0 0 0 0 0 0 0 0 
0 0 0 0 0 0 0 0 0 0 0 0 0 
0 0 0 0 0 0 0 0 0 0 0 0 0 0 0 0 0 0 0 0 0 0 0 0 0 0 0 0 0 0 0 0 0 0 0 
0 0 0 0 0 0 0 0 0 0 0 0 0 0 0 0 0 0 0 0 0 0 0 0 0 0 0 0 0 0 0 0 0 0 0 0 
0 0 0 0 0 0 0 0 0 0 0 0 0 0 0 0 0 0 0 0 0 0 0 0 0 0 0 0 0 0 0 0 0 0 0 0 
0 0 0 0 0 0 0 0 0 0 0 0 0 0 0 0 0 0 0 0 0 0 0 0 0 0 0 0 0 0 0 0 0 0 0 0 
0 0 0 0 0 0 0 0 0 0 0 0 0 0 0 0 0 0 0 0 0 0 0 0 0 0 0 0 0 0 0 0 0 0 0 0 
0 0 0 0 0 0 0 0 0 0 0 0 0 0 0 0 0 0 0 0 0 0 0 0 0 0 0 0 0 0 0 0 0 0 0 0 
0 0 0 0 0 0 0 0 0 0 0 0 0 0 0 0 0 0 0 0 0 0 0 0 0 0 0 0 0 0 0 0 0 0 0 0 
0 0 0 0 0 0 0 0 0 0 0 0 0 0 0 0 0 0 0 0 0 0 0 0 0 0 0 0 0 0 0 0 0 0 0 0 
0 0 0 0 0 0 0 0 0 0 0 0 0 
0 0 0 0 0 0 0 0 0 0 0 0 0 0 0 0 0 0 0 0 0 0 0 0 0 0 0 0 0 0 0 0 0 0 0 
0 0 0 0 0 0 0 0 0 0 0 0 0 0 0 0 0 0 0 0 0 0 0 0 0 0 0 0 0 0 0 0 0 0 0 0 
0 0 0 0 0 0 0 0 0 0 0 0 0 0 0 0 0 0 0 0 0 0 0 0 0 0 0 0 0 0 0 0 0 0 0 0 
0 0 0 0 0 0 0 0 0 0 0 0 0 0 0 0 0 0 0 0 0 0 0 0 0 0 0 0 0 0 0 0 0 0 0 0 
0 0 0 0 0 0 0 0 0 0 0 0 0 0 0 0 0 0 0 0 0 0 0 0 0 0 0 0 0 0 0 0 0 0 0 0 
0 0 0 0 0 0 0 0 0 0 0 0 0 0 0 0 0 0 0 0 0 0 0 0 0 0 0 0 0 0 0 0 0 0 0 0 
0 0 0 0 0 0 0 0 0 0 0 0 0 0 0 0 0 0 0 0 0 0 0 0 0 0 0 0 0 0 0 0 0 0 0 0 
0 0 0 0 0 0 0 0 0 0 0 0 0 0 0 0 0 0 0 0 0 0 0 0 0 0 0 0 0 0 0 0 0 0 0 0 
0 0 0 0 0 0 0 0 0 0 0 0 0 
0 0 0 0 0 0 0 0 0 0 0 0 0 0 0 0 0 0 0 0 0 0 0 0 0 0 0 0 0 0 0 0 0 0 0 
0 0 0 0 0 0 0 0 0 0 0 0 0 0 0 0 0 0 0 0 0 0 0 0 0 0 0 0 0 0 0 0 0 0 0 0 
0 0 0 0 0 0 0 0 0 0 0 0 0 0 0 0 0 0 0 0 0 0 0 0 0 0 0 0 0 0 0 0 0 0 0 0 
0 0 0 0 0 0 0 0 0 0 0 0 0 0 0 0 0 0 0 0 0 0 0 0 0 0 0 0 0 0 0 0 0 0 0 0 
0 0 0 0 0 0 0 0 0 0 0 0 0 0 0 0 0 0 0 0 0 0 0 0 0 0 0 0 0 0 0 0 0 0 0 0 
0 0 0 0 0 0 0 0 0 0 0 0 0 0 0 0 0 0 0 0 0 0 0 0 0 0 0 0 0 0 0 0 0 0 0 0 
0 0 0 0 0 0 0 0 0 0 0 0 0 0 0 0 0 0 0 0 0 0 0 0 0 0 0 0 0 0 0 0 0 0 0 0 
0 0 0 0 0 0 0 0 0 0 0 0 0 0 0 0 0 0 0 0 0 0 0 0 0 0 0 0 0 0 0 0 0 0 0 0 
0 0 0 0 0 0 0 0 0 0 0 0 0 
0 0 0 0 0 0 0 0 0 0 0 0 0 0 0 0 0 0 0 0 0 0 0 0 0 0 0 0 0 0 0 0 0 0 0 
0 0 0 0 0 0 0 0 0 0 0 0 0 0 0 0 0 0 0 0 0 0 0 0 0 0 0 0 0 0 0 0 0 0 0 0 
0 0 0 0 0 0 0 0 0 0 0 0 0 0 0 0 0 0 0 0 0 0 0 0 0 0 0 0 0 0 0 0 0 0 0 0 
0 0 0 0 0 0 0 0 0 0 0 0 0 0 0 0 0 0 0 0 0 0 0 0 0 0 0 0 0 0 0 0 0 0 0 0 
0 0 0 0 0 0 0 0 0 0 0 0 0 0 0 0 0 0 0 0 0 0 0 0 0 0 0 0 0 0 0 0 0 0 0 0 
0 0 0 0 0 0 0 0 0 0 0 0 0 0 0 0 0 0 0 0 0 0 0 0 0 0 0 0 0 0 0 0 0 0 0 0 
0 0 0 0 0 0 0 0 0 0 0 0 0 0 0 0 0 0 0 0 0 0 0 0 0 0 0 0 0 0 0 0 0 0 0 0 
0 0 0 0 0 0 0 0 0 0 0 0 0 0 0 0 0 0 0 0 0 0 0 0 0 0 0 0 0 0 0 0 0 0 0 0 
0 0 0 0 0 0 0 0 0 0 0 0 0 
0 0 0 0 0 0 0 0 0 0 0 0 0 0 0 0 0 0 0 0 0 0 0 0 0 0 0 0 0 0 0 0 0 0 0 
0 0 0 0 0 0 0 0 0 0 0 0 0 0 0 0 0 0 0 0 0 0 0 0 0 0 0 0 0 0 0 0 0 0 0 0 
0 0 0 0 0 0 0 0 0 0 0 0 0 0 0 0 0 0 0 0 0 0 0 0 0 0 0 0 0 0 0 0 0 0 0 0 
0 0 0 0 0 0 0 0 0 0 0 0 0 0 0 0 0 0 0 0 0 0 0 0 0 0 0 0 0 0 0 0 0 0 0 0 
0 0 0 0 0 0 0 0 0 0 0 0 0 0 0 0 0 0 0 0 0 0 0 0 0 0 0 0 0 0 0 0 0 0 0 0 
0 0 0 0 0 0 0 0 0 0 0 0 0 0 0 0 0 0 0 0 0 0 0 0 0 0 0 0 0 0 0 0 0 0 0 0 
0 0 0 0 0 0 0 0 0 0 0 0 0 0 0 0 0 0 0 0 0 0 0 0 0 0 0 0 0 0 0 0 0 0 0 0 
0 0 0 0 0 0 0 0 0 0 0 0 0 0 0 0 0 0 0 0 0 0 0 0 0 0 0 0 0 0 0 0 0 0 0 0 
0 0 0 0 0 0 0 0 0 0 0 0 0 
0 0 0 0 0 0 0 0 0 0 0 0 0 0 0 0 0 0 0 0 0 0 0 0 0 0 0 0 0 0 0 0 0 0 0 
0 0 0 0 0 0 0 0 0 0 0 0 0 0 0 0 0 0 0 0 0 0 0 0 0 0 0 0 0 0 0 0 0 0 0 0 
0 0 0 0 0 0 0 0 0 0 0 0 0 0 0 0 0 0 0 0 0 0 0 0 0 0 0 0 0 0 0 0 0 0 0 0 
0 0 0 0 0 0 0 0 0 0 0 0 0 0 0 0 0 0 0 0 0 0 0 0 0 0 0 0 0 0 0 0 0 0 0 0 
0 0 0 0 0 0 0 0 0 0 0 0 0 0 0 0 0 0 0 0 0 0 0 0 0 0 0 0 0 0 0 0 0 0 0 0 
0 0 0 0 0 0 0 0 0 0 0 0 0 0 0 0 0 0 0 0 0 0 0 0 0 0 0 0 0 0 0 0 0 0 0 0 
0 0 0 0 0 0 0 0 0 0 0 0 0 0 0 0 0 0 0 0 0 0 0 0 0 0 0 0 0 0 0 0 0 0 0 0 
0 0 0 0 0 0 0 0 0 0 0 0 0 0 0 0 0 0 0 0 0 0 0 0 0 0 0 0 0 0 0 0 0 0 0 0 
0 0 0 0 0 0 0 0 0 0 0 0 0 
0 0 0 0 0 0 0 0 0 0 0 0 0 0 0 0 0 0 0 0 0 0 0 0 0 0 0 0 0 0 0 0 0 0 0 
0 0 0 0 0 0 0 0 0 0 0 0 0 0 0 0 0 0 0 0 0 0 0 0 0 0 0 0 0 0 0 0 0 0 0 0 
0 0 0 0 0 0 0 0 0 0 0 0 0 0 0 0 0 0 0 0 0 0 0 0 0 0 0 0 0 0 0 0 0 0 0 0 
0 0 0 0 0 0 0 0 0 0 0 0 0 0 0 0 0 0 0 0 0 0 0 0 0 0 0 0 0 0 0 0 0 0 0 0 
0 0 0 0 0 0 0 0 0 0 0 0 0 0 0 0 0 0 0 0 0 0 0 0 0 0 0 0 0 0 0 0 0 0 0 0 
0 0 0 0 0 0 0 0 0 0 0 0 0 0 0 0 0 0 0 0 0 0 0 0 0 0 0 0 0 0 0 0 0 0 0 0 
0 0 0 0 0 0 0 0 0 0 0 0 0 0 0 0 0 0 0 0 0 0 0 0 0 0 0 0 0 0 0 0 0 0 0 0 
0 0 0 0 0 0 0 0 0 0 0 0 0 0 0 0 0 0 0 0 0 0 0 0 0 0 0 0 0 0 0 0 0 0 0 0 
0 0 0 0 0 0 0 0 0 0 0 0 0 
0 0 0 0 0 0 0 0 0 0 0 0 0 0 0 0 0 0 0 0 0 0 0 0 0 0 0 0 0 0 0 0 0 0 0 
0 0 0 0 0 0 0 0 0 0 0 0 0 0 0 0 0 0 0 0 0 0 0 0 0 0 0 0 0 0 0 0 0 0 0 0 
0 0 0 0 0 0 0 0 0 0 0 0 0 0 0 0 0 0 0 0 0 0 0 0 0 0 0 0 0 0 0 0 0 0 0 0 
0 0 0 0 0 0 0 0 0 0 0 0 0 0 0 0 0 0 0 0 0 0 0 0 0 0 0 0 0 0 0 0 0 0 0 0 
0 0 0 0 0 0 0 0 0 0 0 0 0 0 0 0 0 0 0 0 0 0 0 0 0 0 0 0 0 0 0 0 0 0 0 0 
0 0 0 0 0 0 0 0 0 0 0 0 0 0 0 0 0 0 0 0 0 0 0 0 0 0 0 0 0 0 0 0 0 0 0 0 
0 0 0 0 0 0 0 0 0 0 0 0 0 0 0 0 0 0 0 0 0 0 0 0 0 0 0 0 0 0 0 0 0 0 0 0 
0 0 0 0 0 0 0 0 0 0 0 0 0 0 0 0 0 0 0 0 0 0 0 0 0 0 0 0 0 0 0 0 0 0 0 0 
0 0 0 0 0 0 0 0 0 0 0 0 0 
0 0 0 0 0 0 0 0 0 0 0 0 0 0 0 0 0 0 0 0 0 0 0 0 0 0 0 0 0 0 0 0 0 0 0 
0 0 0 0 0 0 0 0 0 0 0 0 0 0 0 0 0 0 0 0 0 0 0 0 0 0 0 0 0 0 0 0 0 0 0 0 
0 0 0 0 0 0 0 0 0 0 0 0 0 0 0 0 0 0 0 0 0 0 0 0 0 0 0 0 0 0 0 0 0 0 0 0 
0 0 0 0 0 0 0 0 0 0 0 0 0 0 0 0 0 0 0 0 0 0 0 0 0 0 0 0 0 0 0 0 0 0 0 0 
0 0 0 0 0 0 0 0 0 0 0 0 0 0 0 0 0 0 0 0 0 0 0 0 0 0 0 0 0 0 0 0 0 0 0 0 
0 0 0 0 0 0 0 0 0 0 0 0 0 0 0 0 0 0 0 0 0 0 0 0 0 0 0 0 0 0 0 0 0 0 0 0 
0 0 0 0 0 0 0 0 0 0 0 0 0 0 0 0 0 0 0 0 0 0 0 0 0 0 0 0 0 0 0 0 0 0 0 0 
0 0 0 0 0 0 0 0 0 0 0 0 0 0 0 0 0 0 0 0 0 0 0 0 0 0 0 0 0 0 0 0 0 0 0 0 
0 0 0 0 0 0 0 0 0 0 0 0 0 
0 0 0 0 0 0 0 0 0 0 0 0 0 0 0 0 0 0 0 0 0 0 0 0 0 0 0 0 0 0 0 0 0 0 0 
0 0 0 0 0 0 0 0 0 0 0 0 0 0 0 0 0 0 0 0 0 0 0 0 0 0 0 0 0 0 0 0 0 0 0 0 
0 0 0 0 0 0 0 0 0 0 0 0 0 0 0 0 0 0 0 0 0 0 0 0 0 0 0 0 0 0 0 0 0 0 0 0 
0 0 0 0 0 0 0 0 0 0 0 0 0 0 0 0 0 0 0 0 0 0 0 0 0 0 0 0 0 0 0 0 0 0 0 0 
0 0 0 0 0 0 0 0 0 0 0 0 0 0 0 0 0 0 0 0 0 0 0 0 0 0 0 0 0 0 0 0 0 0 0 0 
0 0 0 0 0 0 0 0 0 0 0 0 0 0 0 0 0 0 0 0 0 0 0 0 0 0 0 0 0 0 0 0 0 0 0 0 
0 0 0 0 0 0 0 0 0 0 0 0 0 0 0 0 0 0 0 0 0 0 0 0 0 0 0 0 0 0 0 0 0 0 0 0 
0 0 0 0 0 0 0 0 0 0 0 0 0 0 0 0 0 0 0 0 0 0 0 0 0 0 0 0 0 0 0 0 0 0 0 0 
0 0 0 0 0 0 0 0 0 0 0 0 0 
0 0 0 0 0 0 0 0 0 0 0 0 0 0 0 0 0 0 0 0 0 0 0 0 0 0 0 0 0 0 0 0 0 0 0 
0 0 0 0 0 0 0 0 0 0 0 0 0 0 0 0 0 0 0 0 0 0 0 0 0 0 0 0 0 0 0 0 0 0 0 0 
0 0 0 0 0 0 0 0 0 0 0 0 0 0 0 0 0 0 0 0 0 0 0 0 0 0 0 0 0 0 0 0 0 0 0 0 
0 0 0 0 0 0 0 0 0 0 0 0 0 0 0 0 0 0 0 0 0 0 0 0 0 0 0 0 0 0 0 0 0 0 0 0 
0 0 0 0 0 0 0 0 0 0 0 0 0 0 0 0 0 0 0 0 0 0 0 0 0 0 0 0 0 0 0 0 0 0 0 0 
0 0 0 0 0 0 0 0 0 0 0 0 0 0 0 0 0 0 0 0 0 0 0 0 0 0 0 0 0 0 0 0 0 0 0 0 
0 0 0 0 0 0 0 0 0 0 0 0 0 0 0 0 0 0 0 0 0 0 0 0 0 0 0 0 0 0 0 0 0 0 0 0 
0 0 0 0 0 0 0 0 0 0 0 0 0 0 0 0 0 0 0 0 0 0 0 0 0 0 0 0 0 0 0 0 0 0 0 0 
0 0 0 0 0 0 0 0 0 0 0 0 0 
0 0 0 0 0 0 0 0 0 0 0 0 0 0 0 0 0 0 0 0 0 0 0 0 0 0 0 0 0 0 0 0 0 0 0 
0 0 0 0 0 0 0 0 0 0 0 0 0 0 0 0 0 0 0 0 0 0 0 0 0 0 0 0 0 0 0 0 0 0 0 0 
0 0 0 0 0 0 0 0 0 0 0 0 0 0 0 0 0 0 0 0 0 0 0 0 0 0 0 0 0 0 0 0 0 0 0 0 
0 0 0 0 0 0 0 0 0 0 0 0 0 0 0 0 0 0 0 0 0 0 0 0 0 0 0 0 0 0 0 0 0 0 0 0 
0 0 0 0 0 0 0 0 0 0 0 0 0 0 0 0 0 0 0 0 0 0 0 0 0 0 0 0 0 0 0 0 0 0 0 0 
0 0 0 0 0 0 0 0 0 0 0 0 0 0 0 0 0 0 0 0 0 0 0 0 0 0 0 0 0 0 0 0 0 0 0 0 
0 0 0 0 0 0 0 0 0 0 0 0 0 0 0 0 0 0 0 0 0 0 0 0 0 0 0 0 0 0 0 0 0 0 0 0 
0 0 0 0 0 0 0 0 0 0 0 0 0 0 0 0 0 0 0 0 0 0 0 0 0 0 0 0 0 0 0 0 0 0 0 0 
0 0 0 0 0 0 0 0 0 0 0 0 0 
0 0 0 0 0 0 0 0 0 0 0 0 0 0 0 0 0 0 0 0 0 0 0 0 0 0 0 0 0 0 0 0 0 0 0 
0 0 0 0 0 0 0 0 0 0 0 0 0 0 0 0 0 0 0 0 0 0 0 0 0 0 0 0 0 0 0 0 0 0 0 0 
0 0 0 0 0 0 0 0 0 0 0 0 0 0 0 0 0 0 0 0 0 0 0 0 0 0 0 0 0 0 0 0 0 0 0 0 
0 0 0 0 0 0 0 0 0 0 0 0 0 0 0 0 0 0 0 0 0 0 0 0 0 0 0 0 0 0 0 0 0 0 0 0 
0 0 0 0 0 0 0 0 0 0 0 0 0 0 0 0 0 0 0 0 0 0 0 0 0 0 0 0 0 0 0 0 0 0 0 0 
0 0 0 0 0 0 0 0 0 0 0 0 0 0 0 0 0 0 0 0 0 0 0 0 0 0 0 0 0 0 0 0 0 0 0 0 
0 0 0 0 0 0 0 0 0 0 0 0 0 0 0 0 0 0 0 0 0 0 0 0 0 0 0 0 0 0 0 0 0 0 0 0 
0 0 0 0 0 0 0 0 0 0 0 0 0 0 0 0 0 0 0 0 0 0 0 0 0 0 0 0 0 0 0 0 0 0 0 0 
0 0 0 0 0 0 0 0 0 0 0 0 0 
0 0 0 0 0 0 0 0 0 0 0 0 0 0 0 0 0 0 0 0 0 0 0 0 0 0 0 0 0 0 0 0 0 0 0 
0 0 0 0 0 0 0 0 0 0 0 0 0 0 0 0 0 0 0 0 0 0 0 0 0 0 0 0 0 0 0 0 0 0 0 0 
0 0 0 0 0 0 0 0 0 0 0 0 0 0 0 0 0 0 0 117 117 117 108 108 108 99 99 99 
89 89 89 78 78 78 66 66 66 0 0 0 0 0 0 0 0 0 0 0 0 0 0 0 0 0 0 0 0 0 0 0 
0 0 0 0 0 0 0 0 0 0 0 0 0 0 0 0 0 0 0 0 0 0 0 0 0 0 0 0 0 0 0 0 0 0 0 0 
0 0 0 0 0 0 0 0 0 0 0 0 0 0 0 0 0 0 0 0 0 0 0 0 0 0 0 0 0 0 0 0 0 0 0 0 
0 0 0 0 0 0 0 0 0 0 0 0 0 0 0 0 0 0 0 0 0 0 0 0 0 0 0 0 0 0 0 0 0 0 0 0 
0 0 0 0 0 0 0 0 0 0 0 0 0 0 0 0 0 0 0 0 0 0 0 0 0 0 0 0 0 0 0 0 0 0 0 0 
0 0 0 0 0 0 0 0 0 0 0 0 0 0 0 0 0 0 0 0 0 0 0 0 0 
0 0 0 0 0 0 0 0 0 0 0 0 0 0 0 0 0 0 0 0 0 0 0 0 0 0 0 0 0 0 0 0 0 0 0 
0 0 0 0 0 0 0 0 0 0 0 0 0 0 0 0 0 0 0 0 0 0 0 0 0 0 0 0 0 0 0 0 0 0 0 0 
0 0 0 0 0 0 0 0 0 0 0 0 0 131 131 131 123 123 123 115 115 115 107 107 
107 97 97 97 88 88 88 77 77 77 66 66 66 53 53 53 39 39 39 0 0 0 0 0 0 0 0 
0 0 0 0 0 0 0 0 0 0 0 0 0 0 0 0 0 0 0 0 0 0 0 0 0 0 0 0 0 0 0 0 0 0 0 0 
0 0 0 0 0 0 0 0 0 0 0 0 0 0 0 0 0 0 0 0 0 0 0 0 0 0 0 0 0 0 0 0 0 0 0 0 
0 0 0 0 0 0 0 0 0 0 0 0 0 0 0 0 0 0 0 0 0 0 0 0 0 0 0 0 0 0 0 0 0 0 0 0 
0 0 0 0 0 0 0 0 0 0 0 0 0 0 0 0 0 0 0 0 0 0 0 0 0 0 0 0 0 0 0 0 0 0 0 0 
0 0 0 0 0 0 0 0 0 0 0 0 0 0 0 0 0 0 0 0 0 0 0 0 0 0 0 0 0 0 0 0 0 0 
0 0 0 0 0 0 0 0 0 0 0 0 0 0 0 0 0 0 0 0 0 0 0 0 0 0 0 0 0 0 0 0 0 0 0 
0 0 0 0 0 0 0 0 0 0 0 0 0 0 0 0 0 0 0 0 0 0 0 0 0 0 0 0 0 0 0 0 0 0 0 0 
0 0 0 0 0 0 0 0 0 0 136 136 136 129 129 129 121 121 121 113 113 113 105 
105 105 96 96 96 86 86 86 76 76 76 65 65 65 53 53 53 40 40 40 26 26 26 0 
0 0 0 0 0 0 0 0 0 0 0 0 0 0 0 0 0 0 0 0 0 0 0 0 0 0 0 0 0 0 0 0 0 0 0 0 
0 0 0 0 0 0 0 0 0 0 0 0 0 0 0 0 0 0 0 0 0 0 0 0 0 0 0 0 0 0 0 0 0 0 0 0 
0 0 0 0 0 0 0 0 0 0 0 0 0 0 0 0 0 0 0 0 0 0 0 0 0 0 0 0 0 0 0 0 0 0 0 0 
0 0 0 0 0 0 0 0 0 0 0 0 0 0 0 0 0 0 0 0 0 0 0 0 0 0 0 0 0 0 0 0 0 0 0 0 
0 0 0 0 0 0 0 0 0 0 0 0 0 0 0 0 0 0 0 0 0 0 0 0 0 0 0 0 0 0 0 0 0 0 0 0 
0 0 
0 0 0 0 0 0 0 0 0 0 0 0 0 0 0 0 0 0 0 0 0 0 0 0 0 0 0 0 0 0 0 0 0 0 0 
0 0 0 0 0 0 0 0 0 0 0 0 0 0 0 0 0 0 0 0 0 0 1 1 1 1 1 1 0 0 0 0 0 0 0 0 
0 0 0 0 0 0 0 140 140 140 133 133 133 126 126 126 118 118 118 110 110 
110 102 102 102 93 93 93 84 84 84 74 74 74 63 63 63 52 52 52 39 39 39 26 
26 26 26 26 26 0 0 0 0 0 0 0 0 0 0 0 0 0 0 0 0 0 0 0 0 0 0 0 0 0 0 0 0 0 
0 0 0 0 0 0 0 0 0 0 0 0 0 0 0 0 0 0 0 0 0 0 0 0 0 0 0 0 0 0 0 0 0 0 0 0 
0 0 0 0 0 0 0 0 0 0 0 0 0 0 0 0 0 0 0 0 0 0 0 0 0 0 0 0 0 0 0 0 0 0 0 0 
0 0 0 0 0 0 0 0 0 0 0 0 0 0 0 0 0 0 0 0 0 0 0 0 0 0 0 0 0 0 0 0 0 0 0 0 
0 0 0 0 0 0 0 0 0 0 0 0 0 0 0 0 0 0 0 0 0 0 0 0 0 0 0 0 0 0 0 0 0 0 0 0 
0 0 0 0 0 0 0 
0 0 0 0 0 0 0 0 0 0 0 0 0 0 0 0 0 0 0 0 0 0 0 0 0 0 0 0 0 0 0 0 0 0 0 
0 0 0 0 0 0 0 0 0 0 0 0 0 0 0 0 0 0 0 8 8 8 41 41 41 10 10 10 0 0 0 0 0 
0 0 0 0 0 0 0 144 144 144 137 137 137 130 130 130 123 123 123 115 115 
115 107 107 107 99 99 99 90 90 90 81 81 81 72 72 72 61 61 61 50 50 50 37 
37 37 26 26 26 26 26 26 26 26 26 0 0 0 0 0 0 0 0 0 0 0 0 0 0 0 0 0 0 0 0 
0 0 0 0 0 0 0 0 0 0 0 0 0 0 0 0 0 0 0 0 0 0 0 0 0 0 0 0 0 0 0 0 0 0 0 0 
0 0 0 0 0 0 0 0 0 0 0 0 0 0 0 0 0 0 0 0 0 0 0 0 0 0 0 0 1 1 1 0 0 0 0 0 
0 0 0 0 178 178 178 173 173 173 168 168 168 162 162 162 156 156 156 150 
150 150 143 143 143 136 136 136 128 128 128 119 119 119 0 0 0 0 0 0 0 0 0 
0 0 0 0 0 0 0 0 0 0 0 0 0 0 0 0 0 0 0 0 0 0 0 0 0 0 0 0 0 0 0 0 0 0 0 0 
0 0 0 0 0 0 
0 0 0 0 0 0 0 0 0 0 0 0 0 0 0 0 0 0 0 0 0 0 0 0 0 0 0 0 0 0 0 0 0 0 0 
0 0 0 0 0 0 0 0 0 0 0 0 0 0 0 0 1 1 1 29 29 29 62 62 62 8 8 8 0 0 0 0 0 
0 0 0 0 146 146 146 140 140 140 133 133 133 127 127 127 119 119 119 112 
112 112 104 104 104 96 96 96 87 87 87 78 78 78 69 69 69 58 58 58 47 47 47 
35 35 35 26 26 26 26 26 26 26 26 26 0 0 0 0 0 0 0 0 0 0 0 0 0 0 0 0 0 0 
0 0 0 0 0 0 0 0 0 0 0 0 0 0 0 0 0 0 0 0 0 0 0 0 0 0 0 0 0 0 0 0 0 0 0 0 
0 0 0 0 0 0 0 0 0 0 0 0 0 0 0 0 0 0 0 0 0 0 0 0 0 0 0 20 20 20 37 37 37 
192 192 192 184 184 184 180 180 180 176 176 176 171 171 171 166 166 166 
160 160 160 154 154 154 148 148 148 141 141 141 134 134 134 126 126 126 
118 118 118 109 109 109 99 99 99 88 88 88 0 0 0 0 0 0 0 0 0 0 0 0 0 0 0 0 
0 0 0 0 0 0 0 0 0 0 0 0 0 0 0 0 0 0 0 0 0 0 0 0 0 0 
0 0 0 0 0 0 0 0 0 0 0 0 0 0 0 0 0 0 0 0 0 0 0 0 0 0 0 0 0 0 0 0 0 0 0 
0 0 0 0 0 0 0 0 0 0 0 0 0 0 0 0 0 0 0 6 6 6 7 7 7 0 0 0 0 0 0 0 0 0 148 
148 148 142 142 142 136 136 136 130 130 130 123 123 123 116 116 116 108 
108 108 100 100 100 92 92 92 84 84 84 75 75 75 65 65 65 55 55 55 44 44 44 
32 32 32 26 26 26 26 26 26 26 26 26 26 26 26 0 0 0 0 0 0 0 0 0 0 0 0 0 0 
0 0 0 0 0 0 0 0 0 0 0 0 0 0 0 0 0 0 0 0 0 0 0 0 0 0 0 0 0 0 0 0 0 0 0 0 
0 0 0 0 0 0 0 0 0 0 0 0 0 0 0 0 0 0 0 0 0 0 0 0 0 195 195 195 231 231 
231 235 235 235 188 188 188 181 181 181 177 177 177 173 173 173 168 168 
168 163 163 163 157 157 157 152 152 152 145 145 145 139 139 139 131 131 
131 124 124 124 115 115 115 106 106 106 97 97 97 86 86 86 74 74 74 60 60 
60 0 0 0 0 0 0 0 0 0 0 0 0 0 0 0 0 0 0 0 0 0 0 0 0 0 0 0 0 0 0 0 0 0 0 0 
0 
0 0 0 0 0 0 0 0 0 0 0 0 0 0 0 0 0 0 0 0 0 0 0 0 0 0 0 0 0 0 0 0 0 0 0 
0 0 0 0 0 0 0 0 0 0 0 0 0 0 0 0 0 0 0 0 0 0 0 0 0 0 0 0 0 0 0 0 0 0 144 
144 144 138 138 138 132 132 132 125 125 125 119 119 119 112 112 112 104 
104 104 96 96 96 88 88 88 80 80 80 71 71 71 61 61 61 51 51 51 41 41 41 29 
29 29 26 26 26 26 26 26 26 26 26 26 26 26 0 0 0 0 0 0 0 0 0 0 0 0 0 0 0 
0 0 0 0 0 0 0 0 0 0 0 0 0 0 0 0 0 0 0 0 0 0 0 0 0 0 0 0 0 0 0 0 0 0 0 0 
0 0 0 0 0 0 0 0 0 0 0 0 0 0 0 0 0 0 194 194 194 192 192 192 191 191 191 
192 192 192 188 188 188 182 182 182 178 178 178 174 174 174 170 170 170 
165 165 165 160 160 160 154 154 154 148 148 148 142 142 142 135 135 135 
128 128 128 121 121 121 113 113 113 104 104 104 94 94 94 84 84 84 72 72 
72 58 58 58 42 42 42 0 0 0 0 0 0 0 0 0 0 0 0 0 0 0 0 0 0 0 0 0 0 0 0 0 0 
0 0 0 0 0 0 0 
0 0 0 0 0 0 0 0 0 0 0 0 0 0 0 0 0 0 0 0 0 0 0 0 0 0 0 0 0 0 0 0 0 0 0 
0 0 0 0 0 0 0 0 0 0 0 0 0 0 0 0 0 0 0 0 0 0 0 0 0 0 0 0 0 0 0 146 146 
146 140 140 140 134 134 134 128 128 128 121 121 121 114 114 114 107 107 
107 100 100 100 92 92 92 84 84 84 76 76 76 67 67 67 57 57 57 47 47 47 37 
37 37 26 26 26 26 26 26 26 26 26 26 26 26 26 26 26 0 0 0 0 0 0 0 0 0 0 0 
0 0 0 0 0 0 0 0 0 0 0 0 0 0 0 0 0 0 0 0 0 0 0 0 0 0 0 0 0 0 0 0 0 0 0 0 
0 0 0 0 0 0 0 0 0 0 0 0 0 0 0 0 0 0 0 191 191 191 190 190 190 189 189 
189 187 187 187 184 184 184 181 181 181 178 178 178 174 174 174 170 170 
170 166 166 166 161 161 161 156 156 156 151 151 151 145 145 145 139 139 
139 132 132 132 125 125 125 117 117 117 109 109 109 100 100 100 91 91 91 
80 80 80 69 69 69 56 56 56 40 40 40 26 26 26 0 0 0 0 0 0 0 0 0 0 0 0 0 0 
0 0 0 0 0 0 0 0 0 0 0 0 0 0 0 0 
0 0 0 0 0 0 0 0 0 0 0 0 0 0 0 0 0 0 0 0 0 0 0 0 0 0 0 0 0 0 0 0 0 0 0 
0 0 0 0 0 0 0 0 0 0 0 0 0 0 0 0 0 0 0 0 0 0 0 0 0 0 0 0 0 0 0 141 141 
141 135 135 135 129 129 129 123 123 123 116 116 116 110 110 110 103 103 
103 95 95 95 88 88 88 80 80 80 71 71 71 62 62 62 53 53 53 43 43 43 32 32 
32 26 26 26 26 26 26 26 26 26 26 26 26 26 26 26 0 0 0 0 0 0 0 0 0 0 0 0 
0 0 0 0 0 0 0 0 0 0 0 0 0 0 0 0 0 0 0 0 0 0 0 0 0 0 0 0 0 0 0 0 0 0 0 0 
0 0 0 0 0 0 0 0 0 0 0 0 186 186 186 186 186 186 187 187 187 186 186 186 
184 184 184 182 182 182 180 180 180 177 177 177 174 174 174 170 170 170 
166 166 166 162 162 162 157 157 157 152 152 152 147 147 147 141 141 141 
135 135 135 128 128 128 121 121 121 113 113 113 105 105 105 97 97 97 87 
87 87 77 77 77 65 65 65 52 52 52 37 37 37 26 26 26 0 0 0 0 0 0 0 0 0 0 0 
0 0 0 0 0 0 0 0 0 0 0 0 0 0 0 0 0 0 0 
0 0 0 0 0 0 0 0 0 0 0 0 0 0 0 0 0 0 0 0 0 0 0 0 0 0 0 0 0 0 0 0 0 0 0 
0 0 0 0 0 0 0 0 0 0 0 0 0 0 0 0 0 0 0 0 0 0 0 0 0 0 0 0 0 0 0 136 136 
136 130 130 130 124 124 124 118 118 118 112 112 112 105 105 105 98 98 98 
90 90 90 83 83 83 75 75 75 66 66 66 57 57 57 48 48 48 38 38 38 27 27 27 
26 26 26 26 26 26 26 26 26 26 26 26 26 26 26 0 0 0 0 0 0 0 0 0 0 0 0 0 0 
0 0 0 0 0 0 0 0 0 0 0 0 0 0 0 0 0 0 0 0 0 0 0 0 0 0 0 0 0 0 0 0 0 0 0 0 
0 0 0 0 0 0 0 178 178 178 181 181 181 182 182 182 182 182 182 181 181 
181 180 180 180 178 178 178 175 175 175 173 173 173 169 169 169 166 166 
166 162 162 162 157 157 157 153 153 153 148 148 148 142 142 142 136 136 
136 130 130 130 124 124 124 117 117 117 109 109 109 101 101 101 92 92 92 
83 83 83 72 72 72 61 61 61 48 48 48 32 32 32 26 26 26 26 26 26 0 0 0 0 0 
0 0 0 0 0 0 0 0 0 0 0 0 0 0 0 0 0 0 0 0 0 0 
0 0 0 0 0 0 0 0 0 0 0 0 0 0 0 0 0 0 0 0 0 0 0 0 0 0 0 0 0 0 0 0 0 0 0 
0 0 0 0 0 0 0 0 0 0 0 0 0 0 0 0 0 0 0 0 0 0 0 0 0 0 0 0 0 0 0 131 131 
131 125 125 125 119 119 119 113 113 113 106 106 106 100 100 100 93 93 93 
85 85 85 78 78 78 69 69 69 61 61 61 52 52 52 43 43 43 33 33 33 26 26 26 
26 26 26 26 26 26 26 26 26 26 26 26 26 26 26 124 111 111 123 111 111 123 
111 111 123 110 110 122 110 110 122 110 110 122 110 110 122 109 109 121 
109 109 121 109 109 121 109 109 121 108 108 120 108 108 120 108 108 120 
108 108 119 107 107 0 0 0 0 0 0 169 169 169 173 173 173 175 175 175 176 
176 176 176 176 176 176 176 176 174 174 174 173 173 173 170 170 170 168 
168 168 164 164 164 161 161 161 157 157 157 152 152 152 148 148 148 143 
143 143 137 137 137 132 132 132 125 125 125 119 119 119 112 112 112 104 
104 104 96 96 96 87 87 87 78 78 78 68 68 68 56 56 56 43 43 43 27 27 27 26 
26 26 26 26 26 0 0 0 0 0 0 0 0 0 0 0 0 0 0 0 0 0 0 0 0 0 0 0 0 0 0 0 
0 0 0 0 0 0 0 0 0 0 0 0 0 0 0 0 0 0 0 0 0 0 0 0 135 122 122 135 122 
122 0 0 0 0 0 0 0 0 0 0 0 0 0 0 0 0 0 0 0 0 0 0 0 0 0 0 0 0 0 0 0 0 0 0 0 
0 125 125 125 120 120 120 114 114 114 108 108 108 101 101 101 94 94 94 
87 87 87 80 80 80 72 72 72 64 64 64 56 56 56 47 47 47 37 37 37 27 27 27 
26 26 26 26 26 26 26 26 26 26 26 26 26 26 26 26 26 26 129 116 116 128 
116 116 128 115 115 128 115 115 128 115 115 127 115 115 127 114 114 127 
114 114 126 114 114 126 113 113 126 113 113 125 113 113 125 113 113 125 
112 112 125 112 112 124 112 112 0 0 0 0 0 0 162 162 162 166 166 166 169 
169 169 170 170 170 171 171 171 170 170 170 169 169 169 167 167 167 165 
165 165 162 162 162 159 159 159 155 155 155 151 151 151 147 147 147 142 
142 142 137 137 137 132 132 132 126 126 126 120 120 120 114 114 114 107 
107 107 99 99 99 91 91 91 82 82 82 73 73 73 62 62 62 50 50 50 37 37 37 26 
26 26 26 26 26 113 102 102 112 101 101 0 0 0 0 0 0 0 0 0 0 0 0 0 0 0 0 0 
0 0 0 0 0 0 0 
142 128 128 142 128 128 142 128 128 142 128 128 142 127 127 141 127 
127 141 127 127 141 127 127 141 127 127 141 127 127 0 0 0 0 0 0 0 0 0 0 0 
0 0 0 0 0 0 0 0 0 0 0 0 0 0 0 0 0 0 0 0 0 0 0 0 0 120 120 120 114 114 
114 108 108 108 102 102 102 95 95 95 89 89 89 81 81 81 74 74 74 66 66 66 
58 58 58 50 50 50 41 41 41 31 31 31 26 26 26 26 26 26 26 26 26 26 26 26 
26 26 26 26 26 26 26 26 26 133 120 120 133 119 119 132 119 119 132 119 
119 132 119 119 132 118 118 131 118 118 131 118 118 131 118 118 130 117 
117 130 117 117 130 117 117 129 116 116 129 116 116 129 116 116 128 116 
116 0 0 0 146 146 146 154 154 154 159 159 159 162 162 162 164 164 164 164 
164 164 164 164 164 163 163 163 161 161 161 159 159 159 156 156 156 153 
153 153 150 150 150 146 146 146 141 141 141 137 137 137 132 132 132 126 
126 126 121 121 121 114 114 114 108 108 108 101 101 101 93 93 93 85 85 85 
76 76 76 67 67 67 56 56 56 44 44 44 30 30 30 26 26 26 26 26 26 118 106 
106 117 106 106 117 105 105 117 105 105 116 105 105 116 104 104 116 104 
104 115 104 104 115 104 104 115 103 103 
147 132 132 146 132 132 146 132 132 146 132 132 146 131 131 146 131 
131 146 131 131 145 131 131 145 131 131 145 131 131 0 0 0 0 0 0 0 0 0 0 0 
0 0 0 0 0 0 0 0 0 0 0 0 0 0 0 0 0 0 0 0 0 0 0 0 0 114 114 114 108 108 
108 102 102 102 96 96 96 89 89 89 82 82 82 75 75 75 68 68 68 60 60 60 52 
52 52 43 43 43 34 34 34 26 26 26 26 26 26 26 26 26 26 26 26 26 26 26 26 
26 26 26 26 26 26 26 26 137 123 123 136 123 123 136 122 122 136 122 122 
136 122 122 135 122 122 135 121 121 135 121 121 134 121 121 134 121 121 
134 120 120 133 120 120 133 120 120 133 119 119 132 119 119 132 119 119 0 
0 0 136 136 136 146 146 146 151 151 151 155 155 155 156 156 156 157 157 
157 157 157 157 156 156 156 154 154 154 152 152 152 150 150 150 147 147 
147 143 143 143 139 139 139 135 135 135 131 131 131 126 126 126 120 120 
120 114 114 114 108 108 108 102 102 102 95 95 95 87 87 87 79 79 79 70 70 
70 60 60 60 49 49 49 37 37 37 26 26 26 26 26 26 26 26 26 121 109 109 121 
109 109 121 109 109 121 108 108 120 108 108 120 108 108 120 108 108 119 
107 107 119 107 107 119 107 107 
150 135 135 150 135 135 150 135 135 150 135 135 150 135 135 149 135 
135 149 134 134 149 134 134 149 134 134 149 134 134 0 0 0 0 0 0 0 0 0 0 0 
0 0 0 0 0 0 0 0 0 0 0 0 0 0 0 0 0 0 0 0 0 0 0 0 0 107 107 107 102 102 
102 96 96 96 89 89 89 83 83 83 76 76 76 69 69 69 61 61 61 54 54 54 45 45 
45 37 37 37 28 28 28 26 26 26 26 26 26 26 26 26 26 26 26 26 26 26 26 26 
26 26 26 26 140 126 126 140 126 126 140 126 126 139 125 125 139 125 125 
139 125 125 138 125 125 138 124 124 138 124 124 138 124 124 137 123 123 
137 123 123 137 123 123 136 123 123 136 122 122 136 122 122 135 122 122 
135 122 122 124 124 124 136 136 136 142 142 142 146 146 146 148 148 148 
149 149 149 149 149 149 149 149 149 147 147 147 145 145 145 143 143 143 
140 140 140 136 136 136 133 133 133 128 128 128 124 124 124 119 119 119 
114 114 114 108 108 108 102 102 102 95 95 95 88 88 88 80 80 80 72 72 72 
62 62 62 52 52 52 41 41 41 28 28 28 26 26 26 26 26 26 26 26 26 125 112 
112 124 112 112 124 112 112 124 111 111 124 111 111 123 111 111 123 111 
111 123 110 110 122 110 110 122 110 110 
154 138 138 153 138 138 153 138 138 153 138 138 153 138 138 153 137 
137 152 137 137 152 137 137 152 137 137 152 137 137 152 136 136 0 0 0 0 0 
0 0 0 0 0 0 0 0 0 0 0 0 0 0 0 0 0 0 0 0 0 0 0 0 0 0 0 0 100 100 100 95 
95 95 89 89 89 83 83 83 76 76 76 69 69 69 62 62 62 55 55 55 47 47 47 38 
38 38 30 30 30 26 26 26 26 26 26 26 26 26 26 26 26 26 26 26 26 26 26 26 
26 26 26 26 26 143 129 129 143 129 129 142 128 128 142 128 128 142 128 
128 142 127 127 141 127 127 141 127 127 141 127 127 140 126 126 140 126 
126 140 126 126 139 125 125 139 125 125 139 125 125 138 125 125 138 124 
124 138 124 124 107 107 107 124 124 124 132 132 132 137 137 137 140 140 
140 141 141 141 141 141 141 141 141 141 139 139 139 138 138 138 135 135 
135 132 132 132 129 129 129 125 125 125 121 121 121 117 117 117 112 112 
112 106 106 106 100 100 100 94 94 94 87 87 87 80 80 80 72 72 72 64 64 64 
54 54 54 44 44 44 32 32 32 26 26 26 26 26 26 26 26 26 128 115 115 128 
115 115 127 115 115 127 114 114 127 114 114 126 114 114 126 114 114 126 
113 113 126 113 113 125 113 113 125 112 112 
156 141 141 156 141 141 156 140 140 156 140 140 156 140 140 155 140 
140 155 140 140 155 139 139 155 139 139 154 139 139 154 139 139 0 0 0 0 0 
0 0 0 0 0 0 0 0 0 0 0 0 0 0 0 0 0 0 0 0 0 0 0 0 0 0 0 0 93 93 93 88 88 
88 82 82 82 76 76 76 69 69 69 62 62 62 55 55 55 47 47 47 39 39 39 31 31 
31 26 26 26 26 26 26 26 26 26 26 26 26 26 26 26 26 26 26 26 26 26 26 26 
26 146 131 131 146 131 131 145 131 131 145 131 131 145 130 130 144 130 
130 144 130 130 144 129 129 143 129 129 26 23 23 26 23 23 26 23 23 26 23 
23 26 23 23 26 23 23 26 23 23 26 23 23 141 127 127 140 126 126 140 126 
126 109 109 109 120 120 120 126 126 126 130 130 130 131 131 131 132 132 
132 132 132 132 131 131 131 129 129 129 127 127 127 124 124 124 121 121 
121 117 117 117 113 113 113 109 109 109 104 104 104 98 98 98 93 93 93 86 
86 86 79 79 79 72 72 72 64 64 64 55 55 55 46 46 46 35 35 35 26 26 26 26 
26 26 26 26 26 26 26 26 26 23 23 26 23 23 26 23 23 26 23 23 26 23 23 26 
23 23 129 116 116 129 116 116 128 115 115 128 115 115 128 115 115 
159 143 143 159 143 143 158 143 143 158 142 142 158 142 142 158 142 
142 157 142 142 157 142 142 157 141 141 157 141 141 156 141 141 156 141 
141 0 0 0 0 0 0 0 0 0 0 0 0 0 0 0 0 0 0 0 0 0 0 0 0 0 0 0 0 0 0 0 0 0 80 
80 80 74 74 74 68 68 68 61 61 61 54 54 54 47 47 47 39 39 39 31 31 31 26 
26 26 26 26 26 26 26 26 26 26 26 26 26 26 26 26 26 26 26 26 26 26 26 26 
26 26 26 23 23 26 23 23 26 23 23 26 23 23 26 23 23 26 23 23 26 23 23 26 
23 23 26 23 23 26 23 23 26 23 23 26 23 23 26 23 23 26 23 23 26 23 23 26 
23 23 26 23 23 26 23 23 26 23 23 26 23 23 88 88 88 105 105 105 114 114 
114 118 118 118 121 121 121 122 122 122 122 122 122 122 122 122 120 120 
120 118 118 118 116 116 116 112 112 112 109 109 109 105 105 105 100 100 
100 95 95 95 90 90 90 84 84 84 78 78 78 71 71 71 63 63 63 55 55 55 46 46 
46 36 36 36 26 26 26 26 26 26 26 26 26 26 26 26 26 23 23 26 23 23 26 23 
23 26 23 23 26 23 23 26 23 23 26 23 23 26 23 23 26 23 23 26 23 23 26 23 
23 26 23 23 
161 145 145 161 145 145 160 144 144 160 144 144 160 144 144 160 144 
144 160 144 144 159 143 143 159 143 143 159 143 143 158 143 143 158 142 
142 0 0 0 0 0 0 0 0 0 0 0 0 0 0 0 0 0 0 0 0 0 0 0 0 0 0 0 0 0 0 0 0 0 72 
72 72 66 66 66 60 60 60 53 53 53 46 46 46 39 39 39 31 31 31 26 26 26 26 
26 26 26 26 26 26 26 26 26 26 26 26 26 26 26 26 26 26 26 26 26 26 26 26 
23 23 26 23 23 26 23 23 26 23 23 26 23 23 26 23 23 26 23 23 26 23 23 26 
23 23 26 23 23 26 23 23 26 23 23 26 23 23 26 23 23 26 23 23 26 23 23 26 
23 23 26 23 23 26 23 23 26 23 23 26 23 23 26 23 23 86 86 86 99 99 99 105 
105 105 109 109 109 111 111 111 112 112 112 111 111 111 110 110 110 108 
108 108 106 106 106 103 103 103 100 100 100 96 96 96 91 91 91 86 86 86 81 
81 81 75 75 75 68 68 68 61 61 61 53 53 53 45 45 45 35 35 35 26 26 26 26 
26 26 26 26 26 26 26 26 26 26 26 26 23 23 26 23 23 26 23 23 26 23 23 26 
23 23 26 23 23 26 23 23 26 23 23 26 23 23 26 23 23 26 23 23 26 23 23 
163 146 146 163 146 146 162 146 146 162 146 146 162 146 146 162 145 
145 161 145 145 161 145 145 161 145 145 161 144 144 160 144 144 160 144 
144 160 144 144 0 0 0 0 0 0 0 0 0 0 0 0 0 0 0 0 0 0 0 0 0 0 0 0 0 0 0 0 0 
0 0 0 0 57 57 57 51 51 51 44 44 44 37 37 37 30 30 30 26 26 26 26 26 26 
26 26 26 26 26 26 26 26 26 26 26 26 26 26 26 26 26 26 26 26 26 26 23 23 
26 23 23 26 23 23 26 23 23 26 23 23 26 23 23 26 23 23 26 23 23 26 23 23 
26 23 23 26 23 23 26 23 23 26 23 23 26 23 23 26 23 23 26 23 23 26 23 23 
26 23 23 26 23 23 26 23 23 26 23 23 26 23 23 26 23 23 26 23 23 79 79 79 
89 89 89 95 95 95 98 98 98 100 100 100 100 100 100 99 99 99 98 98 98 95 
95 95 93 93 93 89 89 89 85 85 85 81 81 81 76 76 76 70 70 70 64 64 64 58 
58 58 50 50 50 42 42 42 33 33 33 26 26 26 26 26 26 26 26 26 26 26 26 26 
26 26 26 23 23 26 23 23 26 23 23 26 23 23 26 23 23 26 23 23 26 23 23 26 
23 23 26 23 23 26 23 23 26 23 23 26 23 23 26 23 23 
164 148 148 164 148 148 164 147 147 164 147 147 163 147 147 163 147 
147 163 147 147 163 146 146 162 146 146 162 146 146 162 146 146 162 145 
145 161 145 145 161 145 145 0 0 0 0 0 0 0 0 0 0 0 0 0 0 0 0 0 0 0 0 0 0 0 
0 0 0 0 0 0 0 0 0 0 41 41 41 35 35 35 27 27 27 26 26 26 26 26 26 26 26 
26 26 26 26 26 26 26 26 26 26 26 26 26 26 26 26 26 26 26 26 23 23 26 23 
23 26 23 23 26 23 23 26 23 23 26 23 23 26 23 23 26 23 23 26 23 23 26 23 
23 26 23 23 26 23 23 26 23 23 26 23 23 26 23 23 26 23 23 26 23 23 26 23 
23 26 23 23 26 23 23 26 23 23 26 23 23 26 23 23 148 133 133 147 133 133 
147 132 132 68 68 68 78 78 78 83 83 83 86 86 86 87 87 87 86 86 86 85 85 
85 84 84 84 81 81 81 78 78 78 74 74 74 69 69 69 64 64 64 59 59 59 53 53 
53 46 46 46 38 38 38 29 29 29 26 26 26 26 26 26 26 26 26 26 26 26 26 26 
26 26 23 23 26 23 23 26 23 23 26 23 23 26 23 23 26 23 23 26 23 23 26 23 
23 26 23 23 26 23 23 26 23 23 26 23 23 26 23 23 26 23 23 
166 149 149 165 149 149 165 149 149 165 148 148 165 148 148 164 148 
148 164 148 148 164 148 148 164 147 147 163 147 147 163 147 147 163 147 
147 163 146 146 162 146 146 162 146 146 0 0 0 0 0 0 0 0 0 0 0 0 0 0 0 0 0 
0 0 0 0 0 0 0 0 0 0 0 0 0 0 0 0 26 26 26 26 26 26 26 26 26 26 26 26 26 
26 26 26 26 26 26 26 26 26 26 26 26 26 26 26 26 26 26 23 23 26 23 23 26 
23 23 26 23 23 26 23 23 26 23 23 26 23 23 26 23 23 26 23 23 26 23 23 26 
23 23 26 23 23 26 23 23 26 23 23 26 23 23 26 23 23 26 23 23 26 23 23 26 
23 23 26 23 23 26 23 23 26 23 23 150 135 135 149 134 134 149 134 134 149 
134 134 149 134 134 148 133 133 53 53 53 63 63 63 69 69 69 71 71 71 72 72 
72 71 71 71 70 70 70 68 68 68 65 65 65 61 61 61 57 57 57 51 51 51 46 46 
46 39 39 39 32 32 32 26 26 26 26 26 26 26 26 26 26 26 26 26 26 26 26 26 
26 26 23 23 26 23 23 26 23 23 26 23 23 26 23 23 26 23 23 26 23 23 26 23 
23 26 23 23 26 23 23 26 23 23 26 23 23 26 23 23 26 23 23 26 23 23 
167 150 150 167 150 150 166 150 150 166 150 150 166 149 149 166 149 
149 165 149 149 165 149 149 165 148 148 165 148 148 164 148 148 164 148 
148 164 147 147 164 147 147 163 147 147 163 147 147 163 147 147 0 0 0 0 0 
0 0 0 0 0 0 0 0 0 0 0 0 0 0 0 0 0 0 0 0 0 0 0 0 0 0 0 0 26 26 26 26 26 
26 26 26 26 26 26 26 26 26 26 26 26 26 0 0 0 26 23 23 26 23 23 26 23 23 
26 23 23 26 23 23 26 23 23 26 23 23 26 23 23 26 23 23 26 23 23 26 23 23 
26 23 23 26 23 23 26 23 23 26 23 23 26 23 23 26 23 23 26 23 23 26 23 23 
26 23 23 152 137 137 152 137 137 151 136 136 151 136 136 151 136 136 151 
135 135 150 135 135 150 135 135 150 135 135 149 134 134 31 31 31 45 45 45 
51 51 51 54 54 54 54 54 54 54 54 54 52 52 52 49 49 49 46 46 46 41 41 41 
36 36 36 30 30 30 26 26 26 26 26 26 26 26 26 26 26 26 26 26 26 26 26 26 
26 23 23 26 23 23 26 23 23 26 23 23 26 23 23 26 23 23 26 23 23 26 23 23 
26 23 23 26 23 23 26 23 23 26 23 23 26 23 23 26 23 23 26 23 23 26 23 23 
26 23 23 
168 151 151 168 151 151 168 151 151 167 151 151 167 150 150 167 150 
150 167 150 150 166 150 150 166 149 149 166 149 149 165 149 149 165 149 
149 165 148 148 165 148 148 164 148 148 164 148 148 164 148 148 164 147 
147 163 147 147 0 0 0 0 0 0 0 0 0 0 0 0 0 0 0 0 0 0 0 0 0 0 0 0 0 0 0 0 0 
0 0 0 0 0 0 0 0 0 0 0 0 0 26 23 23 26 23 23 26 23 23 26 23 23 26 23 23 
26 23 23 26 23 23 26 23 23 26 23 23 26 23 23 26 23 23 26 23 23 26 23 23 
26 23 23 26 23 23 26 23 23 26 23 23 26 23 23 154 139 139 154 139 139 154 
138 138 153 138 138 153 138 138 153 138 138 153 137 137 152 137 137 152 
137 137 152 137 137 152 136 136 151 136 136 151 136 136 151 136 136 150 
135 135 26 23 23 26 26 26 28 28 28 32 32 32 33 33 33 32 32 32 30 30 30 27 
27 27 26 26 26 26 26 26 26 26 26 26 26 26 26 26 26 26 26 26 26 26 26 26 
23 23 26 23 23 26 23 23 26 23 23 26 23 23 26 23 23 26 23 23 26 23 23 26 
23 23 26 23 23 26 23 23 26 23 23 26 23 23 26 23 23 26 23 23 26 23 23 26 
23 23 26 23 23 26 23 23 
169 152 152 169 152 152 168 152 152 168 151 151 168 151 151 168 151 
151 167 151 151 167 151 151 167 150 150 167 150 150 166 150 150 166 150 
150 166 149 149 166 149 149 165 149 149 165 149 149 165 148 148 165 148 
148 164 148 148 164 148 148 164 147 147 0 0 0 0 0 0 0 0 0 0 0 0 0 0 0 0 0 
0 0 0 0 0 0 0 0 0 0 26 23 23 26 23 23 26 23 23 26 23 23 26 23 23 26 23 
23 26 23 23 26 23 23 26 23 23 26 23 23 26 23 23 26 23 23 26 23 23 26 23 
23 26 23 23 26 23 23 157 141 141 157 141 141 156 141 141 156 140 140 156 
140 140 155 140 140 155 140 140 155 139 139 155 139 139 154 139 139 154 
139 139 154 138 138 154 138 138 153 138 138 153 138 138 153 137 137 152 
137 137 152 137 137 152 137 137 152 136 136 151 136 136 151 136 136 26 23 
23 26 23 23 26 26 26 26 26 26 26 26 26 26 26 26 26 26 26 26 26 26 26 26 
26 26 26 26 26 26 26 26 23 23 26 23 23 26 23 23 26 23 23 26 23 23 26 23 
23 26 23 23 26 23 23 26 23 23 26 23 23 26 23 23 26 23 23 26 23 23 26 23 
23 26 23 23 26 23 23 26 23 23 143 129 129 143 129 129 143 128 128 142 
128 128 
170 153 153 170 153 153 169 152 152 169 152 152 169 152 152 169 152 
152 168 152 152 168 151 151 168 151 151 168 151 151 167 151 151 167 150 
150 167 150 150 167 150 150 166 150 150 166 149 149 166 149 149 166 149 
149 165 149 149 165 149 149 165 148 148 164 148 148 26 23 23 26 23 23 26 
23 23 26 23 23 26 23 23 26 23 23 26 23 23 26 23 23 26 23 23 26 23 23 26 
23 23 26 23 23 26 23 23 26 23 23 26 23 23 26 23 23 26 23 23 26 23 23 159 
144 144 159 143 143 159 143 143 159 143 143 158 143 143 158 142 142 158 
142 142 158 142 142 157 142 142 157 141 141 157 141 141 156 141 141 156 
141 141 156 140 140 156 140 140 155 140 140 155 140 140 155 139 139 155 
139 139 154 139 139 154 139 139 154 138 138 154 138 138 153 138 138 153 
138 138 153 137 137 152 137 137 152 137 137 152 137 137 152 137 137 151 
136 136 26 23 23 26 23 23 26 23 23 26 23 23 26 23 23 26 23 23 26 23 23 26 
23 23 26 23 23 26 23 23 26 23 23 26 23 23 26 23 23 26 23 23 26 23 23 26 
23 23 26 23 23 26 23 23 26 23 23 26 23 23 146 131 131 146 131 131 145 
131 131 145 131 131 145 130 130 145 130 130 144 130 130 144 130 130 144 
129 129 
171 154 154 170 153 153 170 153 153 170 153 153 170 153 153 169 152 
152 169 152 152 169 152 152 169 152 152 168 152 152 168 151 151 168 151 
151 168 151 151 167 151 151 167 150 150 167 150 150 167 150 150 166 150 
150 166 149 149 166 149 149 166 149 149 165 149 149 165 149 149 165 148 
148 165 148 148 164 148 148 164 148 148 164 147 147 163 147 147 163 147 
147 163 147 147 163 146 146 162 146 146 162 146 146 162 146 146 162 146 
146 161 145 145 161 145 145 161 145 145 161 145 145 160 144 144 160 144 
144 160 144 144 160 144 144 159 143 143 159 143 143 159 143 143 159 143 
143 158 142 142 158 142 142 158 142 142 157 142 142 157 141 141 157 141 
141 157 141 141 156 141 141 156 141 141 156 140 140 156 140 140 155 140 
140 155 140 140 155 139 139 155 139 139 154 139 139 154 139 139 154 138 
138 154 138 138 153 138 138 153 138 138 153 137 137 152 137 137 152 137 
137 152 137 137 152 137 137 151 136 136 151 136 136 151 136 136 151 136 
136 150 135 135 150 135 135 150 135 135 150 135 135 149 134 134 149 134 
134 149 134 134 149 134 134 148 133 133 148 133 133 148 133 133 148 133 
133 147 133 133 147 132 132 147 132 132 147 132 132 146 132 132 146 131 
131 146 131 131 145 131 131 145 131 131 145 130 130 
171 154 154 171 154 154 171 154 154 171 153 153 170 153 153 170 153 
153 170 153 153 170 153 153 169 152 152 169 152 152 169 152 152 169 152 
152 168 151 151 168 151 151 168 151 151 168 151 151 167 151 151 167 150 
150 167 150 150 167 150 150 166 150 150 166 149 149 166 149 149 166 149 
149 165 149 149 165 149 149 165 148 148 165 148 148 164 148 148 164 148 
148 164 147 147 164 147 147 163 147 147 163 147 147 163 146 146 162 146 
146 162 146 146 162 146 146 162 146 146 161 145 145 161 145 145 161 145 
145 161 145 145 160 144 144 160 144 144 160 144 144 160 144 144 159 143 
143 159 143 143 159 143 143 159 143 143 158 143 143 158 142 142 158 142 
142 158 142 142 157 142 142 157 141 141 157 141 141 157 141 141 156 141 
141 156 140 140 156 140 140 155 140 140 155 140 140 155 139 139 155 139 
139 154 139 139 154 139 139 154 139 139 154 138 138 153 138 138 153 138 
138 153 138 138 153 137 137 152 137 137 152 137 137 152 137 137 152 136 
136 151 136 136 151 136 136 151 136 136 151 136 136 150 135 135 150 135 
135 150 135 135 150 135 135 149 134 134 149 134 134 149 134 134 149 134 
134 148 134 134 148 133 133 148 133 133 148 133 133 147 133 133 147 132 
132 147 132 132 147 132 132 146 132 132 146 132 132 
172 155 155 172 154 154 171 154 154 171 154 154 171 154 154 171 154 
154 170 153 153 170 153 153 170 153 153 170 153 153 169 153 153 169 152 
152 169 152 152 169 152 152 168 152 152 168 151 151 168 151 151 168 151 
151 167 151 151 167 151 151 167 150 150 167 150 150 166 150 150 166 150 
150 166 149 149 166 149 149 165 149 149 165 149 149 165 148 148 165 148 
148 164 148 148 164 148 148 164 148 148 164 147 147 163 147 147 163 147 
147 163 147 147 163 146 146 162 146 146 162 146 146 162 146 146 162 146 
146 161 145 145 161 145 145 161 145 145 161 145 145 160 144 144 160 144 
144 160 144 144 160 144 144 159 143 143 159 143 143 159 143 143 159 143 
143 158 143 143 158 142 142 158 142 142 158 142 142 157 142 142 157 141 
141 157 141 141 157 141 141 156 141 141 156 141 141 156 140 140 156 140 
140 155 140 140 155 140 140 155 139 139 155 139 139 154 139 139 154 139 
139 154 138 138 154 138 138 153 138 138 153 138 138 153 138 138 153 137 
137 152 137 137 152 137 137 152 137 137 152 136 136 151 136 136 151 136 
136 151 136 136 151 136 136 150 135 135 150 135 135 150 135 135 150 135 
135 149 134 134 149 134 134 149 134 134 149 134 134 148 134 134 148 133 
133 148 133 133 148 133 133 147 133 133 147 132 132 
172 155 155 172 155 155 172 155 155 172 155 155 171 154 154 171 154 
154 171 154 154 171 154 154 171 153 153 170 153 153 170 153 153 170 153 
153 170 153 153 169 152 152 169 152 152 169 152 152 169 152 152 168 152 
152 168 151 151 168 151 151 168 151 151 167 151 151 167 150 150 167 150 
150 167 150 150 166 150 150 166 150 150 166 149 149 166 149 149 165 149 
149 165 149 149 165 148 148 165 148 148 164 148 148 164 148 148 164 148 
148 164 147 147 163 147 147 163 147 147 163 147 147 163 146 146 162 146 
146 162 146 146 162 146 146 162 145 145 161 145 145 161 145 145 161 145 
145 161 145 145 160 144 144 160 144 144 160 144 144 160 144 144 159 143 
143 159 143 143 159 143 143 159 143 143 158 143 143 158 142 142 158 142 
142 158 142 142 157 142 142 157 141 141 157 141 141 157 141 141 156 141 
141 156 141 141 156 140 140 156 140 140 155 140 140 155 140 140 155 139 
139 155 139 139 154 139 139 154 139 139 154 139 139 154 138 138 153 138 
138 153 138 138 153 138 138 153 137 137 153 137 137 152 137 137 152 137 
137 152 137 137 152 136 136 151 136 136 151 136 136 151 136 136 151 136 
136 150 135 135 150 135 135 150 135 135 150 135 135 149 134 134 149 134 
134 149 134 134 149 134 134 148 134 134 148 133 133 
173 156 156 173 155 155 172 155 155 172 155 155 172 155 155 172 155 
155 172 154 154 171 154 154 171 154 154 171 154 154 171 154 154 170 153 
153 170 153 153 170 153 153 170 153 153 169 152 152 169 152 152 169 152 
152 169 152 152 168 152 152 168 151 151 168 151 151 168 151 151 167 151 
151 167 150 150 167 150 150 167 150 150 166 150 150 166 150 150 166 149 
149 166 149 149 166 149 149 165 149 149 165 149 149 165 148 148 165 148 
148 164 148 148 164 148 148 164 147 147 164 147 147 163 147 147 163 147 
147 163 147 147 163 146 146 162 146 146 162 146 146 162 146 146 162 145 
145 161 145 145 161 145 145 161 145 145 161 145 145 160 144 144 160 144 
144 160 144 144 160 144 144 159 143 143 159 143 143 159 143 143 159 143 
143 158 143 143 158 142 142 158 142 142 158 142 142 157 142 142 157 141 
141 157 141 141 157 141 141 156 141 141 156 141 141 156 140 140 156 140 
140 156 140 140 155 140 140 155 140 140 155 139 139 155 139 139 154 139 
139 154 139 139 154 138 138 154 138 138 153 138 138 153 138 138 153 138 
138 153 137 137 152 137 137 152 137 137 152 137 137 152 137 137 151 136 
136 151 136 136 151 136 136 151 136 136 151 135 135 150 135 135 150 135 
135 150 135 135 150 135 135 149 134 134 149 134 134 
173 156 156 173 156 156 173 156 156 173 155 155 172 155 155 172 155 
155 172 155 155 172 155 155 172 154 154 171 154 154 171 154 154 171 154 
154 171 154 154 170 153 153 170 153 153 170 153 153 170 153 153 169 152 
152 169 152 152 169 152 152 169 152 152 168 152 152 168 151 151 168 151 
151 168 151 151 168 151 151 167 151 151 167 150 150 167 150 150 167 150 
150 166 150 150 166 149 149 166 149 149 166 149 149 165 149 149 165 149 
149 165 148 148 165 148 148 164 148 148 164 148 148 164 148 148 164 147 
147 163 147 147 163 147 147 163 147 147 163 146 146 162 146 146 162 146 
146 162 146 146 162 146 146 162 145 145 161 145 145 161 145 145 161 145 
145 161 145 145 160 144 144 160 144 144 160 144 144 160 144 144 159 143 
143 159 143 143 159 143 143 159 143 143 158 143 143 158 142 142 158 142 
142 158 142 142 157 142 142 157 142 142 157 141 141 157 141 141 157 141 
141 156 141 141 156 140 140 156 140 140 156 140 140 155 140 140 155 140 
140 155 139 139 155 139 139 154 139 139 154 139 139 154 139 139 154 138 
138 153 138 138 153 138 138 153 138 138 153 137 137 153 137 137 152 137 
137 152 137 137 152 137 137 152 136 136 151 136 136 151 136 136 151 136 
136 151 136 136 150 135 135 150 135 135 150 135 135 
174 156 156 174 156 156 173 156 156 173 156 156 173 156 156 173 155 
155 172 155 155 172 155 155 172 155 155 172 155 155 171 154 154 171 154 
154 171 154 154 171 154 154 171 154 154 170 153 153 170 153 153 170 153 
153 170 153 153 169 152 152 169 152 152 169 152 152 169 152 152 168 152 
152 168 151 151 168 151 151 168 151 151 168 151 151 167 151 151 167 150 
150 167 150 150 167 150 150 166 150 150 166 150 150 166 149 149 166 149 
149 165 149 149 165 149 149 165 148 148 165 148 148 164 148 148 164 148 
148 164 148 148 164 147 147 164 147 147 163 147 147 163 147 147 163 147 
147 163 146 146 162 146 146 162 146 146 162 146 146 162 145 145 161 145 
145 161 145 145 161 145 145 161 145 145 160 144 144 160 144 144 160 144 
144 160 144 144 160 144 144 159 143 143 159 143 143 159 143 143 159 143 
143 158 143 143 158 142 142 158 142 142 158 142 142 157 142 142 157 142 
142 157 141 141 157 141 141 157 141 141 156 141 141 156 140 140 156 140 
140 156 140 140 155 140 140 155 140 140 155 139 139 155 139 139 154 139 
139 154 139 139 154 139 139 154 138 138 154 138 138 153 138 138 153 138 
138 153 138 138 153 137 137 152 137 137 152 137 137 152 137 137 152 137 
137 152 136 136 151 136 136 151 136 136 151 136 136 
174 157 157 174 157 157 174 156 156 173 156 156 173 156 156 173 156 
156 173 156 156 173 155 155 172 155 155 172 155 155 172 155 155 172 155 
155 171 154 154 171 154 154 171 154 154 171 154 154 171 153 153 170 153 
153 170 153 153 170 153 153 170 153 153 169 152 152 169 152 152 169 152 
152 169 152 152 168 152 152 168 151 151 168 151 151 168 151 151 168 151 
151 167 151 151 167 150 150 167 150 150 167 150 150 166 150 150 166 150 
150 166 149 149 166 149 149 165 149 149 165 149 149 165 149 149 165 148 
148 165 148 148 164 148 148 164 148 148 164 147 147 164 147 147 163 147 
147 163 147 147 163 147 147 163 146 146 162 146 146 162 146 146 162 146 
146 162 146 146 162 145 145 161 145 145 161 145 145 161 145 145 161 145 
145 160 144 144 160 144 144 160 144 144 160 144 144 159 144 144 159 143 
143 159 143 143 159 143 143 159 143 143 158 143 143 158 142 142 158 142 
142 158 142 142 157 142 142 157 141 141 157 141 141 157 141 141 157 141 
141 156 141 141 156 140 140 156 140 140 156 140 140 155 140 140 155 140 
140 155 139 139 155 139 139 155 139 139 154 139 139 154 139 139 154 138 
138 154 138 138 153 138 138 153 138 138 153 138 138 153 137 137 153 137 
137 152 137 137 152 137 137 152 137 137 152 136 136 
175 157 157 174 157 157 174 157 157 174 156 156 174 156 156 173 156 
156 173 156 156 173 156 156 173 155 155 172 155 155 172 155 155 172 155 
155 172 155 155 172 154 154 171 154 154 171 154 154 171 154 154 171 154 
154 170 153 153 170 153 153 170 153 153 170 153 153 170 153 153 169 152 
152 169 152 152 169 152 152 169 152 152 168 152 152 168 151 151 168 151 
151 168 151 151 168 151 151 167 151 151 167 150 150 167 150 150 167 150 
150 166 150 150 166 150 150 166 149 149 166 149 149 166 149 149 165 149 
149 165 149 149 165 148 148 165 148 148 164 148 148 164 148 148 164 148 
148 164 147 147 163 147 147 163 147 147 163 147 147 163 147 147 163 146 
146 162 146 146 162 146 146 162 146 146 162 145 145 161 145 145 161 145 
145 161 145 145 161 145 145 161 144 144 160 144 144 160 144 144 160 144 
144 160 144 144 159 143 143 159 143 143 159 143 143 159 143 143 159 143 
143 158 142 142 158 142 142 158 142 142 158 142 142 157 142 142 157 141 
141 157 141 141 157 141 141 157 141 141 156 141 141 156 140 140 156 140 
140 156 140 140 155 140 140 155 140 140 155 139 139 155 139 139 155 139 
139 154 139 139 154 139 139 154 139 139 154 138 138 153 138 138 153 138 
138 153 138 138 153 138 138 153 137 137 152 137 137 
