P3
100 50
255
0 0 0 0 0 0 0 0 0 0 0 0 0 0 0 0 0 0 0 0 0 0 0 0 0 0 0 0 0 0 0 0 0 0 0 
0 0 0 0 0 0 0 0 0 0 0 0 0 0 0 0 0 0 0 0 0 0 0 0 0 0 0 0 0 0 0 0 0 0 0 0 
0 0 0 0 0 0 0 0 0 0 0 0 0 0 0 0 0 0 0 0 0 0 0 0 0 0 0 0 0 0 0 0 0 0 0 0 
0 0 0 0 0 0 0 0 0 0 0 0 0 0 0 0 0 0 0 0 0 0 0 0 0 0 0 0 0 0 0 0 0 0 0 0 
0 0 0 0 0 0 0 0 0 0 0 0 0 0 0 0 0 0 0 0 0 0 0 0 0 0 0 0 0 0 0 0 0 0 0 0 
0 0 0 0 0 0 0 0 0 0 0 0 0 0 0 0 0 0 0 0 0 0 0 0 0 0 0 0 0 0 0 0 0 0 0 0 
0 0 0 0 0 0 0 0 0 0 0 0 0 0 0 0 0 0 0 0 0 0 0 0 0 0 0 0 0 0 0 0 0 0 0 0 
0 0 0 0 0 0 0 0 0 0 0 0 0 0 0 0 0 0 0 0 0 0 0 0 0 0 0 0 0 0 0 0 0 0 0 0 
0 0 0 0 0 0 0 0 0 0 0 0 0 
0 0 0 0 0 0 0 0 0 0 0 0 0 0 0 0 0 0 0 0 0 0 0 0 0 0 0 0 0 0 0 0 0 0 0 
0 0 0 0 0 0 0 0 0 0 0 0 0 0 0 0 0 0 0 0 0 0 0 0 0 0 0 0 0 0 0 0 0 0 0 0 
0 0 0 0 0 0 0 0 0 0 0 0 0 0 0 0 0 0 0 0 0 0 0 0 0 0 0 0 0 0 0 0 0 0 0 0 
0 0 0 0 0 0 0 0 0 0 0 0 0 0 0 0 0 0 0 0 0 0 0 0 0 0 0 0 0 0 0 0 0 0 0 0 
0 0 0 0 0 0 0 0 0 0 0 0 0 0 0 0 0 0 0 0 0 0 0 0 0 0 0 0 0 0 0 0 0 0 0 0 
0 0 0 0 0 0 0 0 0 0 0 0 0 0 0 0 0 0 0 0 0 0 0 0 0 0 0 0 0 0 0 0 0 0 0 0 
0 0 0 0 0 0 0 0 0 0 0 0 0 0 0 0 0 0 0 0 0 0 0 0 0 0 0 0 0 0 0 0 0 0 0 0 
0 0 0 0 0 0 0 0 0 0 0 0 0 0 0 0 0 0 0 0 0 0 0 0 0 0 0 0 0 0 0 0 0 0 0 0 
0 0 0 0 0 0 0 0 0 0 0 0 0 
0 0 0 0 0 0 0 0 0 0 0 0 0 0 0 0 0 0 0 0 0 0 0 0 0 0 0 0 0 0 0 0 0 0 0 
0 0 0 0 0 0 0 0 0 0 0 0 0 0 0 0 0 0 0 0 0 0 0 0 0 0 0 0 0 0 0 0 0 0 0 0 
0 0 0 0 0 0 0 0 0 0 0 0 0 0 0 0 0 0 0 0 0 0 0 0 0 0 0 0 0 0 0 0 0 0 0 0 
0 0 0 0 0 0 0 0 0 0 0 0 0 0 0 0 0 0 0 0 0 0 0 0 0 0 0 0 0 0 0 0 0 0 0 0 
0 0 0 0 0 0 0 0 0 0 0 0 0 0 0 0 0 0 0 0 0 0 0 0 0 0 0 0 0 0 0 0 0 0 0 0 
0 0 0 0 0 0 0 0 0 0 0 0 0 0 0 0 0 0 0 0 0 0 0 0 0 0 0 0 0 0 0 0 0 0 0 0 
0 0 0 0 0 0 0 0 0 0 0 0 0 0 0 0 0 0 0 0 0 0 0 0 0 0 0 0 0 0 0 0 0 0 0 0 
0 0 0 0 0 0 0 0 0 0 0 0 0 0 0 0 0 0 0 0 0 0 0 0 0 0 0 0 0 0 0 0 0 0 0 0 
0 0 0 0 0 0 0 0 0 0 0 0 0 
0 0 0 0 0 0 0 0 0 0 0 0 0 0 0 0 0 0 0 0 0 0 0 0 0 0 0 0 0 0 0 0 0 0 0 
0 0 0 0 0 0 0 0 0 0 0 0 0 0 0 0 0 0 0 0 0 0 0 0 0 0 0 0 0 0 0 0 0 0 0 0 
0 0 0 0 0 0 0 0 0 0 0 0 0 0 0 0 0 0 0 0 0 0 0 0 0 0 0 0 0 0 0 0 0 0 0 0 
0 0 0 0 0 0 0 0 0 0 0 0 0 0 0 0 0 0 0 0 0 0 0 0 0 0 0 0 0 0 0 0 0 0 0 0 
0 0 0 0 0 0 0 0 0 0 0 0 0 0 0 0 0 0 0 0 0 0 0 0 0 0 0 0 0 0 0 0 0 0 0 0 
0 0 0 0 0 0 0 0 0 0 0 0 0 0 0 0 0 0 0 0 0 0 0 0 0 0 0 0 0 0 0 0 0 0 0 0 
0 0 0 0 0 0 0 0 0 0 0 0 0 0 0 0 0 0 0 0 0 0 0 0 0 0 0 0 0 0 0 0 0 0 0 0 
0 0 0 0 0 0 0 0 0 0 0 0 0 0 0 0 0 0 0 0 0 0 0 0 0 0 0 0 0 0 0 0 0 0 0 0 
0 0 0 0 0 0 0 0 0 0 0 0 0 
0 0 0 0 0 0 0 0 0 0 0 0 0 0 0 0 0 0 0 0 0 0 0 0 0 0 0 0 0 0 0 0 0 0 0 
0 0 0 0 0 0 0 0 0 0 0 0 0 0 0 0 0 0 0 0 0 0 0 0 0 0 0 0 0 0 0 0 0 0 0 0 
0 0 0 0 0 0 0 0 0 0 0 0 0 0 0 0 0 0 0 0 0 0 0 0 0 0 0 0 0 0 0 0 0 0 0 0 
0 0 0 0 0 0 0 0 0 0 0 0 0 0 0 0 0 0 0 0 0 0 0 0 0 0 0 0 0 0 0 0 0 0 0 0 
0 0 0 0 0 0 0 0 0 0 0 0 0 0 0 0 0 0 0 0 0 0 0 0 0 0 0 0 0 0 0 0 0 0 0 0 
0 0 0 0 0 0 0 0 0 0 0 0 0 0 0 0 0 0 0 0 0 0 0 0 0 0 0 0 0 0 0 0 0 0 0 0 
0 0 0 0 0 0 0 0 0 0 0 0 0 0 0 0 0 0 0 0 0 0 0 0 0 0 0 0 0 0 0 0 0 0 0 0 
0 0 0 0 0 0 0 0 0 0 0 0 0 0 0 0 0 0 0 0 0 0 0 0 0 0 0 0 0 0 0 0 0 0 0 0 
0 0 0 0 0 0 0 0 0 0 0 0 0 
0 0 0 0 0 0 0 0 0 0 0 0 0 0 0 0 0 0 0 0 0 0 0 0 0 0 0 0 0 0 0 0 0 0 0 
0 0 0 0 0 0 0 0 0 0 0 0 0 0 0 0 0 0 0 0 0 0 0 0 0 0 0 0 0 0 0 0 0 0 0 0 
0 0 0 0 0 0 0 0 0 0 0 0 0 0 0 0 0 0 0 0 0 0 0 0 0 0 0 0 0 0 0 0 0 0 0 0 
0 0 0 0 0 0 0 0 0 0 0 0 0 0 0 0 0 0 0 0 0 0 0 0 0 0 0 0 0 0 0 0 0 0 0 0 
0 0 0 0 0 0 0 0 0 0 0 0 0 0 0 0 0 0 0 0 0 0 0 0 0 0 0 0 0 0 0 0 0 0 0 0 
0 0 0 0 0 0 0 0 0 0 0 0 0 0 0 0 0 0 0 0 0 0 0 0 0 0 0 0 0 0 0 0 0 0 0 0 
0 0 0 0 0 0 0 0 0 0 0 0 0 0 0 0 0 0 0 0 0 0 0 0 0 0 0 0 0 0 0 0 0 0 0 0 
0 0 0 0 0 0 0 0 0 0 0 0 0 0 0 0 0 0 0 0 0 0 0 0 0 0 0 0 0 0 0 0 0 0 0 0 
0 0 0 0 0 0 0 0 0 0 0 0 0 
0 0 0 0 0 0 0 0 0 0 0 0 0 0 0 0 0 0 0 0 0 0 0 0 0 0 0 0 0 0 0 0 0 0 0 
0 0 0 0 0 0 0 0 0 0 0 0 0 0 0 0 0 0 0 0 0 0 0 0 0 0 0 0 0 0 0 0 0 0 0 0 
0 0 0 0 0 0 0 0 0 0 0 0 0 0 0 0 0 0 0 0 0 0 0 0 0 0 0 0 0 0 0 0 0 0 0 0 
0 0 0 0 0 0 0 0 0 0 0 0 0 0 0 0 0 0 0 0 0 0 0 0 0 0 0 0 0 0 0 0 0 0 0 0 
0 0 0 0 0 0 0 0 0 0 0 0 0 0 0 0 0 0 0 0 0 0 0 0 0 0 0 0 0 0 0 0 0 0 0 0 
0 0 0 0 0 0 0 0 0 0 0 0 0 0 0 0 0 0 0 0 0 0 0 0 0 0 0 0 0 0 0 0 0 0 0 0 
0 0 0 0 0 0 0 0 0 0 0 0 0 0 0 0 0 0 0 0 0 0 0 0 0 0 0 0 0 0 0 0 0 0 0 0 
0 0 0 0 0 0 0 0 0 0 0 0 0 0 0 0 0 0 0 0 0 0 0 0 0 0 0 0 0 0 0 0 0 0 0 0 
0 0 0 0 0 0 0 0 0 0 0 0 0 
0 0 0 0 0 0 0 0 0 0 0 0 0 0 0 0 0 0 0 0 0 0 0 0 0 0 0 0 0 0 0 0 0 0 0 
0 0 0 0 0 0 0 0 0 0 0 0 0 0 0 0 0 0 0 0 0 0 0 0 0 0 0 0 0 0 0 0 0 0 0 0 
0 0 0 0 0 0 0 0 0 0 0 0 0 0 0 0 0 0 0 0 0 0 0 0 0 0 0 0 0 0 0 0 0 0 0 0 
0 0 0 0 0 0 0 0 0 0 0 0 0 0 0 0 0 0 0 0 0 0 0 0 0 0 0 0 0 0 0 0 0 0 0 0 
0 0 0 0 0 0 0 0 0 0 0 0 0 0 0 0 0 0 0 0 0 0 0 0 0 0 0 0 0 0 0 0 0 0 0 0 
0 0 0 0 0 0 0 0 0 0 0 0 0 0 0 0 0 0 0 0 0 0 0 0 0 0 0 0 0 0 0 0 0 0 0 0 
0 0 0 0 0 0 0 0 0 0 0 0 0 0 0 0 0 0 0 0 0 0 0 0 0 0 0 0 0 0 0 0 0 0 0 0 
0 0 0 0 0 0 0 0 0 0 0 0 0 0 0 0 0 0 0 0 0 0 0 0 0 0 0 0 0 0 0 0 0 0 0 0 
0 0 0 0 0 0 0 0 0 0 0 0 0 
0 0 0 0 0 0 0 0 0 0 0 0 0 0 0 0 0 0 0 0 0 0 0 0 0 0 0 0 0 0 0 0 0 0 0 
0 0 0 0 0 0 0 0 0 0 0 0 0 0 0 0 0 0 0 0 0 0 0 0 0 0 0 0 0 0 0 0 0 0 147 
147 147 146 146 146 0 0 0 0 0 0 0 0 0 0 0 0 0 0 0 0 0 0 0 0 0 0 0 0 0 0 0 
0 0 0 0 0 0 0 0 0 0 0 0 0 0 0 0 0 0 0 0 0 0 0 0 0 0 0 0 0 0 0 0 0 0 0 0 
0 0 0 0 0 0 0 0 0 0 0 0 0 0 0 0 0 0 0 0 0 0 0 0 0 0 0 0 0 0 0 0 0 0 0 0 
0 0 0 0 0 0 0 0 0 0 0 0 0 0 0 0 0 0 0 0 0 0 0 0 0 0 0 0 0 0 0 0 0 0 0 0 
0 0 0 0 0 0 138 138 138 137 137 137 133 133 133 125 125 125 110 110 110 
0 0 0 0 0 0 0 0 0 0 0 0 0 0 0 0 0 0 0 0 0 0 0 0 0 0 0 0 0 0 0 0 0 0 0 0 
0 0 0 0 0 0 0 0 0 0 0 0 0 0 0 0 0 0 0 0 0 0 0 0 0 0 0 0 0 0 0 0 0 
0 0 0 0 0 0 0 0 0 0 0 0 0 0 0 0 0 0 0 0 0 0 0 0 0 0 0 0 0 0 0 0 0 0 0 
0 0 0 0 0 0 0 0 0 0 0 0 0 0 0 0 0 0 0 0 0 0 0 0 0 175 175 175 173 173 
173 169 169 169 164 164 164 0 0 0 0 0 0 0 0 0 0 0 0 0 0 0 0 0 0 0 0 0 0 0 
0 0 0 0 0 0 0 0 0 0 0 0 0 0 0 0 0 0 0 0 0 0 0 0 0 0 0 0 0 0 0 0 0 0 0 0 
0 0 0 0 0 0 0 0 0 0 0 0 0 0 0 0 0 0 0 0 0 0 0 0 0 0 0 0 0 0 0 0 0 0 0 0 
0 0 0 0 0 0 0 0 0 0 0 0 0 0 0 0 0 0 0 0 0 0 0 0 0 0 0 0 0 0 0 0 0 0 0 0 
0 160 160 160 166 166 166 168 168 168 167 167 167 164 164 164 160 160 
160 155 155 155 149 149 149 142 142 142 133 133 133 122 122 122 108 108 
108 0 0 0 0 0 0 0 0 0 0 0 0 0 0 0 0 0 0 0 0 0 0 0 0 0 0 0 0 0 0 0 0 0 0 0 
0 0 0 0 0 0 0 0 0 0 0 0 0 0 0 0 0 0 0 0 0 0 0 0 0 
0 0 0 0 0 0 0 0 0 0 0 0 0 0 0 0 0 0 0 0 0 0 0 0 0 0 0 0 0 0 0 0 0 0 0 
0 0 0 0 0 0 0 0 0 0 0 0 0 0 0 0 181 181 181 187 187 187 186 186 186 183 
183 183 179 179 179 174 174 174 168 168 168 0 0 0 0 0 0 0 0 0 0 0 0 0 0 0 
0 0 0 0 0 0 0 0 0 0 0 0 0 0 0 0 0 0 0 0 0 0 0 0 0 0 0 0 0 0 0 0 0 0 0 0 
0 0 0 0 0 0 0 0 0 0 0 0 0 0 0 0 0 0 0 0 0 0 0 0 0 0 0 0 0 0 0 0 0 0 0 0 
0 0 0 0 0 0 0 0 0 0 0 0 0 0 0 0 0 0 0 0 0 0 0 0 0 0 0 0 0 0 0 0 0 0 0 0 
0 0 0 171 171 171 178 178 178 181 181 181 181 181 181 180 180 180 178 
178 178 174 174 174 170 170 170 165 165 165 159 159 159 152 152 152 145 
145 145 136 136 136 126 126 126 114 114 114 99 99 99 70 70 70 0 0 0 0 0 0 
0 0 0 0 0 0 0 0 0 0 0 0 0 0 0 0 0 0 0 0 0 0 0 0 0 0 0 0 0 0 0 0 0 0 0 0 
0 0 0 0 0 0 0 0 0 
0 0 0 0 0 0 0 0 0 0 0 0 0 0 0 0 0 0 0 0 0 0 0 0 0 0 0 0 0 0 0 0 0 0 0 
0 0 0 0 0 0 0 0 0 0 0 0 0 193 193 193 194 194 194 193 193 193 189 189 
189 185 185 185 181 181 181 175 175 175 0 0 0 0 0 0 0 0 0 0 0 0 0 0 0 0 0 
0 0 0 0 0 0 0 0 0 0 0 0 0 0 0 0 0 0 0 0 0 0 0 0 0 0 0 0 0 0 0 0 0 0 0 0 
0 0 0 0 0 0 0 0 0 0 0 0 0 0 0 0 0 0 0 0 0 0 0 0 0 0 0 0 0 0 0 0 0 0 0 0 
0 0 0 0 0 0 0 0 0 0 0 0 0 0 0 0 0 0 0 0 0 0 0 0 0 0 0 0 0 0 0 0 0 0 166 
166 166 183 183 183 188 188 188 190 190 190 190 190 190 189 189 189 187 
187 187 184 184 184 180 180 180 176 176 176 171 171 171 165 165 165 159 
159 159 152 152 152 144 144 144 135 135 135 125 125 125 113 113 113 99 99 
99 80 80 80 0 0 0 0 0 0 0 0 0 0 0 0 0 0 0 0 0 0 0 0 0 0 0 0 0 0 0 0 0 0 
0 0 0 0 0 0 0 0 0 0 0 0 0 0 0 0 0 0 
0 0 0 0 0 0 0 0 0 0 0 0 0 0 0 0 0 0 0 0 0 0 0 0 0 0 0 0 0 0 0 0 0 0 0 
0 0 0 0 0 0 0 0 0 0 199 199 199 199 199 199 197 197 197 194 194 194 190 
190 190 186 186 186 181 181 181 175 175 175 0 0 0 0 0 0 0 0 0 0 0 0 0 0 0 
0 0 0 0 0 0 0 0 0 0 0 0 0 0 0 0 0 0 0 0 0 0 0 0 0 0 0 0 0 0 0 0 0 0 0 0 
0 0 0 0 0 0 0 0 0 0 0 0 0 0 0 0 0 0 0 0 0 0 0 0 0 0 0 0 0 0 0 0 0 0 0 0 
0 0 0 0 0 0 0 0 0 0 0 0 0 0 0 0 0 0 0 0 0 0 0 0 0 0 0 0 0 0 0 0 0 176 
176 176 188 188 188 193 193 193 196 196 196 196 196 196 195 195 195 193 
193 193 191 191 191 187 187 187 184 184 184 179 179 179 174 174 174 169 
169 169 162 162 162 156 156 156 148 148 148 140 140 140 131 131 131 121 
121 121 109 109 109 95 95 95 77 77 77 0 0 0 0 0 0 0 0 0 0 0 0 0 0 0 0 0 0 
0 0 0 0 0 0 0 0 0 0 0 0 0 0 0 0 0 0 0 0 0 0 0 0 0 0 0 
0 0 0 0 0 0 0 0 0 0 0 0 0 0 0 0 0 0 0 0 0 0 0 0 0 0 0 0 0 0 0 0 0 0 0 
0 0 0 0 0 0 0 201 201 201 202 202 202 200 200 200 198 198 198 194 194 
194 190 190 190 185 185 185 180 180 180 175 175 175 0 0 0 0 0 0 0 0 0 0 0 
0 0 0 0 0 0 0 0 0 0 0 0 0 0 0 0 0 0 0 0 0 0 0 0 0 0 0 0 0 0 0 0 0 0 0 0 
0 0 0 0 0 0 0 0 0 0 0 0 0 0 0 0 0 0 0 0 0 0 0 0 0 0 0 0 0 0 0 0 0 0 0 0 
0 0 0 0 0 0 0 0 0 0 0 0 0 0 0 0 0 0 0 0 0 0 0 0 0 0 0 0 0 0 0 0 0 0 179 
179 179 191 191 191 197 197 197 199 199 199 200 200 200 199 199 199 198 
198 198 196 196 196 193 193 193 190 190 190 186 186 186 181 181 181 176 
176 176 171 171 171 165 165 165 158 158 158 151 151 151 143 143 143 135 
135 135 125 125 125 115 115 115 103 103 103 88 88 88 69 69 69 0 0 0 0 0 0 
0 0 0 0 0 0 0 0 0 0 0 0 0 0 0 0 0 0 0 0 0 0 0 0 0 0 0 0 0 0 0 0 0 0 0 0 
0 0 0 0 0 0 0 0 0 0 0 0 0 0 0 0 0 0 0 0 0 0 0 0 0 0 0 0 0 0 0 0 0 0 0 
0 0 0 0 202 202 202 204 204 204 202 202 202 200 200 200 197 197 197 193 
193 193 188 188 188 184 184 184 178 178 178 0 0 0 0 0 0 0 0 0 0 0 0 0 0 0 
0 0 0 0 0 0 0 0 0 0 0 0 0 0 0 0 0 0 0 0 0 0 0 0 0 0 0 0 0 0 0 0 0 0 0 0 
0 0 0 0 0 0 0 0 0 0 0 0 0 0 0 0 0 0 0 0 0 0 0 0 0 0 0 0 0 0 0 0 0 0 0 0 
0 0 0 0 0 0 0 0 0 0 0 0 0 0 0 0 0 0 0 0 0 0 0 0 0 0 0 0 0 0 176 176 176 
191 191 191 198 198 198 201 201 201 202 202 202 202 202 202 201 201 201 
199 199 199 197 197 197 194 194 194 191 191 191 187 187 187 182 182 182 
177 177 177 172 172 172 166 166 166 159 159 159 153 153 153 145 145 145 
137 137 137 128 128 128 118 118 118 107 107 107 94 94 94 79 79 79 59 59 
59 0 0 0 0 0 0 0 0 0 0 0 0 0 0 0 0 0 0 0 0 0 0 0 0 0 0 0 0 0 0 0 0 0 0 0 
0 0 0 0 
0 0 0 0 0 0 0 0 0 0 0 0 0 0 0 0 0 0 0 0 0 0 0 0 0 0 0 0 0 0 0 0 0 0 0 
0 201 201 201 204 204 204 203 203 203 202 202 202 199 199 199 195 195 
195 191 191 191 186 186 186 181 181 181 176 176 176 0 0 0 0 0 0 0 0 0 0 0 
0 0 0 0 0 0 0 0 0 0 0 0 0 0 0 0 0 0 0 0 0 0 0 0 0 0 0 0 0 0 0 0 0 0 0 0 
0 0 0 0 0 0 0 0 0 0 0 0 0 0 0 0 0 0 0 0 0 0 0 0 0 0 0 0 0 0 0 0 0 0 0 0 
0 0 0 0 0 0 0 0 0 0 0 0 0 0 0 0 0 0 0 0 0 0 0 0 0 0 0 0 0 0 0 163 163 
163 189 189 189 197 197 197 201 201 201 203 203 203 204 204 204 203 203 
203 202 202 202 200 200 200 197 197 197 194 194 194 191 191 191 187 187 
187 182 182 182 177 177 177 172 172 172 166 166 166 160 160 160 153 153 
153 146 146 146 138 138 138 129 129 129 120 120 120 110 110 110 98 98 98 
84 84 84 68 68 68 44 44 44 0 0 0 0 0 0 0 0 0 0 0 0 0 0 0 0 0 0 0 0 0 0 0 
0 0 0 0 0 0 0 0 0 0 0 0 0 
0 0 0 0 0 0 0 0 0 0 0 0 0 0 0 0 0 0 0 0 0 0 0 0 0 0 0 0 0 0 0 0 0 194 
194 194 203 203 203 203 203 203 202 202 202 200 200 200 196 196 196 193 
193 193 188 188 188 184 184 184 179 179 179 174 174 174 0 0 0 0 0 0 0 0 0 
0 0 0 0 0 0 0 0 0 0 0 0 0 0 0 0 0 0 0 0 0 0 0 0 0 0 0 0 0 0 0 0 0 0 0 0 
0 0 0 0 0 0 0 0 0 0 0 0 0 0 0 0 0 0 0 0 0 0 0 0 0 0 0 0 0 0 0 0 0 0 0 0 
0 0 0 0 0 0 0 0 0 0 0 0 0 0 0 0 0 0 0 0 0 0 0 0 0 0 0 0 0 0 0 0 0 182 
182 182 194 194 194 199 199 199 202 202 202 204 204 204 204 204 204 203 
203 203 202 202 202 199 199 199 197 197 197 194 194 194 190 190 190 186 
186 186 181 181 181 176 176 176 171 171 171 165 165 165 159 159 159 153 
153 153 146 146 146 138 138 138 130 130 130 121 121 121 111 111 111 100 
100 100 87 87 87 72 72 72 54 54 54 26 26 26 0 0 0 0 0 0 0 0 0 0 0 0 0 0 0 
0 0 0 0 0 0 0 0 0 0 0 0 0 0 0 0 0 0 
0 0 0 0 0 0 0 0 0 0 0 0 0 0 0 0 0 0 0 0 0 0 0 0 0 0 0 0 0 0 0 0 0 199 
199 199 202 202 202 202 202 202 200 200 200 197 197 197 194 194 194 190 
190 190 186 186 186 182 182 182 177 177 177 171 171 171 0 0 0 0 0 0 0 0 0 
0 0 0 0 0 0 0 0 0 0 0 0 0 0 0 0 0 0 0 0 0 0 0 0 0 0 0 0 0 0 0 0 0 0 0 0 
0 0 0 0 0 0 0 0 0 0 0 0 0 0 0 0 0 0 0 0 0 0 0 0 0 0 0 0 0 0 0 0 0 0 0 0 
0 0 0 0 0 0 0 0 0 0 0 0 0 0 0 0 0 0 0 0 0 0 0 0 0 0 0 0 0 0 169 169 169 
188 188 188 196 196 196 200 200 200 203 203 203 203 203 203 203 203 203 
202 202 202 201 201 201 198 198 198 196 196 196 192 192 192 189 189 189 
184 184 184 180 180 180 175 175 175 170 170 170 164 164 164 158 158 158 
152 152 152 145 145 145 137 137 137 129 129 129 120 120 120 111 111 111 
100 100 100 88 88 88 75 75 75 58 58 58 35 35 35 0 0 0 0 0 0 0 0 0 0 0 0 0 
0 0 0 0 0 0 0 0 0 0 0 0 0 0 0 0 0 0 0 0 
0 0 0 0 0 0 0 0 0 0 0 0 0 0 0 0 0 0 0 0 0 0 0 0 0 0 0 0 0 0 189 189 
189 199 199 199 200 200 200 199 199 199 197 197 197 194 194 194 191 191 
191 187 187 187 191 191 191 218 218 218 183 183 183 168 168 168 0 0 0 0 0 
0 0 0 0 0 0 0 0 0 0 0 0 0 0 0 0 0 0 0 0 0 0 0 0 0 0 0 0 0 0 0 0 0 0 0 0 
0 0 0 0 0 0 0 0 0 0 0 0 0 0 0 0 0 0 0 0 0 0 0 0 0 0 0 0 0 0 0 0 0 0 0 0 
0 0 0 0 0 0 0 0 0 0 0 0 0 0 0 0 0 0 0 0 0 0 0 0 0 0 0 0 0 0 0 0 0 0 178 
178 178 190 190 190 196 196 196 200 200 200 202 202 202 202 202 202 202 
202 202 201 201 201 199 199 199 197 197 197 195 195 195 191 191 191 187 
187 187 183 183 183 178 178 178 173 173 173 168 168 168 162 162 162 156 
156 156 150 150 150 143 143 143 136 136 136 128 128 128 119 119 119 110 
110 110 100 100 100 88 88 88 76 76 76 60 60 60 41 41 41 26 26 26 0 0 0 0 
0 0 0 0 0 0 0 0 0 0 0 0 0 0 0 0 0 0 0 0 0 0 0 0 0 0 
0 0 0 0 0 0 0 0 0 0 0 0 0 0 0 0 0 0 0 0 0 0 0 0 0 0 0 0 0 0 192 192 
192 197 197 197 197 197 197 196 196 196 194 194 194 191 191 191 187 187 
187 184 184 184 208 208 208 237 237 237 177 177 177 164 164 164 0 0 0 0 0 
0 0 0 0 0 0 0 0 0 0 0 0 0 0 0 0 0 0 0 0 0 0 0 0 0 0 0 0 0 0 0 0 0 0 0 0 
0 0 0 0 0 0 0 0 0 0 0 0 0 0 0 0 0 0 0 0 0 0 0 0 0 0 0 0 0 0 0 0 0 0 0 0 
0 0 0 0 0 0 0 0 0 0 0 0 0 0 0 0 0 0 0 0 0 0 0 0 0 0 0 0 0 0 0 149 149 
149 181 181 181 190 190 190 196 196 196 199 199 199 200 200 200 200 200 
200 200 200 200 198 198 198 197 197 197 214 214 214 228 228 228 192 192 
192 184 184 184 180 180 180 176 176 176 171 171 171 166 166 166 160 160 
160 154 154 154 148 148 148 141 141 141 134 134 134 126 126 126 118 118 
118 109 109 109 99 99 99 88 88 88 75 75 75 61 61 61 43 43 43 26 26 26 0 0 
0 0 0 0 0 0 0 0 0 0 0 0 0 0 0 0 0 0 0 0 0 0 0 0 0 0 0 0 
0 0 0 0 0 0 0 0 0 0 0 0 0 0 0 0 0 0 0 0 0 0 0 0 0 0 0 0 0 0 191 191 
191 194 194 194 194 194 194 193 193 193 190 190 190 187 187 187 183 183 
183 179 179 179 181 181 181 177 177 177 166 166 166 160 160 160 0 0 0 0 0 
0 0 0 0 0 0 0 0 0 0 0 0 0 0 0 0 0 0 0 0 0 0 0 0 0 0 0 0 0 0 0 0 0 0 0 0 
0 0 0 0 0 0 0 0 0 0 0 0 0 0 0 0 0 0 0 0 0 0 0 0 0 0 0 0 0 0 0 0 0 0 0 0 
0 0 0 0 0 0 0 0 0 0 0 0 0 0 0 0 0 0 0 0 0 0 0 0 0 0 0 0 0 0 0 163 163 
163 181 181 181 189 189 189 194 194 194 196 196 196 198 198 198 198 198 
198 197 197 197 196 196 196 195 195 195 231 231 231 235 235 235 188 188 
188 181 181 181 177 177 177 173 173 173 168 168 168 163 163 163 157 157 
157 152 152 152 145 145 145 139 139 139 131 131 131 124 124 124 115 115 
115 106 106 106 97 97 97 86 86 86 74 74 74 60 60 60 43 43 43 26 26 26 0 0 
0 0 0 0 0 0 0 0 0 0 0 0 0 0 0 0 0 0 0 0 0 0 0 0 0 0 0 0 
0 0 0 0 0 0 0 0 0 0 0 0 0 0 0 0 0 0 0 0 0 0 0 0 0 0 0 0 0 0 188 188 
188 191 191 191 190 190 190 188 188 188 186 186 186 183 183 183 179 179 
179 175 175 175 171 171 171 166 166 166 161 161 161 0 0 0 0 0 0 0 0 0 0 0 
0 0 0 0 0 0 0 0 0 0 0 0 0 0 0 0 0 0 0 0 0 0 0 0 0 0 0 0 0 0 0 0 0 0 0 0 
0 0 0 0 0 0 0 0 0 0 0 0 0 0 0 0 0 0 0 0 0 0 0 0 0 0 0 0 0 0 0 0 0 0 0 0 
0 0 0 0 0 0 0 0 0 0 0 0 0 0 0 0 0 0 0 0 0 0 0 0 0 0 0 0 164 164 164 179 
179 179 187 187 187 191 191 191 193 193 193 194 194 194 195 195 195 194 
194 194 192 192 192 191 191 191 192 192 192 188 188 188 182 182 182 178 
178 178 174 174 174 170 170 170 165 165 165 160 160 160 154 154 154 148 
148 148 142 142 142 135 135 135 128 128 128 121 121 121 113 113 113 104 
104 104 94 94 94 84 84 84 72 72 72 58 58 58 42 42 42 26 26 26 0 0 0 0 0 0 
0 0 0 0 0 0 0 0 0 0 0 0 0 0 0 0 0 0 0 0 0 0 0 0 
0 0 0 0 0 0 0 0 0 0 0 0 0 0 0 0 0 0 0 0 0 0 0 0 0 0 0 173 173 173 185 
185 185 186 186 186 186 186 186 184 184 184 181 181 181 178 178 178 175 
175 175 171 171 171 166 166 166 161 161 161 156 156 156 0 0 0 0 0 0 0 0 0 
0 0 0 0 0 0 0 0 0 0 0 0 0 0 0 0 0 0 0 0 0 0 0 0 0 0 0 0 0 0 0 0 0 0 0 0 
0 0 0 0 0 0 0 0 0 0 0 0 0 0 0 0 0 0 0 0 0 0 0 0 0 0 0 0 0 0 0 0 0 0 0 0 
0 0 0 0 0 0 0 0 0 0 0 0 0 0 0 0 0 0 0 0 0 0 0 0 0 0 0 0 0 0 163 163 163 
177 177 177 183 183 183 188 188 188 190 190 190 191 191 191 191 191 191 
190 190 190 189 189 189 187 187 187 184 184 184 181 181 181 178 178 178 
174 174 174 170 170 170 166 166 166 161 161 161 156 156 156 151 151 151 
145 145 145 139 139 139 132 132 132 125 125 125 117 117 117 109 109 109 
100 100 100 91 91 91 80 80 80 69 69 69 56 56 56 40 40 40 26 26 26 26 26 
26 0 0 0 0 0 0 0 0 0 0 0 0 0 0 0 0 0 0 0 0 0 0 0 0 0 0 0 
0 0 0 0 0 0 0 0 0 0 0 0 0 0 0 0 0 0 0 0 0 0 0 0 0 0 0 171 171 171 180 
180 180 182 182 182 181 181 181 179 179 179 177 177 177 173 173 173 170 
170 170 166 166 166 161 161 161 157 157 157 152 152 152 0 0 0 0 0 0 0 0 0 
0 0 0 0 0 0 0 0 0 0 0 0 0 0 0 0 0 0 0 0 0 0 0 0 0 0 0 0 0 0 0 0 0 0 0 0 
0 0 0 0 0 0 0 0 0 0 0 0 0 0 0 0 0 0 0 0 0 0 0 0 0 0 0 0 0 0 0 0 0 0 0 0 
0 0 0 0 0 0 0 0 0 0 0 0 0 0 0 0 0 0 0 0 0 0 0 0 0 0 0 0 0 0 160 160 160 
173 173 173 179 179 179 183 183 183 186 186 186 186 186 186 187 187 187 
186 186 186 184 184 184 182 182 182 180 180 180 177 177 177 174 174 174 
170 170 170 166 166 166 162 162 162 157 157 157 152 152 152 147 147 147 
141 141 141 135 135 135 128 128 128 121 121 121 113 113 113 105 105 105 
97 97 97 87 87 87 77 77 77 65 65 65 52 52 52 37 37 37 26 26 26 26 26 26 
0 0 0 0 0 0 0 0 0 0 0 0 0 0 0 0 0 0 0 0 0 0 0 0 0 0 0 
0 0 0 0 0 0 0 0 0 0 0 0 0 0 0 0 0 0 0 0 0 0 0 0 0 0 0 165 165 165 175 
175 175 176 176 176 176 176 176 174 174 174 172 172 172 168 168 168 165 
165 165 161 161 161 156 156 156 152 152 152 147 147 147 0 0 0 0 0 0 0 0 0 
0 0 0 0 0 0 0 0 0 0 0 0 0 0 0 0 0 0 0 0 0 0 0 0 0 0 0 0 0 0 0 0 0 0 0 0 
0 0 0 0 0 0 0 0 0 0 0 0 0 0 0 0 0 0 0 0 0 0 0 0 0 0 0 0 0 0 0 0 0 0 0 0 
0 0 0 0 0 0 0 0 0 0 0 0 0 0 0 0 0 0 0 0 0 0 0 0 0 0 0 0 0 0 155 155 155 
168 168 168 174 174 174 178 178 178 181 181 181 182 182 182 182 182 182 
181 181 181 180 180 180 178 178 178 175 175 175 173 173 173 169 169 169 
166 166 166 162 162 162 157 157 157 153 153 153 148 148 148 142 142 142 
136 136 136 130 130 130 124 124 124 117 117 117 109 109 109 101 101 101 
92 92 92 83 83 83 72 72 72 61 61 61 48 48 48 32 32 32 26 26 26 26 26 26 
0 0 0 0 0 0 0 0 0 0 0 0 0 0 0 0 0 0 0 0 0 0 0 0 0 0 0 
0 0 0 0 0 0 0 0 0 0 0 0 0 0 0 0 0 0 0 0 0 0 0 0 0 0 0 158 158 158 169 
169 169 170 170 170 170 170 170 168 168 168 166 166 166 163 163 163 159 
159 159 155 155 155 151 151 151 146 146 146 142 142 142 0 0 0 0 0 0 0 0 0 
0 0 0 0 0 0 0 0 0 0 0 0 0 0 0 0 0 0 0 0 0 0 0 0 0 0 0 0 0 0 0 0 0 0 0 0 
0 0 0 0 0 0 0 0 0 0 0 0 0 0 0 0 0 0 124 111 111 123 111 111 123 111 111 
123 110 110 122 110 110 122 110 110 122 110 110 122 109 109 121 109 109 
121 109 109 121 109 109 121 108 108 120 108 108 120 108 108 120 108 108 
119 107 107 0 0 0 0 0 0 0 0 0 0 0 0 0 0 0 0 0 0 0 0 0 0 0 0 174 174 174 
173 173 173 170 170 170 168 168 168 164 164 164 161 161 161 157 157 157 
152 152 152 148 148 148 143 143 143 137 137 137 132 132 132 125 125 125 
119 119 119 112 112 112 104 104 104 96 96 96 87 87 87 78 78 78 68 68 68 
56 56 56 43 43 43 27 27 27 0 0 0 0 0 0 0 0 0 0 0 0 0 0 0 0 0 0 0 0 0 0 0 
0 0 0 0 0 0 0 0 0 0 
0 0 0 0 0 0 0 0 0 0 0 0 0 0 0 0 0 0 0 0 0 0 0 0 135 122 122 135 122 
122 162 162 162 164 164 164 164 164 164 163 163 163 160 160 160 157 157 
157 154 154 154 150 150 150 145 145 145 141 141 141 136 136 136 0 0 0 0 0 
0 0 0 0 0 0 0 0 0 0 0 0 0 0 0 0 0 0 0 0 0 0 0 0 0 0 0 0 0 0 0 0 0 0 0 0 
0 0 0 0 0 0 0 0 0 0 0 0 0 0 0 0 0 0 0 0 0 0 129 116 116 128 116 116 128 
115 115 128 115 115 128 115 115 127 115 115 127 114 114 127 114 114 126 
114 114 126 113 113 126 113 113 125 113 113 125 113 113 125 112 112 125 
112 112 124 112 112 0 0 0 0 0 0 0 0 0 0 0 0 0 0 0 0 0 0 0 0 0 0 0 0 0 0 0 
0 0 0 0 0 0 0 0 0 0 0 0 0 0 0 0 0 0 0 0 0 0 0 0 0 0 0 0 0 0 0 0 0 0 0 0 
0 0 0 0 0 0 0 0 0 0 0 0 0 0 0 0 0 0 0 0 0 0 0 0 0 0 0 0 0 0 0 0 0 113 
102 102 112 101 101 0 0 0 0 0 0 0 0 0 0 0 0 0 0 0 0 0 0 0 0 0 0 0 0 
142 128 128 142 128 128 142 128 128 142 128 128 142 127 127 141 127 
127 141 127 127 141 127 127 141 127 127 141 127 127 154 154 154 157 157 
157 157 157 157 156 156 156 154 154 154 151 151 151 148 148 148 144 144 
144 140 140 140 135 135 135 130 130 130 125 125 125 0 0 0 0 0 0 0 0 0 0 0 
0 0 0 0 0 0 0 0 0 0 0 0 0 0 0 0 0 0 0 0 0 0 0 0 0 0 0 0 0 0 0 0 0 0 0 0 
0 0 0 0 0 0 0 0 0 0 0 0 0 133 120 120 133 119 119 132 119 119 132 119 
119 132 119 119 132 118 118 131 118 118 131 118 118 131 118 118 130 117 
117 130 117 117 130 117 117 129 116 116 129 116 116 129 116 116 128 116 
116 0 0 0 0 0 0 0 0 0 0 0 0 0 0 0 0 0 0 0 0 0 0 0 0 0 0 0 0 0 0 0 0 0 0 0 
0 0 0 0 0 0 0 0 0 0 0 0 0 0 0 0 0 0 0 0 0 0 0 0 0 0 0 0 0 0 0 0 0 0 0 0 
0 0 0 0 0 0 0 0 0 0 0 0 0 0 0 0 0 0 0 0 0 0 0 0 0 118 106 106 117 106 
106 117 105 105 117 105 105 116 105 105 116 104 104 116 104 104 115 104 
104 115 104 104 115 103 103 
147 132 132 146 132 132 146 132 132 146 132 132 146 131 131 146 131 
131 146 131 131 145 131 131 145 131 131 145 131 131 144 144 144 149 149 
149 150 150 150 149 149 149 147 147 147 145 145 145 141 141 141 138 138 
138 133 133 133 129 129 129 124 124 124 119 119 119 0 0 0 0 0 0 0 0 0 0 0 
0 0 0 0 0 0 0 0 0 0 0 0 0 0 0 0 0 0 0 0 0 0 0 0 0 0 0 0 0 0 0 0 0 0 0 0 
0 0 0 0 0 0 0 0 0 0 0 0 0 137 123 123 136 123 123 136 122 122 136 122 
122 136 122 122 135 122 122 135 121 121 135 121 121 134 121 121 134 121 
121 134 120 120 133 120 120 133 120 120 133 119 119 132 119 119 132 119 
119 0 0 0 0 0 0 0 0 0 0 0 0 0 0 0 0 0 0 0 0 0 0 0 0 0 0 0 0 0 0 0 0 0 0 0 
0 0 0 0 0 0 0 0 0 0 0 0 0 0 0 0 0 0 0 0 0 0 0 0 0 0 0 0 0 0 0 0 0 0 0 0 
0 0 0 0 0 0 0 0 0 0 0 0 0 0 0 0 0 0 0 0 0 0 0 0 0 121 109 109 121 109 
109 121 109 109 121 108 108 120 108 108 120 108 108 120 108 108 119 107 
107 119 107 107 119 107 107 
150 135 135 150 135 135 150 135 135 150 135 135 150 135 135 149 135 
135 149 134 134 149 134 134 149 134 134 149 134 134 132 132 132 140 140 
140 142 142 142 142 142 142 140 140 140 138 138 138 134 134 134 131 131 
131 127 127 127 122 122 122 118 118 118 113 113 113 0 0 0 0 0 0 0 0 0 0 0 
0 0 0 0 0 0 0 0 0 0 0 0 0 0 0 0 0 0 0 0 0 0 0 0 0 0 0 0 0 0 0 0 0 0 0 0 
0 0 0 0 0 0 0 0 0 0 140 126 126 140 126 126 140 126 126 139 125 125 139 
125 125 139 125 125 138 125 125 138 124 124 138 124 124 138 124 124 137 
123 123 137 123 123 137 123 123 136 123 123 136 122 122 136 122 122 135 
122 122 135 122 122 0 0 0 0 0 0 0 0 0 0 0 0 0 0 0 0 0 0 0 0 0 0 0 0 0 0 0 
0 0 0 0 0 0 0 0 0 0 0 0 0 0 0 0 0 0 0 0 0 0 0 0 0 0 0 0 0 0 0 0 0 0 0 0 
0 0 0 0 0 0 0 0 0 0 0 0 0 0 0 0 0 0 0 0 0 0 0 0 0 0 0 0 0 0 125 112 112 
124 112 112 124 112 112 124 111 111 124 111 111 123 111 111 123 111 111 
123 110 110 122 110 110 122 110 110 
154 138 138 153 138 138 153 138 138 153 138 138 153 138 138 153 137 
137 152 137 137 152 137 137 152 137 137 152 137 137 152 136 136 130 130 
130 133 133 133 134 134 134 132 132 132 130 130 130 127 127 127 124 124 
124 120 120 120 115 115 115 111 111 111 106 106 106 0 0 0 0 0 0 0 0 0 0 0 
0 0 0 0 0 0 0 0 0 0 0 0 0 0 0 0 0 0 0 0 0 0 0 0 0 0 0 0 0 0 0 0 0 0 0 0 
0 0 0 0 0 0 0 0 0 0 143 129 129 143 129 129 142 128 128 142 128 128 142 
128 128 142 127 127 141 127 127 141 127 127 141 127 127 140 126 126 140 
126 126 140 126 126 139 125 125 139 125 125 139 125 125 138 125 125 138 
124 124 138 124 124 0 0 0 0 0 0 0 0 0 0 0 0 0 0 0 0 0 0 0 0 0 0 0 0 0 0 0 
0 0 0 0 0 0 0 0 0 0 0 0 0 0 0 0 0 0 0 0 0 0 0 0 0 0 0 0 0 0 0 0 0 0 0 0 
0 0 0 0 0 0 0 0 0 0 0 0 0 0 0 0 0 0 0 0 0 0 0 0 0 0 0 128 115 115 128 
115 115 127 115 115 127 114 114 127 114 114 126 114 114 126 114 114 126 
113 113 126 113 113 125 113 113 125 112 112 
156 141 141 156 141 141 156 140 140 156 140 140 156 140 140 155 140 
140 155 140 140 155 139 139 155 139 139 154 139 139 154 139 139 116 116 
116 123 123 123 124 124 124 124 124 124 122 122 122 119 119 119 116 116 
116 112 112 112 108 108 108 103 103 103 99 99 99 0 0 0 0 0 0 0 0 0 0 0 0 
0 0 0 0 0 0 0 0 0 0 0 0 0 0 0 0 0 0 0 0 0 0 0 0 0 0 0 0 0 0 0 0 0 0 0 0 
0 0 0 0 0 0 146 131 131 146 131 131 145 131 131 145 131 131 145 130 130 
144 130 130 144 130 130 144 129 129 143 129 129 26 23 23 26 23 23 26 23 
23 26 23 23 26 23 23 26 23 23 26 23 23 26 23 23 141 127 127 140 126 126 
140 126 126 0 0 0 0 0 0 0 0 0 0 0 0 0 0 0 0 0 0 0 0 0 0 0 0 0 0 0 0 0 0 0 
0 0 0 0 0 0 0 0 0 0 0 0 0 0 0 0 0 0 0 0 0 0 0 0 0 0 0 0 0 0 0 0 0 0 0 0 
0 0 0 0 0 0 0 0 0 0 0 0 0 0 0 0 0 0 0 0 26 23 23 26 23 23 26 23 23 26 
23 23 26 23 23 26 23 23 129 116 116 129 116 116 128 115 115 128 115 115 
128 115 115 
159 143 143 159 143 143 158 143 143 158 142 142 158 142 142 158 142 
142 157 142 142 157 142 142 157 141 141 157 141 141 156 141 141 156 141 
141 110 110 110 114 114 114 114 114 114 113 113 113 111 111 111 108 108 
108 104 104 104 100 100 100 96 96 96 91 91 91 0 0 0 0 0 0 0 0 0 0 0 0 0 0 
0 0 0 0 0 0 0 0 0 0 0 0 0 0 0 0 0 0 0 0 0 0 0 0 0 0 0 0 0 0 0 0 0 0 0 0 
0 0 0 0 26 23 23 26 23 23 26 23 23 26 23 23 26 23 23 26 23 23 26 23 23 
26 23 23 26 23 23 26 23 23 26 23 23 26 23 23 26 23 23 26 23 23 26 23 23 
26 23 23 26 23 23 26 23 23 26 23 23 26 23 23 0 0 0 0 0 0 0 0 0 0 0 0 0 0 
0 0 0 0 0 0 0 0 0 0 0 0 0 0 0 0 0 0 0 0 0 0 0 0 0 0 0 0 0 0 0 0 0 0 0 0 
0 0 0 0 0 0 0 0 0 0 0 0 0 0 0 0 0 0 0 0 0 0 0 0 0 0 0 0 0 0 0 0 0 0 26 
23 23 26 23 23 26 23 23 26 23 23 26 23 23 26 23 23 26 23 23 26 23 23 26 
23 23 26 23 23 26 23 23 26 23 23 
161 145 145 161 145 145 160 144 144 160 144 144 160 144 144 160 144 
144 160 144 144 159 143 143 159 143 143 159 143 143 158 143 143 158 142 
142 86 86 86 101 101 101 104 104 104 103 103 103 101 101 101 99 99 99 96 
96 96 92 92 92 87 87 87 83 83 83 0 0 0 0 0 0 0 0 0 0 0 0 0 0 0 0 0 0 0 0 
0 0 0 0 0 0 0 0 0 0 0 0 0 0 0 0 0 0 0 0 0 0 0 0 0 0 0 0 0 0 0 26 23 23 
26 23 23 26 23 23 26 23 23 26 23 23 26 23 23 26 23 23 26 23 23 26 23 23 
26 23 23 26 23 23 26 23 23 26 23 23 26 23 23 26 23 23 26 23 23 26 23 23 
26 23 23 26 23 23 26 23 23 26 23 23 26 23 23 0 0 0 0 0 0 0 0 0 0 0 0 0 0 
0 0 0 0 0 0 0 0 0 0 0 0 0 0 0 0 0 0 0 0 0 0 0 0 0 0 0 0 0 0 0 0 0 0 0 0 
0 0 0 0 0 0 0 0 0 0 0 0 0 0 0 0 0 0 0 0 0 0 0 0 0 0 0 0 0 0 0 26 23 23 
26 23 23 26 23 23 26 23 23 26 23 23 26 23 23 26 23 23 26 23 23 26 23 23 
26 23 23 26 23 23 26 23 23 
163 146 146 163 146 146 162 146 146 162 146 146 162 146 146 162 145 
145 161 145 145 161 145 145 161 145 145 161 144 144 160 144 144 160 144 
144 160 144 144 82 82 82 90 90 90 92 92 92 91 91 91 89 89 89 86 86 86 82 
82 82 78 78 78 74 74 74 0 0 0 0 0 0 0 0 0 0 0 0 0 0 0 0 0 0 0 0 0 0 0 0 
0 0 0 0 0 0 0 0 0 0 0 0 0 0 0 0 0 0 0 0 0 0 0 0 26 23 23 26 23 23 26 23 
23 26 23 23 26 23 23 26 23 23 26 23 23 26 23 23 26 23 23 26 23 23 26 23 
23 26 23 23 26 23 23 26 23 23 26 23 23 26 23 23 26 23 23 26 23 23 26 23 
23 26 23 23 26 23 23 26 23 23 26 23 23 26 23 23 0 0 0 0 0 0 0 0 0 0 0 0 
0 0 0 0 0 0 0 0 0 0 0 0 0 0 0 0 0 0 0 0 0 0 0 0 0 0 0 0 0 0 0 0 0 0 0 0 
0 0 0 0 0 0 0 0 0 0 0 0 0 0 0 0 0 0 0 0 0 0 0 0 0 0 0 26 23 23 26 23 23 
26 23 23 26 23 23 26 23 23 26 23 23 26 23 23 26 23 23 26 23 23 26 23 23 
26 23 23 26 23 23 26 23 23 
164 148 148 164 148 148 164 147 147 164 147 147 163 147 147 163 147 
147 163 147 147 163 146 146 162 146 146 162 146 146 162 146 146 162 145 
145 161 145 145 161 145 145 70 70 70 77 77 77 78 78 78 77 77 77 75 75 75 
72 72 72 68 68 68 64 64 64 59 59 59 0 0 0 0 0 0 0 0 0 0 0 0 0 0 0 0 0 0 
0 0 0 0 0 0 0 0 0 0 0 0 0 0 0 0 0 0 0 0 0 0 0 0 26 23 23 26 23 23 26 23 
23 26 23 23 26 23 23 26 23 23 26 23 23 26 23 23 26 23 23 26 23 23 26 23 
23 26 23 23 26 23 23 26 23 23 26 23 23 26 23 23 26 23 23 26 23 23 26 23 
23 26 23 23 26 23 23 26 23 23 26 23 23 148 133 133 147 133 133 147 132 
132 0 0 0 0 0 0 0 0 0 0 0 0 0 0 0 0 0 0 0 0 0 0 0 0 0 0 0 0 0 0 0 0 0 0 0 
0 0 0 0 0 0 0 0 0 0 0 0 0 0 0 0 0 0 0 0 0 0 0 0 0 0 0 0 0 0 0 0 0 0 26 
23 23 26 23 23 26 23 23 26 23 23 26 23 23 26 23 23 26 23 23 26 23 23 26 
23 23 26 23 23 26 23 23 26 23 23 26 23 23 26 23 23 
166 149 149 165 149 149 165 149 149 165 148 148 165 148 148 164 148 
148 164 148 148 164 148 148 164 147 147 163 147 147 163 147 147 163 147 
147 163 146 146 162 146 146 162 146 146 52 52 52 62 62 62 64 64 64 62 62 
62 60 60 60 57 57 57 53 53 53 48 48 48 0 0 0 0 0 0 0 0 0 0 0 0 0 0 0 0 0 
0 0 0 0 0 0 0 0 0 0 0 0 0 0 0 0 0 0 0 0 0 0 26 23 23 26 23 23 26 23 23 
26 23 23 26 23 23 26 23 23 26 23 23 26 23 23 26 23 23 26 23 23 26 23 23 
26 23 23 26 23 23 26 23 23 26 23 23 26 23 23 26 23 23 26 23 23 26 23 23 
26 23 23 26 23 23 26 23 23 150 135 135 149 134 134 149 134 134 149 134 
134 149 134 134 148 133 133 0 0 0 0 0 0 0 0 0 0 0 0 0 0 0 0 0 0 0 0 0 0 0 
0 0 0 0 0 0 0 0 0 0 0 0 0 0 0 0 0 0 0 0 0 0 0 0 0 0 0 0 0 0 0 0 0 0 0 0 
0 0 0 0 26 23 23 26 23 23 26 23 23 26 23 23 26 23 23 26 23 23 26 23 23 
26 23 23 26 23 23 26 23 23 26 23 23 26 23 23 26 23 23 26 23 23 26 23 23 
167 150 150 167 150 150 166 150 150 166 150 150 166 149 149 166 149 
149 165 149 149 165 149 149 165 148 148 165 148 148 164 148 148 164 148 
148 164 147 147 164 147 147 163 147 147 163 147 147 163 147 147 44 44 44 
46 46 46 45 45 45 43 43 43 40 40 40 35 35 35 0 0 0 0 0 0 0 0 0 0 0 0 0 0 
0 0 0 0 0 0 0 0 0 0 0 0 0 0 0 0 0 0 0 0 0 0 26 23 23 26 23 23 26 23 23 
26 23 23 26 23 23 26 23 23 26 23 23 26 23 23 26 23 23 26 23 23 26 23 23 
26 23 23 26 23 23 26 23 23 26 23 23 26 23 23 26 23 23 26 23 23 26 23 23 
26 23 23 152 137 137 152 137 137 151 136 136 151 136 136 151 136 136 151 
135 135 150 135 135 150 135 135 150 135 135 149 134 134 0 0 0 0 0 0 0 0 0 
0 0 0 0 0 0 0 0 0 0 0 0 0 0 0 0 0 0 0 0 0 0 0 0 0 0 0 0 0 0 0 0 0 0 0 0 
0 0 0 0 0 0 0 0 0 26 23 23 26 23 23 26 23 23 26 23 23 26 23 23 26 23 23 
26 23 23 26 23 23 26 23 23 26 23 23 26 23 23 26 23 23 26 23 23 26 23 23 
26 23 23 26 23 23 26 23 23 
168 151 151 168 151 151 168 151 151 167 151 151 167 150 150 167 150 
150 167 150 150 166 150 150 166 149 149 166 149 149 165 149 149 165 149 
149 165 148 148 165 148 148 164 148 148 164 148 148 164 148 148 164 147 
147 163 147 147 26 26 26 26 26 26 26 26 26 26 26 26 26 26 26 0 0 0 0 0 0 
0 0 0 0 0 0 0 0 0 0 0 0 0 0 0 0 0 0 0 0 0 26 23 23 26 23 23 26 23 23 26 
23 23 26 23 23 26 23 23 26 23 23 26 23 23 26 23 23 26 23 23 26 23 23 26 
23 23 26 23 23 26 23 23 26 23 23 26 23 23 26 23 23 26 23 23 154 139 139 
154 139 139 154 138 138 153 138 138 153 138 138 153 138 138 153 137 137 
152 137 137 152 137 137 152 137 137 152 136 136 151 136 136 151 136 136 
151 136 136 150 135 135 26 23 23 0 0 0 0 0 0 0 0 0 0 0 0 0 0 0 0 0 0 0 0 
0 0 0 0 0 0 0 0 0 0 0 0 0 0 0 0 0 0 0 0 0 0 26 23 23 26 23 23 26 23 23 
26 23 23 26 23 23 26 23 23 26 23 23 26 23 23 26 23 23 26 23 23 26 23 23 
26 23 23 26 23 23 26 23 23 26 23 23 26 23 23 26 23 23 26 23 23 26 23 23 
169 152 152 169 152 152 168 152 152 168 151 151 168 151 151 168 151 
151 167 151 151 167 151 151 167 150 150 167 150 150 166 150 150 166 150 
150 166 149 149 166 149 149 165 149 149 165 149 149 165 148 148 165 148 
148 164 148 148 164 148 148 164 147 147 26 26 26 26 26 26 26 26 26 26 26 
26 0 0 0 0 0 0 0 0 0 0 0 0 0 0 0 26 23 23 26 23 23 26 23 23 26 23 23 26 
23 23 26 23 23 26 23 23 26 23 23 26 23 23 26 23 23 26 23 23 26 23 23 26 
23 23 26 23 23 26 23 23 26 23 23 157 141 141 157 141 141 156 141 141 156 
140 140 156 140 140 155 140 140 155 140 140 155 139 139 155 139 139 154 
139 139 154 139 139 154 138 138 154 138 138 153 138 138 153 138 138 153 
137 137 152 137 137 152 137 137 152 137 137 152 136 136 151 136 136 151 
136 136 26 23 23 26 23 23 0 0 0 0 0 0 0 0 0 0 0 0 0 0 0 0 0 0 0 0 0 0 0 0 
0 0 0 26 23 23 26 23 23 26 23 23 26 23 23 26 23 23 26 23 23 26 23 23 26 
23 23 26 23 23 26 23 23 26 23 23 26 23 23 26 23 23 26 23 23 26 23 23 26 
23 23 26 23 23 143 129 129 143 129 129 143 128 128 142 128 128 
170 153 153 170 153 153 169 152 152 169 152 152 169 152 152 169 152 
152 168 152 152 168 151 151 168 151 151 168 151 151 167 151 151 167 150 
150 167 150 150 167 150 150 166 150 150 166 149 149 166 149 149 166 149 
149 165 149 149 165 149 149 165 148 148 164 148 148 26 23 23 26 23 23 26 
23 23 26 23 23 26 23 23 26 23 23 26 23 23 26 23 23 26 23 23 26 23 23 26 
23 23 26 23 23 26 23 23 26 23 23 26 23 23 26 23 23 26 23 23 26 23 23 159 
144 144 159 143 143 159 143 143 159 143 143 158 143 143 158 142 142 158 
142 142 158 142 142 157 142 142 157 141 141 157 141 141 156 141 141 156 
141 141 156 140 140 156 140 140 155 140 140 155 140 140 155 139 139 155 
139 139 154 139 139 154 139 139 154 138 138 154 138 138 153 138 138 153 
138 138 153 137 137 152 137 137 152 137 137 152 137 137 152 137 137 151 
136 136 26 23 23 26 23 23 26 23 23 26 23 23 26 23 23 26 23 23 26 23 23 26 
23 23 26 23 23 26 23 23 26 23 23 26 23 23 26 23 23 26 23 23 26 23 23 26 
23 23 26 23 23 26 23 23 26 23 23 26 23 23 146 131 131 146 131 131 145 
131 131 145 131 131 145 130 130 145 130 130 144 130 130 144 130 130 144 
129 129 
171 154 154 170 153 153 170 153 153 170 153 153 170 153 153 169 152 
152 169 152 152 169 152 152 169 152 152 168 152 152 168 151 151 168 151 
151 168 151 151 167 151 151 167 150 150 167 150 150 167 150 150 166 150 
150 166 149 149 166 149 149 166 149 149 165 149 149 165 149 149 165 148 
148 165 148 148 164 148 148 164 148 148 164 147 147 163 147 147 163 147 
147 163 147 147 163 146 146 162 146 146 162 146 146 162 146 146 162 146 
146 161 145 145 161 145 145 161 145 145 161 145 145 160 144 144 160 144 
144 160 144 144 160 144 144 159 143 143 159 143 143 159 143 143 159 143 
143 158 142 142 158 142 142 158 142 142 157 142 142 157 141 141 157 141 
141 157 141 141 156 141 141 156 141 141 156 140 140 156 140 140 155 140 
140 155 140 140 155 139 139 155 139 139 154 139 139 154 139 139 154 138 
138 154 138 138 153 138 138 153 138 138 153 137 137 152 137 137 152 137 
137 152 137 137 152 137 137 151 136 136 151 136 136 151 136 136 151 136 
136 150 135 135 150 135 135 150 135 135 150 135 135 149 134 134 149 134 
134 149 134 134 149 134 134 148 133 133 148 133 133 148 133 133 148 133 
133 147 133 133 147 132 132 147 132 132 147 132 132 146 132 132 146 131 
131 146 131 131 145 131 131 145 131 131 145 130 130 
171 154 154 171 154 154 171 154 154 171 153 153 170 153 153 170 153 
153 170 153 153 170 153 153 169 152 152 169 152 152 169 152 152 169 152 
152 168 151 151 168 151 151 168 151 151 168 151 151 167 151 151 167 150 
150 167 150 150 167 150 150 166 150 150 166 149 149 166 149 149 166 149 
149 165 149 149 165 149 149 165 148 148 165 148 148 164 148 148 164 148 
148 164 147 147 164 147 147 163 147 147 163 147 147 163 146 146 162 146 
146 162 146 146 162 146 146 162 146 146 161 145 145 161 145 145 161 145 
145 161 145 145 160 144 144 160 144 144 160 144 144 160 144 144 159 143 
143 159 143 143 159 143 143 159 143 143 158 143 143 158 142 142 158 142 
142 158 142 142 157 142 142 157 141 141 157 141 141 157 141 141 156 141 
141 156 140 140 156 140 140 155 140 140 155 140 140 155 139 139 155 139 
139 154 139 139 154 139 139 154 139 139 154 138 138 153 138 138 153 138 
138 153 138 138 153 137 137 152 137 137 152 137 137 152 137 137 152 136 
136 151 136 136 151 136 136 151 136 136 151 136 136 150 135 135 150 135 
135 150 135 135 150 135 135 149 134 134 149 134 134 149 134 134 149 134 
134 148 134 134 148 133 133 148 133 133 148 133 133 147 133 133 147 132 
132 147 132 132 147 132 132 146 132 132 146 132 132 
172 155 155 172 154 154 171 154 154 171 154 154 171 154 154 171 154 
154 170 153 153 170 153 153 170 153 153 170 153 153 169 153 153 169 152 
152 169 152 152 169 152 152 168 152 152 168 151 151 168 151 151 168 151 
151 167 151 151 167 151 151 167 150 150 167 150 150 166 150 150 166 150 
150 166 149 149 166 149 149 165 149 149 165 149 149 165 148 148 165 148 
148 164 148 148 164 148 148 164 148 148 164 147 147 163 147 147 163 147 
147 163 147 147 163 146 146 162 146 146 162 146 146 162 146 146 162 146 
146 161 145 145 161 145 145 161 145 145 161 145 145 160 144 144 160 144 
144 160 144 144 160 144 144 159 143 143 159 143 143 159 143 143 159 143 
143 158 143 143 158 142 142 158 142 142 158 142 142 157 142 142 157 141 
141 157 141 141 157 141 141 156 141 141 156 141 141 156 140 140 156 140 
140 155 140 140 155 140 140 155 139 139 155 139 139 154 139 139 154 139 
139 154 138 138 154 138 138 153 138 138 153 138 138 153 138 138 153 137 
137 152 137 137 152 137 137 152 137 137 152 136 136 151 136 136 151 136 
136 151 136 136 151 136 136 150 135 135 150 135 135 150 135 135 150 135 
135 149 134 134 149 134 134 149 134 134 149 134 134 148 134 134 148 133 
133 148 133 133 148 133 133 147 133 133 147 132 132 
172 155 155 172 155 155 172 155 155 172 155 155 171 154 154 171 154 
154 171 154 154 171 154 154 171 153 153 170 153 153 170 153 153 170 153 
153 170 153 153 169 152 152 169 152 152 169 152 152 169 152 152 168 152 
152 168 151 151 168 151 151 168 151 151 167 151 151 167 150 150 167 150 
150 167 150 150 166 150 150 166 150 150 166 149 149 166 149 149 165 149 
149 165 149 149 165 148 148 165 148 148 164 148 148 164 148 148 164 148 
148 164 147 147 163 147 147 163 147 147 163 147 147 163 146 146 162 146 
146 162 146 146 162 146 146 162 145 145 161 145 145 161 145 145 161 145 
145 161 145 145 160 144 144 160 144 144 160 144 144 160 144 144 159 143 
143 159 143 143 159 143 143 159 143 143 158 143 143 158 142 142 158 142 
142 158 142 142 157 142 142 157 141 141 157 141 141 157 141 141 156 141 
141 156 141 141 156 140 140 156 140 140 155 140 140 155 140 140 155 139 
139 155 139 139 154 139 139 154 139 139 154 139 139 154 138 138 153 138 
138 153 138 138 153 138 138 153 137 137 153 137 137 152 137 137 152 137 
137 152 137 137 152 136 136 151 136 136 151 136 136 151 136 136 151 136 
136 150 135 135 150 135 135 150 135 135 150 135 135 149 134 134 149 134 
134 149 134 134 149 134 134 148 134 134 148 133 133 
173 156 156 173 155 155 172 155 155 172 155 155 172 155 155 172 155 
155 172 154 154 171 154 154 171 154 154 171 154 154 171 154 154 170 153 
153 170 153 153 170 153 153 170 153 153 169 152 152 169 152 152 169 152 
152 169 152 152 168 152 152 168 151 151 168 151 151 168 151 151 167 151 
151 167 150 150 167 150 150 167 150 150 166 150 150 166 150 150 166 149 
149 166 149 149 166 149 149 165 149 149 165 149 149 165 148 148 165 148 
148 164 148 148 164 148 148 164 147 147 164 147 147 163 147 147 163 147 
147 163 147 147 163 146 146 162 146 146 162 146 146 162 146 146 162 145 
145 161 145 145 161 145 145 161 145 145 161 145 145 160 144 144 160 144 
144 160 144 144 160 144 144 159 143 143 159 143 143 159 143 143 159 143 
143 158 143 143 158 142 142 158 142 142 158 142 142 157 142 142 157 141 
141 157 141 141 157 141 141 156 141 141 156 141 141 156 140 140 156 140 
140 156 140 140 155 140 140 155 140 140 155 139 139 155 139 139 154 139 
139 154 139 139 154 138 138 154 138 138 153 138 138 153 138 138 153 138 
138 153 137 137 152 137 137 152 137 137 152 137 137 152 137 137 151 136 
136 151 136 136 151 136 136 151 136 136 151 135 135 150 135 135 150 135 
135 150 135 135 150 135 135 149 134 134 149 134 134 
173 156 156 173 156 156 173 156 156 173 155 155 172 155 155 172 155 
155 172 155 155 172 155 155 172 154 154 171 154 154 171 154 154 171 154 
154 171 154 154 170 153 153 170 153 153 170 153 153 170 153 153 169 152 
152 169 152 152 169 152 152 169 152 152 168 152 152 168 151 151 168 151 
151 168 151 151 168 151 151 167 151 151 167 150 150 167 150 150 167 150 
150 166 150 150 166 149 149 166 149 149 166 149 149 165 149 149 165 149 
149 165 148 148 165 148 148 164 148 148 164 148 148 164 148 148 164 147 
147 163 147 147 163 147 147 163 147 147 163 146 146 162 146 146 162 146 
146 162 146 146 162 146 146 162 145 145 161 145 145 161 145 145 161 145 
145 161 145 145 160 144 144 160 144 144 160 144 144 160 144 144 159 143 
143 159 143 143 159 143 143 159 143 143 158 143 143 158 142 142 158 142 
142 158 142 142 157 142 142 157 142 142 157 141 141 157 141 141 157 141 
141 156 141 141 156 140 140 156 140 140 156 140 140 155 140 140 155 140 
140 155 139 139 155 139 139 154 139 139 154 139 139 154 139 139 154 138 
138 153 138 138 153 138 138 153 138 138 153 137 137 153 137 137 152 137 
137 152 137 137 152 137 137 152 136 136 151 136 136 151 136 136 151 136 
136 151 136 136 150 135 135 150 135 135 150 135 135 
174 156 156 174 156 156 173 156 156 173 156 156 173 156 156 173 155 
155 172 155 155 172 155 155 172 155 155 172 155 155 171 154 154 171 154 
154 171 154 154 171 154 154 171 154 154 170 153 153 170 153 153 170 153 
153 170 153 153 169 152 152 169 152 152 169 152 152 169 152 152 168 152 
152 168 151 151 168 151 151 168 151 151 168 151 151 167 151 151 167 150 
150 167 150 150 167 150 150 166 150 150 166 150 150 166 149 149 166 149 
149 165 149 149 165 149 149 165 148 148 165 148 148 164 148 148 164 148 
148 164 148 148 164 147 147 164 147 147 163 147 147 163 147 147 163 147 
147 163 146 146 162 146 146 162 146 146 162 146 146 162 145 145 161 145 
145 161 145 145 161 145 145 161 145 145 160 144 144 160 144 144 160 144 
144 160 144 144 160 144 144 159 143 143 159 143 143 159 143 143 159 143 
143 158 143 143 158 142 142 158 142 142 158 142 142 157 142 142 157 142 
142 157 141 141 157 141 141 157 141 141 156 141 141 156 140 140 156 140 
140 156 140 140 155 140 140 155 140 140 155 139 139 155 139 139 154 139 
139 154 139 139 154 139 139 154 138 138 154 138 138 153 138 138 153 138 
138 153 138 138 153 137 137 152 137 137 152 137 137 152 137 137 152 137 
137 152 136 136 151 136 136 151 136 136 151 136 136 
174 157 157 174 157 157 174 156 156 173 156 156 173 156 156 173 156 
156 173 156 156 173 155 155 172 155 155 172 155 155 172 155 155 172 155 
155 171 154 154 171 154 154 171 154 154 171 154 154 171 153 153 170 153 
153 170 153 153 170 153 153 170 153 153 169 152 152 169 152 152 169 152 
152 169 152 152 168 152 152 168 151 151 168 151 151 168 151 151 168 151 
151 167 151 151 167 150 150 167 150 150 167 150 150 166 150 150 166 150 
150 166 149 149 166 149 149 165 149 149 165 149 149 165 149 149 165 148 
148 165 148 148 164 148 148 164 148 148 164 147 147 164 147 147 163 147 
147 163 147 147 163 147 147 163 146 146 162 146 146 162 146 146 162 146 
146 162 146 146 162 145 145 161 145 145 161 145 145 161 145 145 161 145 
145 160 144 144 160 144 144 160 144 144 160 144 144 159 144 144 159 143 
143 159 143 143 159 143 143 159 143 143 158 143 143 158 142 142 158 142 
142 158 142 142 157 142 142 157 141 141 157 141 141 157 141 141 157 141 
141 156 141 141 156 140 140 156 140 140 156 140 140 155 140 140 155 140 
140 155 139 139 155 139 139 155 139 139 154 139 139 154 139 139 154 138 
138 154 138 138 153 138 138 153 138 138 153 138 138 153 137 137 153 137 
137 152 137 137 152 137 137 152 137 137 152 136 136 
175 157 157 174 157 157 174 157 157 174 156 156 174 156 156 173 156 
156 173 156 156 173 156 156 173 155 155 172 155 155 172 155 155 172 155 
155 172 155 155 172 154 154 171 154 154 171 154 154 171 154 154 171 154 
154 170 153 153 170 153 153 170 153 153 170 153 153 170 153 153 169 152 
152 169 152 152 169 152 152 169 152 152 168 152 152 168 151 151 168 151 
151 168 151 151 168 151 151 167 151 151 167 150 150 167 150 150 167 150 
150 166 150 150 166 150 150 166 149 149 166 149 149 166 149 149 165 149 
149 165 149 149 165 148 148 165 148 148 164 148 148 164 148 148 164 148 
148 164 147 147 163 147 147 163 147 147 163 147 147 163 147 147 163 146 
146 162 146 146 162 146 146 162 146 146 162 145 145 161 145 145 161 145 
145 161 145 145 161 145 145 161 144 144 160 144 144 160 144 144 160 144 
144 160 144 144 159 143 143 159 143 143 159 143 143 159 143 143 159 143 
143 158 142 142 158 142 142 158 142 142 158 142 142 157 142 142 157 141 
141 157 141 141 157 141 141 157 141 141 156 141 141 156 140 140 156 140 
140 156 140 140 155 140 140 155 140 140 155 139 139 155 139 139 155 139 
139 154 139 139 154 139 139 154 139 139 154 138 138 153 138 138 153 138 
138 153 138 138 153 138 138 153 137 137 152 137 137 
