P3
50 50
255
0 0 0 0 0 0 0 0 0 0 0 0 0 0 0 0 0 0 0 0 0 0 0 0 0 0 0 0 0 0 0 0 0 0 0 
0 0 0 0 0 0 0 0 0 0 0 0 0 0 0 0 0 0 0 0 0 0 0 0 0 0 0 0 0 0 0 0 0 0 0 0 
0 0 0 0 0 0 0 0 0 0 0 0 0 0 0 0 0 0 0 0 0 0 0 0 0 0 0 0 0 0 0 0 0 0 0 0 
0 0 0 0 0 0 0 0 0 0 0 0 0 0 0 0 0 0 0 0 0 0 0 0 0 0 0 0 0 0 0 0 0 0 0 0 
0 0 0 0 0 0 0 
0 0 0 0 0 0 0 0 0 0 0 0 0 0 0 0 0 0 0 0 0 0 0 0 0 0 0 0 0 0 0 0 0 0 0 
0 0 0 0 0 0 0 0 0 0 0 0 0 0 0 0 0 0 0 0 0 0 0 0 0 0 0 0 0 0 0 0 0 0 0 0 
0 0 0 0 0 0 0 0 0 0 0 0 0 0 0 0 0 0 0 0 0 0 0 0 0 0 0 0 0 0 0 0 0 0 0 0 
0 0 0 0 0 0 0 0 0 0 0 0 0 0 0 0 0 0 0 0 0 0 0 0 0 0 0 0 0 0 0 0 0 0 0 0 
0 0 0 0 0 0 0 
0 0 0 0 0 0 0 0 0 0 0 0 0 0 0 0 0 0 0 0 0 0 0 0 0 0 0 0 0 0 0 0 0 0 0 
0 0 0 0 0 0 0 0 0 0 0 0 0 0 0 0 0 0 0 0 0 0 0 0 0 0 0 0 0 0 0 0 0 0 0 0 
0 0 0 0 0 0 0 0 0 0 0 0 0 0 0 0 0 0 0 0 0 0 0 0 0 0 0 0 0 0 0 0 0 0 0 0 
0 0 0 0 0 0 0 0 0 0 0 0 0 0 0 0 0 0 0 0 0 0 0 0 0 0 0 0 0 0 0 0 0 0 0 0 
0 0 0 0 0 0 0 
0 0 0 0 0 0 0 0 0 0 0 0 0 0 0 0 0 0 0 0 0 0 0 0 0 0 0 0 0 0 0 0 0 0 0 
0 0 0 0 0 0 0 0 0 0 0 0 0 0 0 0 0 0 0 0 0 0 0 0 0 0 0 0 0 0 0 0 0 0 0 0 
0 0 0 0 0 0 0 0 0 0 0 0 0 0 0 0 0 0 0 0 0 0 0 0 0 0 0 0 0 0 0 0 0 0 0 0 
0 0 0 0 0 0 0 0 0 0 0 0 0 0 0 0 0 0 0 0 0 0 0 0 0 0 0 0 0 0 0 0 0 0 0 0 
0 0 0 0 0 0 0 
0 0 0 0 0 0 0 0 0 0 0 0 0 0 0 0 0 0 0 0 0 0 0 0 0 0 0 0 0 0 0 0 0 0 0 
0 0 0 0 0 0 0 0 0 0 0 0 0 0 0 0 0 0 0 0 0 0 0 0 0 0 0 0 0 0 0 0 0 0 0 0 
0 0 0 0 0 0 0 0 0 0 0 0 0 0 0 0 0 0 0 0 0 0 0 0 0 0 0 0 0 0 0 0 0 0 0 0 
0 0 0 0 0 0 0 0 0 0 0 0 0 0 0 0 0 0 0 0 0 0 0 0 0 0 0 0 0 0 0 0 0 0 0 0 
0 0 0 0 0 0 0 
0 0 0 0 0 0 0 0 0 0 0 0 0 0 0 0 0 0 0 0 0 0 0 0 0 0 0 0 0 0 0 0 0 0 0 
0 0 0 0 0 0 0 0 0 0 0 0 0 0 0 0 0 0 0 0 0 0 0 0 0 0 0 0 0 0 0 0 0 0 0 0 
0 0 0 0 0 0 0 0 0 0 0 0 0 0 0 0 0 0 0 0 0 0 0 0 0 0 0 0 0 0 0 0 0 0 0 0 
0 0 0 0 0 0 0 0 0 0 0 0 0 0 0 0 0 0 0 0 0 0 0 0 0 0 0 0 0 0 0 0 0 0 0 0 
0 0 0 0 0 0 0 
0 0 0 0 0 0 0 0 0 0 0 0 0 0 0 0 0 0 0 0 0 0 0 0 0 0 0 0 0 0 0 0 0 0 0 
0 0 0 0 0 0 0 0 0 0 0 0 0 0 0 0 0 0 0 0 0 0 0 0 0 0 0 0 0 0 0 0 0 0 0 0 
0 0 0 0 0 0 0 0 0 0 0 0 0 0 0 0 0 0 0 0 0 0 0 0 0 0 0 0 0 0 0 0 0 0 0 0 
0 0 0 0 0 0 0 0 0 0 0 0 0 0 0 0 0 0 0 0 0 0 0 0 0 0 0 0 0 0 0 0 0 0 0 0 
0 0 0 0 0 0 0 
0 0 0 0 0 0 0 0 0 0 0 0 0 0 0 0 0 0 0 0 0 0 0 0 0 0 0 0 0 0 0 0 0 0 0 
0 0 0 0 0 0 0 0 0 0 0 0 0 0 0 0 0 0 0 0 0 0 0 0 0 0 0 0 0 0 0 0 0 0 0 0 
0 0 0 0 0 0 0 0 0 0 0 0 0 0 0 0 0 0 0 0 0 0 0 0 0 0 0 0 0 0 0 0 0 0 0 0 
0 0 0 0 0 0 0 0 0 0 0 0 0 0 0 0 0 0 0 0 0 0 0 0 0 0 0 0 0 0 0 0 0 0 0 0 
0 0 0 0 0 0 0 
0 0 0 0 0 0 0 0 0 0 0 0 0 0 0 0 0 0 0 0 0 0 0 0 0 0 0 0 0 0 0 0 0 0 0 
0 0 0 0 0 0 0 0 0 0 0 0 0 0 0 0 0 0 0 0 0 0 0 0 0 0 0 0 0 0 0 0 0 0 0 0 
0 0 0 0 0 0 0 0 0 0 0 0 0 0 0 0 0 0 0 0 0 0 0 0 0 0 0 0 0 0 0 0 0 0 0 0 
0 0 0 0 0 0 0 0 0 0 0 0 0 0 0 0 0 0 0 0 0 0 0 0 0 0 0 0 0 0 0 0 0 0 0 0 
0 0 0 0 0 0 0 
0 0 0 0 0 0 0 0 0 0 0 0 0 0 0 0 0 0 0 0 0 0 0 0 0 0 0 0 0 0 0 0 0 0 0 
0 0 0 0 0 0 0 0 0 0 0 0 0 0 0 0 0 0 0 0 0 0 0 0 0 0 0 0 0 0 0 0 0 0 0 0 
0 0 0 0 0 0 0 0 0 0 0 0 0 0 0 0 0 0 0 0 0 0 0 0 0 0 0 0 0 0 0 0 0 0 0 0 
0 0 0 0 0 0 0 0 0 0 0 0 0 0 0 0 0 0 0 0 0 0 0 0 0 0 0 0 0 0 0 0 0 0 0 0 
0 0 0 0 0 0 0 
0 0 0 0 0 0 0 0 0 0 0 0 0 0 0 0 0 0 0 0 0 0 0 0 0 0 0 0 0 0 0 0 0 0 0 
0 0 0 0 0 0 0 0 0 0 0 0 0 0 0 0 0 0 0 0 0 0 0 0 0 0 0 0 0 0 0 0 0 0 0 0 
0 0 0 0 0 0 0 0 0 0 0 0 0 0 0 0 0 0 0 0 0 0 0 0 0 0 0 0 0 0 0 0 0 0 0 0 
0 0 0 0 0 0 0 0 0 0 0 0 0 0 0 0 0 0 0 0 0 0 0 0 0 0 0 0 0 0 0 0 0 0 0 0 
0 0 0 0 0 0 0 
0 0 0 0 0 0 0 0 0 0 0 0 0 0 0 0 0 0 0 0 0 0 0 0 0 0 0 0 0 0 0 0 0 0 0 
0 0 0 0 0 0 0 0 0 0 0 0 0 0 0 0 0 0 0 0 0 0 0 0 0 0 0 0 0 0 0 0 0 0 0 0 
0 0 0 0 0 0 0 0 0 0 0 0 0 0 0 0 0 0 0 0 0 0 0 0 0 0 0 0 0 0 0 0 0 0 0 0 
0 0 0 0 0 0 0 0 0 0 0 0 0 0 0 0 0 0 0 0 0 0 0 0 0 0 0 0 0 0 0 0 0 0 0 0 
0 0 0 0 0 0 0 
0 0 0 0 0 0 0 0 0 0 0 0 0 0 0 0 0 0 0 0 0 0 0 0 0 0 0 0 0 0 0 0 0 0 0 
0 0 0 0 0 0 0 0 0 0 0 0 0 0 0 0 0 0 0 0 0 0 0 0 0 0 0 0 0 0 0 0 0 0 0 0 
0 0 0 0 0 0 0 0 0 0 0 0 0 0 0 0 0 0 0 0 0 0 0 0 0 0 0 0 0 0 0 0 0 0 0 0 
0 0 0 0 0 0 0 0 0 0 0 0 0 0 0 0 0 0 0 0 0 0 0 0 0 0 0 0 0 0 0 0 0 0 0 0 
0 0 0 0 0 0 0 
0 0 0 0 0 0 0 0 0 0 0 0 0 0 0 0 0 0 0 0 0 0 0 0 0 0 0 0 0 0 0 0 0 0 0 
0 0 0 0 0 0 0 0 0 0 0 0 0 0 0 0 0 0 0 0 0 0 0 0 0 0 0 0 0 0 0 0 0 0 0 0 
0 0 0 0 0 0 0 0 0 0 0 0 0 0 0 0 0 0 0 0 0 0 0 0 0 0 0 0 0 0 0 0 0 0 0 0 
0 0 0 0 0 0 0 0 0 0 0 0 0 0 0 0 0 0 0 0 0 0 0 0 0 0 0 0 0 0 0 0 0 0 0 0 
0 0 0 0 0 0 0 
0 0 0 0 0 0 0 0 0 0 0 0 0 0 0 0 0 0 0 0 0 0 0 0 0 0 0 0 0 0 0 0 0 0 0 
0 0 0 0 0 0 0 0 0 0 0 0 0 0 0 0 0 0 0 0 0 0 0 0 0 0 0 0 0 0 0 0 0 0 0 0 
0 0 0 0 0 0 0 0 0 0 0 0 0 0 0 0 0 0 0 0 0 0 0 0 0 0 0 0 0 0 0 0 0 0 0 0 
0 0 0 0 0 0 0 0 0 0 0 0 0 0 0 0 0 0 0 0 0 0 0 0 0 0 0 0 0 0 0 0 0 0 0 0 
0 0 0 0 0 0 0 
0 0 0 0 0 0 0 0 0 0 0 0 0 0 0 0 0 0 0 0 0 0 0 0 0 0 0 0 0 0 0 0 0 0 0 
0 0 0 0 0 0 0 0 0 0 0 0 0 0 0 0 0 0 0 0 0 0 0 0 0 0 0 0 0 0 0 0 0 0 0 0 
0 0 0 0 0 0 0 0 0 0 0 0 0 0 0 0 0 0 0 0 0 0 0 0 0 0 0 0 0 0 0 0 0 0 0 0 
0 0 0 0 0 0 0 0 0 0 0 0 0 0 0 0 0 0 0 0 0 0 0 0 0 0 0 0 0 0 0 0 0 0 0 0 
0 0 0 0 0 0 0 
0 0 0 0 0 0 0 0 0 0 0 0 0 0 0 0 0 0 0 0 0 0 0 0 0 0 0 0 0 0 0 0 0 0 0 
0 0 0 0 0 0 0 0 0 0 0 0 0 0 0 0 0 0 0 0 0 0 0 0 0 0 0 0 0 0 0 0 0 0 0 0 
0 0 0 0 0 0 0 0 0 0 0 0 0 0 0 0 0 0 0 0 0 0 0 0 0 0 0 0 0 0 0 0 0 0 0 0 
0 0 0 0 0 0 0 0 0 0 0 0 0 0 0 0 0 0 0 0 0 0 0 0 0 0 0 0 0 0 0 0 0 0 0 0 
0 0 0 0 0 0 0 
0 0 0 0 0 0 0 0 0 0 0 0 0 0 0 0 0 0 0 0 0 0 0 0 0 0 0 0 0 0 0 0 0 0 0 
0 0 0 0 0 0 0 0 0 0 0 0 0 0 0 0 17 174 87 18 179 90 17 172 86 16 162 81 
15 148 74 13 131 65 11 109 54 7 68 34 0 0 0 0 0 0 0 0 0 0 0 0 0 0 0 0 0 
0 0 0 0 0 0 0 0 0 0 0 0 0 0 0 0 0 0 0 0 0 0 0 0 0 0 0 0 0 0 0 0 0 0 0 0 
0 0 0 0 0 0 0 0 0 0 0 0 0 0 0 0 0 0 0 0 0 0 
0 0 0 0 0 0 0 0 0 0 0 0 0 0 0 0 0 0 0 0 0 0 0 0 0 0 0 0 0 0 0 0 0 0 0 
0 0 0 0 0 0 0 0 0 0 0 0 0 20 195 98 19 194 97 19 188 94 18 179 89 17 
168 84 15 154 77 14 139 69 12 121 60 10 99 49 7 69 34 0 0 0 0 0 0 0 0 0 0 
0 0 0 0 0 0 0 0 0 0 0 0 0 0 0 0 0 0 0 0 0 0 0 0 0 0 0 0 0 0 0 0 0 0 0 0 
0 0 0 0 0 0 0 0 0 0 0 0 0 0 0 0 0 0 0 0 0 0 0 0 0 0 
0 0 0 0 0 0 0 0 0 0 0 0 0 0 0 0 0 0 0 0 0 0 0 0 0 0 0 0 0 0 0 0 0 0 0 
0 0 0 0 0 0 0 0 0 0 20 201 100 20 202 101 20 197 98 19 189 95 18 179 90 
17 168 84 15 155 77 14 140 70 12 123 62 10 104 52 8 80 40 5 48 24 0 0 0 
0 0 0 0 0 0 0 0 0 0 0 0 0 0 0 0 0 0 0 0 0 0 0 0 0 0 0 0 0 0 0 0 0 0 0 0 
0 0 0 0 0 0 0 0 0 0 0 0 0 0 0 0 0 0 0 0 0 0 0 0 0 0 0 0 0 0 
0 0 0 0 0 0 0 0 0 0 0 0 0 0 0 0 0 0 0 0 0 0 0 0 0 0 0 0 0 0 0 0 0 0 0 
0 0 0 0 0 0 0 20 198 99 20 204 102 20 201 101 19 195 97 19 186 93 18 
176 88 16 165 82 15 152 76 14 138 69 12 122 61 10 103 52 8 82 41 6 56 28 
3 26 13 0 0 0 0 0 0 0 0 0 0 0 0 0 0 0 0 0 0 0 0 0 0 0 0 0 0 0 0 0 0 0 0 
0 0 0 0 0 0 0 0 0 0 0 0 0 0 0 0 0 0 0 0 0 0 0 0 0 0 0 0 0 0 0 0 0 0 
0 0 0 0 0 0 0 0 0 0 0 0 0 0 0 0 0 0 0 0 0 0 0 0 0 0 0 0 0 0 0 0 0 0 0 
0 0 0 0 0 0 0 20 201 100 20 201 101 20 197 99 19 190 95 20 183 92 17 
172 86 16 160 80 15 147 74 13 133 67 12 118 59 10 100 50 8 80 40 6 56 28 
3 26 13 0 0 0 0 0 0 0 0 0 0 0 0 0 0 0 0 0 0 0 0 0 0 0 0 0 0 0 0 0 0 0 0 
0 0 0 0 0 0 0 0 0 0 0 0 0 0 0 0 0 0 0 0 0 0 0 0 0 0 0 0 0 0 0 0 0 0 
0 0 0 0 0 0 0 0 0 0 0 0 0 0 0 0 0 0 0 0 0 0 0 0 0 0 0 0 0 0 0 0 0 0 0 
0 0 0 0 19 187 93 20 197 98 20 196 98 19 191 96 32 197 106 28 186 98 17 
165 83 15 154 77 14 141 71 13 127 64 11 112 56 9 95 47 8 75 38 5 52 26 3 
26 13 3 26 13 0 0 0 0 0 0 0 0 0 0 0 0 0 0 0 0 0 0 0 0 0 0 0 0 0 0 0 0 0 
0 0 0 0 0 0 0 0 0 0 0 0 0 0 0 0 0 0 0 0 0 0 0 0 0 0 0 0 0 0 0 0 0 0 
0 0 0 0 0 0 0 0 0 0 0 0 0 0 0 0 0 0 0 0 0 0 0 0 0 0 0 0 0 0 0 0 0 0 0 
0 0 0 0 18 183 92 19 190 95 19 188 94 18 183 92 18 176 88 17 167 84 16 
157 79 15 146 73 13 134 67 12 120 60 10 105 52 9 88 44 7 69 34 5 46 23 3 
26 13 3 26 13 0 0 0 0 0 0 0 0 0 0 0 0 0 0 0 0 0 0 0 0 0 0 0 0 0 0 0 0 0 
0 0 0 0 0 0 0 0 0 0 0 0 0 0 0 0 0 0 0 0 0 0 0 0 0 0 0 0 0 0 0 0 0 0 
0 0 0 0 0 0 0 0 0 0 0 0 0 0 0 0 0 0 0 0 0 0 0 0 0 0 0 0 0 0 0 0 0 0 0 
0 0 0 0 17 175 87 18 181 90 18 179 90 17 174 87 17 167 84 16 158 79 15 
148 74 14 137 69 12 125 62 11 111 56 10 96 48 8 79 40 6 60 30 4 38 19 3 
26 13 3 26 13 0 0 0 0 0 0 0 0 0 0 0 0 0 0 0 0 0 0 0 0 0 0 0 0 0 0 0 0 0 
0 0 0 0 0 0 0 0 0 0 0 0 0 0 0 0 0 0 0 0 0 0 0 0 0 0 0 0 0 0 0 0 0 0 
0 0 0 0 0 0 0 0 0 0 0 0 0 0 0 0 0 0 0 0 0 0 0 0 132 132 132 132 132 
132 132 132 132 0 0 0 131 131 131 16 162 81 17 169 85 17 168 84 16 163 82 
16 157 78 15 148 74 14 138 69 13 127 64 11 115 57 10 101 51 9 86 43 7 69 
35 5 50 25 3 28 14 3 26 13 3 26 13 0 0 0 0 0 0 121 121 121 0 0 0 0 0 0 0 
0 0 118 118 118 117 117 117 0 0 0 116 116 116 0 0 0 0 0 0 0 0 0 0 0 0 0 
0 0 0 0 0 0 0 0 0 0 0 0 0 0 0 0 0 0 0 0 
145 145 145 0 0 0 144 144 144 144 144 144 143 143 143 0 0 0 142 142 
142 142 142 142 142 142 142 141 141 141 141 141 141 140 140 140 140 140 
140 14 145 72 16 156 78 16 155 78 15 151 76 14 145 72 14 136 68 13 127 63 
12 116 58 10 103 52 9 90 45 7 74 37 6 57 29 4 38 19 3 26 13 3 26 13 3 26 
13 0 0 0 0 0 0 0 0 0 0 0 0 127 127 127 127 127 127 126 126 126 126 126 
126 0 0 0 0 0 0 0 0 0 0 0 0 0 0 0 0 0 0 0 0 0 120 120 120 0 0 0 0 0 0 0 0 
0 118 118 118 0 0 0 
152 152 152 152 152 152 0 0 0 0 0 0 0 0 0 0 0 0 150 150 150 0 0 0 0 0 
0 0 0 0 0 0 0 147 147 147 146 146 146 146 146 146 14 139 69 14 140 70 
14 137 69 13 131 66 12 123 62 11 114 57 10 103 51 9 90 45 8 77 38 6 61 
31 4 44 22 3 26 13 3 26 13 3 26 13 0 0 0 0 0 0 136 136 136 135 135 135 
135 135 135 134 134 134 0 0 0 0 0 0 0 0 0 0 0 0 0 0 0 130 130 130 129 129 
129 129 129 129 128 128 128 0 0 0 127 127 127 126 126 126 126 126 126 125 
125 125 0 0 0 0 0 0 
0 0 0 0 0 0 0 0 0 0 0 0 156 156 156 155 155 155 155 155 155 154 154 
154 154 154 154 153 153 153 153 153 153 152 152 152 152 152 152 151 151 
151 12 115 58 12 122 61 12 121 60 12 115 58 11 108 54 10 99 49 9 88 44 8 
76 38 6 62 31 5 46 23 3 28 14 3 26 13 3 26 13 3 26 13 0 0 0 0 0 0 26 26 
26 26 26 26 26 26 26 26 26 26 26 26 26 0 0 0 0 0 0 0 0 0 0 0 0 0 0 0 0 0 
0 0 0 0 0 0 0 0 0 0 0 0 0 0 0 0 131 131 131 130 130 130 130 130 130 129 
129 129 
162 162 162 0 0 0 0 0 0 160 160 160 160 160 160 159 159 159 159 159 
159 0 0 0 0 0 0 0 0 0 0 0 0 0 0 0 0 0 0 155 155 155 154 154 154 10 98 49 
10 100 50 10 97 48 9 90 45 8 81 41 7 71 35 6 58 29 4 44 22 3 28 14 3 26 
13 3 26 13 3 26 13 26 26 26 26 26 26 26 26 26 26 26 26 0 0 0 0 0 0 0 0 0 
0 0 0 0 0 0 0 0 0 26 26 26 140 140 140 140 140 140 139 139 139 138 138 
138 138 138 138 0 0 0 0 0 0 0 0 0 0 0 0 135 135 135 134 134 134 0 0 0 
0 0 0 0 0 0 0 0 0 0 0 0 0 0 0 162 162 162 162 162 162 161 161 161 161 
161 161 160 160 160 160 160 160 159 159 159 0 0 0 0 0 0 0 0 0 0 0 0 7 73 
36 7 73 37 7 69 34 6 61 30 5 50 25 4 38 19 3 26 13 3 26 13 3 26 13 3 26 
13 0 0 0 0 0 0 0 0 0 0 0 0 0 0 0 0 0 0 26 26 26 26 26 26 26 26 26 26 26 
26 26 26 26 144 144 144 0 0 0 0 0 0 0 0 0 0 0 0 0 0 0 0 0 0 0 0 0 140 
140 140 139 139 139 138 138 138 138 138 138 137 137 137 
167 167 167 167 167 167 166 166 166 0 0 0 0 0 0 0 0 0 0 0 0 0 0 0 0 0 
0 0 0 0 0 0 0 162 162 162 161 161 161 161 161 161 160 160 160 159 159 
159 159 159 159 4 36 18 4 39 19 3 33 17 3 26 13 3 26 13 3 26 13 3 26 13 3 
26 13 26 26 26 26 26 26 26 26 26 26 26 26 26 26 26 26 26 26 26 26 26 0 0 
0 0 0 0 0 0 0 0 0 0 0 0 0 0 0 0 0 0 0 146 146 146 145 145 145 145 145 
145 144 144 144 144 144 144 143 143 143 143 143 143 142 142 142 0 0 0 0 0 
0 0 0 0 
169 169 169 0 0 0 0 0 0 0 0 0 0 0 0 0 0 0 0 0 0 0 0 0 0 0 0 165 165 
165 164 164 164 164 164 164 163 163 163 163 163 163 162 162 162 162 162 
162 161 161 161 0 0 0 2 20 10 2 20 10 3 26 13 3 26 13 2 20 10 2 20 10 0 0 
0 26 26 26 26 26 26 26 26 26 26 26 26 26 26 26 153 153 153 153 153 153 
152 152 152 0 0 0 0 0 0 0 0 0 0 0 0 0 0 0 0 0 0 0 0 0 0 0 0 148 148 148 
147 147 147 146 146 146 146 146 146 145 145 145 145 145 145 144 144 144 
144 144 144 0 0 0 
171 171 171 170 170 170 170 170 170 169 169 169 169 169 169 168 168 
168 168 168 168 167 167 167 0 0 0 0 0 0 0 0 0 0 0 0 0 0 0 0 0 0 0 0 0 0 0 
0 163 163 163 164 183 172 164 182 172 163 182 171 163 181 171 162 181 
170 162 180 170 161 179 169 161 179 169 2 20 10 0 0 0 0 0 0 0 0 0 0 0 0 0 
0 0 0 0 0 0 0 0 0 0 0 153 153 153 153 153 153 152 152 152 152 152 152 
151 151 151 151 151 151 150 150 150 150 150 150 0 0 0 0 0 0 0 0 0 0 0 0 0 
0 0 0 0 0 0 0 0 0 0 0 
172 172 172 172 172 172 171 171 171 171 171 171 170 170 170 170 170 
170 169 169 169 0 0 0 0 0 0 0 0 0 0 0 0 0 0 0 0 0 0 0 0 0 0 0 0 0 0 0 167 
188 176 166 184 174 165 184 173 165 183 173 164 183 172 164 182 172 163 
182 171 163 181 171 162 181 170 2 20 10 2 20 10 0 0 0 0 0 0 0 0 0 0 0 0 0 
0 0 0 0 0 0 0 0 155 155 155 155 155 155 154 154 154 154 154 154 153 153 
153 153 153 153 152 152 152 152 152 152 151 151 151 0 0 0 0 0 0 0 0 0 0 0 
0 0 0 0 0 0 0 0 0 0 
173 173 173 173 173 173 172 172 172 172 172 172 171 171 171 0 0 0 0 0 
0 0 0 0 0 0 0 0 0 0 0 0 0 0 0 0 0 0 0 0 0 0 0 0 0 170 212 189 170 208 
187 169 201 183 167 193 179 166 185 174 166 184 174 165 183 173 165 183 
173 164 182 172 164 182 172 2 20 10 2 20 10 2 20 10 0 0 0 0 0 0 0 0 0 0 0 
0 0 0 0 0 0 0 0 0 0 156 156 156 156 156 156 155 155 155 155 155 155 154 
154 154 154 154 154 153 153 153 153 153 153 152 152 152 152 152 152 0 0 0 
0 0 0 0 0 0 0 0 0 0 0 0 
0 0 0 0 0 0 0 0 0 0 0 0 172 172 172 172 172 172 171 171 171 171 171 
171 170 170 170 170 170 170 169 169 169 169 169 169 168 168 168 168 168 
168 6 64 32 6 63 31 6 58 29 5 51 25 4 43 22 4 35 18 3 26 13 2 20 10 2 20 
10 2 20 10 2 20 10 164 183 172 164 182 172 163 182 172 161 161 161 160 
160 160 160 160 160 160 160 160 159 159 159 159 159 159 158 158 158 158 
158 158 0 0 0 0 0 0 0 0 0 0 0 0 0 0 0 0 0 0 0 0 0 0 0 0 0 0 0 0 0 0 153 
153 153 152 152 152 152 152 152 151 151 151 
0 0 0 0 0 0 0 0 0 173 173 173 173 173 173 172 172 172 172 172 172 171 
171 171 171 171 171 171 171 171 170 170 170 170 170 170 169 169 169 169 
169 169 8 82 41 8 78 39 7 72 36 6 64 32 6 57 28 5 48 24 4 39 20 3 30 15 2 
20 10 2 20 10 2 20 10 165 184 174 165 183 173 165 183 173 164 182 172 
162 162 162 161 161 161 161 161 161 160 160 160 160 160 160 159 159 159 
159 159 159 0 0 0 0 0 0 0 0 0 0 0 0 0 0 0 0 0 0 0 0 0 0 0 0 0 0 0 0 0 0 0 
0 0 154 154 154 153 153 153 153 153 153 
0 0 0 175 175 175 174 174 174 174 174 174 173 173 173 173 173 173 173 
173 173 172 172 172 172 172 172 171 171 171 171 171 171 170 170 170 170 
170 170 0 0 0 10 96 48 9 91 45 8 84 42 8 77 38 7 69 34 6 60 30 5 51 26 4 
42 21 3 32 16 2 21 10 2 20 10 166 185 175 166 184 174 166 184 174 165 
183 173 163 163 163 162 162 162 162 162 162 161 161 161 161 161 161 160 
160 160 160 160 160 160 160 160 0 0 0 0 0 0 0 0 0 0 0 0 0 0 0 0 0 0 0 0 0 
0 0 0 0 0 0 0 0 0 0 0 0 0 0 0 154 154 154 
176 176 176 175 175 175 175 175 175 174 174 174 174 174 174 173 173 
173 173 173 173 173 173 173 172 172 172 172 172 172 171 171 171 171 171 
171 0 0 0 11 109 54 11 109 55 10 103 52 10 96 48 9 89 44 8 81 40 7 72 36 
6 63 31 5 53 27 4 43 22 3 33 16 2 21 11 167 186 175 167 185 175 166 185 
175 166 184 174 164 164 164 163 163 163 163 163 163 162 162 162 162 162 
162 161 161 161 161 161 161 161 161 161 160 160 160 0 0 0 0 0 0 0 0 0 0 0 
0 0 0 0 0 0 0 0 0 0 0 0 0 0 0 0 0 0 0 0 0 0 0 0 0 
176 176 176 176 176 176 175 175 175 175 175 175 174 174 174 174 174 
174 174 174 174 173 173 173 173 173 173 172 172 172 172 172 172 172 172 
172 0 0 0 12 122 61 12 121 61 12 115 58 11 108 54 10 100 50 9 92 46 8 83 
42 7 74 37 6 64 32 5 54 27 4 44 22 3 32 16 168 186 176 168 186 176 167 
186 175 167 185 175 164 164 164 164 164 164 164 164 164 163 163 163 163 
163 163 162 162 162 162 162 162 162 162 162 161 161 161 0 0 0 0 0 0 0 0 0 
0 0 0 0 0 0 0 0 0 0 0 0 0 0 0 0 0 0 0 0 0 0 0 0 0 0 0 
0 0 0 0 0 0 0 0 0 0 0 0 0 0 0 0 0 0 0 0 0 0 0 0 0 0 0 0 0 0 0 0 0 172 
172 172 172 172 172 171 171 171 184 255 237 183 255 234 182 255 230 181 
255 225 180 255 221 178 255 216 177 253 211 176 243 206 174 233 200 173 
221 194 171 210 188 3 30 15 2 20 10 2 20 10 2 20 10 0 0 0 0 0 0 0 0 0 0 0 
0 0 0 0 0 0 0 0 0 0 0 0 0 0 0 0 0 0 0 161 161 161 161 161 161 160 160 
160 160 160 160 160 160 160 159 159 159 159 159 159 159 159 159 158 158 
158 158 158 158 158 158 158 
0 0 0 0 0 0 0 0 0 0 0 0 0 0 0 0 0 0 0 0 0 0 0 0 0 0 0 0 0 0 173 173 
173 172 172 172 172 172 172 172 172 172 186 255 243 185 255 239 184 255 
235 182 255 231 181 255 226 180 255 221 179 255 216 177 254 211 176 243 
206 174 232 200 173 220 194 4 40 20 3 26 13 2 20 10 0 0 0 0 0 0 0 0 0 0 0 
0 0 0 0 0 0 0 0 0 0 0 0 0 0 0 0 0 0 0 0 0 0 0 0 0 162 162 162 161 161 
161 161 161 161 161 161 161 160 160 160 160 160 160 160 160 160 159 159 
159 159 159 159 158 158 158 
0 0 0 0 0 0 0 0 0 0 0 0 0 0 0 0 0 0 0 0 0 0 0 0 0 0 0 0 0 0 173 173 
173 173 173 173 173 173 173 172 172 172 187 255 248 186 255 245 185 255 
241 204 255 255 189 255 238 181 255 227 180 255 222 179 255 217 177 253 
211 176 242 205 174 230 199 5 49 24 3 34 17 2 20 10 0 0 0 0 0 0 0 0 0 0 0 
0 0 0 0 0 0 0 0 0 0 0 0 0 0 0 0 0 0 0 0 0 0 0 0 0 162 162 162 162 162 
162 162 162 162 161 161 161 161 161 161 161 161 161 160 160 160 160 160 
160 160 160 160 159 159 159 
0 0 0 0 0 0 0 0 0 0 0 0 0 0 0 0 0 0 0 0 0 0 0 0 0 0 0 174 174 174 174 
174 174 173 173 173 173 173 173 173 173 173 172 172 172 187 255 250 186 
255 246 185 255 242 185 255 238 183 255 232 181 255 227 180 255 222 179 
255 216 177 251 210 176 239 204 6 57 29 4 41 21 0 0 0 0 0 0 0 0 0 0 0 0 0 
0 0 0 0 0 0 0 0 0 0 0 0 0 0 0 0 0 0 0 0 0 0 0 0 0 0 0 0 0 163 163 163 
162 162 162 162 162 162 162 162 162 161 161 161 161 161 161 161 161 161 
160 160 160 160 160 160 
0 0 0 0 0 0 0 0 0 0 0 0 0 0 0 0 0 0 0 0 0 0 0 0 175 175 175 174 174 
174 174 174 174 174 174 174 173 173 173 173 173 173 173 173 173 188 255 
253 188 255 251 186 255 246 185 255 242 184 255 237 183 255 232 181 255 
226 180 255 221 178 255 215 177 247 208 6 63 32 4 41 20 0 0 0 0 0 0 0 0 0 
0 0 0 0 0 0 0 0 0 0 0 0 0 0 0 0 0 0 0 0 0 0 0 0 0 0 0 0 0 0 0 0 0 0 0 0 
163 163 163 163 163 163 162 162 162 162 162 162 162 162 162 161 161 161 
161 161 161 161 161 161 
0 0 0 0 0 0 0 0 0 0 0 0 0 0 0 0 0 0 0 0 0 0 0 0 175 175 175 174 174 
174 174 174 174 174 174 174 173 173 173 173 173 173 173 173 173 172 172 
172 188 255 253 188 255 251 186 255 246 185 255 241 184 255 236 183 255 
231 181 255 225 180 255 218 178 253 211 0 0 0 0 0 0 0 0 0 0 0 0 0 0 0 0 0 
0 0 0 0 0 0 0 0 0 0 0 0 0 0 0 0 0 0 0 0 0 0 0 0 0 0 0 0 0 0 0 0 0 0 164 
164 164 163 163 163 163 163 163 163 163 163 162 162 162 162 162 162 162 
162 162 161 161 161 
0 0 0 0 0 0 0 0 0 0 0 0 0 0 0 0 0 0 0 0 0 175 175 175 175 175 175 175 
175 175 174 174 174 174 174 174 174 174 174 173 173 173 173 173 173 173 
173 173 172 172 172 172 172 172 187 255 249 186 255 245 185 255 240 183 
255 234 182 255 228 180 255 219 170 170 170 0 0 0 0 0 0 0 0 0 0 0 0 0 0 0 
0 0 0 0 0 0 0 0 0 0 0 0 0 0 0 0 0 0 0 0 0 0 0 0 0 0 0 0 0 0 0 0 0 0 0 0 
0 0 0 164 164 164 164 164 164 163 163 163 163 163 163 163 163 163 162 
162 162 162 162 162 
0 0 0 0 0 0 0 0 0 0 0 0 0 0 0 0 0 0 176 176 176 176 176 176 175 175 
175 175 175 175 175 175 175 174 174 174 174 174 174 174 174 174 173 173 
173 173 173 173 173 173 173 172 172 172 172 172 172 172 172 172 171 171 
171 171 171 171 171 171 171 171 171 171 170 170 170 0 0 0 0 0 0 0 0 0 0 0 
0 0 0 0 0 0 0 0 0 0 0 0 0 0 0 0 0 0 0 0 0 0 0 0 0 0 0 0 0 0 0 0 0 0 0 0 
0 0 0 0 0 0 0 0 0 0 164 164 164 164 164 164 164 164 164 163 163 163 163 
163 163 163 163 163 
0 0 0 0 0 0 0 0 0 0 0 0 0 0 0 0 0 0 176 176 176 176 176 176 175 175 
175 175 175 175 175 175 175 175 175 175 174 174 174 174 174 174 174 174 
174 173 173 173 173 173 173 173 173 173 172 172 172 172 172 172 172 172 
172 171 171 171 171 171 171 171 171 171 171 171 171 0 0 0 0 0 0 0 0 0 0 0 
0 0 0 0 0 0 0 0 0 0 0 0 0 0 0 0 0 0 0 0 0 0 0 0 0 0 0 0 0 0 0 0 0 0 0 0 
0 0 0 0 0 0 0 0 0 0 165 165 165 164 164 164 164 164 164 164 164 164 163 
163 163 163 163 163 
