P3
50 50
255
0 0 0 0 0 0 0 0 0 0 0 0 0 0 0 0 0 0 0 0 0 0 0 0 0 0 0 0 0 0 0 0 0 0 0 
0 0 0 0 0 0 0 0 0 0 0 0 0 0 0 0 0 0 0 0 0 0 0 0 0 0 0 0 0 0 0 0 0 0 0 0 
0 0 0 0 0 0 0 0 0 0 0 0 0 0 0 0 0 0 0 0 0 0 0 0 0 0 0 0 0 0 0 0 0 0 0 0 
0 0 0 0 0 0 0 0 0 0 0 0 0 0 0 0 0 0 0 0 0 0 0 0 0 0 0 0 0 0 0 0 0 0 0 0 
0 0 0 0 0 0 0 
0 0 0 0 0 0 0 0 0 0 0 0 0 0 0 0 0 0 0 0 0 0 0 0 0 0 0 0 0 0 0 0 0 0 0 
0 0 0 0 0 0 0 0 0 0 0 0 0 0 0 0 0 0 0 0 0 0 0 0 0 0 0 0 0 0 0 0 0 0 0 0 
0 0 0 0 0 0 0 0 0 0 0 0 0 0 0 0 0 0 0 0 0 0 0 0 0 0 0 0 0 0 0 0 0 0 0 0 
0 0 0 0 0 0 0 0 0 0 0 0 0 0 0 0 0 0 0 0 0 0 0 0 0 0 0 0 0 0 0 0 0 0 0 0 
0 0 0 0 0 0 0 
0 0 0 0 0 0 0 0 0 0 0 0 0 0 0 0 0 0 0 0 0 0 0 0 0 0 0 0 0 0 0 0 0 0 0 
0 0 0 0 0 0 0 0 0 0 0 0 0 0 0 0 0 0 0 0 0 0 0 0 0 0 0 0 0 0 0 0 0 0 0 0 
0 0 0 0 0 0 0 0 0 0 0 0 0 0 0 0 0 0 0 0 0 0 0 0 0 0 0 0 0 0 0 0 0 0 0 0 
0 0 0 0 0 0 0 0 0 0 0 0 0 0 0 0 0 0 0 0 0 0 0 0 0 0 0 0 0 0 0 0 0 0 0 0 
0 0 0 0 0 0 0 
0 0 0 0 0 0 0 0 0 0 0 0 0 0 0 0 0 0 0 0 0 0 0 0 0 0 0 0 0 0 0 0 0 0 0 
0 0 0 0 0 0 0 0 0 0 0 0 0 0 0 0 0 0 0 0 0 0 0 0 0 0 0 0 0 0 0 0 0 0 0 0 
0 0 0 0 0 0 0 0 0 0 0 0 0 0 0 0 0 0 0 0 0 0 0 0 0 0 0 0 0 0 0 0 0 0 0 0 
0 0 0 0 0 0 0 0 0 0 0 0 0 0 0 0 0 0 0 0 0 0 0 0 0 0 0 0 0 0 0 0 0 0 0 0 
0 0 0 0 0 0 0 
0 0 0 0 0 0 0 0 0 0 0 0 0 0 0 0 0 0 0 0 0 0 0 0 0 0 0 0 0 0 0 0 0 0 0 
0 0 0 0 0 0 0 0 0 0 0 0 0 0 0 0 0 0 0 0 0 0 0 0 0 0 0 0 0 0 0 0 0 0 0 0 
0 0 0 0 0 0 0 0 0 0 0 0 0 0 0 0 0 0 0 0 0 0 0 0 0 0 0 0 0 0 0 0 0 0 0 0 
0 0 0 0 0 0 0 0 0 0 0 0 0 0 0 0 0 0 0 0 0 0 0 0 0 0 0 0 0 0 0 0 0 0 0 0 
0 0 0 0 0 0 0 
0 0 0 0 0 0 0 0 0 0 0 0 0 0 0 0 0 0 0 0 0 0 0 0 0 0 0 0 0 0 0 0 0 0 0 
0 0 0 0 0 0 0 0 0 0 0 0 0 0 0 0 0 0 0 0 0 0 0 0 0 0 0 0 0 0 0 0 0 0 0 0 
0 0 0 0 0 0 0 0 0 0 0 0 0 0 0 0 0 0 0 0 0 0 0 0 0 0 0 0 0 0 0 0 0 0 0 0 
0 0 0 0 0 0 0 0 0 0 0 0 0 0 0 0 0 0 0 0 0 0 0 0 0 0 0 0 0 0 0 0 0 0 0 0 
0 0 0 0 0 0 0 
0 0 0 0 0 0 0 0 0 0 0 0 0 0 0 0 0 0 0 0 0 0 0 0 0 0 0 0 0 0 0 0 0 0 0 
0 0 0 0 0 0 0 0 0 0 0 0 0 0 0 0 0 0 0 0 0 0 0 0 0 0 0 0 0 0 0 0 0 0 0 0 
0 0 0 0 0 0 0 0 0 0 0 0 0 0 0 0 0 0 0 0 0 0 0 0 0 0 0 0 0 0 0 0 0 0 0 0 
0 0 0 0 0 0 0 0 0 0 0 0 0 0 0 0 0 0 0 0 0 0 0 0 0 0 0 0 0 0 0 0 0 0 0 0 
0 0 0 0 0 0 0 
0 0 0 0 0 0 0 0 0 0 0 0 0 0 0 0 0 0 0 0 0 0 0 0 0 0 0 0 0 0 0 0 0 0 0 
0 0 0 0 0 0 0 0 0 0 0 0 0 0 0 0 0 0 0 0 0 0 0 0 0 0 0 0 0 0 0 0 0 0 0 0 
0 0 0 0 0 0 0 0 0 0 0 0 0 0 0 0 0 0 0 0 0 0 0 0 0 0 0 0 0 0 0 0 0 0 0 0 
0 0 0 0 0 0 0 0 0 0 0 0 0 0 0 0 0 0 0 0 0 0 0 0 0 0 0 0 0 0 0 0 0 0 0 0 
0 0 0 0 0 0 0 
0 0 0 0 0 0 0 0 0 0 0 0 0 0 0 0 0 0 0 0 0 0 0 0 0 0 0 0 0 0 0 0 0 0 0 
0 0 0 0 0 0 0 0 0 0 0 0 0 0 0 0 0 0 0 0 0 0 0 0 0 0 0 0 0 0 0 0 0 0 0 0 
0 0 0 0 0 0 0 0 0 0 0 0 0 0 0 0 0 0 0 0 0 0 0 0 0 0 0 0 0 0 0 0 0 0 0 0 
0 0 0 0 0 0 0 0 0 0 0 0 0 0 0 0 0 0 0 0 0 0 0 0 0 0 0 0 0 0 0 0 0 0 0 0 
0 0 0 0 0 0 0 
0 0 0 0 0 0 0 0 0 0 0 0 0 0 0 0 0 0 0 0 0 0 0 0 0 0 0 0 0 0 0 0 0 0 0 
0 0 0 0 0 0 0 0 0 0 0 0 0 0 0 0 0 0 0 0 0 0 0 0 0 0 0 0 0 0 0 0 0 0 0 0 
0 0 0 0 0 0 0 0 0 0 0 0 0 0 0 0 0 0 0 0 0 0 0 0 0 0 0 0 0 0 0 0 0 0 0 0 
0 0 0 0 0 0 0 0 0 0 0 0 0 0 0 0 0 0 0 0 0 0 0 0 0 0 0 0 0 0 0 0 0 0 0 0 
0 0 0 0 0 0 0 
0 0 0 0 0 0 0 0 0 0 0 0 0 0 0 0 0 0 0 0 0 0 0 0 0 0 0 0 0 0 0 0 0 0 0 
0 0 0 0 0 0 0 0 0 0 0 0 0 0 0 0 0 0 0 0 0 0 0 0 0 0 0 0 0 0 0 0 0 0 0 0 
0 0 0 0 0 0 0 0 0 0 0 0 0 0 0 0 0 0 0 0 0 0 0 0 0 0 0 0 0 0 0 0 0 0 0 0 
0 0 0 0 0 0 0 0 0 0 0 0 0 0 0 0 0 0 0 0 0 0 0 0 0 0 0 0 0 0 0 0 0 0 0 0 
0 0 0 0 0 0 0 
0 0 0 0 0 0 0 0 0 0 0 0 0 0 0 0 0 0 0 0 0 0 0 0 0 0 0 0 0 0 0 0 0 0 0 
0 0 0 0 0 0 0 0 0 0 0 0 0 0 0 0 0 0 0 0 0 0 0 0 0 0 0 0 0 0 0 0 0 0 0 0 
0 0 0 0 0 0 0 0 0 0 0 0 0 0 0 0 0 0 0 0 0 0 0 0 0 0 0 0 0 0 0 0 0 0 0 0 
0 0 0 0 0 0 0 0 0 0 0 0 0 0 0 0 0 0 0 0 0 0 0 0 0 0 0 0 0 0 0 0 0 0 0 0 
0 0 0 0 0 0 0 
0 0 0 0 0 0 0 0 0 0 0 0 0 0 0 0 0 0 0 0 0 0 0 0 0 0 0 0 0 0 0 0 0 0 0 
0 0 0 0 0 0 0 0 0 0 0 0 0 0 0 0 0 0 0 0 0 0 0 0 0 0 0 0 0 0 0 0 0 0 0 0 
0 0 0 0 0 0 0 0 0 0 0 0 0 0 0 0 0 0 0 0 0 0 0 0 0 0 0 0 0 0 0 0 0 0 0 0 
0 0 0 0 0 0 0 0 0 0 0 0 0 0 0 0 0 0 0 0 0 0 0 0 0 0 0 0 0 0 0 0 0 0 0 0 
0 0 0 0 0 0 0 
0 0 0 0 0 0 0 0 0 0 0 0 0 0 0 0 0 0 0 0 0 0 0 0 0 0 0 0 0 0 0 0 0 0 0 
0 0 0 0 0 0 0 0 0 0 0 0 0 0 0 0 0 0 0 0 0 0 0 0 0 0 0 0 0 0 0 0 0 0 0 0 
0 0 0 0 0 0 0 0 0 0 0 0 0 0 0 0 0 0 0 0 0 0 0 0 0 0 0 0 0 0 0 0 0 0 0 0 
0 0 0 0 0 0 0 0 0 0 0 0 0 0 0 0 0 0 0 0 0 0 0 0 0 0 0 0 0 0 0 0 0 0 0 0 
0 0 0 0 0 0 0 
0 0 0 0 0 0 0 0 0 0 0 0 0 0 0 0 0 0 0 0 0 0 0 0 0 0 0 0 0 0 0 0 0 0 0 
0 0 0 0 0 0 0 0 0 0 0 0 0 0 0 0 0 0 0 0 0 0 0 0 0 0 0 0 0 0 0 0 0 0 0 0 
0 0 0 0 0 0 0 0 0 0 0 0 0 0 0 0 0 0 0 0 0 0 0 0 0 0 0 0 0 0 0 0 0 0 0 0 
0 0 0 0 0 0 0 0 0 0 0 0 0 0 0 0 0 0 0 0 0 0 0 0 0 0 0 0 0 0 0 0 0 0 0 0 
0 0 0 0 0 0 0 
0 0 0 0 0 0 0 0 0 0 0 0 0 0 0 0 0 0 0 0 0 0 0 0 0 0 0 0 0 0 0 0 0 0 0 
0 0 0 0 0 0 0 0 0 0 0 0 0 0 0 0 0 0 0 0 0 0 0 0 0 0 0 0 0 0 0 0 0 0 0 0 
0 0 0 0 0 0 0 0 0 0 0 0 0 0 0 0 0 0 0 0 0 0 0 0 0 0 0 0 0 0 0 0 0 0 0 0 
0 0 0 0 0 0 0 0 0 0 0 0 0 0 0 0 0 0 0 0 0 0 0 0 0 0 0 0 0 0 0 0 0 0 0 0 
0 0 0 0 0 0 0 
0 0 0 0 0 0 0 0 0 0 0 0 0 0 0 0 0 0 0 0 0 0 0 0 0 0 0 0 0 0 0 0 0 0 0 
0 0 0 0 0 0 0 0 0 0 0 0 0 0 0 0 0 0 0 0 0 0 0 0 0 0 0 0 0 0 0 0 0 0 0 0 
0 0 0 0 0 0 0 0 0 0 0 0 0 0 0 0 0 0 0 0 0 0 0 0 0 0 0 0 0 0 0 0 0 0 0 0 
0 0 0 0 0 0 0 0 0 0 0 0 0 0 0 0 0 0 0 0 0 0 0 0 0 0 0 0 0 0 0 0 0 0 0 0 
0 0 0 0 0 0 0 
0 0 0 0 0 0 0 0 0 0 0 0 0 0 0 0 0 0 0 0 0 0 0 0 0 0 0 0 0 0 0 0 0 0 0 
0 0 0 0 0 0 0 0 0 0 0 0 0 0 0 0 17 174 87 18 179 90 17 172 86 16 162 81 
15 148 74 13 131 65 11 109 54 7 68 34 0 0 0 0 0 0 0 0 0 0 0 0 0 0 0 0 0 
0 0 0 0 0 0 0 0 0 0 0 0 0 0 0 0 0 0 0 0 0 0 0 0 0 0 0 0 0 0 0 0 0 0 0 0 
0 0 0 0 0 0 0 0 0 0 0 0 0 0 0 0 0 0 0 0 0 0 
0 0 0 0 0 0 0 0 0 0 0 0 0 0 0 0 0 0 0 0 0 0 0 0 0 0 0 0 0 0 0 0 0 0 0 
0 0 0 0 0 0 0 0 0 0 0 0 0 20 195 98 19 194 97 19 188 94 18 179 89 17 
168 84 15 154 77 14 139 69 12 121 60 10 99 49 7 69 34 0 0 0 0 0 0 0 0 0 0 
0 0 0 0 0 0 0 0 0 0 0 0 0 0 0 0 0 0 0 0 0 0 0 0 0 0 0 0 0 0 0 0 0 0 0 0 
0 0 0 0 0 0 0 0 0 0 0 0 0 0 0 0 0 0 0 0 0 0 0 0 0 0 
0 0 0 0 0 0 0 0 0 0 0 0 0 0 0 0 0 0 0 0 0 0 0 0 0 0 0 0 0 0 0 0 0 0 0 
0 0 0 0 0 0 0 0 0 0 20 201 100 20 202 101 20 197 98 19 189 95 18 179 90 
17 168 84 15 155 77 14 140 70 12 123 62 10 104 52 8 80 40 5 48 24 0 0 0 
0 0 0 0 0 0 0 0 0 0 0 0 0 0 0 0 0 0 0 0 0 0 0 0 0 0 0 0 0 0 0 0 0 0 0 0 
0 0 0 0 0 0 0 0 0 0 0 0 0 0 0 0 0 0 0 0 0 0 0 0 0 0 0 0 0 0 
0 0 0 0 0 0 0 0 0 0 0 0 0 0 0 0 0 0 0 0 0 0 0 0 0 0 0 0 0 0 0 0 0 0 0 
0 0 0 0 0 0 0 20 198 99 20 204 102 20 201 101 19 195 97 19 186 93 18 
176 88 16 165 82 15 152 76 14 138 69 12 122 61 10 103 52 8 82 41 6 56 28 
3 26 13 0 0 0 0 0 0 0 0 0 0 0 0 0 0 0 0 0 0 0 0 0 0 0 0 0 0 0 0 0 0 0 0 
0 0 0 0 0 0 0 0 0 0 0 0 0 0 0 0 0 0 0 0 0 0 0 0 0 0 0 0 0 0 0 0 0 0 
0 0 0 0 0 0 0 0 0 0 0 0 0 0 0 0 0 0 0 0 0 0 0 0 0 0 0 0 0 0 0 0 0 0 0 
0 0 0 0 0 0 0 20 201 100 20 201 101 20 197 99 19 190 95 20 183 92 17 
172 86 16 160 80 15 147 74 13 133 67 12 118 59 10 100 50 8 80 40 6 56 28 
3 26 13 0 0 0 0 0 0 0 0 0 0 0 0 0 0 0 0 0 0 0 0 0 0 0 0 0 0 0 0 0 0 0 0 
0 0 0 0 0 0 0 0 0 0 0 0 0 0 0 0 0 0 0 0 0 0 0 0 0 0 0 0 0 0 0 0 0 0 
0 0 0 0 0 0 0 0 0 0 0 0 0 0 0 0 0 0 0 0 0 0 0 0 0 0 0 0 0 0 0 0 0 0 0 
0 0 0 0 19 187 93 20 197 98 20 196 98 19 191 96 32 197 106 28 186 98 17 
165 83 15 154 77 14 141 71 13 127 64 11 112 56 9 95 47 8 75 38 5 52 26 3 
26 13 3 26 13 0 0 0 0 0 0 0 0 0 0 0 0 0 0 0 0 0 0 0 0 0 0 0 0 0 0 0 0 0 
0 0 0 0 0 0 0 0 0 0 0 0 0 0 0 0 0 0 0 0 0 0 0 0 0 0 0 0 0 0 0 0 0 0 
0 0 0 0 0 0 0 0 0 0 0 0 0 0 0 0 0 0 0 0 0 0 0 0 0 0 0 0 0 0 0 0 0 0 0 
0 0 0 0 18 183 92 19 190 95 19 188 94 18 183 92 18 176 88 17 167 84 16 
157 79 15 146 73 13 134 67 12 120 60 10 105 52 9 88 44 7 69 34 5 46 23 3 
26 13 3 26 13 0 0 0 0 0 0 0 0 0 0 0 0 0 0 0 0 0 0 0 0 0 0 0 0 0 0 0 0 0 
0 0 0 0 0 0 0 0 0 0 0 0 0 0 0 0 0 0 0 0 0 0 0 0 0 0 0 0 0 0 0 0 0 0 
0 0 0 0 0 0 0 0 0 0 0 0 0 0 0 0 0 0 0 0 0 0 0 0 0 0 0 0 0 0 0 0 0 0 0 
0 0 0 0 17 175 87 18 181 90 18 179 90 17 174 87 17 167 84 16 158 79 15 
148 74 14 137 69 12 125 62 11 111 56 10 96 48 8 79 40 6 60 30 4 38 19 3 
26 13 3 26 13 0 0 0 0 0 0 0 0 0 0 0 0 0 0 0 0 0 0 0 0 0 0 0 0 0 0 0 0 0 
0 0 0 0 0 0 0 0 0 0 0 0 0 0 0 0 0 0 0 0 0 0 0 0 0 0 0 0 0 0 0 0 0 0 
0 0 0 0 0 0 0 0 0 0 0 0 0 0 0 0 0 0 0 0 0 0 0 0 132 132 132 132 132 
132 132 132 132 0 0 0 131 131 131 16 162 81 17 169 85 17 168 84 16 163 82 
16 157 78 15 148 74 14 138 69 13 127 64 11 115 57 10 101 51 9 86 43 7 69 
35 5 50 25 3 28 14 3 26 13 3 26 13 0 0 0 0 0 0 121 121 121 0 0 0 0 0 0 0 
0 0 118 118 118 117 117 117 0 0 0 116 116 116 0 0 0 0 0 0 0 0 0 0 0 0 0 
0 0 0 0 0 0 0 0 0 0 0 0 0 0 0 0 0 0 0 0 
145 145 145 0 0 0 144 144 144 144 144 144 143 143 143 0 0 0 142 142 
142 142 142 142 142 142 142 141 141 141 141 141 141 140 140 140 140 140 
140 14 145 72 16 156 78 16 155 78 15 151 76 14 145 72 14 136 68 13 127 63 
12 116 58 10 103 52 9 90 45 7 74 37 6 57 29 4 38 19 3 26 13 3 26 13 3 26 
13 0 0 0 0 0 0 0 0 0 0 0 0 127 127 127 127 127 127 126 126 126 126 126 
126 0 0 0 0 0 0 0 0 0 0 0 0 0 0 0 0 0 0 0 0 0 120 120 120 0 0 0 0 0 0 0 0 
0 118 118 118 0 0 0 
152 152 152 152 152 152 0 0 0 0 0 0 0 0 0 0 0 0 150 150 150 0 0 0 0 0 
0 0 0 0 0 0 0 147 147 147 146 146 146 146 146 146 14 139 69 14 140 70 
14 137 69 13 131 66 12 123 62 11 114 57 10 103 51 9 90 45 8 77 38 6 61 
31 4 44 22 3 26 13 3 26 13 3 26 13 0 0 0 0 0 0 136 136 136 135 135 135 
135 135 135 134 134 134 0 0 0 0 0 0 0 0 0 0 0 0 0 0 0 130 130 130 129 129 
129 129 129 129 128 128 128 0 0 0 127 127 127 126 126 126 126 126 126 125 
125 125 0 0 0 0 0 0 
0 0 0 0 0 0 0 0 0 0 0 0 156 156 156 155 155 155 155 155 155 154 154 
154 154 154 154 153 153 153 153 153 153 152 152 152 152 152 152 151 151 
151 12 115 58 12 122 61 12 121 60 12 115 58 11 108 54 10 99 49 9 88 44 8 
76 38 6 62 31 5 46 23 3 28 14 3 26 13 3 26 13 3 26 13 0 0 0 0 0 0 26 26 
26 26 26 26 26 26 26 26 26 26 26 26 26 0 0 0 0 0 0 0 0 0 0 0 0 0 0 0 0 0 
0 0 0 0 0 0 0 0 0 0 0 0 0 0 0 0 131 131 131 130 130 130 130 130 130 129 
129 129 
162 162 162 0 0 0 0 0 0 160 160 160 160 160 160 159 159 159 159 159 
159 0 0 0 0 0 0 0 0 0 0 0 0 0 0 0 0 0 0 155 155 155 154 154 154 10 98 49 
10 100 50 10 97 48 9 90 45 8 81 41 7 71 35 6 58 29 4 44 22 3 28 14 3 26 
13 3 26 13 3 26 13 26 26 26 26 26 26 26 26 26 26 26 26 0 0 0 0 0 0 0 0 0 
0 0 0 0 0 0 0 0 0 26 26 26 140 140 140 140 140 140 139 139 139 138 138 
138 138 138 138 0 0 0 0 0 0 0 0 0 0 0 0 135 135 135 134 134 134 0 0 0 
0 0 0 0 0 0 0 0 0 0 0 0 0 0 0 162 162 162 162 162 162 161 161 161 161 
161 161 160 160 160 160 160 160 159 159 159 0 0 0 0 0 0 0 0 0 0 0 0 7 73 
36 7 73 37 7 69 34 6 61 30 5 50 25 4 38 19 3 26 13 3 26 13 3 26 13 3 26 
13 0 0 0 0 0 0 0 0 0 0 0 0 0 0 0 0 0 0 26 26 26 26 26 26 26 26 26 26 26 
26 26 26 26 144 144 144 0 0 0 0 0 0 0 0 0 0 0 0 0 0 0 0 0 0 0 0 0 140 
140 140 139 139 139 138 138 138 138 138 138 137 137 137 
167 167 167 167 167 167 166 166 166 0 0 0 0 0 0 0 0 0 0 0 0 0 0 0 0 0 
0 0 0 0 0 0 0 162 162 162 161 161 161 161 161 161 160 160 160 159 159 
159 159 159 159 4 36 18 4 39 19 3 33 17 3 26 13 3 26 13 3 26 13 3 26 13 3 
26 13 26 26 26 26 26 26 26 26 26 26 26 26 26 26 26 26 26 26 26 26 26 0 0 
0 0 0 0 0 0 0 0 0 0 0 0 0 0 0 0 0 0 0 146 146 146 145 145 145 145 145 
145 144 144 144 144 144 144 143 143 143 143 143 143 142 142 142 0 0 0 0 0 
0 0 0 0 
169 169 169 0 0 0 0 0 0 0 0 0 0 0 0 0 0 0 0 0 0 0 0 0 0 0 0 165 165 
165 164 164 164 164 164 164 163 163 163 163 163 163 162 162 162 162 162 
162 161 161 161 0 0 0 0 0 0 0 0 0 3 26 13 3 26 13 0 0 0 0 0 0 0 0 0 26 26 
26 26 26 26 26 26 26 26 26 26 26 26 26 153 153 153 153 153 153 152 152 
152 0 0 0 0 0 0 0 0 0 0 0 0 0 0 0 0 0 0 0 0 0 0 0 0 148 148 148 147 147 
147 146 146 146 146 146 146 145 145 145 145 145 145 144 144 144 144 144 
144 0 0 0 
171 171 171 170 170 170 170 170 170 169 169 169 169 169 169 168 168 
168 168 168 168 167 167 167 0 0 0 0 0 0 0 0 0 0 0 0 0 0 0 0 0 0 0 0 0 0 0 
0 163 163 163 162 162 162 162 162 162 161 161 161 161 161 161 160 160 
160 160 160 160 159 159 159 159 159 159 0 0 0 0 0 0 0 0 0 0 0 0 0 0 0 0 0 
0 0 0 0 0 0 0 0 0 0 153 153 153 153 153 153 152 152 152 152 152 152 151 
151 151 151 151 151 150 150 150 150 150 150 0 0 0 0 0 0 0 0 0 0 0 0 0 0 0 
0 0 0 0 0 0 0 0 0 
172 172 172 172 172 172 171 171 171 171 171 171 170 170 170 170 170 
170 169 169 169 0 0 0 0 0 0 0 0 0 0 0 0 0 0 0 0 0 0 0 0 0 0 0 0 0 0 0 164 
164 164 164 164 164 163 163 163 163 163 163 162 162 162 162 162 162 161 
161 161 161 161 161 160 160 160 0 0 0 0 0 0 0 0 0 0 0 0 0 0 0 0 0 0 0 0 0 
0 0 0 0 0 0 155 155 155 155 155 155 154 154 154 154 154 154 153 153 153 
153 153 153 152 152 152 152 152 152 151 151 151 0 0 0 0 0 0 0 0 0 0 0 0 0 
0 0 0 0 0 0 0 0 
173 173 173 173 173 173 172 172 172 172 172 172 171 171 171 0 0 0 0 0 
0 0 0 0 0 0 0 0 0 0 0 0 0 0 0 0 0 0 0 0 0 0 0 0 0 166 166 166 165 165 
165 165 165 165 164 164 164 164 164 164 163 163 163 163 163 163 163 163 
163 162 162 162 162 162 162 0 0 0 0 0 0 0 0 0 0 0 0 0 0 0 0 0 0 0 0 0 0 0 
0 0 0 0 0 0 0 156 156 156 156 156 156 155 155 155 155 155 155 154 154 
154 154 154 154 153 153 153 153 153 153 152 152 152 152 152 152 0 0 0 0 0 
0 0 0 0 0 0 0 0 0 0 
0 0 0 0 0 0 0 0 0 0 0 0 172 172 172 172 172 172 171 171 171 171 171 
171 170 170 170 170 170 170 169 169 169 169 169 169 168 168 168 168 168 
168 0 0 0 0 0 0 0 0 0 0 0 0 0 0 0 0 0 0 0 0 0 0 0 0 0 0 0 0 0 0 0 0 0 162 
162 162 162 162 162 161 161 161 161 161 161 160 160 160 160 160 160 160 
160 160 159 159 159 159 159 159 158 158 158 158 158 158 0 0 0 0 0 0 0 0 0 
0 0 0 0 0 0 0 0 0 0 0 0 0 0 0 0 0 0 0 0 0 153 153 153 152 152 152 152 
152 152 151 151 151 
0 0 0 0 0 0 0 0 0 173 173 173 173 173 173 172 172 172 172 172 172 171 
171 171 171 171 171 171 171 171 170 170 170 170 170 170 169 169 169 169 
169 169 0 0 0 0 0 0 0 0 0 0 0 0 0 0 0 0 0 0 0 0 0 0 0 0 0 0 0 0 0 0 0 0 0 
163 163 163 163 163 163 162 162 162 162 162 162 162 162 162 161 161 161 
161 161 161 160 160 160 160 160 160 159 159 159 159 159 159 0 0 0 0 0 0 0 
0 0 0 0 0 0 0 0 0 0 0 0 0 0 0 0 0 0 0 0 0 0 0 0 0 0 154 154 154 153 153 
153 153 153 153 
0 0 0 175 175 175 174 174 174 174 174 174 173 173 173 173 173 173 173 
173 173 172 172 172 172 172 172 171 171 171 171 171 171 170 170 170 170 
170 170 0 0 0 0 0 0 0 0 0 0 0 0 0 0 0 0 0 0 0 0 0 0 0 0 0 0 0 0 0 0 0 0 0 
0 0 0 164 164 164 164 164 164 163 163 163 163 163 163 163 163 163 162 
162 162 162 162 162 161 161 161 161 161 161 160 160 160 160 160 160 160 
160 160 0 0 0 0 0 0 0 0 0 0 0 0 0 0 0 0 0 0 0 0 0 0 0 0 0 0 0 0 0 0 0 0 0 
0 0 0 154 154 154 
176 176 176 175 175 175 175 175 175 174 174 174 174 174 174 173 173 
173 173 173 173 173 173 173 172 172 172 172 172 172 171 171 171 171 171 
171 0 0 0 0 0 0 0 0 0 0 0 0 0 0 0 0 0 0 0 0 0 0 0 0 0 0 0 0 0 0 0 0 0 0 0 
0 0 0 0 165 165 165 165 165 165 164 164 164 164 164 164 164 164 164 163 
163 163 163 163 163 162 162 162 162 162 162 161 161 161 161 161 161 161 
161 161 160 160 160 0 0 0 0 0 0 0 0 0 0 0 0 0 0 0 0 0 0 0 0 0 0 0 0 0 0 0 
0 0 0 0 0 0 0 0 0 
176 176 176 176 176 176 175 175 175 175 175 175 174 174 174 174 174 
174 174 174 174 173 173 173 173 173 173 172 172 172 172 172 172 172 172 
172 0 0 0 0 0 0 0 0 0 0 0 0 0 0 0 0 0 0 0 0 0 0 0 0 0 0 0 0 0 0 0 0 0 0 0 
0 0 0 0 166 166 166 166 166 166 165 165 165 165 165 165 164 164 164 164 
164 164 164 164 164 163 163 163 163 163 163 162 162 162 162 162 162 162 
162 162 161 161 161 0 0 0 0 0 0 0 0 0 0 0 0 0 0 0 0 0 0 0 0 0 0 0 0 0 0 0 
0 0 0 0 0 0 0 0 0 
0 0 0 0 0 0 0 0 0 0 0 0 0 0 0 0 0 0 0 0 0 0 0 0 0 0 0 0 0 0 0 0 0 172 
172 172 172 172 172 171 171 171 171 171 171 170 170 170 170 170 170 170 
170 170 169 169 169 169 169 169 169 169 169 168 168 168 168 168 168 167 
167 167 167 167 167 0 0 0 0 0 0 0 0 0 0 0 0 0 0 0 0 0 0 0 0 0 0 0 0 0 0 0 
0 0 0 0 0 0 0 0 0 0 0 0 0 0 0 161 161 161 161 161 161 160 160 160 160 
160 160 160 160 160 159 159 159 159 159 159 159 159 159 158 158 158 158 
158 158 158 158 158 
0 0 0 0 0 0 0 0 0 0 0 0 0 0 0 0 0 0 0 0 0 0 0 0 0 0 0 0 0 0 173 173 
173 172 172 172 172 172 172 172 172 172 171 171 171 171 171 171 171 171 
171 170 170 170 170 170 170 169 169 169 169 169 169 169 169 169 168 168 
168 168 168 168 168 168 168 0 0 0 0 0 0 0 0 0 0 0 0 0 0 0 0 0 0 0 0 0 0 0 
0 0 0 0 0 0 0 0 0 0 0 0 0 0 0 0 0 0 0 0 0 0 162 162 162 161 161 161 161 
161 161 161 161 161 160 160 160 160 160 160 160 160 160 159 159 159 159 
159 159 158 158 158 
0 0 0 0 0 0 0 0 0 0 0 0 0 0 0 0 0 0 0 0 0 0 0 0 0 0 0 0 0 0 173 173 
173 173 173 173 173 173 173 172 172 172 172 172 172 171 171 171 171 171 
171 171 171 171 170 170 170 170 170 170 170 170 170 169 169 169 169 169 
169 169 169 169 168 168 168 0 0 0 0 0 0 0 0 0 0 0 0 0 0 0 0 0 0 0 0 0 0 0 
0 0 0 0 0 0 0 0 0 0 0 0 0 0 0 0 0 0 0 0 0 0 162 162 162 162 162 162 162 
162 162 161 161 161 161 161 161 161 161 161 160 160 160 160 160 160 160 
160 160 159 159 159 
0 0 0 0 0 0 0 0 0 0 0 0 0 0 0 0 0 0 0 0 0 0 0 0 0 0 0 174 174 174 174 
174 174 173 173 173 173 173 173 173 173 173 172 172 172 172 172 172 171 
171 171 171 171 171 171 171 171 170 170 170 170 170 170 170 170 170 169 
169 169 169 169 169 169 169 169 0 0 0 0 0 0 0 0 0 0 0 0 0 0 0 0 0 0 0 0 0 
0 0 0 0 0 0 0 0 0 0 0 0 0 0 0 0 0 0 0 0 0 0 0 0 0 0 0 163 163 163 162 
162 162 162 162 162 162 162 162 161 161 161 161 161 161 161 161 161 160 
160 160 160 160 160 
0 0 0 0 0 0 0 0 0 0 0 0 0 0 0 0 0 0 0 0 0 0 0 0 175 175 175 174 174 
174 174 174 174 174 174 174 173 173 173 173 173 173 173 173 173 172 172 
172 172 172 172 171 171 171 171 171 171 171 171 171 170 170 170 170 170 
170 170 170 170 169 169 169 169 169 169 0 0 0 0 0 0 0 0 0 0 0 0 0 0 0 0 0 
0 0 0 0 0 0 0 0 0 0 0 0 0 0 0 0 0 0 0 0 0 0 0 0 0 0 0 0 0 0 0 0 0 0 163 
163 163 163 163 163 162 162 162 162 162 162 162 162 162 161 161 161 161 
161 161 161 161 161 
0 0 0 0 0 0 0 0 0 0 0 0 0 0 0 0 0 0 0 0 0 0 0 0 175 175 175 174 174 
174 174 174 174 174 174 174 173 173 173 173 173 173 173 173 173 172 172 
172 172 172 172 172 172 172 171 171 171 171 171 171 171 171 171 171 171 
171 170 170 170 170 170 170 170 170 170 0 0 0 0 0 0 0 0 0 0 0 0 0 0 0 0 0 
0 0 0 0 0 0 0 0 0 0 0 0 0 0 0 0 0 0 0 0 0 0 0 0 0 0 0 0 0 0 0 0 0 0 164 
164 164 163 163 163 163 163 163 163 163 163 162 162 162 162 162 162 162 
162 162 161 161 161 
0 0 0 0 0 0 0 0 0 0 0 0 0 0 0 0 0 0 0 0 0 175 175 175 175 175 175 175 
175 175 174 174 174 174 174 174 174 174 174 173 173 173 173 173 173 173 
173 173 172 172 172 172 172 172 172 172 172 172 172 172 171 171 171 171 
171 171 171 171 171 170 170 170 170 170 170 0 0 0 0 0 0 0 0 0 0 0 0 0 0 0 
0 0 0 0 0 0 0 0 0 0 0 0 0 0 0 0 0 0 0 0 0 0 0 0 0 0 0 0 0 0 0 0 0 0 0 0 
0 0 0 164 164 164 164 164 164 163 163 163 163 163 163 163 163 163 162 
162 162 162 162 162 
0 0 0 0 0 0 0 0 0 0 0 0 0 0 0 0 0 0 176 176 176 176 176 176 175 175 
175 175 175 175 175 175 175 174 174 174 174 174 174 174 174 174 173 173 
173 173 173 173 173 173 173 172 172 172 172 172 172 172 172 172 171 171 
171 171 171 171 171 171 171 171 171 171 170 170 170 0 0 0 0 0 0 0 0 0 0 0 
0 0 0 0 0 0 0 0 0 0 0 0 0 0 0 0 0 0 0 0 0 0 0 0 0 0 0 0 0 0 0 0 0 0 0 0 
0 0 0 0 0 0 0 0 0 0 164 164 164 164 164 164 164 164 164 163 163 163 163 
163 163 163 163 163 
0 0 0 0 0 0 0 0 0 0 0 0 0 0 0 0 0 0 176 176 176 176 176 176 175 175 
175 175 175 175 175 175 175 175 175 175 174 174 174 174 174 174 174 174 
174 173 173 173 173 173 173 173 173 173 172 172 172 172 172 172 172 172 
172 171 171 171 171 171 171 171 171 171 171 171 171 0 0 0 0 0 0 0 0 0 0 0 
0 0 0 0 0 0 0 0 0 0 0 0 0 0 0 0 0 0 0 0 0 0 0 0 0 0 0 0 0 0 0 0 0 0 0 0 
0 0 0 0 0 0 0 0 0 0 165 165 165 164 164 164 164 164 164 164 164 164 163 
163 163 163 163 163 
