P3
100 50
255
0 0 0 0 0 0 0 0 0 0 0 0 0 0 0 0 0 0 0 0 0 0 0 0 0 0 0 0 0 0 0 0 0 0 0 
0 0 0 0 0 0 0 0 0 0 0 0 0 0 0 0 0 0 0 0 0 0 0 0 0 0 0 0 0 0 0 0 0 0 0 0 
0 0 0 0 0 0 0 0 0 0 0 0 0 0 0 0 0 0 0 0 0 0 0 0 0 0 0 0 0 0 0 0 0 0 0 0 
0 0 0 0 0 0 0 0 0 0 0 0 0 0 0 0 0 0 0 0 0 0 0 0 0 0 0 0 0 0 0 0 0 0 0 0 
0 0 0 0 0 0 0 0 0 0 0 0 0 0 0 0 0 0 0 0 0 0 0 0 0 0 0 0 0 0 0 0 0 0 0 0 
0 0 0 0 0 0 0 0 0 0 0 0 0 0 0 0 0 0 0 0 0 0 0 0 0 0 0 0 0 0 0 0 0 0 0 0 
0 0 0 0 0 0 0 0 0 0 0 0 0 0 0 0 0 0 0 0 0 0 0 0 0 0 0 0 0 0 0 0 0 0 0 0 
0 0 0 0 0 0 0 0 0 0 0 0 0 0 0 0 0 0 0 0 0 0 0 0 0 0 0 0 0 0 0 0 0 0 0 0 
0 0 0 0 0 0 0 0 0 0 0 0 0 
0 0 0 0 0 0 0 0 0 0 0 0 0 0 0 0 0 0 0 0 0 0 0 0 0 0 0 0 0 0 0 0 0 0 0 
0 0 0 0 0 0 0 0 0 0 0 0 0 0 0 0 0 0 0 0 0 0 0 0 0 0 0 0 0 0 0 0 0 0 0 0 
0 0 0 0 0 0 0 0 0 0 0 0 0 0 0 0 0 0 0 0 0 0 0 0 0 0 0 0 0 0 0 0 0 0 0 0 
0 0 0 0 0 0 0 0 0 0 0 0 0 0 0 0 0 0 0 0 0 0 0 0 0 0 0 0 0 0 0 0 0 0 0 0 
0 0 0 0 0 0 0 0 0 0 0 0 0 0 0 0 0 0 0 0 0 0 0 0 0 0 0 0 0 0 0 0 0 0 0 0 
0 0 0 0 0 0 0 0 0 0 0 0 0 0 0 0 0 0 0 0 0 0 0 0 0 0 0 0 0 0 0 0 0 0 0 0 
0 0 0 0 0 0 0 0 0 0 0 0 0 0 0 0 0 0 0 0 0 0 0 0 0 0 0 0 0 0 0 0 0 0 0 0 
0 0 0 0 0 0 0 0 0 0 0 0 0 0 0 0 0 0 0 0 0 0 0 0 0 0 0 0 0 0 0 0 0 0 0 0 
0 0 0 0 0 0 0 0 0 0 0 0 0 
0 0 0 0 0 0 0 0 0 0 0 0 0 0 0 0 0 0 0 0 0 0 0 0 0 0 0 0 0 0 0 0 0 0 0 
0 0 0 0 0 0 0 0 0 0 0 0 0 0 0 0 0 0 0 0 0 0 0 0 0 0 0 0 0 0 0 0 0 0 0 0 
0 0 0 0 0 0 0 0 0 0 0 0 0 0 0 0 0 0 0 0 0 0 0 0 0 0 0 0 0 0 0 0 0 0 0 0 
0 0 0 0 0 0 0 0 0 0 0 0 0 0 0 0 0 0 0 0 0 0 0 0 0 0 0 0 0 0 0 0 0 0 0 0 
0 0 0 0 0 0 0 0 0 0 0 0 0 0 0 0 0 0 0 0 0 0 0 0 0 0 0 0 0 0 0 0 0 0 0 0 
0 0 0 0 0 0 0 0 0 0 0 0 0 0 0 0 0 0 0 0 0 0 0 0 0 0 0 0 0 0 0 0 0 0 0 0 
0 0 0 0 0 0 0 0 0 0 0 0 0 0 0 0 0 0 0 0 0 0 0 0 0 0 0 0 0 0 0 0 0 0 0 0 
0 0 0 0 0 0 0 0 0 0 0 0 0 0 0 0 0 0 0 0 0 0 0 0 0 0 0 0 0 0 0 0 0 0 0 0 
0 0 0 0 0 0 0 0 0 0 0 0 0 
0 0 0 0 0 0 0 0 0 0 0 0 0 0 0 0 0 0 0 0 0 0 0 0 0 0 0 0 0 0 0 0 0 0 0 
0 0 0 0 0 0 0 0 0 0 0 0 0 0 0 0 0 0 0 0 0 0 0 0 0 0 0 0 0 0 0 0 0 0 0 0 
0 0 0 0 0 0 0 0 0 0 0 0 0 0 0 0 0 0 0 0 0 0 0 0 0 0 0 0 0 0 0 0 0 0 0 0 
0 0 0 0 0 0 0 0 0 0 0 0 0 0 0 0 0 0 0 0 0 0 0 0 0 0 0 0 0 0 0 0 0 0 0 0 
0 0 0 0 0 0 0 0 0 0 0 0 0 0 0 0 0 0 0 0 0 0 0 0 0 0 0 0 0 0 0 0 0 0 0 0 
0 0 0 0 0 0 0 0 0 0 0 0 0 0 0 0 0 0 0 0 0 0 0 0 0 0 0 0 0 0 0 0 0 0 0 0 
0 0 0 0 0 0 0 0 0 0 0 0 0 0 0 0 0 0 0 0 0 0 0 0 0 0 0 0 0 0 0 0 0 0 0 0 
0 0 0 0 0 0 0 0 0 0 0 0 0 0 0 0 0 0 0 0 0 0 0 0 0 0 0 0 0 0 0 0 0 0 0 0 
0 0 0 0 0 0 0 0 0 0 0 0 0 
0 0 0 0 0 0 0 0 0 0 0 0 0 0 0 0 0 0 0 0 0 0 0 0 0 0 0 0 0 0 0 0 0 0 0 
0 0 0 0 0 0 0 0 0 0 0 0 0 0 0 0 0 0 0 0 0 0 0 0 0 0 0 0 0 0 0 0 0 0 0 0 
0 0 0 0 0 0 0 0 0 0 0 0 0 0 0 0 0 0 0 0 0 0 0 0 0 0 0 0 0 0 0 0 0 0 0 0 
0 0 0 0 0 0 0 0 0 0 0 0 0 0 0 0 0 0 0 0 0 0 0 0 0 0 0 0 0 0 0 0 0 0 0 0 
0 0 0 0 0 0 0 0 0 0 0 0 0 0 0 0 0 0 0 0 0 0 0 0 0 0 0 0 0 0 0 0 0 0 0 0 
0 0 0 0 0 0 0 0 0 0 0 0 0 0 0 0 0 0 0 0 0 0 0 0 0 0 0 0 0 0 0 0 0 0 0 0 
0 0 0 0 0 0 0 0 0 0 0 0 0 0 0 0 0 0 0 0 0 0 0 0 0 0 0 0 0 0 0 0 0 0 0 0 
0 0 0 0 0 0 0 0 0 0 0 0 0 0 0 0 0 0 0 0 0 0 0 0 0 0 0 0 0 0 0 0 0 0 0 0 
0 0 0 0 0 0 0 0 0 0 0 0 0 
0 0 0 0 0 0 0 0 0 0 0 0 0 0 0 0 0 0 0 0 0 0 0 0 0 0 0 0 0 0 0 0 0 0 0 
0 0 0 0 0 0 0 0 0 0 0 0 0 0 0 0 0 0 0 0 0 0 0 0 0 0 0 0 0 0 0 0 0 0 0 0 
0 0 0 0 0 0 0 0 0 0 0 0 0 0 0 0 0 0 0 0 0 0 0 0 0 0 0 0 0 0 0 0 0 0 0 0 
0 0 0 0 0 0 0 0 0 0 0 0 0 0 0 0 0 0 0 0 0 0 0 0 0 0 0 0 0 0 0 0 0 0 0 0 
0 0 0 0 0 0 0 0 0 0 0 0 0 0 0 0 0 0 0 0 0 0 0 0 0 0 0 0 0 0 0 0 0 0 0 0 
0 0 0 0 0 0 0 0 0 0 0 0 0 0 0 0 0 0 0 0 0 0 0 0 0 0 0 0 0 0 0 0 0 0 0 0 
0 0 0 0 0 0 0 0 0 0 0 0 0 0 0 0 0 0 0 0 0 0 0 0 0 0 0 0 0 0 0 0 0 0 0 0 
0 0 0 0 0 0 0 0 0 0 0 0 0 0 0 0 0 0 0 0 0 0 0 0 0 0 0 0 0 0 0 0 0 0 0 0 
0 0 0 0 0 0 0 0 0 0 0 0 0 
0 0 0 0 0 0 0 0 0 0 0 0 0 0 0 0 0 0 0 0 0 0 0 0 0 0 0 0 0 0 0 0 0 0 0 
0 0 0 0 0 0 0 0 0 0 0 0 0 0 0 0 0 0 0 0 0 0 0 0 0 0 0 0 0 0 0 0 0 0 0 0 
0 0 0 0 0 0 0 0 0 0 0 0 0 0 0 0 0 0 0 0 0 0 0 0 0 0 0 0 0 0 0 0 0 0 0 0 
0 0 0 0 0 0 0 0 0 0 0 0 0 0 0 0 0 0 0 0 0 0 0 0 0 0 0 0 0 0 0 0 0 0 0 0 
0 0 0 0 0 0 0 0 0 0 0 0 0 0 0 0 0 0 0 0 0 0 0 0 0 0 0 0 0 0 0 0 0 0 0 0 
0 0 0 0 0 0 0 0 0 0 0 0 0 0 0 0 0 0 0 0 0 0 0 0 0 0 0 0 0 0 0 0 0 0 0 0 
0 0 0 0 0 0 0 0 0 0 0 0 0 0 0 0 0 0 0 0 0 0 0 0 0 0 0 0 0 0 0 0 0 0 0 0 
0 0 0 0 0 0 0 0 0 0 0 0 0 0 0 0 0 0 0 0 0 0 0 0 0 0 0 0 0 0 0 0 0 0 0 0 
0 0 0 0 0 0 0 0 0 0 0 0 0 
0 0 0 0 0 0 0 0 0 0 0 0 0 0 0 0 0 0 0 0 0 0 0 0 0 0 0 0 0 0 0 0 0 0 0 
0 0 0 0 0 0 0 0 0 0 0 0 0 0 0 0 0 0 0 0 0 0 0 0 0 0 0 0 0 0 0 0 0 0 0 0 
0 0 0 0 0 0 0 0 0 0 0 0 0 0 0 0 0 0 0 0 0 0 0 0 0 0 0 0 0 0 0 0 0 0 0 0 
0 0 0 0 0 0 0 0 0 0 0 0 0 0 0 0 0 0 0 0 0 0 0 0 0 0 0 0 0 0 0 0 0 0 0 0 
0 0 0 0 0 0 0 0 0 0 0 0 0 0 0 0 0 0 0 0 0 0 0 0 0 0 0 0 0 0 0 0 0 0 0 0 
0 0 0 0 0 0 0 0 0 0 0 0 0 0 0 0 0 0 0 0 0 0 0 0 0 0 0 0 0 0 0 0 0 0 0 0 
0 0 0 0 0 0 0 0 0 0 0 0 0 0 0 0 0 0 0 0 0 0 0 0 0 0 0 0 0 0 0 0 0 0 0 0 
0 0 0 0 0 0 0 0 0 0 0 0 0 0 0 0 0 0 0 0 0 0 0 0 0 0 0 0 0 0 0 0 0 0 0 0 
0 0 0 0 0 0 0 0 0 0 0 0 0 
0 0 0 0 0 0 0 0 0 0 0 0 0 0 0 0 0 0 0 0 0 0 0 0 0 0 0 0 0 0 0 0 0 0 0 
0 0 0 0 0 0 0 0 0 0 0 0 0 0 0 0 0 0 0 0 0 0 0 0 0 0 0 0 0 0 0 0 0 0 0 0 
0 0 0 0 0 0 0 0 0 0 0 0 0 0 0 0 0 0 0 0 0 0 0 0 0 0 0 0 0 0 0 0 0 0 0 0 
0 0 0 0 0 0 0 0 0 0 0 0 0 14 144 72 14 140 70 13 132 66 12 122 61 0 0 0 
0 0 0 0 0 0 0 0 0 0 0 0 0 0 0 0 0 0 0 0 0 0 0 0 0 0 0 0 0 0 0 0 0 0 0 0 
0 0 0 0 0 0 0 0 0 0 0 0 0 0 0 0 0 0 0 0 0 0 0 0 0 0 0 0 0 0 0 0 0 0 0 0 
0 0 0 0 0 0 0 0 0 0 0 0 0 0 0 0 0 0 0 0 0 0 0 0 0 0 0 0 0 0 0 0 0 0 0 0 
0 0 0 0 0 0 0 0 0 0 0 0 0 0 0 0 0 0 0 0 0 0 0 0 0 0 0 0 0 0 0 0 0 0 0 0 
0 0 0 0 0 0 0 0 0 0 0 0 0 0 0 0 0 0 0 0 0 
0 0 0 0 0 0 0 0 0 0 0 0 0 0 0 0 0 0 0 0 0 0 0 0 0 0 0 0 0 0 0 0 0 0 0 
0 0 0 0 0 0 0 0 0 0 0 0 0 0 0 0 0 0 0 0 0 0 0 0 0 0 0 0 0 0 0 0 0 0 0 0 
0 0 0 0 0 0 0 0 0 0 0 0 0 0 0 0 0 0 0 0 0 0 0 0 0 0 0 0 0 0 0 0 0 0 0 0 
0 17 171 86 17 173 86 17 170 85 17 166 83 16 161 81 16 155 78 15 148 74 
14 140 70 13 131 66 12 121 60 11 108 54 9 91 46 0 0 0 0 0 0 0 0 0 0 0 0 
0 0 0 0 0 0 0 0 0 0 0 0 0 0 0 0 0 0 0 0 0 0 0 0 0 0 0 0 0 0 0 0 0 0 0 0 
0 0 0 0 0 0 0 0 0 0 0 0 0 0 0 0 0 0 0 0 0 0 0 0 0 0 0 0 0 0 0 0 0 0 0 0 
0 0 0 0 0 0 0 0 0 0 0 0 0 0 0 0 0 0 0 0 0 0 0 0 0 0 0 0 0 0 0 0 0 0 0 0 
0 0 0 0 0 0 0 0 0 0 0 0 0 0 0 0 0 0 0 0 0 0 0 0 0 0 0 0 0 0 0 0 0 0 0 0 
0 0 0 0 0 0 0 0 0 0 0 0 0 0 0 0 0 0 0 0 0 0 0 0 0 0 0 0 0 0 0 0 0 0 0 
0 0 0 0 0 0 0 0 0 0 0 0 0 0 0 0 0 0 0 0 0 0 0 0 0 0 0 0 0 0 0 0 0 0 0 0 
0 0 0 0 0 0 0 0 0 0 0 0 0 0 0 0 0 0 0 0 0 0 0 0 0 0 0 0 0 0 0 18 183 92 
19 185 93 18 184 92 18 181 91 18 177 89 17 173 86 17 167 84 16 161 80 15 
154 77 15 147 73 14 138 69 13 129 65 12 119 60 11 108 54 9 94 47 7 75 37 
0 0 0 0 0 0 0 0 0 0 0 0 0 0 0 0 0 0 0 0 0 0 0 0 0 0 0 0 0 0 0 0 0 0 0 0 
0 0 0 0 0 0 0 0 0 0 0 0 0 0 0 0 0 0 0 0 0 0 0 0 0 0 0 0 0 0 0 0 0 0 0 0 
0 0 0 0 0 0 0 0 0 0 0 0 0 0 0 0 0 0 0 0 0 0 0 0 0 0 0 0 0 0 0 0 0 0 0 0 
0 0 0 0 0 0 0 0 0 0 0 0 0 0 0 0 0 0 0 0 0 0 0 0 0 0 0 0 0 0 0 0 0 0 0 0 
0 0 0 0 0 0 
0 0 0 0 0 0 0 0 0 0 0 0 0 0 0 0 0 0 0 0 0 0 0 0 0 0 0 0 0 0 0 0 0 0 0 
0 0 0 0 0 0 0 0 0 0 0 0 0 0 0 0 0 0 0 0 0 0 0 0 0 0 0 0 0 0 0 0 0 0 0 0 
0 0 0 0 0 0 0 0 0 0 0 0 0 0 0 0 0 0 0 0 0 0 0 0 0 18 184 92 19 192 96 
19 193 97 19 192 96 19 189 94 19 185 93 18 181 90 18 176 88 17 170 85 16 
164 82 16 157 78 15 150 75 14 142 71 13 133 67 12 124 62 11 114 57 10 102 
51 9 89 44 7 72 36 0 0 0 0 0 0 0 0 0 0 0 0 0 0 0 0 0 0 0 0 0 0 0 0 0 0 0 
0 0 0 0 0 0 0 0 0 0 0 0 0 0 0 0 0 0 0 0 0 0 0 0 0 0 0 0 0 0 0 0 0 0 0 0 
0 0 0 0 0 0 0 0 0 0 0 0 0 0 0 0 0 0 0 0 0 0 0 0 0 0 0 0 0 0 0 0 0 0 0 0 
0 0 0 0 0 0 0 0 0 0 0 0 0 0 0 0 0 0 0 0 0 0 0 0 0 0 0 0 0 0 0 0 0 0 0 0 
0 0 0 0 0 0 0 0 0 0 0 0 
0 0 0 0 0 0 0 0 0 0 0 0 0 0 0 0 0 0 0 0 0 0 0 0 0 0 0 0 0 0 0 0 0 0 0 
0 0 0 0 0 0 0 0 0 0 0 0 0 0 0 0 0 0 0 0 0 0 0 0 0 0 0 0 0 0 0 0 0 0 0 0 
0 0 0 0 0 0 0 0 0 0 0 0 0 0 0 0 0 0 0 0 0 0 19 191 96 20 197 99 20 198 
99 20 197 98 19 194 97 19 191 95 19 187 93 18 182 91 18 177 88 17 171 86 
16 165 82 16 158 79 15 151 76 14 143 72 14 135 68 13 126 63 12 117 58 11 
106 53 9 95 47 8 81 41 6 65 32 4 39 20 0 0 0 0 0 0 0 0 0 0 0 0 0 0 0 0 0 
0 0 0 0 0 0 0 0 0 0 0 0 0 0 0 0 0 0 0 0 0 0 0 0 0 0 0 0 0 0 0 0 0 0 0 0 
0 0 0 0 0 0 0 0 0 0 0 0 0 0 0 0 0 0 0 0 0 0 0 0 0 0 0 0 0 0 0 0 0 0 0 0 
0 0 0 0 0 0 0 0 0 0 0 0 0 0 0 0 0 0 0 0 0 0 0 0 0 0 0 0 0 0 0 0 0 0 0 0 
0 0 0 0 0 0 0 0 0 0 0 0 0 0 0 0 
0 0 0 0 0 0 0 0 0 0 0 0 0 0 0 0 0 0 0 0 0 0 0 0 0 0 0 0 0 0 0 0 0 0 0 
0 0 0 0 0 0 0 0 0 0 0 0 0 0 0 0 0 0 0 0 0 0 0 0 0 0 0 0 0 0 0 0 0 0 0 0 
0 0 0 0 0 0 0 0 0 0 0 0 0 0 0 0 0 0 0 19 193 97 20 200 100 20 201 101 
20 200 100 20 198 99 20 195 98 19 191 96 19 187 93 18 182 91 18 177 88 
17 171 86 16 165 82 16 158 79 15 151 76 14 144 72 14 136 68 13 127 64 12 
118 59 11 108 54 10 97 49 9 85 43 7 71 36 5 54 27 3 28 14 0 0 0 0 0 0 0 0 
0 0 0 0 0 0 0 0 0 0 0 0 0 0 0 0 0 0 0 0 0 0 0 0 0 0 0 0 0 0 0 0 0 0 0 0 
0 0 0 0 0 0 0 0 0 0 0 0 0 0 0 0 0 0 0 0 0 0 0 0 0 0 0 0 0 0 0 0 0 0 0 0 
0 0 0 0 0 0 0 0 0 0 0 0 0 0 0 0 0 0 0 0 0 0 0 0 0 0 0 0 0 0 0 0 0 0 0 0 
0 0 0 0 0 0 0 0 0 0 0 0 0 0 0 0 0 0 0 0 0 0 
0 0 0 0 0 0 0 0 0 0 0 0 0 0 0 0 0 0 0 0 0 0 0 0 0 0 0 0 0 0 0 0 0 0 0 
0 0 0 0 0 0 0 0 0 0 0 0 0 0 0 0 0 0 0 0 0 0 0 0 0 0 0 0 0 0 0 0 0 0 0 0 
0 0 0 0 0 0 0 0 0 0 0 0 0 0 0 0 19 191 96 20 201 101 20 203 102 20 203 
101 20 201 100 20 198 99 19 195 97 19 191 95 19 186 93 18 181 91 18 176 
88 17 170 85 16 164 82 16 158 79 15 151 75 14 143 72 14 136 68 13 127 64 
12 118 59 11 109 54 10 99 49 9 87 44 7 75 37 6 60 30 4 42 21 3 26 13 0 0 
0 0 0 0 0 0 0 0 0 0 0 0 0 0 0 0 0 0 0 0 0 0 0 0 0 0 0 0 0 0 0 0 0 0 0 0 
0 0 0 0 0 0 0 0 0 0 0 0 0 0 0 0 0 0 0 0 0 0 0 0 0 0 0 0 0 0 0 0 0 0 0 0 
0 0 0 0 0 0 0 0 0 0 0 0 0 0 0 0 0 0 0 0 0 0 0 0 0 0 0 0 0 0 0 0 0 0 0 0 
0 0 0 0 0 0 0 0 0 0 0 0 0 0 0 0 0 0 0 0 0 0 0 0 0 
0 0 0 0 0 0 0 0 0 0 0 0 0 0 0 0 0 0 0 0 0 0 0 0 0 0 0 0 0 0 0 0 0 0 0 
0 0 0 0 0 0 0 0 0 0 0 0 0 0 0 0 0 0 0 0 0 0 0 0 0 0 0 0 0 0 0 0 0 0 0 0 
0 0 0 0 0 0 0 0 0 0 0 0 0 0 0 0 20 200 100 20 204 102 20 204 102 20 203 
101 20 200 100 20 197 99 19 194 97 19 190 95 18 185 92 18 180 90 17 175 
87 17 169 84 16 163 81 16 156 78 15 149 75 14 142 71 13 135 67 13 126 63 
12 118 59 11 109 54 10 99 49 9 88 44 8 76 38 6 63 31 5 47 23 3 26 13 0 0 
0 0 0 0 0 0 0 0 0 0 0 0 0 0 0 0 0 0 0 0 0 0 0 0 0 0 0 0 0 0 0 0 0 0 0 0 
0 0 0 0 0 0 0 0 0 0 0 0 0 0 0 0 0 0 0 0 0 0 0 0 0 0 0 0 0 0 0 0 0 0 0 0 
0 0 0 0 0 0 0 0 0 0 0 0 0 0 0 0 0 0 0 0 0 0 0 0 0 0 0 0 0 0 0 0 0 0 0 0 
0 0 0 0 0 0 0 0 0 0 0 0 0 0 0 0 0 0 0 0 0 0 0 0 0 
0 0 0 0 0 0 0 0 0 0 0 0 0 0 0 0 0 0 0 0 0 0 0 0 0 0 0 0 0 0 0 0 0 0 0 
0 0 0 0 0 0 0 0 0 0 0 0 0 0 0 0 0 0 0 0 0 0 0 0 0 0 0 0 0 0 0 0 0 0 0 0 
0 0 0 0 0 0 0 0 0 0 0 0 0 20 196 98 20 202 101 20 204 102 20 203 102 20 
202 101 20 199 99 20 196 98 19 192 96 19 188 94 18 183 92 18 178 89 17 
173 86 17 167 83 16 161 80 15 154 77 15 148 74 14 140 70 13 133 66 12 125 
62 12 116 58 11 107 54 10 98 49 9 87 44 8 76 38 6 63 32 5 49 24 3 31 16 
3 26 13 0 0 0 0 0 0 0 0 0 0 0 0 0 0 0 0 0 0 0 0 0 0 0 0 0 0 0 0 0 0 0 0 
0 0 0 0 0 0 0 0 0 0 0 0 0 0 0 0 0 0 0 0 0 0 0 0 0 0 0 0 0 0 0 0 0 0 0 0 
0 0 0 0 0 0 0 0 0 0 0 0 0 0 0 0 0 0 0 0 0 0 0 0 0 0 0 0 0 0 0 0 0 0 0 0 
0 0 0 0 0 0 0 0 0 0 0 0 0 0 0 0 0 0 0 0 0 0 0 0 0 0 0 0 
0 0 0 0 0 0 0 0 0 0 0 0 0 0 0 0 0 0 0 0 0 0 0 0 0 0 0 0 0 0 0 0 0 0 0 
0 0 0 0 0 0 0 0 0 0 0 0 0 0 0 0 0 0 0 0 0 0 0 0 0 0 0 0 0 0 0 0 0 0 0 0 
0 0 0 0 0 0 0 0 0 0 18 181 90 20 199 99 20 202 101 20 203 101 20 202 
101 20 200 100 20 197 98 19 193 97 19 190 95 19 185 93 18 181 90 18 176 
88 17 170 85 16 164 82 16 158 79 15 152 76 15 145 73 14 138 69 13 131 65 
12 123 61 11 115 57 11 106 53 10 96 48 9 86 43 8 75 38 6 63 32 5 49 25 3 
33 17 3 26 13 0 0 0 0 0 0 0 0 0 0 0 0 0 0 0 0 0 0 0 0 0 0 0 0 0 0 0 0 0 
0 0 0 0 0 0 0 0 0 0 0 0 0 0 0 0 0 0 0 0 0 0 0 0 0 0 0 0 0 0 0 0 0 0 0 0 
0 0 0 0 0 0 0 0 0 0 0 0 0 0 0 0 0 0 0 0 0 0 0 0 0 0 0 0 0 0 0 0 0 0 0 0 
0 0 0 0 0 0 0 0 0 0 0 0 0 0 0 0 0 0 0 0 0 0 0 0 0 0 0 0 0 0 0 
0 0 0 0 0 0 0 0 0 0 0 0 0 0 0 0 0 0 0 0 0 0 0 0 0 0 0 0 0 0 0 0 0 0 0 
0 0 0 0 0 0 0 0 0 0 0 0 0 0 0 0 0 0 0 0 0 0 0 0 0 0 0 0 0 0 0 0 0 0 0 0 
0 0 0 0 0 0 0 0 0 0 19 191 96 20 199 99 20 201 100 20 201 100 20 199 
100 20 197 99 19 194 97 19 191 95 25 193 100 34 198 107 19 179 91 17 173 
86 17 167 84 16 162 81 16 156 78 15 149 75 14 143 71 14 136 68 13 128 64 
12 120 60 11 112 56 10 103 52 9 94 47 8 84 42 7 74 37 6 62 31 5 49 24 3 
34 17 3 26 13 3 26 13 0 0 0 0 0 0 0 0 0 0 0 0 0 0 0 0 0 0 0 0 0 0 0 0 0 
0 0 0 0 0 0 0 0 0 0 0 0 0 0 0 0 0 0 0 0 0 0 0 0 0 0 0 0 0 0 0 0 0 0 0 0 
0 0 0 0 0 0 0 0 0 0 0 0 0 0 0 0 0 0 0 0 0 0 0 0 0 0 0 0 0 0 0 0 0 0 0 0 
0 0 0 0 0 0 0 0 0 0 0 0 0 0 0 0 0 0 0 0 0 0 0 0 0 0 0 0 0 0 0 0 
0 0 0 0 0 0 0 0 0 0 0 0 0 0 0 0 0 0 0 0 0 0 0 0 0 0 0 0 0 0 0 0 0 0 0 
0 0 0 0 0 0 0 0 0 0 0 0 0 0 0 0 0 0 0 0 0 0 0 0 0 0 0 0 0 0 0 0 0 0 0 0 
0 0 0 0 0 0 0 0 0 0 19 192 96 20 197 99 20 199 99 20 198 99 20 197 98 
19 194 97 19 191 96 20 189 95 66 231 139 74 235 145 21 178 90 17 170 85 
16 164 82 16 158 79 15 152 76 15 146 73 14 140 70 13 133 66 13 125 63 12 
117 59 11 109 55 10 101 50 9 92 46 8 82 41 7 71 36 6 60 30 5 47 24 3 33 
16 3 26 13 3 26 13 0 0 0 0 0 0 0 0 0 0 0 0 0 0 0 0 0 0 0 0 0 0 0 0 0 0 0 
0 0 0 0 0 0 0 0 0 0 0 0 0 0 0 0 0 0 0 0 0 0 0 0 0 0 0 0 0 0 0 0 0 0 0 0 
0 0 0 0 0 0 0 0 0 0 0 0 0 0 0 0 0 0 0 0 0 0 0 0 0 0 0 0 0 0 0 0 0 0 0 0 
0 0 0 0 0 0 0 0 0 0 0 0 0 0 0 0 0 0 0 0 0 0 0 0 0 0 0 0 0 0 
0 0 0 0 0 0 0 0 0 0 0 0 0 0 0 0 0 0 0 0 0 0 0 0 0 0 0 0 0 0 0 0 0 0 0 
0 0 0 0 0 0 0 0 0 0 0 0 0 0 0 0 0 0 0 0 0 0 0 0 0 0 0 0 0 0 0 0 0 0 0 0 
0 0 0 0 0 0 0 18 175 88 19 191 95 19 195 97 20 196 98 19 195 97 19 193 
97 19 191 95 19 188 94 20 185 93 36 199 109 29 188 100 17 171 86 17 166 
83 16 161 80 15 155 77 15 149 74 14 143 71 14 136 68 13 129 65 12 122 61 
11 114 57 11 106 53 10 98 49 9 89 44 8 79 39 7 68 34 6 57 29 4 45 22 3 
31 15 3 26 13 3 26 13 0 0 0 0 0 0 0 0 0 0 0 0 0 0 0 0 0 0 0 0 0 0 0 0 0 
0 0 0 0 0 0 0 0 0 0 0 0 0 0 0 0 0 0 0 0 0 0 0 0 0 0 0 0 0 0 0 0 0 0 0 0 
0 0 0 0 0 0 0 0 0 0 0 0 0 0 0 0 0 0 0 0 0 0 0 0 0 0 0 0 0 0 0 0 0 0 0 0 
0 0 0 0 0 0 0 0 0 0 0 0 0 0 0 0 0 0 0 0 0 0 0 0 0 0 0 0 0 0 0 0 
0 0 0 0 0 0 0 0 0 0 0 0 0 0 0 0 0 0 0 0 0 0 0 0 0 0 0 0 0 0 0 0 0 0 0 
0 0 0 0 0 0 0 0 0 0 0 0 0 0 0 0 0 0 0 0 0 0 0 0 0 0 0 0 0 0 0 0 0 0 0 0 
0 0 0 0 0 0 0 18 178 89 19 188 94 19 191 96 19 192 96 19 191 96 19 189 
95 19 187 93 18 184 92 18 180 90 18 177 89 17 172 86 17 167 84 16 162 81 
16 157 78 15 151 76 15 145 73 14 139 69 13 132 66 13 125 63 12 118 59 11 
111 55 10 103 51 9 94 47 9 85 43 8 75 38 7 65 33 5 54 27 4 42 21 3 28 14 
3 26 13 3 26 13 3 26 13 0 0 0 0 0 0 0 0 0 0 0 0 0 0 0 0 0 0 0 0 0 0 0 0 
0 0 0 0 0 0 0 0 0 0 0 0 0 0 0 0 0 0 0 0 0 0 0 0 0 0 0 0 0 0 0 0 0 0 0 0 
0 0 0 0 0 0 0 0 0 0 0 0 0 0 0 0 0 0 0 0 0 0 0 0 0 0 0 0 0 0 0 0 0 0 0 0 
0 0 0 0 0 0 0 0 0 0 0 0 0 0 0 0 0 0 0 0 0 0 0 0 0 0 0 0 0 0 
0 0 0 0 0 0 0 0 0 0 0 0 0 0 0 0 0 0 0 0 0 0 0 0 0 0 0 0 0 0 0 0 0 0 0 
0 0 0 0 0 0 0 0 0 0 0 0 0 0 0 0 0 0 0 0 0 0 0 0 0 0 0 0 0 0 0 0 0 0 0 0 
0 0 0 0 0 0 0 18 176 88 18 185 92 19 187 94 19 188 94 19 187 94 19 185 
93 18 183 91 18 180 90 18 176 88 17 172 86 17 168 84 16 163 81 16 158 79 
15 153 76 15 147 73 14 141 71 13 135 67 13 128 64 12 121 61 11 114 57 11 
107 53 10 99 49 9 90 45 8 81 41 7 72 36 6 61 31 5 50 25 4 38 19 3 26 13 3 
26 13 3 26 13 3 26 13 0 0 0 0 0 0 0 0 0 0 0 0 0 0 0 0 0 0 0 0 0 0 0 0 0 
0 0 0 0 0 0 0 0 0 0 0 0 0 0 0 0 0 0 0 0 0 0 0 0 0 0 0 0 0 0 0 0 0 0 0 0 
0 0 0 0 0 0 0 0 0 0 0 0 0 0 0 0 0 0 0 0 0 0 0 0 0 0 0 0 0 0 0 0 0 0 0 0 
0 0 0 0 0 0 0 0 0 0 0 0 0 0 0 0 0 0 0 0 0 0 0 0 0 0 0 0 0 
0 0 0 0 0 0 0 0 0 0 0 0 0 0 0 0 0 0 0 0 0 0 0 0 0 0 0 0 0 0 0 0 0 0 0 
0 0 0 0 0 0 0 0 0 0 0 0 0 0 0 0 0 0 0 0 0 0 0 0 0 0 0 0 0 0 0 0 0 0 0 0 
0 0 0 0 0 0 0 17 172 86 18 180 90 18 183 91 18 183 92 18 182 91 18 181 
90 18 178 89 17 175 87 17 171 86 17 167 84 16 163 82 16 158 79 15 153 77 
15 148 74 14 142 71 14 137 68 13 130 65 12 124 62 12 117 58 11 110 55 10 
102 51 9 94 47 9 86 43 8 77 38 7 67 34 6 57 29 5 46 23 3 34 17 3 26 13 3 
26 13 3 26 13 3 26 13 0 0 0 0 0 0 0 0 0 0 0 0 0 0 0 0 0 0 0 0 0 0 0 0 0 
0 0 0 0 0 0 0 0 0 0 0 0 0 0 0 0 0 0 0 0 0 0 0 0 0 0 0 0 0 0 0 0 0 0 0 0 
0 0 0 0 0 0 0 0 0 0 0 0 0 0 0 0 0 0 0 0 0 0 0 0 0 0 0 0 0 0 0 0 0 0 0 0 
0 0 0 0 0 0 0 0 0 0 0 0 0 0 0 0 0 0 0 0 0 0 0 0 0 0 0 0 0 
0 0 0 0 0 0 0 0 0 0 0 0 0 0 0 0 0 0 0 0 0 0 0 0 0 0 0 0 0 0 0 0 0 0 0 
0 0 0 0 0 0 0 0 0 0 0 0 0 0 0 0 0 0 0 0 0 0 0 0 0 0 0 0 0 0 0 0 0 0 0 0 
0 0 0 0 0 0 0 17 167 83 18 175 88 18 178 89 18 178 89 18 177 89 18 176 
88 17 173 87 17 170 85 17 166 83 16 163 81 16 158 79 15 154 77 15 149 74 
14 143 72 14 138 69 13 132 66 13 126 63 12 119 60 11 112 56 11 105 53 10 
98 49 9 90 45 8 81 41 7 72 36 6 63 31 5 53 26 4 42 21 3 29 15 3 26 13 3 
26 13 3 26 13 3 26 13 0 0 0 0 0 0 0 0 0 0 0 0 0 0 0 0 0 0 0 0 0 0 0 0 0 
0 0 0 0 0 0 0 0 0 0 0 0 0 0 14 144 72 15 146 73 14 137 69 12 121 60 0 0 
0 0 0 0 0 0 0 0 0 0 0 0 0 0 0 0 0 0 0 0 0 0 0 0 0 0 0 0 0 0 0 0 0 0 0 0 
0 0 0 0 0 0 0 0 0 0 0 0 0 0 0 0 0 0 0 0 0 0 0 0 0 0 0 0 0 0 0 0 0 0 0 0 
0 
0 0 0 0 0 0 0 0 0 0 0 0 0 0 0 0 0 0 0 0 0 0 0 0 0 0 0 0 0 0 0 0 0 0 0 
0 0 0 0 0 0 0 0 0 0 0 0 0 0 0 0 0 0 0 0 0 0 0 0 0 0 0 0 0 0 0 0 0 0 0 0 
0 0 0 0 0 0 0 16 160 80 17 169 85 17 172 86 17 173 86 17 172 86 17 170 
85 17 168 84 16 165 82 16 161 81 16 157 79 15 153 77 15 148 74 14 143 72 
14 138 69 13 133 66 13 127 63 12 121 60 11 114 57 11 107 54 10 100 50 9 
92 46 8 85 42 8 76 38 7 67 34 6 58 29 5 47 24 4 36 18 3 26 13 3 26 13 3 
26 13 3 26 13 3 26 13 119 108 108 119 107 107 119 107 107 119 107 107 
118 106 106 118 106 106 118 106 106 117 106 106 117 105 105 117 105 105 
116 105 105 17 172 86 18 180 90 18 179 90 17 174 87 16 165 82 15 152 76 
13 135 67 11 112 56 7 73 37 0 0 0 0 0 0 0 0 0 0 0 0 0 0 0 0 0 0 0 0 0 0 
0 0 0 0 0 0 0 0 0 0 0 0 0 0 0 0 0 0 0 0 0 0 0 0 0 0 0 0 0 0 0 0 0 0 0 0 
0 0 0 0 0 0 0 0 
0 0 0 0 0 0 0 0 0 0 0 0 0 0 0 0 0 0 0 0 0 0 0 0 136 123 123 136 122 
122 136 122 122 136 122 122 136 122 122 135 122 122 135 122 122 135 122 
122 135 121 121 135 121 121 135 121 121 134 121 121 134 121 121 134 121 
121 134 120 120 134 120 120 133 120 120 133 120 120 15 152 76 16 162 81 
17 166 83 17 166 83 17 166 83 16 164 82 16 162 81 16 159 80 16 156 78 15 
152 76 15 148 74 14 143 71 14 138 69 13 133 66 13 127 64 12 121 61 12 115 
58 11 109 54 10 102 51 9 95 47 9 87 44 8 79 40 7 71 35 6 62 31 5 52 26 4 
42 21 3 31 15 3 26 13 3 26 13 3 26 13 3 26 13 3 26 13 124 112 112 124 
112 112 124 111 111 123 111 111 123 111 111 123 110 110 122 110 110 122 
110 110 122 110 110 121 109 109 19 185 93 19 194 97 19 195 97 19 192 96 
19 185 93 18 176 88 16 164 82 15 149 74 13 130 65 11 106 53 7 71 35 118 
106 106 117 106 106 117 105 105 117 105 105 116 105 105 116 104 104 116 
104 104 115 104 104 115 104 104 115 103 103 114 103 103 114 103 103 114 
102 102 0 0 0 0 0 0 0 0 0 0 0 0 0 0 0 0 0 0 0 0 0 0 0 0 
142 128 128 142 128 128 142 128 128 142 128 128 142 128 128 142 128 
128 142 127 127 141 127 127 141 127 127 141 127 127 141 127 127 141 127 
127 140 126 126 140 126 126 140 126 126 140 126 126 140 126 126 139 126 
126 139 125 125 139 125 125 139 125 125 139 125 125 138 125 125 138 124 
124 138 124 124 138 124 124 14 140 70 15 154 77 16 158 79 16 160 80 16 
159 80 16 158 79 16 156 78 15 153 76 15 150 75 15 146 73 14 142 71 14 137 
69 13 132 66 13 127 64 12 122 61 12 116 58 11 109 55 10 103 51 10 96 48 
9 89 44 8 81 41 7 73 37 6 65 32 6 56 28 5 46 23 4 36 18 3 26 13 3 26 13 
3 26 13 3 26 13 3 26 13 3 26 13 128 115 115 128 115 115 128 115 115 127 
115 115 127 114 114 127 114 114 126 114 114 126 114 114 126 113 113 19 
186 93 20 198 99 20 202 101 20 201 100 20 197 98 19 190 95 18 180 90 17 
169 84 15 155 77 14 138 69 12 117 58 9 90 45 5 50 25 121 109 109 121 109 
109 121 109 109 120 108 108 120 108 108 120 108 108 119 107 107 119 107 
107 119 107 107 118 107 107 118 106 106 118 106 106 117 106 106 117 105 
105 117 105 105 117 105 105 116 105 105 116 104 104 116 104 104 115 104 
104 
147 132 132 147 132 132 146 132 132 146 132 132 146 131 131 146 131 
131 146 131 131 146 131 131 145 131 131 145 131 131 145 130 130 145 130 
130 145 130 130 144 130 130 144 130 130 144 130 130 144 129 129 143 129 
129 143 129 129 143 129 129 143 128 128 142 128 128 142 128 128 142 128 
128 142 128 128 142 127 127 141 127 127 15 145 73 15 151 75 15 152 76 15 
152 76 15 151 76 15 149 75 15 146 73 14 143 72 14 140 70 14 135 68 13 131 
65 13 126 63 12 121 60 12 115 58 11 110 55 10 103 52 10 97 48 9 90 45 8 
83 41 8 75 38 7 67 34 6 59 29 5 49 25 4 40 20 3 29 15 3 26 13 3 26 13 3 
26 13 3 26 13 3 26 13 132 119 119 132 119 119 132 118 118 131 118 118 
131 118 118 131 118 118 130 117 117 130 117 117 130 117 117 17 173 87 19 
195 97 20 202 101 20 204 102 20 202 101 20 197 99 19 190 95 18 181 91 17 
170 85 16 156 78 14 140 70 12 121 60 10 97 49 7 66 33 3 26 13 125 112 112 
124 112 112 124 112 112 124 111 111 123 111 111 123 111 111 123 110 110 
122 110 110 122 110 110 122 110 110 121 109 109 121 109 109 121 109 109 
120 108 108 120 108 108 120 108 108 120 108 108 119 107 107 119 107 107 
151 135 135 150 135 135 150 135 135 150 135 135 150 135 135 150 135 
135 149 134 134 149 134 134 149 134 134 149 134 134 149 134 134 148 133 
133 148 133 133 148 133 133 148 133 133 147 133 133 147 132 132 147 132 
132 147 132 132 146 132 132 146 132 132 146 131 131 146 131 131 145 131 
131 145 131 131 145 130 130 145 130 130 13 134 67 14 142 71 14 144 72 14 
145 72 14 144 72 14 142 71 14 139 70 14 136 68 13 133 66 13 129 64 12 124 
62 12 120 60 11 114 57 11 109 54 10 103 52 10 97 48 9 90 45 8 84 42 8 76 
38 7 69 34 6 60 30 5 52 26 4 43 21 3 33 16 3 26 13 3 26 13 3 26 13 3 26 
13 3 26 13 3 26 13 135 122 122 135 122 122 135 121 121 134 121 121 134 
121 121 134 120 120 134 120 120 133 120 120 133 120 120 18 181 91 20 196 
98 20 202 101 20 202 101 20 200 100 23 198 101 19 188 94 18 179 89 17 
168 84 15 154 77 14 139 69 12 121 60 10 99 49 7 71 35 3 30 15 128 115 115 
127 115 115 127 114 114 127 114 114 127 114 114 126 114 114 126 113 113 
126 113 113 125 113 113 125 112 112 125 112 112 124 112 112 124 112 112 
124 111 111 123 111 111 123 111 111 123 110 110 122 110 110 122 110 110 
154 138 138 154 138 138 153 138 138 153 138 138 153 138 138 153 137 
137 152 137 137 152 137 137 152 137 137 152 137 137 152 136 136 151 136 
136 151 136 136 151 136 136 151 136 136 150 135 135 150 135 135 150 135 
135 150 135 135 149 134 134 149 134 134 149 134 134 149 134 134 148 133 
133 148 133 133 148 133 133 147 133 133 12 118 59 13 131 66 14 135 68 14 
136 68 14 136 68 13 134 67 13 132 66 13 129 65 13 126 63 12 122 61 12 117 
59 11 113 56 11 108 54 10 102 51 10 96 48 9 90 45 8 84 42 8 77 38 7 69 
35 6 62 31 5 53 27 4 45 22 4 35 18 3 26 13 3 26 13 3 26 13 3 26 13 3 26 
13 3 26 13 3 26 13 138 124 124 138 124 124 138 124 124 137 124 124 137 
123 123 137 123 123 136 123 123 136 122 122 14 138 69 18 181 90 19 193 96 
20 198 99 20 198 99 21 197 100 40 212 117 18 183 92 17 174 87 16 163 82 
15 150 75 13 135 67 12 117 59 10 96 48 7 70 35 3 34 17 131 118 118 130 
117 117 130 117 117 130 117 117 129 116 116 129 116 116 129 116 116 128 
116 116 128 115 115 128 115 115 128 115 115 127 115 115 127 114 114 127 
114 114 126 114 114 126 113 113 126 113 113 125 113 113 125 113 113 
157 141 141 156 141 141 156 140 140 156 140 140 156 140 140 155 140 
140 155 140 140 155 139 139 155 139 139 154 139 139 154 139 139 154 139 
139 154 138 138 153 138 138 153 138 138 153 138 138 153 137 137 152 137 
137 152 137 137 152 137 137 152 136 136 151 136 136 151 136 136 151 136 
136 151 136 136 150 135 135 150 135 135 150 135 135 12 118 59 12 125 62 
13 127 63 13 127 63 13 126 63 12 124 62 12 121 61 12 118 59 11 114 57 11 
110 55 11 105 53 10 100 50 9 95 47 9 89 44 8 83 41 8 76 38 7 69 35 6 62 
31 5 54 27 5 46 23 4 37 18 3 27 14 3 26 13 3 26 13 3 26 13 3 26 13 3 26 
13 3 26 13 141 127 127 141 127 127 140 126 126 140 126 126 140 126 126 
26 23 23 26 23 23 26 23 23 26 23 23 14 141 71 17 175 87 19 186 93 19 191 
95 19 191 95 19 188 94 18 183 92 18 176 88 17 167 84 16 156 78 14 143 72 
13 129 64 11 111 56 9 90 45 7 65 33 3 31 16 133 120 120 133 120 120 133 
119 119 132 119 119 132 119 119 132 119 119 131 118 118 131 118 118 131 
118 118 131 117 117 130 117 117 130 117 117 130 117 117 129 116 116 129 
116 116 129 116 116 128 116 116 128 115 115 128 115 115 
159 143 143 159 143 143 158 143 143 158 142 142 158 142 142 158 142 
142 157 142 142 157 142 142 157 141 141 157 141 141 157 141 141 156 141 
141 156 140 140 156 140 140 155 140 140 155 140 140 155 139 139 155 139 
139 154 139 139 154 139 139 154 139 139 154 138 138 153 138 138 153 138 
138 153 138 138 153 137 137 152 137 137 152 137 137 10 98 49 11 112 56 12 
116 58 12 117 59 12 117 58 12 115 58 11 113 56 11 109 55 11 106 53 10 102 
51 10 97 49 9 92 46 9 87 43 8 81 40 7 75 37 7 68 34 6 61 31 5 54 27 5 46 
23 4 37 19 3 28 14 3 26 13 3 26 13 3 26 13 3 26 13 3 26 13 3 26 13 3 26 
13 26 23 23 26 23 23 26 23 23 26 23 23 26 23 23 26 23 23 26 23 23 26 23 
23 26 23 23 13 130 65 16 165 82 18 176 88 18 181 91 18 182 91 18 179 90 
17 174 87 17 167 84 16 158 79 15 147 74 13 135 67 12 120 60 10 103 51 8 
82 41 6 57 28 3 26 13 136 122 122 135 122 122 135 122 122 135 121 121 
134 121 121 134 121 121 134 120 120 134 120 120 133 120 120 133 120 120 
133 119 119 132 119 119 132 119 119 132 119 119 131 118 118 131 118 118 
131 118 118 130 117 117 130 117 117 
161 145 145 161 145 145 160 144 144 160 144 144 160 144 144 160 144 
144 160 144 144 159 143 143 159 143 143 159 143 143 159 143 143 158 142 
142 158 142 142 158 142 142 157 142 142 157 141 141 157 141 141 157 141 
141 160 128 16 150 120 15 134 107 13 112 90 11 83 66 8 155 140 140 155 
139 139 154 139 139 154 139 139 154 139 139 154 138 138 9 95 47 10 103 52 
11 106 53 11 106 53 11 105 53 10 103 52 10 100 50 10 97 48 9 93 46 9 88 
44 8 84 42 8 78 39 7 72 36 7 66 33 6 60 30 5 53 26 4 45 22 4 37 18 3 28 
14 3 26 13 3 26 13 3 26 13 3 26 13 3 26 13 3 26 13 3 26 13 26 23 23 26 
23 23 26 23 23 26 23 23 26 23 23 26 23 23 26 23 23 26 23 23 26 23 23 26 
23 23 26 23 23 15 150 75 16 163 82 17 169 84 17 170 85 17 168 84 16 163 
81 16 156 78 15 147 74 14 137 68 12 124 62 11 109 55 9 92 46 7 71 35 5 
45 23 3 26 13 138 124 124 137 124 124 137 123 123 137 123 123 137 123 
123 136 123 123 136 122 122 136 122 122 135 122 122 135 122 122 135 121 
121 134 121 121 134 121 121 134 121 121 134 120 120 133 120 120 133 120 
120 133 119 119 132 119 119 
163 146 146 163 146 146 162 146 146 162 146 146 162 146 146 162 145 
145 161 145 145 161 145 145 161 145 145 161 144 144 160 144 144 160 144 
144 160 144 144 159 144 144 159 143 143 159 143 143 189 151 19 185 148 19 
175 140 17 160 128 16 143 114 14 123 98 12 99 80 10 71 57 7 31 25 3 156 
141 141 156 140 140 156 140 140 155 140 140 155 140 140 9 86 43 9 92 46 9 
94 47 9 94 47 9 93 46 9 90 45 9 87 44 8 83 42 8 79 40 7 74 37 7 69 34 6 
63 32 6 57 28 5 50 25 4 43 22 4 35 18 3 27 14 3 26 13 3 26 13 3 26 13 3 
26 13 3 26 13 3 26 13 3 26 13 26 23 23 26 23 23 26 23 23 26 23 23 26 23 
23 26 23 23 26 23 23 26 23 23 26 23 23 26 23 23 26 23 23 26 23 23 13 129 
65 15 147 73 15 154 77 16 155 78 15 154 77 15 149 75 14 143 71 13 134 67 
12 123 62 11 111 55 10 96 48 8 78 39 6 57 28 3 30 15 3 26 13 140 126 126 
139 125 125 139 125 125 139 125 125 139 125 125 138 124 124 138 124 124 
138 124 124 137 124 124 137 123 123 137 123 123 136 123 123 136 123 123 
136 122 122 136 122 122 135 122 122 135 122 122 135 121 121 134 121 121 
164 148 148 164 148 148 164 147 147 164 147 147 163 147 147 163 147 
147 163 147 147 163 146 146 162 146 146 162 146 146 162 146 146 162 145 
145 161 145 145 161 145 145 161 145 145 200 160 20 197 158 20 188 151 19 
175 140 18 160 128 16 143 114 14 123 99 12 101 81 10 76 61 8 45 36 5 26 
20 3 157 142 142 157 141 141 157 141 141 157 141 141 156 141 141 7 74 37 
8 80 40 8 81 41 8 81 40 8 79 39 8 76 38 7 73 36 7 69 34 6 64 32 6 59 29 
5 53 26 5 47 23 4 40 20 3 33 16 3 26 13 3 26 13 3 26 13 3 26 13 3 26 13 
3 26 13 3 26 13 3 26 13 26 23 23 26 23 23 26 23 23 26 23 23 26 23 23 26 
23 23 26 23 23 26 23 23 26 23 23 26 23 23 26 23 23 26 23 23 26 23 23 10 
96 48 12 125 62 13 135 67 14 138 69 14 137 68 13 133 67 13 127 63 12 118 
59 11 108 54 9 95 47 8 80 40 6 61 31 4 39 19 3 26 13 3 26 13 26 23 23 26 
23 23 26 23 23 26 23 23 26 23 23 26 23 23 26 23 23 139 126 126 139 125 
125 139 125 125 139 125 125 138 124 124 138 124 124 138 124 124 137 124 
124 137 123 123 137 123 123 137 123 123 136 123 123 
166 149 149 165 149 149 165 149 149 165 148 148 165 148 148 164 148 
148 164 148 148 164 148 148 164 147 147 163 147 147 163 147 147 163 147 
147 163 146 146 162 146 146 201 161 20 203 162 20 196 157 20 185 148 19 
172 137 17 156 125 16 139 111 14 119 95 12 98 78 10 73 59 7 45 36 5 26 20 
3 159 143 143 159 143 143 158 142 142 158 142 142 158 142 142 157 142 
142 6 59 30 6 65 32 7 66 33 7 66 33 6 64 32 6 61 30 6 57 28 5 52 26 5 47 
24 4 41 21 4 35 18 3 28 14 3 26 13 3 26 13 3 26 13 3 26 13 3 26 13 3 26 
13 3 26 13 3 26 13 26 23 23 26 23 23 26 23 23 26 23 23 26 23 23 26 23 23 
26 23 23 26 23 23 26 23 23 26 23 23 26 23 23 26 23 23 26 23 23 26 23 23 
26 23 23 9 93 47 11 110 55 12 116 58 12 117 58 11 114 57 11 108 54 10 
100 50 9 89 44 8 76 38 6 60 30 4 40 20 3 26 13 3 26 13 26 23 23 26 23 23 
26 23 23 26 23 23 26 23 23 26 23 23 26 23 23 26 23 23 26 23 23 141 127 
127 141 127 127 140 126 126 140 126 126 140 126 126 139 126 126 139 125 
125 139 125 125 139 125 125 138 125 125 138 124 124 
167 150 150 167 150 150 166 150 150 166 150 150 166 149 149 166 149 
149 165 149 149 165 149 149 165 148 148 165 148 148 164 148 148 164 148 
148 164 147 147 164 147 147 202 162 20 199 159 20 190 152 19 194 158 33 
165 132 17 149 119 15 132 105 13 113 90 11 91 73 9 68 54 7 41 32 4 26 20 
3 26 20 3 160 144 144 160 144 144 159 143 143 159 143 143 159 143 143 
158 143 143 4 38 19 5 47 24 5 49 24 5 48 24 5 46 23 4 43 21 4 39 19 3 34 
17 3 28 14 3 26 13 3 26 13 3 26 13 3 26 13 3 26 13 3 26 13 3 26 13 3 26 
13 3 26 13 26 23 23 26 23 23 26 23 23 26 23 23 26 23 23 26 23 23 26 23 
23 26 23 23 26 23 23 26 23 23 26 23 23 26 23 23 26 23 23 26 23 23 26 23 
23 26 23 23 26 23 23 7 74 37 9 87 44 9 91 45 9 90 45 8 85 42 8 77 38 7 
66 33 5 52 26 3 35 17 3 26 13 3 26 13 26 23 23 26 23 23 26 23 23 26 23 
23 26 23 23 26 23 23 26 23 23 26 23 23 26 23 23 26 23 23 142 128 128 142 
128 128 142 128 128 142 127 127 141 127 127 141 127 127 141 127 127 140 
126 126 140 126 126 140 126 126 140 126 126 
168 151 151 168 151 151 168 151 151 167 151 151 167 150 150 167 150 
150 167 150 150 166 150 150 166 149 149 166 149 149 165 149 149 165 149 
149 165 148 148 190 152 19 197 157 20 191 153 19 183 146 19 172 138 19 
156 125 16 140 112 14 123 98 12 104 83 10 82 66 8 59 47 6 32 26 3 26 20 3 
26 20 3 161 145 145 161 145 145 160 144 144 160 144 144 160 144 144 160 
144 144 159 143 143 159 143 143 3 26 13 3 27 14 3 28 14 3 26 13 3 26 13 3 
26 13 3 26 13 3 26 13 3 26 13 3 26 13 3 26 13 3 26 13 3 26 13 3 26 13 26 
23 23 26 23 23 26 23 23 26 23 23 26 23 23 26 23 23 26 23 23 26 23 23 26 
23 23 26 23 23 26 23 23 26 23 23 26 23 23 26 23 23 26 23 23 26 23 23 26 
23 23 26 23 23 150 135 135 150 135 135 4 40 20 5 55 27 6 57 29 5 54 27 5 
47 23 4 36 18 3 26 13 3 26 13 3 26 13 26 23 23 26 23 23 26 23 23 26 23 
23 26 23 23 26 23 23 26 23 23 26 23 23 26 23 23 144 130 130 144 130 130 
144 129 129 144 129 129 143 129 129 143 129 129 143 128 128 143 128 128 
142 128 128 142 128 128 142 128 128 141 127 127 141 127 127 
169 152 152 169 152 152 168 152 152 168 151 151 168 151 151 168 151 
151 167 151 151 167 150 150 167 150 150 167 150 150 166 150 150 166 150 
150 166 149 149 184 147 18 187 150 19 181 145 18 172 137 17 160 128 16 
146 116 15 130 104 13 112 90 11 93 74 9 72 57 7 48 39 5 26 20 3 26 20 3 
26 20 3 162 146 146 162 146 146 161 145 145 161 145 145 161 145 145 161 
145 145 160 144 144 160 144 144 160 144 144 26 23 23 26 23 23 3 26 13 3 
26 13 3 26 13 3 26 13 3 26 13 3 26 13 3 26 13 3 26 13 26 23 23 26 23 23 
26 23 23 26 23 23 26 23 23 26 23 23 26 23 23 26 23 23 26 23 23 26 23 23 
26 23 23 26 23 23 26 23 23 26 23 23 26 23 23 26 23 23 26 23 23 152 137 
137 152 137 137 152 136 136 151 136 136 151 136 136 151 136 136 151 136 
136 150 135 135 3 26 13 3 26 13 3 26 13 3 26 13 3 26 13 26 23 23 26 23 23 
26 23 23 26 23 23 26 23 23 26 23 23 26 23 23 26 23 23 147 132 132 146 
132 132 146 131 131 146 131 131 145 131 131 145 131 131 145 130 130 145 
130 130 144 130 130 144 130 130 144 129 129 144 129 129 143 129 129 143 
129 129 143 129 129 143 128 128 
170 153 153 170 153 153 169 152 152 169 152 152 169 152 152 169 152 
152 168 151 151 168 151 151 168 151 151 168 151 151 167 151 151 167 150 
150 167 150 150 172 138 17 175 140 18 169 135 17 159 128 16 147 118 15 
133 107 13 117 94 12 100 80 10 80 64 8 59 47 6 35 28 4 26 20 3 26 20 3 26 
20 3 163 147 147 163 146 146 162 146 146 162 146 146 162 146 146 162 145 
145 161 145 145 161 145 145 161 145 145 161 144 144 160 144 144 160 144 
144 26 23 23 26 23 23 26 23 23 26 23 23 26 23 23 26 23 23 26 23 23 26 23 
23 26 23 23 26 23 23 26 23 23 26 23 23 26 23 23 26 23 23 26 23 23 26 23 
23 26 23 23 26 23 23 155 139 139 155 139 139 154 139 139 154 139 139 154 
138 138 154 138 138 153 138 138 153 138 138 153 137 137 152 137 137 152 
137 137 152 137 137 152 137 137 151 136 136 151 136 136 151 136 136 151 
136 136 150 135 135 150 135 135 150 135 135 150 135 135 149 134 134 149 
134 134 149 134 134 149 134 134 148 133 133 148 133 133 148 133 133 147 
133 133 147 132 132 147 132 132 147 132 132 146 132 132 146 132 132 146 
131 131 146 131 131 145 131 131 145 131 131 145 130 130 145 130 130 144 
130 130 144 130 130 144 129 129 
171 154 154 170 153 153 170 153 153 170 153 153 170 153 153 169 152 
152 169 152 152 169 152 152 169 152 152 168 152 152 168 151 151 168 151 
151 168 151 151 155 124 15 160 128 16 155 124 15 145 116 15 133 106 13 
119 95 12 103 82 10 85 68 9 66 53 7 44 35 4 26 20 3 26 20 3 26 20 3 26 20 
3 164 147 147 163 147 147 163 147 147 163 147 147 26 23 23 26 23 23 26 
23 23 26 23 23 162 145 145 161 145 145 161 145 145 161 145 145 161 145 
145 160 144 144 160 144 144 160 144 144 160 144 144 159 143 143 159 143 
143 159 143 143 159 143 143 158 142 142 158 142 142 158 142 142 157 142 
142 157 141 141 157 141 141 157 141 141 156 141 141 156 141 141 156 140 
140 156 140 140 155 140 140 155 140 140 155 139 139 155 139 139 154 139 
139 154 139 139 154 138 138 154 138 138 153 138 138 153 138 138 153 137 
137 152 137 137 152 137 137 152 137 137 152 137 137 151 136 136 151 136 
136 151 136 136 151 136 136 150 135 135 150 135 135 150 135 135 150 135 
135 149 134 134 149 134 134 149 134 134 149 134 134 148 134 134 148 133 
133 148 133 133 148 133 133 147 133 133 147 132 132 147 132 132 147 132 
132 146 132 132 146 131 131 146 131 131 146 131 131 145 131 131 145 131 
131 
171 154 154 171 154 154 171 154 154 171 153 153 170 153 153 170 153 
153 170 153 153 170 153 153 169 152 152 169 152 152 169 152 152 169 152 
152 168 151 151 168 151 151 141 113 14 137 110 14 128 103 13 117 93 12 
103 82 10 87 69 9 69 55 7 49 39 5 27 22 3 26 20 3 26 20 3 26 20 3 26 23 
23 26 23 23 26 23 23 26 23 23 26 23 23 26 23 23 26 23 23 26 23 23 26 23 
23 26 23 23 26 23 23 162 146 146 162 146 146 161 145 145 161 145 145 161 
145 145 161 145 145 160 144 144 160 144 144 160 144 144 160 144 144 159 
143 143 159 143 143 159 143 143 159 143 143 158 143 143 158 142 142 158 
142 142 158 142 142 157 142 142 157 141 141 157 141 141 157 141 141 156 
141 141 156 140 140 156 140 140 156 140 140 155 140 140 155 139 139 155 
139 139 154 139 139 154 139 139 154 139 139 154 138 138 153 138 138 153 
138 138 153 138 138 153 137 137 152 137 137 152 137 137 152 137 137 152 
137 137 151 136 136 151 136 136 151 136 136 151 136 136 150 135 135 150 
135 135 150 135 135 150 135 135 149 134 134 149 134 134 149 134 134 149 
134 134 148 134 134 148 133 133 148 133 133 148 133 133 147 133 133 147 
132 132 147 132 132 147 132 132 146 132 132 146 132 132 
172 155 155 172 154 154 171 154 154 171 154 154 171 154 154 171 154 
154 170 153 153 170 153 153 170 153 153 170 153 153 169 152 152 169 152 
152 169 152 152 169 152 152 116 93 12 116 93 12 109 87 11 98 78 10 84 67 
8 68 55 7 50 40 5 30 24 3 26 20 3 26 20 3 26 20 3 26 20 3 26 23 23 26 
23 23 26 23 23 26 23 23 26 23 23 26 23 23 26 23 23 26 23 23 26 23 23 26 
23 23 163 147 147 163 146 146 162 146 146 162 146 146 162 146 146 162 
146 146 161 145 145 161 145 145 161 145 145 161 145 145 160 144 144 160 
144 144 160 144 144 160 144 144 159 143 143 159 143 143 159 143 143 159 
143 143 158 143 143 158 142 142 158 142 142 158 142 142 157 142 142 157 
141 141 157 141 141 157 141 141 156 141 141 156 141 141 156 140 140 156 
140 140 155 140 140 155 140 140 155 139 139 155 139 139 154 139 139 154 
139 139 154 138 138 154 138 138 153 138 138 153 138 138 153 138 138 153 
137 137 152 137 137 152 137 137 152 137 137 152 136 136 151 136 136 151 
136 136 151 136 136 151 136 136 150 135 135 150 135 135 150 135 135 150 
135 135 149 134 134 149 134 134 149 134 134 149 134 134 148 134 134 148 
133 133 148 133 133 148 133 133 147 133 133 147 133 133 
172 155 155 172 155 155 172 155 155 172 155 155 171 154 154 171 154 
154 171 154 154 171 154 154 170 153 153 170 153 153 170 153 153 170 153 
153 170 153 153 169 152 152 169 152 152 88 70 9 85 68 8 75 60 8 62 50 6 
46 37 5 28 22 3 26 20 3 26 20 3 26 20 3 26 20 3 26 23 23 26 23 23 26 23 
23 26 23 23 26 23 23 26 23 23 26 23 23 26 23 23 26 23 23 164 148 148 164 
147 147 164 147 147 163 147 147 163 147 147 163 147 147 163 146 146 162 
146 146 162 146 146 162 146 146 162 145 145 161 145 145 161 145 145 161 
145 145 161 145 145 160 144 144 160 144 144 160 144 144 160 144 144 159 
143 143 159 143 143 159 143 143 159 143 143 158 143 143 158 142 142 158 
142 142 158 142 142 157 142 142 157 141 141 157 141 141 157 141 141 156 
141 141 156 141 141 156 140 140 156 140 140 155 140 140 155 140 140 155 
139 139 155 139 139 154 139 139 154 139 139 154 139 139 154 138 138 154 
138 138 153 138 138 153 138 138 153 138 138 153 137 137 152 137 137 152 
137 137 152 137 137 152 136 136 151 136 136 151 136 136 151 136 136 151 
136 136 150 135 135 150 135 135 150 135 135 150 135 135 149 134 134 149 
134 134 149 134 134 149 134 134 148 134 134 148 133 133 
173 156 156 173 155 155 172 155 155 172 155 155 172 155 155 172 155 
155 171 154 154 171 154 154 171 154 154 171 154 154 171 153 153 170 153 
153 170 153 153 170 153 153 170 153 153 169 152 152 48 39 5 45 36 4 34 27 
3 26 20 3 26 20 3 26 20 3 26 20 3 26 23 23 26 23 23 26 23 23 26 23 23 
26 23 23 26 23 23 26 23 23 26 23 23 165 149 149 165 149 149 165 148 148 
165 148 148 165 148 148 164 148 148 164 148 148 164 147 147 164 147 147 
163 147 147 163 147 147 163 147 147 163 146 146 162 146 146 162 146 146 
162 146 146 162 145 145 161 145 145 161 145 145 161 145 145 161 145 145 
160 144 144 160 144 144 160 144 144 160 144 144 159 143 143 159 143 143 
159 143 143 159 143 143 158 143 143 158 142 142 158 142 142 158 142 142 
157 142 142 157 141 141 157 141 141 157 141 141 156 141 141 156 141 141 
156 140 140 156 140 140 156 140 140 155 140 140 155 140 140 155 139 139 
155 139 139 154 139 139 154 139 139 154 138 138 154 138 138 153 138 138 
153 138 138 153 138 138 153 137 137 152 137 137 152 137 137 152 137 137 
152 137 137 151 136 136 151 136 136 151 136 136 151 136 136 151 135 135 
150 135 135 150 135 135 150 135 135 150 135 135 149 134 134 149 134 134 
173 156 156 173 156 156 173 156 156 173 155 155 172 155 155 172 155 
155 172 155 155 172 155 155 171 154 154 171 154 154 171 154 154 171 154 
154 171 153 153 170 153 153 170 153 153 170 153 153 170 153 153 169 152 
152 26 23 23 26 20 3 26 23 23 26 23 23 26 23 23 26 23 23 26 23 23 26 23 
23 167 151 151 167 150 150 167 150 150 167 150 150 166 150 150 166 149 
149 166 149 149 166 149 149 165 149 149 165 149 149 165 148 148 165 148 
148 164 148 148 164 148 148 164 148 148 164 147 147 163 147 147 163 147 
147 163 147 147 163 146 146 162 146 146 162 146 146 162 146 146 162 146 
146 162 145 145 161 145 145 161 145 145 161 145 145 161 145 145 160 144 
144 160 144 144 160 144 144 160 144 144 159 143 143 159 143 143 159 143 
143 159 143 143 158 143 143 158 142 142 158 142 142 158 142 142 157 142 
142 157 142 142 157 141 141 157 141 141 157 141 141 156 141 141 156 140 
140 156 140 140 156 140 140 155 140 140 155 140 140 155 139 139 155 139 
139 154 139 139 154 139 139 154 139 139 154 138 138 153 138 138 153 138 
138 153 138 138 153 138 138 153 137 137 152 137 137 152 137 137 152 137 
137 152 136 136 151 136 136 151 136 136 151 136 136 151 136 136 150 135 
135 150 135 135 150 135 135 
174 156 156 174 156 156 173 156 156 173 156 156 173 156 156 173 155 
155 172 155 155 172 155 155 172 155 155 172 155 155 171 154 154 171 154 
154 171 154 154 171 154 154 171 153 153 170 153 153 170 153 153 170 153 
153 170 153 153 169 152 152 169 152 152 169 152 152 169 152 152 168 152 
152 168 151 151 168 151 151 168 151 151 168 151 151 167 151 151 167 150 
150 167 150 150 167 150 150 166 150 150 166 149 149 166 149 149 166 149 
149 165 149 149 165 149 149 165 148 148 165 148 148 164 148 148 164 148 
148 164 148 148 164 147 147 164 147 147 163 147 147 163 147 147 163 147 
147 163 146 146 162 146 146 162 146 146 162 146 146 162 145 145 161 145 
145 161 145 145 161 145 145 161 145 145 160 144 144 160 144 144 160 144 
144 160 144 144 160 144 144 159 143 143 159 143 143 159 143 143 159 143 
143 158 143 143 158 142 142 158 142 142 158 142 142 157 142 142 157 142 
142 157 141 141 157 141 141 157 141 141 156 141 141 156 140 140 156 140 
140 156 140 140 155 140 140 155 140 140 155 139 139 155 139 139 154 139 
139 154 139 139 154 139 139 154 138 138 154 138 138 153 138 138 153 138 
138 153 138 138 153 137 137 152 137 137 152 137 137 152 137 137 152 137 
137 152 136 136 151 136 136 151 136 136 151 136 136 
174 157 157 174 157 157 174 156 156 173 156 156 173 156 156 173 156 
156 173 155 155 173 155 155 172 155 155 172 155 155 172 155 155 172 154 
154 171 154 154 171 154 154 171 154 154 171 154 154 171 153 153 170 153 
153 170 153 153 170 153 153 170 153 153 169 152 152 169 152 152 169 152 
152 169 152 152 168 152 152 168 151 151 168 151 151 168 151 151 168 151 
151 167 151 151 167 150 150 167 150 150 167 150 150 166 150 150 166 150 
150 166 149 149 166 149 149 165 149 149 165 149 149 165 148 148 165 148 
148 165 148 148 164 148 148 164 148 148 164 147 147 164 147 147 163 147 
147 163 147 147 163 147 147 163 146 146 162 146 146 162 146 146 162 146 
146 162 146 146 162 145 145 161 145 145 161 145 145 161 145 145 161 145 
145 160 144 144 160 144 144 160 144 144 160 144 144 159 144 144 159 143 
143 159 143 143 159 143 143 159 143 143 158 143 143 158 142 142 158 142 
142 158 142 142 157 142 142 157 141 141 157 141 141 157 141 141 157 141 
141 156 141 141 156 140 140 156 140 140 156 140 140 155 140 140 155 140 
140 155 139 139 155 139 139 155 139 139 154 139 139 154 139 139 154 138 
138 154 138 138 153 138 138 153 138 138 153 138 138 153 137 137 153 137 
137 152 137 137 152 137 137 152 137 137 152 136 136 
174 157 157 174 157 157 174 157 157 174 156 156 174 156 156 173 156 
156 173 156 156 173 156 156 173 155 155 172 155 155 172 155 155 172 155 
155 172 155 155 172 154 154 171 154 154 171 154 154 171 154 154 171 154 
154 170 153 153 170 153 153 170 153 153 170 153 153 170 153 153 169 152 
152 169 152 152 169 152 152 169 152 152 168 152 152 168 151 151 168 151 
151 168 151 151 168 151 151 167 151 151 167 150 150 167 150 150 167 150 
150 166 150 150 166 150 150 166 149 149 166 149 149 165 149 149 165 149 
149 165 149 149 165 148 148 165 148 148 164 148 148 164 148 148 164 148 
148 164 147 147 163 147 147 163 147 147 163 147 147 163 146 146 163 146 
146 162 146 146 162 146 146 162 146 146 162 145 145 161 145 145 161 145 
145 161 145 145 161 145 145 161 144 144 160 144 144 160 144 144 160 144 
144 160 144 144 159 143 143 159 143 143 159 143 143 159 143 143 159 143 
143 158 142 142 158 142 142 158 142 142 158 142 142 157 142 142 157 141 
141 157 141 141 157 141 141 157 141 141 156 141 141 156 140 140 156 140 
140 156 140 140 155 140 140 155 140 140 155 139 139 155 139 139 155 139 
139 154 139 139 154 139 139 154 139 139 154 138 138 153 138 138 153 138 
138 153 138 138 153 138 138 153 137 137 152 137 137 
